G04 #@! TF.GenerationSoftware,KiCad,Pcbnew,(5.1.10)-1*
G04 #@! TF.CreationDate,2021-09-22T21:53:00-04:00*
G04 #@! TF.ProjectId,rf-vga,72662d76-6761-42e6-9b69-6361645f7063,rev?*
G04 #@! TF.SameCoordinates,Original*
G04 #@! TF.FileFunction,Legend,Bot*
G04 #@! TF.FilePolarity,Positive*
%FSLAX46Y46*%
G04 Gerber Fmt 4.6, Leading zero omitted, Abs format (unit mm)*
G04 Created by KiCad (PCBNEW (5.1.10)-1) date 2021-09-22 21:53:00*
%MOMM*%
%LPD*%
G01*
G04 APERTURE LIST*
%ADD10C,0.010000*%
%ADD11C,0.120000*%
%ADD12C,0.150000*%
G04 APERTURE END LIST*
D10*
G36*
X208207905Y-87728826D02*
G01*
X208126244Y-87800646D01*
X208110666Y-87968667D01*
X208127186Y-88139320D01*
X208210976Y-88209314D01*
X208407000Y-88222667D01*
X208606095Y-88208507D01*
X208687755Y-88136687D01*
X208703333Y-87968667D01*
X208686814Y-87798014D01*
X208603024Y-87728019D01*
X208407000Y-87714667D01*
X208207905Y-87728826D01*
G37*
X208207905Y-87728826D02*
X208126244Y-87800646D01*
X208110666Y-87968667D01*
X208127186Y-88139320D01*
X208210976Y-88209314D01*
X208407000Y-88222667D01*
X208606095Y-88208507D01*
X208687755Y-88136687D01*
X208703333Y-87968667D01*
X208686814Y-87798014D01*
X208603024Y-87728019D01*
X208407000Y-87714667D01*
X208207905Y-87728826D01*
G36*
X212271905Y-87728826D02*
G01*
X212190244Y-87800646D01*
X212174666Y-87968667D01*
X212191186Y-88139320D01*
X212274976Y-88209314D01*
X212471000Y-88222667D01*
X212670095Y-88208507D01*
X212751755Y-88136687D01*
X212767333Y-87968667D01*
X212750814Y-87798014D01*
X212667024Y-87728019D01*
X212471000Y-87714667D01*
X212271905Y-87728826D01*
G37*
X212271905Y-87728826D02*
X212190244Y-87800646D01*
X212174666Y-87968667D01*
X212191186Y-88139320D01*
X212274976Y-88209314D01*
X212471000Y-88222667D01*
X212670095Y-88208507D01*
X212751755Y-88136687D01*
X212767333Y-87968667D01*
X212750814Y-87798014D01*
X212667024Y-87728019D01*
X212471000Y-87714667D01*
X212271905Y-87728826D01*
G36*
X186317720Y-87727661D02*
G01*
X185858057Y-87758310D01*
X185538139Y-87820697D01*
X185329177Y-87930124D01*
X185202381Y-88101895D01*
X185128964Y-88351313D01*
X185127225Y-88360475D01*
X185115046Y-88660229D01*
X185174112Y-88951126D01*
X185287024Y-89177771D01*
X185415956Y-89279717D01*
X185501447Y-89323549D01*
X185486847Y-89397162D01*
X185360381Y-89539051D01*
X185326059Y-89573583D01*
X185134875Y-89875176D01*
X185065327Y-90238649D01*
X185119166Y-90606290D01*
X185285570Y-90906112D01*
X185391180Y-91017023D01*
X185504202Y-91088562D01*
X185664854Y-91131292D01*
X185913350Y-91155778D01*
X186289906Y-91172584D01*
X186301570Y-91173006D01*
X187113333Y-91202346D01*
X187113333Y-89662000D01*
X186605333Y-89662000D01*
X186605333Y-90678000D01*
X186230381Y-90678000D01*
X185931054Y-90644326D01*
X185731784Y-90553762D01*
X185722381Y-90544953D01*
X185609835Y-90325252D01*
X185603816Y-90043433D01*
X185676979Y-89825767D01*
X185774511Y-89721292D01*
X185952323Y-89672060D01*
X186184979Y-89662000D01*
X186605333Y-89662000D01*
X187113333Y-89662000D01*
X187113333Y-88222667D01*
X186605333Y-88222667D01*
X186605333Y-89154000D01*
X186241266Y-89154000D01*
X185991779Y-89131655D01*
X185808765Y-89075776D01*
X185775600Y-89052400D01*
X185707899Y-88904669D01*
X185674688Y-88675171D01*
X185674000Y-88638125D01*
X185697580Y-88419018D01*
X185790952Y-88292450D01*
X185988064Y-88234900D01*
X186273591Y-88222667D01*
X186605333Y-88222667D01*
X187113333Y-88222667D01*
X187113333Y-87698321D01*
X186317720Y-87727661D01*
G37*
X186317720Y-87727661D02*
X185858057Y-87758310D01*
X185538139Y-87820697D01*
X185329177Y-87930124D01*
X185202381Y-88101895D01*
X185128964Y-88351313D01*
X185127225Y-88360475D01*
X185115046Y-88660229D01*
X185174112Y-88951126D01*
X185287024Y-89177771D01*
X185415956Y-89279717D01*
X185501447Y-89323549D01*
X185486847Y-89397162D01*
X185360381Y-89539051D01*
X185326059Y-89573583D01*
X185134875Y-89875176D01*
X185065327Y-90238649D01*
X185119166Y-90606290D01*
X185285570Y-90906112D01*
X185391180Y-91017023D01*
X185504202Y-91088562D01*
X185664854Y-91131292D01*
X185913350Y-91155778D01*
X186289906Y-91172584D01*
X186301570Y-91173006D01*
X187113333Y-91202346D01*
X187113333Y-89662000D01*
X186605333Y-89662000D01*
X186605333Y-90678000D01*
X186230381Y-90678000D01*
X185931054Y-90644326D01*
X185731784Y-90553762D01*
X185722381Y-90544953D01*
X185609835Y-90325252D01*
X185603816Y-90043433D01*
X185676979Y-89825767D01*
X185774511Y-89721292D01*
X185952323Y-89672060D01*
X186184979Y-89662000D01*
X186605333Y-89662000D01*
X187113333Y-89662000D01*
X187113333Y-88222667D01*
X186605333Y-88222667D01*
X186605333Y-89154000D01*
X186241266Y-89154000D01*
X185991779Y-89131655D01*
X185808765Y-89075776D01*
X185775600Y-89052400D01*
X185707899Y-88904669D01*
X185674688Y-88675171D01*
X185674000Y-88638125D01*
X185697580Y-88419018D01*
X185790952Y-88292450D01*
X185988064Y-88234900D01*
X186273591Y-88222667D01*
X186605333Y-88222667D01*
X187113333Y-88222667D01*
X187113333Y-87698321D01*
X186317720Y-87727661D01*
G36*
X187790666Y-88222667D02*
G01*
X188806666Y-88222667D01*
X188806666Y-88562947D01*
X188798399Y-88778002D01*
X188753650Y-88864073D01*
X188642496Y-88861382D01*
X188593356Y-88849689D01*
X188300976Y-88849507D01*
X188020365Y-88966141D01*
X187821142Y-89168254D01*
X187801649Y-89206040D01*
X187752839Y-89396925D01*
X187718373Y-89691634D01*
X187706000Y-90010217D01*
X187734315Y-90491072D01*
X187828521Y-90829756D01*
X188002507Y-91045250D01*
X188270162Y-91156533D01*
X188564453Y-91183307D01*
X188921595Y-91141742D01*
X189137121Y-91037834D01*
X189265260Y-90881222D01*
X189372588Y-90667728D01*
X189435348Y-90459076D01*
X189429780Y-90316988D01*
X189419817Y-90303373D01*
X189256323Y-90243072D01*
X189058385Y-90290425D01*
X188900202Y-90423202D01*
X188875928Y-90466334D01*
X188722960Y-90634940D01*
X188514780Y-90675749D01*
X188315600Y-90576400D01*
X188259961Y-90440525D01*
X188223057Y-90196645D01*
X188214000Y-89986712D01*
X188224331Y-89695559D01*
X188264886Y-89525320D01*
X188350005Y-89428324D01*
X188389011Y-89404962D01*
X188565075Y-89358199D01*
X188754112Y-89435959D01*
X188767032Y-89444316D01*
X188997903Y-89545718D01*
X189184688Y-89577334D01*
X189399333Y-89577334D01*
X189399333Y-87714667D01*
X187790666Y-87714667D01*
X187790666Y-88222667D01*
G37*
X187790666Y-88222667D02*
X188806666Y-88222667D01*
X188806666Y-88562947D01*
X188798399Y-88778002D01*
X188753650Y-88864073D01*
X188642496Y-88861382D01*
X188593356Y-88849689D01*
X188300976Y-88849507D01*
X188020365Y-88966141D01*
X187821142Y-89168254D01*
X187801649Y-89206040D01*
X187752839Y-89396925D01*
X187718373Y-89691634D01*
X187706000Y-90010217D01*
X187734315Y-90491072D01*
X187828521Y-90829756D01*
X188002507Y-91045250D01*
X188270162Y-91156533D01*
X188564453Y-91183307D01*
X188921595Y-91141742D01*
X189137121Y-91037834D01*
X189265260Y-90881222D01*
X189372588Y-90667728D01*
X189435348Y-90459076D01*
X189429780Y-90316988D01*
X189419817Y-90303373D01*
X189256323Y-90243072D01*
X189058385Y-90290425D01*
X188900202Y-90423202D01*
X188875928Y-90466334D01*
X188722960Y-90634940D01*
X188514780Y-90675749D01*
X188315600Y-90576400D01*
X188259961Y-90440525D01*
X188223057Y-90196645D01*
X188214000Y-89986712D01*
X188224331Y-89695559D01*
X188264886Y-89525320D01*
X188350005Y-89428324D01*
X188389011Y-89404962D01*
X188565075Y-89358199D01*
X188754112Y-89435959D01*
X188767032Y-89444316D01*
X188997903Y-89545718D01*
X189184688Y-89577334D01*
X189399333Y-89577334D01*
X189399333Y-87714667D01*
X187790666Y-87714667D01*
X187790666Y-88222667D01*
G36*
X190576165Y-87716956D02*
G01*
X190264057Y-87880558D01*
X190064142Y-88161114D01*
X189992031Y-88536490D01*
X189992000Y-88545198D01*
X190045053Y-88807073D01*
X190197658Y-89177689D01*
X190439983Y-89636523D01*
X190762198Y-90163052D01*
X190780477Y-90191167D01*
X191097870Y-90678000D01*
X189992000Y-90678000D01*
X189992000Y-91186000D01*
X191770000Y-91186000D01*
X191770000Y-90934159D01*
X191717170Y-90724681D01*
X191557148Y-90399082D01*
X191287639Y-89952907D01*
X191173088Y-89776639D01*
X190918292Y-89382026D01*
X190748204Y-89094149D01*
X190648384Y-88882470D01*
X190604394Y-88716453D01*
X190601588Y-88567980D01*
X190633871Y-88365289D01*
X190715114Y-88281207D01*
X190881000Y-88265000D01*
X191103854Y-88313850D01*
X191218577Y-88455500D01*
X191340748Y-88594460D01*
X191511930Y-88654177D01*
X191672983Y-88631955D01*
X191764766Y-88525096D01*
X191770000Y-88480651D01*
X191695709Y-88142489D01*
X191493164Y-87882769D01*
X191192857Y-87720996D01*
X190825282Y-87676676D01*
X190576165Y-87716956D01*
G37*
X190576165Y-87716956D02*
X190264057Y-87880558D01*
X190064142Y-88161114D01*
X189992031Y-88536490D01*
X189992000Y-88545198D01*
X190045053Y-88807073D01*
X190197658Y-89177689D01*
X190439983Y-89636523D01*
X190762198Y-90163052D01*
X190780477Y-90191167D01*
X191097870Y-90678000D01*
X189992000Y-90678000D01*
X189992000Y-91186000D01*
X191770000Y-91186000D01*
X191770000Y-90934159D01*
X191717170Y-90724681D01*
X191557148Y-90399082D01*
X191287639Y-89952907D01*
X191173088Y-89776639D01*
X190918292Y-89382026D01*
X190748204Y-89094149D01*
X190648384Y-88882470D01*
X190604394Y-88716453D01*
X190601588Y-88567980D01*
X190633871Y-88365289D01*
X190715114Y-88281207D01*
X190881000Y-88265000D01*
X191103854Y-88313850D01*
X191218577Y-88455500D01*
X191340748Y-88594460D01*
X191511930Y-88654177D01*
X191672983Y-88631955D01*
X191764766Y-88525096D01*
X191770000Y-88480651D01*
X191695709Y-88142489D01*
X191493164Y-87882769D01*
X191192857Y-87720996D01*
X190825282Y-87676676D01*
X190576165Y-87716956D01*
G36*
X192788026Y-87733808D02*
G01*
X192702086Y-87777552D01*
X192701333Y-87783399D01*
X192734454Y-87892596D01*
X192822613Y-88113715D01*
X192949006Y-88405342D01*
X192995529Y-88508430D01*
X193289725Y-89154000D01*
X193008651Y-89154000D01*
X192716915Y-89229781D01*
X192494440Y-89440657D01*
X192354457Y-89761927D01*
X192310197Y-90168893D01*
X192331208Y-90418670D01*
X192441107Y-90799972D01*
X192646549Y-91045223D01*
X192961915Y-91166988D01*
X193209527Y-91186000D01*
X193496997Y-91169001D01*
X193687412Y-91101568D01*
X193848376Y-90961970D01*
X193960126Y-90819209D01*
X194022449Y-90659393D01*
X194048444Y-90429352D01*
X194051367Y-90170000D01*
X193548000Y-90170000D01*
X193501072Y-90469727D01*
X193358117Y-90631572D01*
X193125261Y-90660472D01*
X192973052Y-90609947D01*
X192902946Y-90471439D01*
X192885595Y-90348785D01*
X192885272Y-89974258D01*
X192969491Y-89745165D01*
X193137944Y-89662305D01*
X193151680Y-89662000D01*
X193385120Y-89721250D01*
X193514334Y-89905612D01*
X193548000Y-90170000D01*
X194051367Y-90170000D01*
X194051745Y-90136470D01*
X194041822Y-89848711D01*
X194007799Y-89600598D01*
X193936422Y-89343415D01*
X193814436Y-89028446D01*
X193646225Y-88646000D01*
X193470562Y-88262778D01*
X193342204Y-88007695D01*
X193241129Y-87853515D01*
X193147313Y-87773003D01*
X193040736Y-87738926D01*
X192973147Y-87730469D01*
X192788026Y-87733808D01*
G37*
X192788026Y-87733808D02*
X192702086Y-87777552D01*
X192701333Y-87783399D01*
X192734454Y-87892596D01*
X192822613Y-88113715D01*
X192949006Y-88405342D01*
X192995529Y-88508430D01*
X193289725Y-89154000D01*
X193008651Y-89154000D01*
X192716915Y-89229781D01*
X192494440Y-89440657D01*
X192354457Y-89761927D01*
X192310197Y-90168893D01*
X192331208Y-90418670D01*
X192441107Y-90799972D01*
X192646549Y-91045223D01*
X192961915Y-91166988D01*
X193209527Y-91186000D01*
X193496997Y-91169001D01*
X193687412Y-91101568D01*
X193848376Y-90961970D01*
X193960126Y-90819209D01*
X194022449Y-90659393D01*
X194048444Y-90429352D01*
X194051367Y-90170000D01*
X193548000Y-90170000D01*
X193501072Y-90469727D01*
X193358117Y-90631572D01*
X193125261Y-90660472D01*
X192973052Y-90609947D01*
X192902946Y-90471439D01*
X192885595Y-90348785D01*
X192885272Y-89974258D01*
X192969491Y-89745165D01*
X193137944Y-89662305D01*
X193151680Y-89662000D01*
X193385120Y-89721250D01*
X193514334Y-89905612D01*
X193548000Y-90170000D01*
X194051367Y-90170000D01*
X194051745Y-90136470D01*
X194041822Y-89848711D01*
X194007799Y-89600598D01*
X193936422Y-89343415D01*
X193814436Y-89028446D01*
X193646225Y-88646000D01*
X193470562Y-88262778D01*
X193342204Y-88007695D01*
X193241129Y-87853515D01*
X193147313Y-87773003D01*
X193040736Y-87738926D01*
X192973147Y-87730469D01*
X192788026Y-87733808D01*
G36*
X195128715Y-87756074D02*
G01*
X194832867Y-87949865D01*
X194633880Y-88237777D01*
X194564316Y-88582500D01*
X194590584Y-88752611D01*
X194705632Y-88810163D01*
X194796833Y-88813501D01*
X194986286Y-88768599D01*
X195121085Y-88609368D01*
X195156666Y-88538334D01*
X195326826Y-88321370D01*
X195549083Y-88231855D01*
X195776614Y-88282153D01*
X195865689Y-88351118D01*
X195928446Y-88446748D01*
X195969553Y-88604590D01*
X195992929Y-88855739D01*
X196002492Y-89231290D01*
X196003333Y-89443259D01*
X195999992Y-89868441D01*
X195986671Y-90157933D01*
X195958422Y-90345302D01*
X195910296Y-90464117D01*
X195840982Y-90544681D01*
X195610610Y-90662811D01*
X195384136Y-90623509D01*
X195195888Y-90435924D01*
X195156666Y-90362333D01*
X195027256Y-90163399D01*
X194858735Y-90090678D01*
X194796833Y-90087166D01*
X194625763Y-90113120D01*
X194567411Y-90226833D01*
X194564000Y-90302566D01*
X194635531Y-90676800D01*
X194841327Y-90956176D01*
X195168189Y-91129075D01*
X195565346Y-91184118D01*
X195856859Y-91170403D01*
X196052626Y-91109645D01*
X196224776Y-90976973D01*
X196256594Y-90945765D01*
X196410945Y-90742814D01*
X196515524Y-90477757D01*
X196575057Y-90123859D01*
X196594268Y-89654382D01*
X196580954Y-89110187D01*
X196540712Y-88614359D01*
X196460278Y-88256614D01*
X196324696Y-88007597D01*
X196119005Y-87837949D01*
X195880284Y-87735028D01*
X195488748Y-87677446D01*
X195128715Y-87756074D01*
G37*
X195128715Y-87756074D02*
X194832867Y-87949865D01*
X194633880Y-88237777D01*
X194564316Y-88582500D01*
X194590584Y-88752611D01*
X194705632Y-88810163D01*
X194796833Y-88813501D01*
X194986286Y-88768599D01*
X195121085Y-88609368D01*
X195156666Y-88538334D01*
X195326826Y-88321370D01*
X195549083Y-88231855D01*
X195776614Y-88282153D01*
X195865689Y-88351118D01*
X195928446Y-88446748D01*
X195969553Y-88604590D01*
X195992929Y-88855739D01*
X196002492Y-89231290D01*
X196003333Y-89443259D01*
X195999992Y-89868441D01*
X195986671Y-90157933D01*
X195958422Y-90345302D01*
X195910296Y-90464117D01*
X195840982Y-90544681D01*
X195610610Y-90662811D01*
X195384136Y-90623509D01*
X195195888Y-90435924D01*
X195156666Y-90362333D01*
X195027256Y-90163399D01*
X194858735Y-90090678D01*
X194796833Y-90087166D01*
X194625763Y-90113120D01*
X194567411Y-90226833D01*
X194564000Y-90302566D01*
X194635531Y-90676800D01*
X194841327Y-90956176D01*
X195168189Y-91129075D01*
X195565346Y-91184118D01*
X195856859Y-91170403D01*
X196052626Y-91109645D01*
X196224776Y-90976973D01*
X196256594Y-90945765D01*
X196410945Y-90742814D01*
X196515524Y-90477757D01*
X196575057Y-90123859D01*
X196594268Y-89654382D01*
X196580954Y-89110187D01*
X196540712Y-88614359D01*
X196460278Y-88256614D01*
X196324696Y-88007597D01*
X196119005Y-87837949D01*
X195880284Y-87735028D01*
X195488748Y-87677446D01*
X195128715Y-87756074D01*
G36*
X199401318Y-87720743D02*
G01*
X199306871Y-87759479D01*
X199229460Y-87861641D01*
X199147435Y-88057992D01*
X199039146Y-88379296D01*
X199015348Y-88452302D01*
X198888715Y-88829499D01*
X198761777Y-89188269D01*
X198656494Y-89467093D01*
X198630512Y-89530448D01*
X198485896Y-89870959D01*
X198126602Y-88792813D01*
X197767309Y-87714667D01*
X197188666Y-87714667D01*
X197188666Y-91186000D01*
X197691752Y-91186000D01*
X197739000Y-88942334D01*
X198032171Y-89810167D01*
X198168111Y-90199646D01*
X198270956Y-90453928D01*
X198355659Y-90600189D01*
X198437167Y-90665608D01*
X198509568Y-90678000D01*
X198601466Y-90656484D01*
X198684523Y-90573486D01*
X198774457Y-90401331D01*
X198886987Y-90112342D01*
X198978397Y-89852500D01*
X199263000Y-89027000D01*
X199310392Y-91186000D01*
X199813333Y-91186000D01*
X199813333Y-87714667D01*
X199534451Y-87714667D01*
X199401318Y-87720743D01*
G37*
X199401318Y-87720743D02*
X199306871Y-87759479D01*
X199229460Y-87861641D01*
X199147435Y-88057992D01*
X199039146Y-88379296D01*
X199015348Y-88452302D01*
X198888715Y-88829499D01*
X198761777Y-89188269D01*
X198656494Y-89467093D01*
X198630512Y-89530448D01*
X198485896Y-89870959D01*
X198126602Y-88792813D01*
X197767309Y-87714667D01*
X197188666Y-87714667D01*
X197188666Y-91186000D01*
X197691752Y-91186000D01*
X197739000Y-88942334D01*
X198032171Y-89810167D01*
X198168111Y-90199646D01*
X198270956Y-90453928D01*
X198355659Y-90600189D01*
X198437167Y-90665608D01*
X198509568Y-90678000D01*
X198601466Y-90656484D01*
X198684523Y-90573486D01*
X198774457Y-90401331D01*
X198886987Y-90112342D01*
X198978397Y-89852500D01*
X199263000Y-89027000D01*
X199310392Y-91186000D01*
X199813333Y-91186000D01*
X199813333Y-87714667D01*
X199534451Y-87714667D01*
X199401318Y-87720743D01*
G36*
X202099333Y-89238667D02*
G01*
X201083333Y-89238667D01*
X201083333Y-87714667D01*
X200575333Y-87714667D01*
X200575333Y-91186000D01*
X201083333Y-91186000D01*
X201083333Y-89746667D01*
X202099333Y-89746667D01*
X202099333Y-91186000D01*
X202607333Y-91186000D01*
X202607333Y-87714667D01*
X202099333Y-87714667D01*
X202099333Y-89238667D01*
G37*
X202099333Y-89238667D02*
X201083333Y-89238667D01*
X201083333Y-87714667D01*
X200575333Y-87714667D01*
X200575333Y-91186000D01*
X201083333Y-91186000D01*
X201083333Y-89746667D01*
X202099333Y-89746667D01*
X202099333Y-91186000D01*
X202607333Y-91186000D01*
X202607333Y-87714667D01*
X202099333Y-87714667D01*
X202099333Y-89238667D01*
G36*
X204819957Y-88746126D02*
G01*
X204556395Y-88925465D01*
X204390939Y-89235291D01*
X204317331Y-89658251D01*
X204280314Y-90170000D01*
X204925490Y-90170000D01*
X205253446Y-90173959D01*
X205446914Y-90191848D01*
X205540668Y-90232691D01*
X205569482Y-90305508D01*
X205570666Y-90337382D01*
X205504553Y-90501948D01*
X205359000Y-90643453D01*
X205194433Y-90732570D01*
X205064643Y-90719037D01*
X204931807Y-90640924D01*
X204718086Y-90555734D01*
X204523301Y-90563291D01*
X204401737Y-90655142D01*
X204385333Y-90726039D01*
X204459505Y-90933183D01*
X204654179Y-91084354D01*
X204927596Y-91171999D01*
X205237996Y-91188567D01*
X205543619Y-91126505D01*
X205798779Y-90981664D01*
X205909017Y-90878399D01*
X205978504Y-90771974D01*
X206016626Y-90622330D01*
X206032766Y-90389406D01*
X206036308Y-90033140D01*
X206036333Y-89967588D01*
X206033695Y-89614101D01*
X205570666Y-89614101D01*
X205526294Y-89700357D01*
X205370739Y-89740158D01*
X205189666Y-89746667D01*
X204953795Y-89737134D01*
X204842056Y-89693264D01*
X204809635Y-89592152D01*
X204808666Y-89551934D01*
X204876219Y-89306262D01*
X205065332Y-89172519D01*
X205203621Y-89154000D01*
X205397779Y-89229387D01*
X205533197Y-89419981D01*
X205570666Y-89614101D01*
X206033695Y-89614101D01*
X206033499Y-89587881D01*
X206018774Y-89335949D01*
X205982821Y-89170254D01*
X205916303Y-89049258D01*
X205809887Y-88931421D01*
X205801576Y-88923091D01*
X205593818Y-88760967D01*
X205355563Y-88695376D01*
X205189666Y-88688334D01*
X204819957Y-88746126D01*
G37*
X204819957Y-88746126D02*
X204556395Y-88925465D01*
X204390939Y-89235291D01*
X204317331Y-89658251D01*
X204280314Y-90170000D01*
X204925490Y-90170000D01*
X205253446Y-90173959D01*
X205446914Y-90191848D01*
X205540668Y-90232691D01*
X205569482Y-90305508D01*
X205570666Y-90337382D01*
X205504553Y-90501948D01*
X205359000Y-90643453D01*
X205194433Y-90732570D01*
X205064643Y-90719037D01*
X204931807Y-90640924D01*
X204718086Y-90555734D01*
X204523301Y-90563291D01*
X204401737Y-90655142D01*
X204385333Y-90726039D01*
X204459505Y-90933183D01*
X204654179Y-91084354D01*
X204927596Y-91171999D01*
X205237996Y-91188567D01*
X205543619Y-91126505D01*
X205798779Y-90981664D01*
X205909017Y-90878399D01*
X205978504Y-90771974D01*
X206016626Y-90622330D01*
X206032766Y-90389406D01*
X206036308Y-90033140D01*
X206036333Y-89967588D01*
X206033695Y-89614101D01*
X205570666Y-89614101D01*
X205526294Y-89700357D01*
X205370739Y-89740158D01*
X205189666Y-89746667D01*
X204953795Y-89737134D01*
X204842056Y-89693264D01*
X204809635Y-89592152D01*
X204808666Y-89551934D01*
X204876219Y-89306262D01*
X205065332Y-89172519D01*
X205203621Y-89154000D01*
X205397779Y-89229387D01*
X205533197Y-89419981D01*
X205570666Y-89614101D01*
X206033695Y-89614101D01*
X206033499Y-89587881D01*
X206018774Y-89335949D01*
X205982821Y-89170254D01*
X205916303Y-89049258D01*
X205809887Y-88931421D01*
X205801576Y-88923091D01*
X205593818Y-88760967D01*
X205355563Y-88695376D01*
X205189666Y-88688334D01*
X204819957Y-88746126D01*
G36*
X207039586Y-87976800D02*
G01*
X206953366Y-88031923D01*
X206927161Y-88180120D01*
X206925333Y-88349667D01*
X206914254Y-88587762D01*
X206868248Y-88700350D01*
X206768164Y-88730521D01*
X206756000Y-88730667D01*
X206623215Y-88780276D01*
X206586666Y-88942334D01*
X206626353Y-89108315D01*
X206756000Y-89154000D01*
X206836452Y-89166733D01*
X206886444Y-89226416D01*
X206913137Y-89365280D01*
X206923693Y-89615553D01*
X206925333Y-89916000D01*
X206922504Y-90278035D01*
X206909241Y-90502998D01*
X206878382Y-90623116D01*
X206822766Y-90670621D01*
X206756000Y-90678000D01*
X206632053Y-90717916D01*
X206588413Y-90866433D01*
X206586666Y-90932000D01*
X206605071Y-91106936D01*
X206695460Y-91174867D01*
X206861833Y-91184704D01*
X207081990Y-91165781D01*
X207228954Y-91121993D01*
X207230158Y-91121204D01*
X207369028Y-90967230D01*
X207459552Y-90710372D01*
X207507161Y-90328000D01*
X207518000Y-89921566D01*
X207522892Y-89548266D01*
X207540754Y-89315236D01*
X207576360Y-89193612D01*
X207634486Y-89154529D01*
X207645000Y-89154000D01*
X207747143Y-89080399D01*
X207772000Y-88942334D01*
X207727839Y-88772095D01*
X207645000Y-88730667D01*
X207561292Y-88680805D01*
X207523164Y-88511264D01*
X207518000Y-88349667D01*
X207511674Y-88115564D01*
X207468800Y-88004709D01*
X207353536Y-87971017D01*
X207221666Y-87968667D01*
X207039586Y-87976800D01*
G37*
X207039586Y-87976800D02*
X206953366Y-88031923D01*
X206927161Y-88180120D01*
X206925333Y-88349667D01*
X206914254Y-88587762D01*
X206868248Y-88700350D01*
X206768164Y-88730521D01*
X206756000Y-88730667D01*
X206623215Y-88780276D01*
X206586666Y-88942334D01*
X206626353Y-89108315D01*
X206756000Y-89154000D01*
X206836452Y-89166733D01*
X206886444Y-89226416D01*
X206913137Y-89365280D01*
X206923693Y-89615553D01*
X206925333Y-89916000D01*
X206922504Y-90278035D01*
X206909241Y-90502998D01*
X206878382Y-90623116D01*
X206822766Y-90670621D01*
X206756000Y-90678000D01*
X206632053Y-90717916D01*
X206588413Y-90866433D01*
X206586666Y-90932000D01*
X206605071Y-91106936D01*
X206695460Y-91174867D01*
X206861833Y-91184704D01*
X207081990Y-91165781D01*
X207228954Y-91121993D01*
X207230158Y-91121204D01*
X207369028Y-90967230D01*
X207459552Y-90710372D01*
X207507161Y-90328000D01*
X207518000Y-89921566D01*
X207522892Y-89548266D01*
X207540754Y-89315236D01*
X207576360Y-89193612D01*
X207634486Y-89154529D01*
X207645000Y-89154000D01*
X207747143Y-89080399D01*
X207772000Y-88942334D01*
X207727839Y-88772095D01*
X207645000Y-88730667D01*
X207561292Y-88680805D01*
X207523164Y-88511264D01*
X207518000Y-88349667D01*
X207511674Y-88115564D01*
X207468800Y-88004709D01*
X207353536Y-87971017D01*
X207221666Y-87968667D01*
X207039586Y-87976800D01*
G36*
X208110666Y-91186000D02*
G01*
X208703333Y-91186000D01*
X208703333Y-88730667D01*
X208110666Y-88730667D01*
X208110666Y-91186000D01*
G37*
X208110666Y-91186000D02*
X208703333Y-91186000D01*
X208703333Y-88730667D01*
X208110666Y-88730667D01*
X208110666Y-91186000D01*
G36*
X209579586Y-87976800D02*
G01*
X209493366Y-88031923D01*
X209467161Y-88180120D01*
X209465333Y-88349667D01*
X209454254Y-88587762D01*
X209408248Y-88700350D01*
X209308164Y-88730521D01*
X209296000Y-88730667D01*
X209163215Y-88780276D01*
X209126666Y-88942334D01*
X209166353Y-89108315D01*
X209296000Y-89154000D01*
X209376452Y-89166733D01*
X209426444Y-89226416D01*
X209453137Y-89365280D01*
X209463693Y-89615553D01*
X209465333Y-89916000D01*
X209462504Y-90278035D01*
X209449241Y-90502998D01*
X209418382Y-90623116D01*
X209362766Y-90670621D01*
X209296000Y-90678000D01*
X209172053Y-90717916D01*
X209128413Y-90866433D01*
X209126666Y-90932000D01*
X209145071Y-91106936D01*
X209235460Y-91174867D01*
X209401833Y-91184704D01*
X209621990Y-91165781D01*
X209768954Y-91121993D01*
X209770158Y-91121204D01*
X209909028Y-90967230D01*
X209999552Y-90710372D01*
X210047161Y-90328000D01*
X210058000Y-89921566D01*
X210062892Y-89548266D01*
X210080754Y-89315236D01*
X210116360Y-89193612D01*
X210174486Y-89154529D01*
X210185000Y-89154000D01*
X210287143Y-89080399D01*
X210312000Y-88942334D01*
X210267839Y-88772095D01*
X210185000Y-88730667D01*
X210101292Y-88680805D01*
X210063164Y-88511264D01*
X210058000Y-88349667D01*
X210051674Y-88115564D01*
X210008800Y-88004709D01*
X209893536Y-87971017D01*
X209761666Y-87968667D01*
X209579586Y-87976800D01*
G37*
X209579586Y-87976800D02*
X209493366Y-88031923D01*
X209467161Y-88180120D01*
X209465333Y-88349667D01*
X209454254Y-88587762D01*
X209408248Y-88700350D01*
X209308164Y-88730521D01*
X209296000Y-88730667D01*
X209163215Y-88780276D01*
X209126666Y-88942334D01*
X209166353Y-89108315D01*
X209296000Y-89154000D01*
X209376452Y-89166733D01*
X209426444Y-89226416D01*
X209453137Y-89365280D01*
X209463693Y-89615553D01*
X209465333Y-89916000D01*
X209462504Y-90278035D01*
X209449241Y-90502998D01*
X209418382Y-90623116D01*
X209362766Y-90670621D01*
X209296000Y-90678000D01*
X209172053Y-90717916D01*
X209128413Y-90866433D01*
X209126666Y-90932000D01*
X209145071Y-91106936D01*
X209235460Y-91174867D01*
X209401833Y-91184704D01*
X209621990Y-91165781D01*
X209768954Y-91121993D01*
X209770158Y-91121204D01*
X209909028Y-90967230D01*
X209999552Y-90710372D01*
X210047161Y-90328000D01*
X210058000Y-89921566D01*
X210062892Y-89548266D01*
X210080754Y-89315236D01*
X210116360Y-89193612D01*
X210174486Y-89154529D01*
X210185000Y-89154000D01*
X210287143Y-89080399D01*
X210312000Y-88942334D01*
X210267839Y-88772095D01*
X210185000Y-88730667D01*
X210101292Y-88680805D01*
X210063164Y-88511264D01*
X210058000Y-88349667D01*
X210051674Y-88115564D01*
X210008800Y-88004709D01*
X209893536Y-87971017D01*
X209761666Y-87968667D01*
X209579586Y-87976800D01*
G36*
X211018920Y-87976800D02*
G01*
X210932699Y-88031923D01*
X210906494Y-88180120D01*
X210904666Y-88349667D01*
X210893587Y-88587762D01*
X210847581Y-88700350D01*
X210747498Y-88730521D01*
X210735333Y-88730667D01*
X210602548Y-88780276D01*
X210566000Y-88942334D01*
X210605687Y-89108315D01*
X210735333Y-89154000D01*
X210815785Y-89166733D01*
X210865777Y-89226416D01*
X210892470Y-89365280D01*
X210903027Y-89615553D01*
X210904666Y-89916000D01*
X210901837Y-90278035D01*
X210888574Y-90502998D01*
X210857715Y-90623116D01*
X210802099Y-90670621D01*
X210735333Y-90678000D01*
X210611386Y-90717916D01*
X210567747Y-90866433D01*
X210566000Y-90932000D01*
X210584405Y-91106936D01*
X210674794Y-91174867D01*
X210841166Y-91184704D01*
X211061324Y-91165781D01*
X211208288Y-91121993D01*
X211209492Y-91121204D01*
X211348361Y-90967230D01*
X211438885Y-90710372D01*
X211486495Y-90328000D01*
X211497333Y-89921566D01*
X211502226Y-89548266D01*
X211520087Y-89315236D01*
X211555693Y-89193612D01*
X211613820Y-89154529D01*
X211624333Y-89154000D01*
X211726476Y-89080399D01*
X211751333Y-88942334D01*
X211707173Y-88772095D01*
X211624333Y-88730667D01*
X211540626Y-88680805D01*
X211502497Y-88511264D01*
X211497333Y-88349667D01*
X211491007Y-88115564D01*
X211448134Y-88004709D01*
X211332869Y-87971017D01*
X211201000Y-87968667D01*
X211018920Y-87976800D01*
G37*
X211018920Y-87976800D02*
X210932699Y-88031923D01*
X210906494Y-88180120D01*
X210904666Y-88349667D01*
X210893587Y-88587762D01*
X210847581Y-88700350D01*
X210747498Y-88730521D01*
X210735333Y-88730667D01*
X210602548Y-88780276D01*
X210566000Y-88942334D01*
X210605687Y-89108315D01*
X210735333Y-89154000D01*
X210815785Y-89166733D01*
X210865777Y-89226416D01*
X210892470Y-89365280D01*
X210903027Y-89615553D01*
X210904666Y-89916000D01*
X210901837Y-90278035D01*
X210888574Y-90502998D01*
X210857715Y-90623116D01*
X210802099Y-90670621D01*
X210735333Y-90678000D01*
X210611386Y-90717916D01*
X210567747Y-90866433D01*
X210566000Y-90932000D01*
X210584405Y-91106936D01*
X210674794Y-91174867D01*
X210841166Y-91184704D01*
X211061324Y-91165781D01*
X211208288Y-91121993D01*
X211209492Y-91121204D01*
X211348361Y-90967230D01*
X211438885Y-90710372D01*
X211486495Y-90328000D01*
X211497333Y-89921566D01*
X211502226Y-89548266D01*
X211520087Y-89315236D01*
X211555693Y-89193612D01*
X211613820Y-89154529D01*
X211624333Y-89154000D01*
X211726476Y-89080399D01*
X211751333Y-88942334D01*
X211707173Y-88772095D01*
X211624333Y-88730667D01*
X211540626Y-88680805D01*
X211502497Y-88511264D01*
X211497333Y-88349667D01*
X211491007Y-88115564D01*
X211448134Y-88004709D01*
X211332869Y-87971017D01*
X211201000Y-87968667D01*
X211018920Y-87976800D01*
G36*
X212174666Y-91186000D02*
G01*
X212767333Y-91186000D01*
X212767333Y-88730667D01*
X212174666Y-88730667D01*
X212174666Y-91186000D01*
G37*
X212174666Y-91186000D02*
X212767333Y-91186000D01*
X212767333Y-88730667D01*
X212174666Y-88730667D01*
X212174666Y-91186000D01*
G36*
X214884000Y-89238667D02*
G01*
X213868000Y-89238667D01*
X213868000Y-87714667D01*
X213360000Y-87714667D01*
X213360000Y-91186000D01*
X213868000Y-91186000D01*
X213868000Y-89746667D01*
X214884000Y-89746667D01*
X214884000Y-91186000D01*
X215392000Y-91186000D01*
X215392000Y-87714667D01*
X214884000Y-87714667D01*
X214884000Y-89238667D01*
G37*
X214884000Y-89238667D02*
X213868000Y-89238667D01*
X213868000Y-87714667D01*
X213360000Y-87714667D01*
X213360000Y-91186000D01*
X213868000Y-91186000D01*
X213868000Y-89746667D01*
X214884000Y-89746667D01*
X214884000Y-91186000D01*
X215392000Y-91186000D01*
X215392000Y-87714667D01*
X214884000Y-87714667D01*
X214884000Y-89238667D01*
G36*
X177750236Y-93569661D02*
G01*
X177369879Y-93586409D01*
X177118609Y-93610566D01*
X176956212Y-93652698D01*
X176842473Y-93723369D01*
X176737174Y-93833142D01*
X176734236Y-93836555D01*
X176602514Y-94035046D01*
X176541715Y-94272867D01*
X176530000Y-94529543D01*
X176545089Y-94833117D01*
X176583532Y-95098620D01*
X176611029Y-95198100D01*
X176787104Y-95433049D01*
X177093432Y-95594581D01*
X177502045Y-95669606D01*
X177626462Y-95673334D01*
X178054000Y-95673334D01*
X178054000Y-97028000D01*
X178562000Y-97028000D01*
X178562000Y-94064667D01*
X178054000Y-94064667D01*
X178054000Y-95165334D01*
X177679047Y-95165334D01*
X177379721Y-95131659D01*
X177180451Y-95041096D01*
X177171047Y-95032286D01*
X177077869Y-94857278D01*
X177038021Y-94620086D01*
X177038000Y-94615000D01*
X177091077Y-94323467D01*
X177258980Y-94145271D01*
X177554722Y-94069243D01*
X177679047Y-94064667D01*
X178054000Y-94064667D01*
X178562000Y-94064667D01*
X178562000Y-93540321D01*
X177750236Y-93569661D01*
G37*
X177750236Y-93569661D02*
X177369879Y-93586409D01*
X177118609Y-93610566D01*
X176956212Y-93652698D01*
X176842473Y-93723369D01*
X176737174Y-93833142D01*
X176734236Y-93836555D01*
X176602514Y-94035046D01*
X176541715Y-94272867D01*
X176530000Y-94529543D01*
X176545089Y-94833117D01*
X176583532Y-95098620D01*
X176611029Y-95198100D01*
X176787104Y-95433049D01*
X177093432Y-95594581D01*
X177502045Y-95669606D01*
X177626462Y-95673334D01*
X178054000Y-95673334D01*
X178054000Y-97028000D01*
X178562000Y-97028000D01*
X178562000Y-94064667D01*
X178054000Y-94064667D01*
X178054000Y-95165334D01*
X177679047Y-95165334D01*
X177379721Y-95131659D01*
X177180451Y-95041096D01*
X177171047Y-95032286D01*
X177077869Y-94857278D01*
X177038021Y-94620086D01*
X177038000Y-94615000D01*
X177091077Y-94323467D01*
X177258980Y-94145271D01*
X177554722Y-94069243D01*
X177679047Y-94064667D01*
X178054000Y-94064667D01*
X178562000Y-94064667D01*
X178562000Y-93540321D01*
X177750236Y-93569661D01*
G36*
X181451985Y-93562743D02*
G01*
X181357538Y-93601479D01*
X181280127Y-93703641D01*
X181198102Y-93899992D01*
X181089813Y-94221296D01*
X181066015Y-94294302D01*
X180939381Y-94671499D01*
X180812444Y-95030269D01*
X180707161Y-95309093D01*
X180681178Y-95372448D01*
X180536563Y-95712959D01*
X179817975Y-93556667D01*
X179239333Y-93556667D01*
X179239333Y-97028000D01*
X179742418Y-97028000D01*
X179789666Y-94784334D01*
X180082838Y-95652167D01*
X180218777Y-96041646D01*
X180321623Y-96295928D01*
X180406325Y-96442189D01*
X180487834Y-96507608D01*
X180560235Y-96520000D01*
X180652132Y-96498484D01*
X180735189Y-96415486D01*
X180825124Y-96243331D01*
X180937654Y-95954342D01*
X181029064Y-95694500D01*
X181313666Y-94869000D01*
X181337363Y-95948500D01*
X181361059Y-97028000D01*
X181864000Y-97028000D01*
X181864000Y-93556667D01*
X181585118Y-93556667D01*
X181451985Y-93562743D01*
G37*
X181451985Y-93562743D02*
X181357538Y-93601479D01*
X181280127Y-93703641D01*
X181198102Y-93899992D01*
X181089813Y-94221296D01*
X181066015Y-94294302D01*
X180939381Y-94671499D01*
X180812444Y-95030269D01*
X180707161Y-95309093D01*
X180681178Y-95372448D01*
X180536563Y-95712959D01*
X179817975Y-93556667D01*
X179239333Y-93556667D01*
X179239333Y-97028000D01*
X179742418Y-97028000D01*
X179789666Y-94784334D01*
X180082838Y-95652167D01*
X180218777Y-96041646D01*
X180321623Y-96295928D01*
X180406325Y-96442189D01*
X180487834Y-96507608D01*
X180560235Y-96520000D01*
X180652132Y-96498484D01*
X180735189Y-96415486D01*
X180825124Y-96243331D01*
X180937654Y-95954342D01*
X181029064Y-95694500D01*
X181313666Y-94869000D01*
X181337363Y-95948500D01*
X181361059Y-97028000D01*
X181864000Y-97028000D01*
X181864000Y-93556667D01*
X181585118Y-93556667D01*
X181451985Y-93562743D01*
G36*
X183567195Y-93573691D02*
G01*
X183493416Y-93591330D01*
X183427605Y-93638835D01*
X183361060Y-93736785D01*
X183285076Y-93905759D01*
X183190949Y-94166336D01*
X183069975Y-94539095D01*
X182913452Y-95044617D01*
X182831353Y-95313500D01*
X182308938Y-97028000D01*
X182591206Y-97028000D01*
X182775488Y-97011663D01*
X182878222Y-96931526D01*
X182950449Y-96740896D01*
X182965724Y-96685406D01*
X183057975Y-96342811D01*
X183582821Y-96367906D01*
X184107666Y-96393000D01*
X184186099Y-96710500D01*
X184252998Y-96918596D01*
X184351399Y-97008126D01*
X184538082Y-97027959D01*
X184554990Y-97028000D01*
X184760289Y-97003628D01*
X184808653Y-96928981D01*
X184806433Y-96922167D01*
X184770941Y-96811757D01*
X184694696Y-96565508D01*
X184585749Y-96209732D01*
X184474043Y-95842667D01*
X183953965Y-95842667D01*
X183586316Y-95842667D01*
X183363706Y-95830758D01*
X183233049Y-95800743D01*
X183218666Y-95784721D01*
X183241671Y-95652566D01*
X183299905Y-95422681D01*
X183377195Y-95150305D01*
X183457369Y-94890678D01*
X183524255Y-94699038D01*
X183555727Y-94633429D01*
X183602488Y-94676613D01*
X183675258Y-94850132D01*
X183760359Y-95119702D01*
X183783788Y-95204929D01*
X183953965Y-95842667D01*
X184474043Y-95842667D01*
X184452152Y-95770737D01*
X184301955Y-95274834D01*
X184274019Y-95182358D01*
X184106209Y-94629278D01*
X183977727Y-94217970D01*
X183879558Y-93927920D01*
X183802690Y-93738613D01*
X183738108Y-93629535D01*
X183676799Y-93580172D01*
X183609749Y-93570009D01*
X183567195Y-93573691D01*
G37*
X183567195Y-93573691D02*
X183493416Y-93591330D01*
X183427605Y-93638835D01*
X183361060Y-93736785D01*
X183285076Y-93905759D01*
X183190949Y-94166336D01*
X183069975Y-94539095D01*
X182913452Y-95044617D01*
X182831353Y-95313500D01*
X182308938Y-97028000D01*
X182591206Y-97028000D01*
X182775488Y-97011663D01*
X182878222Y-96931526D01*
X182950449Y-96740896D01*
X182965724Y-96685406D01*
X183057975Y-96342811D01*
X183582821Y-96367906D01*
X184107666Y-96393000D01*
X184186099Y-96710500D01*
X184252998Y-96918596D01*
X184351399Y-97008126D01*
X184538082Y-97027959D01*
X184554990Y-97028000D01*
X184760289Y-97003628D01*
X184808653Y-96928981D01*
X184806433Y-96922167D01*
X184770941Y-96811757D01*
X184694696Y-96565508D01*
X184585749Y-96209732D01*
X184474043Y-95842667D01*
X183953965Y-95842667D01*
X183586316Y-95842667D01*
X183363706Y-95830758D01*
X183233049Y-95800743D01*
X183218666Y-95784721D01*
X183241671Y-95652566D01*
X183299905Y-95422681D01*
X183377195Y-95150305D01*
X183457369Y-94890678D01*
X183524255Y-94699038D01*
X183555727Y-94633429D01*
X183602488Y-94676613D01*
X183675258Y-94850132D01*
X183760359Y-95119702D01*
X183783788Y-95204929D01*
X183953965Y-95842667D01*
X184474043Y-95842667D01*
X184452152Y-95770737D01*
X184301955Y-95274834D01*
X184274019Y-95182358D01*
X184106209Y-94629278D01*
X183977727Y-94217970D01*
X183879558Y-93927920D01*
X183802690Y-93738613D01*
X183738108Y-93629535D01*
X183676799Y-93580172D01*
X183609749Y-93570009D01*
X183567195Y-93573691D01*
G36*
X188285412Y-93572469D02*
G01*
X188178102Y-93590551D01*
X188087671Y-93636646D01*
X187998039Y-93734597D01*
X187893124Y-93908247D01*
X187756845Y-94181439D01*
X187573121Y-94578017D01*
X187502245Y-94733635D01*
X186986333Y-95868271D01*
X186939221Y-93556667D01*
X186436000Y-93556667D01*
X186436000Y-97028000D01*
X186676566Y-97028000D01*
X186773142Y-97018787D01*
X186858685Y-96976070D01*
X186948693Y-96877237D01*
X187058662Y-96699672D01*
X187204090Y-96420762D01*
X187400473Y-96017892D01*
X187474343Y-95863834D01*
X188031554Y-94699667D01*
X188038110Y-95863834D01*
X188044666Y-97028000D01*
X188552666Y-97028000D01*
X188552666Y-93545938D01*
X188285412Y-93572469D01*
G37*
X188285412Y-93572469D02*
X188178102Y-93590551D01*
X188087671Y-93636646D01*
X187998039Y-93734597D01*
X187893124Y-93908247D01*
X187756845Y-94181439D01*
X187573121Y-94578017D01*
X187502245Y-94733635D01*
X186986333Y-95868271D01*
X186939221Y-93556667D01*
X186436000Y-93556667D01*
X186436000Y-97028000D01*
X186676566Y-97028000D01*
X186773142Y-97018787D01*
X186858685Y-96976070D01*
X186948693Y-96877237D01*
X187058662Y-96699672D01*
X187204090Y-96420762D01*
X187400473Y-96017892D01*
X187474343Y-95863834D01*
X188031554Y-94699667D01*
X188038110Y-95863834D01*
X188044666Y-97028000D01*
X188552666Y-97028000D01*
X188552666Y-93545938D01*
X188285412Y-93572469D01*
G36*
X189230000Y-97028000D02*
G01*
X189738000Y-97028000D01*
X189738000Y-93556667D01*
X189230000Y-93556667D01*
X189230000Y-97028000D01*
G37*
X189230000Y-97028000D02*
X189738000Y-97028000D01*
X189738000Y-93556667D01*
X189230000Y-93556667D01*
X189230000Y-97028000D01*
G36*
X191356528Y-93573691D02*
G01*
X191282749Y-93591330D01*
X191216939Y-93638835D01*
X191150393Y-93736785D01*
X191074409Y-93905759D01*
X190980282Y-94166336D01*
X190859309Y-94539095D01*
X190702785Y-95044617D01*
X190620686Y-95313500D01*
X190098272Y-97028000D01*
X190380539Y-97028000D01*
X190564822Y-97011663D01*
X190667556Y-96931526D01*
X190739782Y-96740896D01*
X190755058Y-96685406D01*
X190847309Y-96342811D01*
X191372154Y-96367906D01*
X191897000Y-96393000D01*
X191975432Y-96710500D01*
X192042331Y-96918596D01*
X192140732Y-97008126D01*
X192327415Y-97027959D01*
X192344324Y-97028000D01*
X192549623Y-97003628D01*
X192597987Y-96928981D01*
X192595767Y-96922167D01*
X192560275Y-96811757D01*
X192484029Y-96565508D01*
X192375082Y-96209732D01*
X192263376Y-95842667D01*
X191743299Y-95842667D01*
X191375649Y-95842667D01*
X191153039Y-95830758D01*
X191022383Y-95800743D01*
X191008000Y-95784721D01*
X191031005Y-95652566D01*
X191089238Y-95422681D01*
X191166528Y-95150305D01*
X191246702Y-94890678D01*
X191313588Y-94699038D01*
X191345061Y-94633429D01*
X191391821Y-94676613D01*
X191464592Y-94850132D01*
X191549692Y-95119702D01*
X191573121Y-95204929D01*
X191743299Y-95842667D01*
X192263376Y-95842667D01*
X192241485Y-95770737D01*
X192091288Y-95274834D01*
X192063353Y-95182358D01*
X191895543Y-94629278D01*
X191767060Y-94217970D01*
X191668891Y-93927920D01*
X191592023Y-93738613D01*
X191527441Y-93629535D01*
X191466132Y-93580172D01*
X191399082Y-93570009D01*
X191356528Y-93573691D01*
G37*
X191356528Y-93573691D02*
X191282749Y-93591330D01*
X191216939Y-93638835D01*
X191150393Y-93736785D01*
X191074409Y-93905759D01*
X190980282Y-94166336D01*
X190859309Y-94539095D01*
X190702785Y-95044617D01*
X190620686Y-95313500D01*
X190098272Y-97028000D01*
X190380539Y-97028000D01*
X190564822Y-97011663D01*
X190667556Y-96931526D01*
X190739782Y-96740896D01*
X190755058Y-96685406D01*
X190847309Y-96342811D01*
X191372154Y-96367906D01*
X191897000Y-96393000D01*
X191975432Y-96710500D01*
X192042331Y-96918596D01*
X192140732Y-97008126D01*
X192327415Y-97027959D01*
X192344324Y-97028000D01*
X192549623Y-97003628D01*
X192597987Y-96928981D01*
X192595767Y-96922167D01*
X192560275Y-96811757D01*
X192484029Y-96565508D01*
X192375082Y-96209732D01*
X192263376Y-95842667D01*
X191743299Y-95842667D01*
X191375649Y-95842667D01*
X191153039Y-95830758D01*
X191022383Y-95800743D01*
X191008000Y-95784721D01*
X191031005Y-95652566D01*
X191089238Y-95422681D01*
X191166528Y-95150305D01*
X191246702Y-94890678D01*
X191313588Y-94699038D01*
X191345061Y-94633429D01*
X191391821Y-94676613D01*
X191464592Y-94850132D01*
X191549692Y-95119702D01*
X191573121Y-95204929D01*
X191743299Y-95842667D01*
X192263376Y-95842667D01*
X192241485Y-95770737D01*
X192091288Y-95274834D01*
X192063353Y-95182358D01*
X191895543Y-94629278D01*
X191767060Y-94217970D01*
X191668891Y-93927920D01*
X191592023Y-93738613D01*
X191527441Y-93629535D01*
X191466132Y-93580172D01*
X191399082Y-93570009D01*
X191356528Y-93573691D01*
G36*
X193607127Y-93649515D02*
G01*
X193317899Y-93876293D01*
X193118388Y-94204599D01*
X193076975Y-94339834D01*
X193053422Y-94493849D01*
X193110776Y-94558626D01*
X193290318Y-94572582D01*
X193327155Y-94572667D01*
X193554933Y-94544323D01*
X193632546Y-94456691D01*
X193632666Y-94451714D01*
X193703457Y-94250118D01*
X193879488Y-94120676D01*
X194106249Y-94079387D01*
X194329232Y-94142250D01*
X194423878Y-94219500D01*
X194499155Y-94390662D01*
X194549682Y-94680323D01*
X194575764Y-95043645D01*
X194577705Y-95435794D01*
X194555812Y-95811933D01*
X194510390Y-96127226D01*
X194441744Y-96336837D01*
X194409166Y-96379878D01*
X194171873Y-96500901D01*
X193925869Y-96482583D01*
X193713332Y-96347087D01*
X193576439Y-96116578D01*
X193548000Y-95927334D01*
X193568979Y-95747425D01*
X193667940Y-95681115D01*
X193802000Y-95673334D01*
X193981908Y-95652354D01*
X194048218Y-95553394D01*
X194056000Y-95419334D01*
X194056000Y-95165334D01*
X193022070Y-95165334D01*
X193053185Y-95850490D01*
X193073104Y-96196070D01*
X193105042Y-96420332D01*
X193164794Y-96571251D01*
X193268156Y-96696799D01*
X193359819Y-96781824D01*
X193693364Y-96973526D01*
X194087580Y-97035675D01*
X194490518Y-96965174D01*
X194707863Y-96862212D01*
X194897046Y-96700061D01*
X195029656Y-96465660D01*
X195111295Y-96135873D01*
X195147565Y-95687566D01*
X195144068Y-95097604D01*
X195142991Y-95065178D01*
X195123169Y-94636697D01*
X195093763Y-94339211D01*
X195047832Y-94134404D01*
X194978435Y-93983961D01*
X194935727Y-93921120D01*
X194650371Y-93660069D01*
X194309637Y-93533232D01*
X193949798Y-93532438D01*
X193607127Y-93649515D01*
G37*
X193607127Y-93649515D02*
X193317899Y-93876293D01*
X193118388Y-94204599D01*
X193076975Y-94339834D01*
X193053422Y-94493849D01*
X193110776Y-94558626D01*
X193290318Y-94572582D01*
X193327155Y-94572667D01*
X193554933Y-94544323D01*
X193632546Y-94456691D01*
X193632666Y-94451714D01*
X193703457Y-94250118D01*
X193879488Y-94120676D01*
X194106249Y-94079387D01*
X194329232Y-94142250D01*
X194423878Y-94219500D01*
X194499155Y-94390662D01*
X194549682Y-94680323D01*
X194575764Y-95043645D01*
X194577705Y-95435794D01*
X194555812Y-95811933D01*
X194510390Y-96127226D01*
X194441744Y-96336837D01*
X194409166Y-96379878D01*
X194171873Y-96500901D01*
X193925869Y-96482583D01*
X193713332Y-96347087D01*
X193576439Y-96116578D01*
X193548000Y-95927334D01*
X193568979Y-95747425D01*
X193667940Y-95681115D01*
X193802000Y-95673334D01*
X193981908Y-95652354D01*
X194048218Y-95553394D01*
X194056000Y-95419334D01*
X194056000Y-95165334D01*
X193022070Y-95165334D01*
X193053185Y-95850490D01*
X193073104Y-96196070D01*
X193105042Y-96420332D01*
X193164794Y-96571251D01*
X193268156Y-96696799D01*
X193359819Y-96781824D01*
X193693364Y-96973526D01*
X194087580Y-97035675D01*
X194490518Y-96965174D01*
X194707863Y-96862212D01*
X194897046Y-96700061D01*
X195029656Y-96465660D01*
X195111295Y-96135873D01*
X195147565Y-95687566D01*
X195144068Y-95097604D01*
X195142991Y-95065178D01*
X195123169Y-94636697D01*
X195093763Y-94339211D01*
X195047832Y-94134404D01*
X194978435Y-93983961D01*
X194935727Y-93921120D01*
X194650371Y-93660069D01*
X194309637Y-93533232D01*
X193949798Y-93532438D01*
X193607127Y-93649515D01*
G36*
X196850000Y-94064667D02*
G01*
X198204666Y-94064667D01*
X198204666Y-94996000D01*
X197019333Y-94996000D01*
X197019333Y-95588667D01*
X198204666Y-95588667D01*
X198204666Y-96520000D01*
X196850000Y-96520000D01*
X196850000Y-97028000D01*
X198712666Y-97028000D01*
X198712666Y-93556667D01*
X196850000Y-93556667D01*
X196850000Y-94064667D01*
G37*
X196850000Y-94064667D02*
X198204666Y-94064667D01*
X198204666Y-94996000D01*
X197019333Y-94996000D01*
X197019333Y-95588667D01*
X198204666Y-95588667D01*
X198204666Y-96520000D01*
X196850000Y-96520000D01*
X196850000Y-97028000D01*
X198712666Y-97028000D01*
X198712666Y-93556667D01*
X196850000Y-93556667D01*
X196850000Y-94064667D01*
G36*
X200490666Y-96520000D02*
G01*
X199136000Y-96520000D01*
X199136000Y-97028000D01*
X200998666Y-97028000D01*
X200998666Y-93556667D01*
X200490666Y-93556667D01*
X200490666Y-96520000D01*
G37*
X200490666Y-96520000D02*
X199136000Y-96520000D01*
X199136000Y-97028000D01*
X200998666Y-97028000D01*
X200998666Y-93556667D01*
X200490666Y-93556667D01*
X200490666Y-96520000D01*
G36*
X202912387Y-93569661D02*
G01*
X202452724Y-93600310D01*
X202132806Y-93662697D01*
X201923843Y-93772124D01*
X201797048Y-93943895D01*
X201723631Y-94193313D01*
X201721892Y-94202475D01*
X201709713Y-94502229D01*
X201768779Y-94793126D01*
X201881691Y-95019771D01*
X202010623Y-95121717D01*
X202096114Y-95165549D01*
X202081514Y-95239162D01*
X201955048Y-95381051D01*
X201920725Y-95415583D01*
X201729542Y-95717176D01*
X201659993Y-96080649D01*
X201713833Y-96448290D01*
X201880236Y-96748112D01*
X201985846Y-96859023D01*
X202098869Y-96930562D01*
X202259521Y-96973292D01*
X202508016Y-96997778D01*
X202884572Y-97014584D01*
X202896236Y-97015006D01*
X203708000Y-97044346D01*
X203708000Y-95504000D01*
X203200000Y-95504000D01*
X203200000Y-96520000D01*
X202825047Y-96520000D01*
X202525721Y-96486326D01*
X202326451Y-96395762D01*
X202317047Y-96386953D01*
X202204502Y-96167252D01*
X202198483Y-95885433D01*
X202271645Y-95667767D01*
X202369177Y-95563292D01*
X202546989Y-95514060D01*
X202779645Y-95504000D01*
X203200000Y-95504000D01*
X203708000Y-95504000D01*
X203708000Y-94064667D01*
X203200000Y-94064667D01*
X203200000Y-94996000D01*
X202835933Y-94996000D01*
X202586445Y-94973655D01*
X202403432Y-94917776D01*
X202370266Y-94894400D01*
X202302566Y-94746669D01*
X202269354Y-94517171D01*
X202268666Y-94480125D01*
X202292246Y-94261018D01*
X202385618Y-94134450D01*
X202582731Y-94076900D01*
X202868258Y-94064667D01*
X203200000Y-94064667D01*
X203708000Y-94064667D01*
X203708000Y-93540321D01*
X202912387Y-93569661D01*
G37*
X202912387Y-93569661D02*
X202452724Y-93600310D01*
X202132806Y-93662697D01*
X201923843Y-93772124D01*
X201797048Y-93943895D01*
X201723631Y-94193313D01*
X201721892Y-94202475D01*
X201709713Y-94502229D01*
X201768779Y-94793126D01*
X201881691Y-95019771D01*
X202010623Y-95121717D01*
X202096114Y-95165549D01*
X202081514Y-95239162D01*
X201955048Y-95381051D01*
X201920725Y-95415583D01*
X201729542Y-95717176D01*
X201659993Y-96080649D01*
X201713833Y-96448290D01*
X201880236Y-96748112D01*
X201985846Y-96859023D01*
X202098869Y-96930562D01*
X202259521Y-96973292D01*
X202508016Y-96997778D01*
X202884572Y-97014584D01*
X202896236Y-97015006D01*
X203708000Y-97044346D01*
X203708000Y-95504000D01*
X203200000Y-95504000D01*
X203200000Y-96520000D01*
X202825047Y-96520000D01*
X202525721Y-96486326D01*
X202326451Y-96395762D01*
X202317047Y-96386953D01*
X202204502Y-96167252D01*
X202198483Y-95885433D01*
X202271645Y-95667767D01*
X202369177Y-95563292D01*
X202546989Y-95514060D01*
X202779645Y-95504000D01*
X203200000Y-95504000D01*
X203708000Y-95504000D01*
X203708000Y-94064667D01*
X203200000Y-94064667D01*
X203200000Y-94996000D01*
X202835933Y-94996000D01*
X202586445Y-94973655D01*
X202403432Y-94917776D01*
X202370266Y-94894400D01*
X202302566Y-94746669D01*
X202269354Y-94517171D01*
X202268666Y-94480125D01*
X202292246Y-94261018D01*
X202385618Y-94134450D01*
X202582731Y-94076900D01*
X202868258Y-94064667D01*
X203200000Y-94064667D01*
X203708000Y-94064667D01*
X203708000Y-93540321D01*
X202912387Y-93569661D01*
G36*
X205326528Y-93573691D02*
G01*
X205252749Y-93591330D01*
X205186939Y-93638835D01*
X205120393Y-93736785D01*
X205044409Y-93905759D01*
X204950282Y-94166336D01*
X204829309Y-94539095D01*
X204672785Y-95044617D01*
X204590686Y-95313500D01*
X204068272Y-97028000D01*
X204350539Y-97028000D01*
X204534822Y-97011663D01*
X204637556Y-96931526D01*
X204709782Y-96740896D01*
X204725058Y-96685406D01*
X204817309Y-96342811D01*
X205342154Y-96367906D01*
X205867000Y-96393000D01*
X205945432Y-96710500D01*
X206012331Y-96918596D01*
X206110732Y-97008126D01*
X206297415Y-97027959D01*
X206314324Y-97028000D01*
X206519623Y-97003628D01*
X206567987Y-96928981D01*
X206565767Y-96922167D01*
X206530275Y-96811757D01*
X206454029Y-96565508D01*
X206345082Y-96209732D01*
X206233376Y-95842667D01*
X205713299Y-95842667D01*
X205345649Y-95842667D01*
X205123039Y-95830758D01*
X204992383Y-95800743D01*
X204978000Y-95784721D01*
X205001005Y-95652566D01*
X205059238Y-95422681D01*
X205136528Y-95150305D01*
X205216702Y-94890678D01*
X205283588Y-94699038D01*
X205315061Y-94633429D01*
X205361821Y-94676613D01*
X205434592Y-94850132D01*
X205519692Y-95119702D01*
X205543121Y-95204929D01*
X205713299Y-95842667D01*
X206233376Y-95842667D01*
X206211485Y-95770737D01*
X206061288Y-95274834D01*
X206033353Y-95182358D01*
X205865543Y-94629278D01*
X205737060Y-94217970D01*
X205638891Y-93927920D01*
X205562023Y-93738613D01*
X205497441Y-93629535D01*
X205436132Y-93580172D01*
X205369082Y-93570009D01*
X205326528Y-93573691D01*
G37*
X205326528Y-93573691D02*
X205252749Y-93591330D01*
X205186939Y-93638835D01*
X205120393Y-93736785D01*
X205044409Y-93905759D01*
X204950282Y-94166336D01*
X204829309Y-94539095D01*
X204672785Y-95044617D01*
X204590686Y-95313500D01*
X204068272Y-97028000D01*
X204350539Y-97028000D01*
X204534822Y-97011663D01*
X204637556Y-96931526D01*
X204709782Y-96740896D01*
X204725058Y-96685406D01*
X204817309Y-96342811D01*
X205342154Y-96367906D01*
X205867000Y-96393000D01*
X205945432Y-96710500D01*
X206012331Y-96918596D01*
X206110732Y-97008126D01*
X206297415Y-97027959D01*
X206314324Y-97028000D01*
X206519623Y-97003628D01*
X206567987Y-96928981D01*
X206565767Y-96922167D01*
X206530275Y-96811757D01*
X206454029Y-96565508D01*
X206345082Y-96209732D01*
X206233376Y-95842667D01*
X205713299Y-95842667D01*
X205345649Y-95842667D01*
X205123039Y-95830758D01*
X204992383Y-95800743D01*
X204978000Y-95784721D01*
X205001005Y-95652566D01*
X205059238Y-95422681D01*
X205136528Y-95150305D01*
X205216702Y-94890678D01*
X205283588Y-94699038D01*
X205315061Y-94633429D01*
X205361821Y-94676613D01*
X205434592Y-94850132D01*
X205519692Y-95119702D01*
X205543121Y-95204929D01*
X205713299Y-95842667D01*
X206233376Y-95842667D01*
X206211485Y-95770737D01*
X206061288Y-95274834D01*
X206033353Y-95182358D01*
X205865543Y-94629278D01*
X205737060Y-94217970D01*
X205638891Y-93927920D01*
X205562023Y-93738613D01*
X205497441Y-93629535D01*
X205436132Y-93580172D01*
X205369082Y-93570009D01*
X205326528Y-93573691D01*
G36*
X207010000Y-97028000D02*
G01*
X207518000Y-97028000D01*
X207518000Y-93556667D01*
X207010000Y-93556667D01*
X207010000Y-97028000D01*
G37*
X207010000Y-97028000D02*
X207518000Y-97028000D01*
X207518000Y-93556667D01*
X207010000Y-93556667D01*
X207010000Y-97028000D01*
G36*
X209090712Y-93559698D02*
G01*
X208848199Y-93575892D01*
X208687561Y-93615897D01*
X208565081Y-93690364D01*
X208442820Y-93804154D01*
X208300517Y-93967574D01*
X208226015Y-94134211D01*
X208198280Y-94368280D01*
X208195333Y-94559641D01*
X208205441Y-94861253D01*
X208250119Y-95058727D01*
X208350896Y-95216757D01*
X208448729Y-95321037D01*
X208702125Y-95574433D01*
X208367939Y-96301217D01*
X208033752Y-97028000D01*
X208673796Y-97028000D01*
X208962275Y-96308334D01*
X209103314Y-95966936D01*
X209207614Y-95754364D01*
X209297010Y-95640561D01*
X209393333Y-95595472D01*
X209485044Y-95588667D01*
X209719333Y-95588667D01*
X209719333Y-97028000D01*
X210227333Y-97028000D01*
X210227333Y-94064667D01*
X209719333Y-94064667D01*
X209719333Y-95080667D01*
X209366167Y-95080667D01*
X209072997Y-95043191D01*
X208863437Y-94945179D01*
X208858167Y-94940545D01*
X208727284Y-94717426D01*
X208718825Y-94433704D01*
X208790979Y-94228434D01*
X208888511Y-94123959D01*
X209066323Y-94074727D01*
X209298979Y-94064667D01*
X209719333Y-94064667D01*
X210227333Y-94064667D01*
X210227333Y-93556667D01*
X209458820Y-93556667D01*
X209090712Y-93559698D01*
G37*
X209090712Y-93559698D02*
X208848199Y-93575892D01*
X208687561Y-93615897D01*
X208565081Y-93690364D01*
X208442820Y-93804154D01*
X208300517Y-93967574D01*
X208226015Y-94134211D01*
X208198280Y-94368280D01*
X208195333Y-94559641D01*
X208205441Y-94861253D01*
X208250119Y-95058727D01*
X208350896Y-95216757D01*
X208448729Y-95321037D01*
X208702125Y-95574433D01*
X208367939Y-96301217D01*
X208033752Y-97028000D01*
X208673796Y-97028000D01*
X208962275Y-96308334D01*
X209103314Y-95966936D01*
X209207614Y-95754364D01*
X209297010Y-95640561D01*
X209393333Y-95595472D01*
X209485044Y-95588667D01*
X209719333Y-95588667D01*
X209719333Y-97028000D01*
X210227333Y-97028000D01*
X210227333Y-94064667D01*
X209719333Y-94064667D01*
X209719333Y-95080667D01*
X209366167Y-95080667D01*
X209072997Y-95043191D01*
X208863437Y-94945179D01*
X208858167Y-94940545D01*
X208727284Y-94717426D01*
X208718825Y-94433704D01*
X208790979Y-94228434D01*
X208888511Y-94123959D01*
X209066323Y-94074727D01*
X209298979Y-94064667D01*
X209719333Y-94064667D01*
X210227333Y-94064667D01*
X210227333Y-93556667D01*
X209458820Y-93556667D01*
X209090712Y-93559698D01*
G36*
X211930528Y-93573691D02*
G01*
X211856749Y-93591330D01*
X211790939Y-93638835D01*
X211724393Y-93736785D01*
X211648409Y-93905759D01*
X211554282Y-94166336D01*
X211433309Y-94539095D01*
X211276785Y-95044617D01*
X211194686Y-95313500D01*
X210672272Y-97028000D01*
X210954539Y-97028000D01*
X211138822Y-97011663D01*
X211241556Y-96931526D01*
X211313782Y-96740896D01*
X211329058Y-96685406D01*
X211421309Y-96342811D01*
X211946154Y-96367906D01*
X212471000Y-96393000D01*
X212549432Y-96710500D01*
X212616331Y-96918596D01*
X212714732Y-97008126D01*
X212901415Y-97027959D01*
X212918324Y-97028000D01*
X213123623Y-97003628D01*
X213171987Y-96928981D01*
X213169767Y-96922167D01*
X213134275Y-96811757D01*
X213058029Y-96565508D01*
X212949082Y-96209732D01*
X212837376Y-95842667D01*
X212317299Y-95842667D01*
X211949649Y-95842667D01*
X211727039Y-95830758D01*
X211596383Y-95800743D01*
X211582000Y-95784721D01*
X211605005Y-95652566D01*
X211663238Y-95422681D01*
X211740528Y-95150305D01*
X211820702Y-94890678D01*
X211887588Y-94699038D01*
X211919061Y-94633429D01*
X211965821Y-94676613D01*
X212038592Y-94850132D01*
X212123692Y-95119702D01*
X212147121Y-95204929D01*
X212317299Y-95842667D01*
X212837376Y-95842667D01*
X212815485Y-95770737D01*
X212665288Y-95274834D01*
X212637353Y-95182358D01*
X212469543Y-94629278D01*
X212341060Y-94217970D01*
X212242891Y-93927920D01*
X212166023Y-93738613D01*
X212101441Y-93629535D01*
X212040132Y-93580172D01*
X211973082Y-93570009D01*
X211930528Y-93573691D01*
G37*
X211930528Y-93573691D02*
X211856749Y-93591330D01*
X211790939Y-93638835D01*
X211724393Y-93736785D01*
X211648409Y-93905759D01*
X211554282Y-94166336D01*
X211433309Y-94539095D01*
X211276785Y-95044617D01*
X211194686Y-95313500D01*
X210672272Y-97028000D01*
X210954539Y-97028000D01*
X211138822Y-97011663D01*
X211241556Y-96931526D01*
X211313782Y-96740896D01*
X211329058Y-96685406D01*
X211421309Y-96342811D01*
X211946154Y-96367906D01*
X212471000Y-96393000D01*
X212549432Y-96710500D01*
X212616331Y-96918596D01*
X212714732Y-97008126D01*
X212901415Y-97027959D01*
X212918324Y-97028000D01*
X213123623Y-97003628D01*
X213171987Y-96928981D01*
X213169767Y-96922167D01*
X213134275Y-96811757D01*
X213058029Y-96565508D01*
X212949082Y-96209732D01*
X212837376Y-95842667D01*
X212317299Y-95842667D01*
X211949649Y-95842667D01*
X211727039Y-95830758D01*
X211596383Y-95800743D01*
X211582000Y-95784721D01*
X211605005Y-95652566D01*
X211663238Y-95422681D01*
X211740528Y-95150305D01*
X211820702Y-94890678D01*
X211887588Y-94699038D01*
X211919061Y-94633429D01*
X211965821Y-94676613D01*
X212038592Y-94850132D01*
X212123692Y-95119702D01*
X212147121Y-95204929D01*
X212317299Y-95842667D01*
X212837376Y-95842667D01*
X212815485Y-95770737D01*
X212665288Y-95274834D01*
X212637353Y-95182358D01*
X212469543Y-94629278D01*
X212341060Y-94217970D01*
X212242891Y-93927920D01*
X212166023Y-93738613D01*
X212101441Y-93629535D01*
X212040132Y-93580172D01*
X211973082Y-93570009D01*
X211930528Y-93573691D01*
G36*
X215295129Y-93559010D02*
G01*
X215217813Y-93581238D01*
X215153757Y-93646149D01*
X215093406Y-93776542D01*
X215027204Y-93995216D01*
X214945593Y-94324970D01*
X214839017Y-94788601D01*
X214791943Y-94996000D01*
X214685277Y-95449563D01*
X214604040Y-95749106D01*
X214542269Y-95907009D01*
X214494002Y-95935650D01*
X214453275Y-95847408D01*
X214430524Y-95746335D01*
X214389193Y-95548578D01*
X214319785Y-95232679D01*
X214232688Y-94845407D01*
X214155763Y-94509167D01*
X213936112Y-93556667D01*
X213642350Y-93556667D01*
X213449174Y-93568266D01*
X213385547Y-93624348D01*
X213408783Y-93746321D01*
X213448700Y-93886664D01*
X213522960Y-94161131D01*
X213623626Y-94539878D01*
X213742764Y-94993059D01*
X213864653Y-95460821D01*
X214260330Y-96985667D01*
X214529831Y-97012198D01*
X214714333Y-97019911D01*
X214798779Y-97002819D01*
X214799333Y-97000412D01*
X214819869Y-96910504D01*
X214877115Y-96682376D01*
X214964526Y-96341520D01*
X215075558Y-95913433D01*
X215203666Y-95423608D01*
X215222666Y-95351272D01*
X215353079Y-94850551D01*
X215467200Y-94403805D01*
X215558414Y-94037634D01*
X215620110Y-93778636D01*
X215645674Y-93653412D01*
X215646000Y-93648558D01*
X215572536Y-93583730D01*
X215395841Y-93556667D01*
X215395263Y-93556667D01*
X215295129Y-93559010D01*
G37*
X215295129Y-93559010D02*
X215217813Y-93581238D01*
X215153757Y-93646149D01*
X215093406Y-93776542D01*
X215027204Y-93995216D01*
X214945593Y-94324970D01*
X214839017Y-94788601D01*
X214791943Y-94996000D01*
X214685277Y-95449563D01*
X214604040Y-95749106D01*
X214542269Y-95907009D01*
X214494002Y-95935650D01*
X214453275Y-95847408D01*
X214430524Y-95746335D01*
X214389193Y-95548578D01*
X214319785Y-95232679D01*
X214232688Y-94845407D01*
X214155763Y-94509167D01*
X213936112Y-93556667D01*
X213642350Y-93556667D01*
X213449174Y-93568266D01*
X213385547Y-93624348D01*
X213408783Y-93746321D01*
X213448700Y-93886664D01*
X213522960Y-94161131D01*
X213623626Y-94539878D01*
X213742764Y-94993059D01*
X213864653Y-95460821D01*
X214260330Y-96985667D01*
X214529831Y-97012198D01*
X214714333Y-97019911D01*
X214798779Y-97002819D01*
X214799333Y-97000412D01*
X214819869Y-96910504D01*
X214877115Y-96682376D01*
X214964526Y-96341520D01*
X215075558Y-95913433D01*
X215203666Y-95423608D01*
X215222666Y-95351272D01*
X215353079Y-94850551D01*
X215467200Y-94403805D01*
X215558414Y-94037634D01*
X215620110Y-93778636D01*
X215645674Y-93653412D01*
X215646000Y-93648558D01*
X215572536Y-93583730D01*
X215395841Y-93556667D01*
X215395263Y-93556667D01*
X215295129Y-93559010D01*
G36*
X200914000Y-101938667D02*
G01*
X202353333Y-101938667D01*
X202353333Y-101430667D01*
X200914000Y-101430667D01*
X200914000Y-101938667D01*
G37*
X200914000Y-101938667D02*
X202353333Y-101938667D01*
X202353333Y-101430667D01*
X200914000Y-101430667D01*
X200914000Y-101938667D01*
G36*
X190754000Y-99721951D02*
G01*
X190790271Y-99878123D01*
X190890365Y-100153103D01*
X191041205Y-100514835D01*
X191229715Y-100931263D01*
X191349806Y-101182451D01*
X191945612Y-102404334D01*
X191349806Y-102429209D01*
X190754000Y-102454085D01*
X190754000Y-102954667D01*
X192532000Y-102954667D01*
X192532000Y-102695618D01*
X192495428Y-102526768D01*
X192393812Y-102237901D01*
X192239304Y-101859713D01*
X192044056Y-101422900D01*
X191945453Y-101213951D01*
X191358906Y-99991334D01*
X192532000Y-99991334D01*
X192532000Y-99483334D01*
X190754000Y-99483334D01*
X190754000Y-99721951D01*
G37*
X190754000Y-99721951D02*
X190790271Y-99878123D01*
X190890365Y-100153103D01*
X191041205Y-100514835D01*
X191229715Y-100931263D01*
X191349806Y-101182451D01*
X191945612Y-102404334D01*
X191349806Y-102429209D01*
X190754000Y-102454085D01*
X190754000Y-102954667D01*
X192532000Y-102954667D01*
X192532000Y-102695618D01*
X192495428Y-102526768D01*
X192393812Y-102237901D01*
X192239304Y-101859713D01*
X192044056Y-101422900D01*
X191945453Y-101213951D01*
X191358906Y-99991334D01*
X192532000Y-99991334D01*
X192532000Y-99483334D01*
X190754000Y-99483334D01*
X190754000Y-99721951D01*
G36*
X194648666Y-101007334D02*
G01*
X193632666Y-101007334D01*
X193632666Y-99483334D01*
X193124666Y-99483334D01*
X193124666Y-102954667D01*
X193632666Y-102954667D01*
X193632666Y-101515334D01*
X194648666Y-101515334D01*
X194648666Y-102954667D01*
X195156666Y-102954667D01*
X195156666Y-99483334D01*
X194648666Y-99483334D01*
X194648666Y-101007334D01*
G37*
X194648666Y-101007334D02*
X193632666Y-101007334D01*
X193632666Y-99483334D01*
X193124666Y-99483334D01*
X193124666Y-102954667D01*
X193632666Y-102954667D01*
X193632666Y-101515334D01*
X194648666Y-101515334D01*
X194648666Y-102954667D01*
X195156666Y-102954667D01*
X195156666Y-99483334D01*
X194648666Y-99483334D01*
X194648666Y-101007334D01*
G36*
X196401127Y-99576182D02*
G01*
X196111899Y-99802959D01*
X195912388Y-100131265D01*
X195870975Y-100266500D01*
X195847422Y-100420516D01*
X195904776Y-100485293D01*
X196084318Y-100499248D01*
X196121155Y-100499334D01*
X196348933Y-100470990D01*
X196426546Y-100383357D01*
X196426666Y-100378381D01*
X196497457Y-100176784D01*
X196673488Y-100047342D01*
X196900249Y-100006054D01*
X197123232Y-100068916D01*
X197217878Y-100146167D01*
X197293155Y-100317329D01*
X197343682Y-100606989D01*
X197369764Y-100970312D01*
X197371705Y-101362461D01*
X197349812Y-101738600D01*
X197304390Y-102053893D01*
X197235744Y-102263504D01*
X197203166Y-102306545D01*
X196965873Y-102427568D01*
X196719869Y-102409250D01*
X196507332Y-102273754D01*
X196370439Y-102043245D01*
X196342000Y-101854000D01*
X196362979Y-101674092D01*
X196461940Y-101607782D01*
X196596000Y-101600000D01*
X196775908Y-101579021D01*
X196842218Y-101480060D01*
X196850000Y-101346000D01*
X196850000Y-101092000D01*
X195816070Y-101092000D01*
X195847185Y-101777157D01*
X195867104Y-102122737D01*
X195899042Y-102346999D01*
X195958794Y-102497917D01*
X196062156Y-102623466D01*
X196153819Y-102708490D01*
X196487364Y-102900193D01*
X196881580Y-102962342D01*
X197284518Y-102891840D01*
X197501863Y-102788878D01*
X197691046Y-102626727D01*
X197823656Y-102392326D01*
X197905295Y-102062540D01*
X197941565Y-101614233D01*
X197938068Y-101024270D01*
X197936991Y-100991845D01*
X197917169Y-100563363D01*
X197887763Y-100265877D01*
X197841832Y-100061071D01*
X197772435Y-99910627D01*
X197729727Y-99847786D01*
X197444371Y-99586736D01*
X197103637Y-99459899D01*
X196743798Y-99459105D01*
X196401127Y-99576182D01*
G37*
X196401127Y-99576182D02*
X196111899Y-99802959D01*
X195912388Y-100131265D01*
X195870975Y-100266500D01*
X195847422Y-100420516D01*
X195904776Y-100485293D01*
X196084318Y-100499248D01*
X196121155Y-100499334D01*
X196348933Y-100470990D01*
X196426546Y-100383357D01*
X196426666Y-100378381D01*
X196497457Y-100176784D01*
X196673488Y-100047342D01*
X196900249Y-100006054D01*
X197123232Y-100068916D01*
X197217878Y-100146167D01*
X197293155Y-100317329D01*
X197343682Y-100606989D01*
X197369764Y-100970312D01*
X197371705Y-101362461D01*
X197349812Y-101738600D01*
X197304390Y-102053893D01*
X197235744Y-102263504D01*
X197203166Y-102306545D01*
X196965873Y-102427568D01*
X196719869Y-102409250D01*
X196507332Y-102273754D01*
X196370439Y-102043245D01*
X196342000Y-101854000D01*
X196362979Y-101674092D01*
X196461940Y-101607782D01*
X196596000Y-101600000D01*
X196775908Y-101579021D01*
X196842218Y-101480060D01*
X196850000Y-101346000D01*
X196850000Y-101092000D01*
X195816070Y-101092000D01*
X195847185Y-101777157D01*
X195867104Y-102122737D01*
X195899042Y-102346999D01*
X195958794Y-102497917D01*
X196062156Y-102623466D01*
X196153819Y-102708490D01*
X196487364Y-102900193D01*
X196881580Y-102962342D01*
X197284518Y-102891840D01*
X197501863Y-102788878D01*
X197691046Y-102626727D01*
X197823656Y-102392326D01*
X197905295Y-102062540D01*
X197941565Y-101614233D01*
X197938068Y-101024270D01*
X197936991Y-100991845D01*
X197917169Y-100563363D01*
X197887763Y-100265877D01*
X197841832Y-100061071D01*
X197772435Y-99910627D01*
X197729727Y-99847786D01*
X197444371Y-99586736D01*
X197103637Y-99459899D01*
X196743798Y-99459105D01*
X196401127Y-99576182D01*
G36*
X198628000Y-99991334D02*
G01*
X199644000Y-99991334D01*
X199644000Y-100331613D01*
X199635733Y-100546668D01*
X199590983Y-100632739D01*
X199479830Y-100630049D01*
X199430690Y-100618356D01*
X199138310Y-100618174D01*
X198857699Y-100734807D01*
X198658476Y-100936921D01*
X198638983Y-100974707D01*
X198590173Y-101165591D01*
X198555707Y-101460301D01*
X198543333Y-101778883D01*
X198571649Y-102259739D01*
X198665854Y-102598423D01*
X198839840Y-102813916D01*
X199107495Y-102925199D01*
X199401787Y-102951974D01*
X199758928Y-102910408D01*
X199974454Y-102806500D01*
X200102593Y-102649889D01*
X200209922Y-102436395D01*
X200272681Y-102227743D01*
X200267114Y-102085655D01*
X200257151Y-102072040D01*
X200093657Y-102011739D01*
X199895718Y-102059092D01*
X199737535Y-102191869D01*
X199713261Y-102235000D01*
X199560294Y-102403607D01*
X199352113Y-102444416D01*
X199152933Y-102345067D01*
X199097294Y-102209192D01*
X199060390Y-101965312D01*
X199051333Y-101755379D01*
X199061664Y-101464226D01*
X199102219Y-101293987D01*
X199187339Y-101196991D01*
X199226344Y-101173628D01*
X199402408Y-101126865D01*
X199591445Y-101204626D01*
X199604365Y-101212983D01*
X199835236Y-101314384D01*
X200022021Y-101346000D01*
X200236666Y-101346000D01*
X200236666Y-99483334D01*
X198628000Y-99483334D01*
X198628000Y-99991334D01*
G37*
X198628000Y-99991334D02*
X199644000Y-99991334D01*
X199644000Y-100331613D01*
X199635733Y-100546668D01*
X199590983Y-100632739D01*
X199479830Y-100630049D01*
X199430690Y-100618356D01*
X199138310Y-100618174D01*
X198857699Y-100734807D01*
X198658476Y-100936921D01*
X198638983Y-100974707D01*
X198590173Y-101165591D01*
X198555707Y-101460301D01*
X198543333Y-101778883D01*
X198571649Y-102259739D01*
X198665854Y-102598423D01*
X198839840Y-102813916D01*
X199107495Y-102925199D01*
X199401787Y-102951974D01*
X199758928Y-102910408D01*
X199974454Y-102806500D01*
X200102593Y-102649889D01*
X200209922Y-102436395D01*
X200272681Y-102227743D01*
X200267114Y-102085655D01*
X200257151Y-102072040D01*
X200093657Y-102011739D01*
X199895718Y-102059092D01*
X199737535Y-102191869D01*
X199713261Y-102235000D01*
X199560294Y-102403607D01*
X199352113Y-102444416D01*
X199152933Y-102345067D01*
X199097294Y-102209192D01*
X199060390Y-101965312D01*
X199051333Y-101755379D01*
X199061664Y-101464226D01*
X199102219Y-101293987D01*
X199187339Y-101196991D01*
X199226344Y-101173628D01*
X199402408Y-101126865D01*
X199591445Y-101204626D01*
X199604365Y-101212983D01*
X199835236Y-101314384D01*
X200022021Y-101346000D01*
X200236666Y-101346000D01*
X200236666Y-99483334D01*
X198628000Y-99483334D01*
X198628000Y-99991334D01*
G36*
X202861333Y-99721951D02*
G01*
X202897604Y-99878123D01*
X202997698Y-100153103D01*
X203148539Y-100514835D01*
X203337048Y-100931263D01*
X203457139Y-101182451D01*
X204052946Y-102404334D01*
X203457139Y-102429209D01*
X202861333Y-102454085D01*
X202861333Y-102954667D01*
X204639333Y-102954667D01*
X204639333Y-102695618D01*
X204602761Y-102526768D01*
X204501145Y-102237901D01*
X204346637Y-101859713D01*
X204151390Y-101422900D01*
X204052786Y-101213951D01*
X203466240Y-99991334D01*
X204639333Y-99991334D01*
X204639333Y-99483334D01*
X202861333Y-99483334D01*
X202861333Y-99721951D01*
G37*
X202861333Y-99721951D02*
X202897604Y-99878123D01*
X202997698Y-100153103D01*
X203148539Y-100514835D01*
X203337048Y-100931263D01*
X203457139Y-101182451D01*
X204052946Y-102404334D01*
X203457139Y-102429209D01*
X202861333Y-102454085D01*
X202861333Y-102954667D01*
X204639333Y-102954667D01*
X204639333Y-102695618D01*
X204602761Y-102526768D01*
X204501145Y-102237901D01*
X204346637Y-101859713D01*
X204151390Y-101422900D01*
X204052786Y-101213951D01*
X203466240Y-99991334D01*
X204639333Y-99991334D01*
X204639333Y-99483334D01*
X202861333Y-99483334D01*
X202861333Y-99721951D01*
G36*
X206840666Y-101007334D02*
G01*
X205824666Y-101007334D01*
X205824666Y-99483334D01*
X205316666Y-99483334D01*
X205316666Y-102954667D01*
X205824666Y-102954667D01*
X205824666Y-101515334D01*
X206840666Y-101515334D01*
X206840666Y-102954667D01*
X207348666Y-102954667D01*
X207348666Y-99483334D01*
X206840666Y-99483334D01*
X206840666Y-101007334D01*
G37*
X206840666Y-101007334D02*
X205824666Y-101007334D01*
X205824666Y-99483334D01*
X205316666Y-99483334D01*
X205316666Y-102954667D01*
X205824666Y-102954667D01*
X205824666Y-101515334D01*
X206840666Y-101515334D01*
X206840666Y-102954667D01*
X207348666Y-102954667D01*
X207348666Y-99483334D01*
X206840666Y-99483334D01*
X206840666Y-101007334D01*
G36*
X210238652Y-99489409D02*
G01*
X210144204Y-99528146D01*
X210066793Y-99630308D01*
X209984768Y-99826659D01*
X209876479Y-100147963D01*
X209852681Y-100220969D01*
X209726048Y-100598165D01*
X209599110Y-100956936D01*
X209493827Y-101235759D01*
X209467845Y-101299115D01*
X209323230Y-101639626D01*
X208604642Y-99483334D01*
X208026000Y-99483334D01*
X208026000Y-102954667D01*
X208529085Y-102954667D01*
X208552709Y-101832834D01*
X208576333Y-100711000D01*
X208869504Y-101578834D01*
X209005444Y-101968313D01*
X209108290Y-102222594D01*
X209192992Y-102368856D01*
X209274501Y-102434275D01*
X209346901Y-102446667D01*
X209438799Y-102425151D01*
X209521856Y-102342153D01*
X209611791Y-102169997D01*
X209724320Y-101881009D01*
X209815730Y-101621167D01*
X210100333Y-100795667D01*
X210124029Y-101875167D01*
X210147726Y-102954667D01*
X210650666Y-102954667D01*
X210650666Y-99483334D01*
X210371784Y-99483334D01*
X210238652Y-99489409D01*
G37*
X210238652Y-99489409D02*
X210144204Y-99528146D01*
X210066793Y-99630308D01*
X209984768Y-99826659D01*
X209876479Y-100147963D01*
X209852681Y-100220969D01*
X209726048Y-100598165D01*
X209599110Y-100956936D01*
X209493827Y-101235759D01*
X209467845Y-101299115D01*
X209323230Y-101639626D01*
X208604642Y-99483334D01*
X208026000Y-99483334D01*
X208026000Y-102954667D01*
X208529085Y-102954667D01*
X208552709Y-101832834D01*
X208576333Y-100711000D01*
X208869504Y-101578834D01*
X209005444Y-101968313D01*
X209108290Y-102222594D01*
X209192992Y-102368856D01*
X209274501Y-102434275D01*
X209346901Y-102446667D01*
X209438799Y-102425151D01*
X209521856Y-102342153D01*
X209611791Y-102169997D01*
X209724320Y-101881009D01*
X209815730Y-101621167D01*
X210100333Y-100795667D01*
X210124029Y-101875167D01*
X210147726Y-102954667D01*
X210650666Y-102954667D01*
X210650666Y-99483334D01*
X210371784Y-99483334D01*
X210238652Y-99489409D01*
G36*
X211873795Y-99470720D02*
G01*
X211672825Y-99548677D01*
X211515539Y-99680634D01*
X211417943Y-99786621D01*
X211351495Y-99896724D01*
X211308890Y-100045966D01*
X211282819Y-100269369D01*
X211265976Y-100601956D01*
X211255513Y-100926908D01*
X211245502Y-101501117D01*
X211257147Y-101934528D01*
X211294779Y-102254789D01*
X211362727Y-102489548D01*
X211465322Y-102666450D01*
X211541429Y-102752460D01*
X211724996Y-102888147D01*
X211958196Y-102945470D01*
X212149651Y-102952092D01*
X212426187Y-102932075D01*
X212650930Y-102884564D01*
X212711766Y-102858779D01*
X212873964Y-102709187D01*
X212989541Y-102464735D01*
X213063253Y-102105647D01*
X213099855Y-101612148D01*
X213100804Y-101551423D01*
X212500505Y-101551423D01*
X212498944Y-101916707D01*
X212490751Y-102189645D01*
X212476537Y-102334174D01*
X212474236Y-102341764D01*
X212356600Y-102423472D01*
X212154082Y-102430908D01*
X211878333Y-102404334D01*
X211878333Y-100033667D01*
X212471000Y-100033667D01*
X212494821Y-101129856D01*
X212500505Y-101551423D01*
X213100804Y-101551423D01*
X213106000Y-101219000D01*
X213090295Y-100613812D01*
X213036688Y-100157308D01*
X212935441Y-99831195D01*
X212776815Y-99617182D01*
X212551071Y-99496977D01*
X212248470Y-99452290D01*
X212164579Y-99450769D01*
X211873795Y-99470720D01*
G37*
X211873795Y-99470720D02*
X211672825Y-99548677D01*
X211515539Y-99680634D01*
X211417943Y-99786621D01*
X211351495Y-99896724D01*
X211308890Y-100045966D01*
X211282819Y-100269369D01*
X211265976Y-100601956D01*
X211255513Y-100926908D01*
X211245502Y-101501117D01*
X211257147Y-101934528D01*
X211294779Y-102254789D01*
X211362727Y-102489548D01*
X211465322Y-102666450D01*
X211541429Y-102752460D01*
X211724996Y-102888147D01*
X211958196Y-102945470D01*
X212149651Y-102952092D01*
X212426187Y-102932075D01*
X212650930Y-102884564D01*
X212711766Y-102858779D01*
X212873964Y-102709187D01*
X212989541Y-102464735D01*
X213063253Y-102105647D01*
X213099855Y-101612148D01*
X213100804Y-101551423D01*
X212500505Y-101551423D01*
X212498944Y-101916707D01*
X212490751Y-102189645D01*
X212476537Y-102334174D01*
X212474236Y-102341764D01*
X212356600Y-102423472D01*
X212154082Y-102430908D01*
X211878333Y-102404334D01*
X211878333Y-100033667D01*
X212471000Y-100033667D01*
X212494821Y-101129856D01*
X212500505Y-101551423D01*
X213100804Y-101551423D01*
X213106000Y-101219000D01*
X213090295Y-100613812D01*
X213036688Y-100157308D01*
X212935441Y-99831195D01*
X212776815Y-99617182D01*
X212551071Y-99496977D01*
X212248470Y-99452290D01*
X212164579Y-99450769D01*
X211873795Y-99470720D01*
G36*
X213783333Y-99991334D02*
G01*
X214799333Y-99991334D01*
X214799333Y-100331613D01*
X214791066Y-100546668D01*
X214746317Y-100632739D01*
X214635163Y-100630049D01*
X214586023Y-100618356D01*
X214293643Y-100618174D01*
X214013032Y-100734807D01*
X213813809Y-100936921D01*
X213794316Y-100974707D01*
X213745506Y-101165591D01*
X213711040Y-101460301D01*
X213698667Y-101778883D01*
X213726982Y-102259739D01*
X213821188Y-102598423D01*
X213995173Y-102813916D01*
X214262828Y-102925199D01*
X214557120Y-102951974D01*
X214914261Y-102910408D01*
X215129787Y-102806500D01*
X215257927Y-102649889D01*
X215365255Y-102436395D01*
X215428014Y-102227743D01*
X215422447Y-102085655D01*
X215412484Y-102072040D01*
X215248990Y-102011739D01*
X215051052Y-102059092D01*
X214892868Y-102191869D01*
X214868594Y-102235000D01*
X214715627Y-102403607D01*
X214507447Y-102444416D01*
X214308266Y-102345067D01*
X214252627Y-102209192D01*
X214215724Y-101965312D01*
X214206666Y-101755379D01*
X214216998Y-101464226D01*
X214257552Y-101293987D01*
X214342672Y-101196991D01*
X214381677Y-101173628D01*
X214557742Y-101126865D01*
X214746778Y-101204626D01*
X214759699Y-101212983D01*
X214990569Y-101314384D01*
X215177354Y-101346000D01*
X215392000Y-101346000D01*
X215392000Y-99483334D01*
X213783333Y-99483334D01*
X213783333Y-99991334D01*
G37*
X213783333Y-99991334D02*
X214799333Y-99991334D01*
X214799333Y-100331613D01*
X214791066Y-100546668D01*
X214746317Y-100632739D01*
X214635163Y-100630049D01*
X214586023Y-100618356D01*
X214293643Y-100618174D01*
X214013032Y-100734807D01*
X213813809Y-100936921D01*
X213794316Y-100974707D01*
X213745506Y-101165591D01*
X213711040Y-101460301D01*
X213698667Y-101778883D01*
X213726982Y-102259739D01*
X213821188Y-102598423D01*
X213995173Y-102813916D01*
X214262828Y-102925199D01*
X214557120Y-102951974D01*
X214914261Y-102910408D01*
X215129787Y-102806500D01*
X215257927Y-102649889D01*
X215365255Y-102436395D01*
X215428014Y-102227743D01*
X215422447Y-102085655D01*
X215412484Y-102072040D01*
X215248990Y-102011739D01*
X215051052Y-102059092D01*
X214892868Y-102191869D01*
X214868594Y-102235000D01*
X214715627Y-102403607D01*
X214507447Y-102444416D01*
X214308266Y-102345067D01*
X214252627Y-102209192D01*
X214215724Y-101965312D01*
X214206666Y-101755379D01*
X214216998Y-101464226D01*
X214257552Y-101293987D01*
X214342672Y-101196991D01*
X214381677Y-101173628D01*
X214557742Y-101126865D01*
X214746778Y-101204626D01*
X214759699Y-101212983D01*
X214990569Y-101314384D01*
X215177354Y-101346000D01*
X215392000Y-101346000D01*
X215392000Y-99483334D01*
X213783333Y-99483334D01*
X213783333Y-99991334D01*
G36*
X213952666Y-107865334D02*
G01*
X215392000Y-107865334D01*
X215392000Y-107357334D01*
X213952666Y-107357334D01*
X213952666Y-107865334D01*
G37*
X213952666Y-107865334D02*
X215392000Y-107865334D01*
X215392000Y-107357334D01*
X213952666Y-107357334D01*
X213952666Y-107865334D01*
G36*
X194162601Y-106351586D02*
G01*
X194078284Y-106414891D01*
X194056662Y-106580068D01*
X194056000Y-106680000D01*
X194045970Y-106897156D01*
X193991615Y-106993691D01*
X193856541Y-107018133D01*
X193802000Y-107018667D01*
X193622092Y-107039646D01*
X193555781Y-107138607D01*
X193548000Y-107272667D01*
X193569132Y-107452696D01*
X193667728Y-107519026D01*
X193797132Y-107526667D01*
X193954811Y-107540993D01*
X194032162Y-107615314D01*
X194065135Y-107796639D01*
X194072298Y-107886500D01*
X194102257Y-108117497D01*
X194168332Y-108228799D01*
X194301542Y-108269969D01*
X194313168Y-108271387D01*
X194498111Y-108269129D01*
X194588335Y-108236109D01*
X194627454Y-108119023D01*
X194647834Y-107905801D01*
X194648666Y-107851222D01*
X194659868Y-107639976D01*
X194719270Y-107548348D01*
X194865571Y-107526893D01*
X194902666Y-107526667D01*
X195082575Y-107505688D01*
X195148885Y-107406727D01*
X195156666Y-107272667D01*
X195135687Y-107092759D01*
X195036727Y-107026448D01*
X194902666Y-107018667D01*
X194739800Y-107005293D01*
X194667399Y-106932821D01*
X194649067Y-106752722D01*
X194648666Y-106680000D01*
X194639695Y-106463164D01*
X194584304Y-106366801D01*
X194439774Y-106342091D01*
X194352333Y-106341334D01*
X194162601Y-106351586D01*
G37*
X194162601Y-106351586D02*
X194078284Y-106414891D01*
X194056662Y-106580068D01*
X194056000Y-106680000D01*
X194045970Y-106897156D01*
X193991615Y-106993691D01*
X193856541Y-107018133D01*
X193802000Y-107018667D01*
X193622092Y-107039646D01*
X193555781Y-107138607D01*
X193548000Y-107272667D01*
X193569132Y-107452696D01*
X193667728Y-107519026D01*
X193797132Y-107526667D01*
X193954811Y-107540993D01*
X194032162Y-107615314D01*
X194065135Y-107796639D01*
X194072298Y-107886500D01*
X194102257Y-108117497D01*
X194168332Y-108228799D01*
X194301542Y-108269969D01*
X194313168Y-108271387D01*
X194498111Y-108269129D01*
X194588335Y-108236109D01*
X194627454Y-108119023D01*
X194647834Y-107905801D01*
X194648666Y-107851222D01*
X194659868Y-107639976D01*
X194719270Y-107548348D01*
X194865571Y-107526893D01*
X194902666Y-107526667D01*
X195082575Y-107505688D01*
X195148885Y-107406727D01*
X195156666Y-107272667D01*
X195135687Y-107092759D01*
X195036727Y-107026448D01*
X194902666Y-107018667D01*
X194739800Y-107005293D01*
X194667399Y-106932821D01*
X194649067Y-106752722D01*
X194648666Y-106680000D01*
X194639695Y-106463164D01*
X194584304Y-106366801D01*
X194439774Y-106342091D01*
X194352333Y-106341334D01*
X194162601Y-106351586D01*
G36*
X185979054Y-105422994D02*
G01*
X185519391Y-105453643D01*
X185199472Y-105516030D01*
X184990510Y-105625458D01*
X184863715Y-105797229D01*
X184790297Y-106046646D01*
X184788558Y-106055808D01*
X184776380Y-106355563D01*
X184835446Y-106646460D01*
X184948357Y-106873104D01*
X185077290Y-106975050D01*
X185162780Y-107018882D01*
X185148181Y-107092496D01*
X185021714Y-107234385D01*
X184987392Y-107268916D01*
X184796209Y-107570509D01*
X184726660Y-107933982D01*
X184780500Y-108301623D01*
X184946903Y-108601446D01*
X185052513Y-108712357D01*
X185165536Y-108783895D01*
X185326187Y-108826625D01*
X185574683Y-108851111D01*
X185951239Y-108867917D01*
X185962903Y-108868340D01*
X186774666Y-108897679D01*
X186774666Y-107357334D01*
X186266666Y-107357334D01*
X186266666Y-108373334D01*
X185891714Y-108373334D01*
X185592387Y-108339659D01*
X185393117Y-108249096D01*
X185383714Y-108240286D01*
X185271169Y-108020585D01*
X185265150Y-107738766D01*
X185338312Y-107521101D01*
X185435844Y-107416626D01*
X185613656Y-107367394D01*
X185846312Y-107357334D01*
X186266666Y-107357334D01*
X186774666Y-107357334D01*
X186774666Y-105918000D01*
X186266666Y-105918000D01*
X186266666Y-106849334D01*
X185902600Y-106849334D01*
X185653112Y-106826988D01*
X185470098Y-106771110D01*
X185436933Y-106747734D01*
X185369232Y-106600003D01*
X185336021Y-106370504D01*
X185335333Y-106333459D01*
X185358913Y-106114351D01*
X185452285Y-105987784D01*
X185649397Y-105930233D01*
X185934925Y-105918000D01*
X186266666Y-105918000D01*
X186774666Y-105918000D01*
X186774666Y-105393654D01*
X185979054Y-105422994D01*
G37*
X185979054Y-105422994D02*
X185519391Y-105453643D01*
X185199472Y-105516030D01*
X184990510Y-105625458D01*
X184863715Y-105797229D01*
X184790297Y-106046646D01*
X184788558Y-106055808D01*
X184776380Y-106355563D01*
X184835446Y-106646460D01*
X184948357Y-106873104D01*
X185077290Y-106975050D01*
X185162780Y-107018882D01*
X185148181Y-107092496D01*
X185021714Y-107234385D01*
X184987392Y-107268916D01*
X184796209Y-107570509D01*
X184726660Y-107933982D01*
X184780500Y-108301623D01*
X184946903Y-108601446D01*
X185052513Y-108712357D01*
X185165536Y-108783895D01*
X185326187Y-108826625D01*
X185574683Y-108851111D01*
X185951239Y-108867917D01*
X185962903Y-108868340D01*
X186774666Y-108897679D01*
X186774666Y-107357334D01*
X186266666Y-107357334D01*
X186266666Y-108373334D01*
X185891714Y-108373334D01*
X185592387Y-108339659D01*
X185393117Y-108249096D01*
X185383714Y-108240286D01*
X185271169Y-108020585D01*
X185265150Y-107738766D01*
X185338312Y-107521101D01*
X185435844Y-107416626D01*
X185613656Y-107367394D01*
X185846312Y-107357334D01*
X186266666Y-107357334D01*
X186774666Y-107357334D01*
X186774666Y-105918000D01*
X186266666Y-105918000D01*
X186266666Y-106849334D01*
X185902600Y-106849334D01*
X185653112Y-106826988D01*
X185470098Y-106771110D01*
X185436933Y-106747734D01*
X185369232Y-106600003D01*
X185336021Y-106370504D01*
X185335333Y-106333459D01*
X185358913Y-106114351D01*
X185452285Y-105987784D01*
X185649397Y-105930233D01*
X185934925Y-105918000D01*
X186266666Y-105918000D01*
X186774666Y-105918000D01*
X186774666Y-105393654D01*
X185979054Y-105422994D01*
G36*
X187367333Y-108881334D02*
G01*
X187663666Y-108881334D01*
X187870028Y-108855246D01*
X187959289Y-108787543D01*
X187960000Y-108779734D01*
X187984990Y-108720829D01*
X188061600Y-108779734D01*
X188253893Y-108869303D01*
X188517273Y-108878230D01*
X188777602Y-108812957D01*
X188941711Y-108703280D01*
X189035040Y-108510776D01*
X189101644Y-108200327D01*
X189139398Y-107821521D01*
X189142273Y-107652916D01*
X188637333Y-107652916D01*
X188615018Y-108020826D01*
X188539534Y-108245579D01*
X188398075Y-108348468D01*
X188214595Y-108355805D01*
X188110029Y-108334845D01*
X188045341Y-108278434D01*
X188008935Y-108151277D01*
X187989214Y-107918075D01*
X187977782Y-107634963D01*
X187967705Y-107293030D01*
X187973779Y-107083434D01*
X188005977Y-106969294D01*
X188074269Y-106913725D01*
X188181456Y-106881644D01*
X188393813Y-106879852D01*
X188536169Y-107007151D01*
X188615095Y-107274658D01*
X188637333Y-107652916D01*
X189142273Y-107652916D01*
X189146178Y-107423950D01*
X189119861Y-107057203D01*
X189058322Y-106770871D01*
X189027607Y-106697933D01*
X188825715Y-106466802D01*
X188555037Y-106366625D01*
X188264905Y-106410900D01*
X188168226Y-106462802D01*
X187960000Y-106599237D01*
X187960000Y-105410000D01*
X187367333Y-105410000D01*
X187367333Y-108881334D01*
G37*
X187367333Y-108881334D02*
X187663666Y-108881334D01*
X187870028Y-108855246D01*
X187959289Y-108787543D01*
X187960000Y-108779734D01*
X187984990Y-108720829D01*
X188061600Y-108779734D01*
X188253893Y-108869303D01*
X188517273Y-108878230D01*
X188777602Y-108812957D01*
X188941711Y-108703280D01*
X189035040Y-108510776D01*
X189101644Y-108200327D01*
X189139398Y-107821521D01*
X189142273Y-107652916D01*
X188637333Y-107652916D01*
X188615018Y-108020826D01*
X188539534Y-108245579D01*
X188398075Y-108348468D01*
X188214595Y-108355805D01*
X188110029Y-108334845D01*
X188045341Y-108278434D01*
X188008935Y-108151277D01*
X187989214Y-107918075D01*
X187977782Y-107634963D01*
X187967705Y-107293030D01*
X187973779Y-107083434D01*
X188005977Y-106969294D01*
X188074269Y-106913725D01*
X188181456Y-106881644D01*
X188393813Y-106879852D01*
X188536169Y-107007151D01*
X188615095Y-107274658D01*
X188637333Y-107652916D01*
X189142273Y-107652916D01*
X189146178Y-107423950D01*
X189119861Y-107057203D01*
X189058322Y-106770871D01*
X189027607Y-106697933D01*
X188825715Y-106466802D01*
X188555037Y-106366625D01*
X188264905Y-106410900D01*
X188168226Y-106462802D01*
X187960000Y-106599237D01*
X187960000Y-105410000D01*
X187367333Y-105410000D01*
X187367333Y-108881334D01*
G36*
X190473705Y-105383402D02*
G01*
X190373262Y-105409914D01*
X190077945Y-105562688D01*
X189901590Y-105801228D01*
X189827517Y-106152642D01*
X189822666Y-106304717D01*
X189846219Y-106620271D01*
X189925636Y-106819376D01*
X189983091Y-106883605D01*
X190084029Y-106989494D01*
X190079725Y-107076822D01*
X189962357Y-107209902D01*
X189940758Y-107231545D01*
X189816933Y-107390120D01*
X189755651Y-107585125D01*
X189738081Y-107879601D01*
X189738000Y-107910331D01*
X189750576Y-108206049D01*
X189804011Y-108402195D01*
X189921865Y-108567646D01*
X189985487Y-108633846D01*
X190286363Y-108824969D01*
X190649434Y-108896854D01*
X191015257Y-108847168D01*
X191310485Y-108685852D01*
X191490138Y-108431675D01*
X191584079Y-108088013D01*
X191584328Y-107806255D01*
X191092440Y-107806255D01*
X191065065Y-108071582D01*
X190939152Y-108274026D01*
X190730955Y-108370528D01*
X190683288Y-108373334D01*
X190472635Y-108338586D01*
X190347600Y-108271734D01*
X190272948Y-108104594D01*
X190249039Y-107857860D01*
X190275874Y-107613489D01*
X190347600Y-107458934D01*
X190535215Y-107367534D01*
X190763861Y-107369746D01*
X190954342Y-107458079D01*
X191005021Y-107521101D01*
X191092440Y-107806255D01*
X191584328Y-107806255D01*
X191584409Y-107715773D01*
X191483231Y-107375864D01*
X191480917Y-107371355D01*
X191366318Y-107193305D01*
X191265523Y-107105331D01*
X191253680Y-107103334D01*
X191239199Y-107047211D01*
X191318467Y-106909240D01*
X191340521Y-106880249D01*
X191465776Y-106613158D01*
X191497108Y-106400626D01*
X191006703Y-106400626D01*
X190957727Y-106646295D01*
X190859833Y-106757885D01*
X190698811Y-106835451D01*
X190579182Y-106814771D01*
X190467677Y-106740123D01*
X190363799Y-106598143D01*
X190341604Y-106358031D01*
X190345662Y-106295623D01*
X190377952Y-106075840D01*
X190452946Y-105972634D01*
X190610150Y-105933277D01*
X190617813Y-105932387D01*
X190838278Y-105951844D01*
X190962080Y-106086325D01*
X191005994Y-106356028D01*
X191006703Y-106400626D01*
X191497108Y-106400626D01*
X191515877Y-106273315D01*
X191487788Y-105935705D01*
X191388737Y-105689318D01*
X191150763Y-105484343D01*
X190825260Y-105376733D01*
X190473705Y-105383402D01*
G37*
X190473705Y-105383402D02*
X190373262Y-105409914D01*
X190077945Y-105562688D01*
X189901590Y-105801228D01*
X189827517Y-106152642D01*
X189822666Y-106304717D01*
X189846219Y-106620271D01*
X189925636Y-106819376D01*
X189983091Y-106883605D01*
X190084029Y-106989494D01*
X190079725Y-107076822D01*
X189962357Y-107209902D01*
X189940758Y-107231545D01*
X189816933Y-107390120D01*
X189755651Y-107585125D01*
X189738081Y-107879601D01*
X189738000Y-107910331D01*
X189750576Y-108206049D01*
X189804011Y-108402195D01*
X189921865Y-108567646D01*
X189985487Y-108633846D01*
X190286363Y-108824969D01*
X190649434Y-108896854D01*
X191015257Y-108847168D01*
X191310485Y-108685852D01*
X191490138Y-108431675D01*
X191584079Y-108088013D01*
X191584328Y-107806255D01*
X191092440Y-107806255D01*
X191065065Y-108071582D01*
X190939152Y-108274026D01*
X190730955Y-108370528D01*
X190683288Y-108373334D01*
X190472635Y-108338586D01*
X190347600Y-108271734D01*
X190272948Y-108104594D01*
X190249039Y-107857860D01*
X190275874Y-107613489D01*
X190347600Y-107458934D01*
X190535215Y-107367534D01*
X190763861Y-107369746D01*
X190954342Y-107458079D01*
X191005021Y-107521101D01*
X191092440Y-107806255D01*
X191584328Y-107806255D01*
X191584409Y-107715773D01*
X191483231Y-107375864D01*
X191480917Y-107371355D01*
X191366318Y-107193305D01*
X191265523Y-107105331D01*
X191253680Y-107103334D01*
X191239199Y-107047211D01*
X191318467Y-106909240D01*
X191340521Y-106880249D01*
X191465776Y-106613158D01*
X191497108Y-106400626D01*
X191006703Y-106400626D01*
X190957727Y-106646295D01*
X190859833Y-106757885D01*
X190698811Y-106835451D01*
X190579182Y-106814771D01*
X190467677Y-106740123D01*
X190363799Y-106598143D01*
X190341604Y-106358031D01*
X190345662Y-106295623D01*
X190377952Y-106075840D01*
X190452946Y-105972634D01*
X190610150Y-105933277D01*
X190617813Y-105932387D01*
X190838278Y-105951844D01*
X190962080Y-106086325D01*
X191005994Y-106356028D01*
X191006703Y-106400626D01*
X191497108Y-106400626D01*
X191515877Y-106273315D01*
X191487788Y-105935705D01*
X191388737Y-105689318D01*
X191150763Y-105484343D01*
X190825260Y-105376733D01*
X190473705Y-105383402D01*
G36*
X192193333Y-108881334D02*
G01*
X192786000Y-108881334D01*
X192786000Y-105983192D01*
X192997666Y-106121881D01*
X193140607Y-106206652D01*
X193198204Y-106182444D01*
X193209283Y-106021769D01*
X193209333Y-105972023D01*
X193136662Y-105692264D01*
X192929212Y-105502299D01*
X192602833Y-105414557D01*
X192492645Y-105410000D01*
X192193333Y-105410000D01*
X192193333Y-108881334D01*
G37*
X192193333Y-108881334D02*
X192786000Y-108881334D01*
X192786000Y-105983192D01*
X192997666Y-106121881D01*
X193140607Y-106206652D01*
X193198204Y-106182444D01*
X193209283Y-106021769D01*
X193209333Y-105972023D01*
X193136662Y-105692264D01*
X192929212Y-105502299D01*
X192602833Y-105414557D01*
X192492645Y-105410000D01*
X192193333Y-105410000D01*
X192193333Y-108881334D01*
G36*
X197432427Y-106399187D02*
G01*
X197281054Y-106464341D01*
X197069969Y-106627524D01*
X196934767Y-106873553D01*
X196867489Y-107227590D01*
X196860179Y-107714797D01*
X196863072Y-107786014D01*
X196883839Y-108135441D01*
X196916581Y-108361371D01*
X196975061Y-108509632D01*
X197073039Y-108626049D01*
X197130888Y-108677857D01*
X197355417Y-108819823D01*
X197632859Y-108876862D01*
X197778528Y-108881334D01*
X198050482Y-108865113D01*
X198229474Y-108795808D01*
X198390427Y-108642454D01*
X198408807Y-108620837D01*
X198521662Y-108467975D01*
X198587693Y-108308697D01*
X198619046Y-108091701D01*
X198627867Y-107765685D01*
X198627959Y-107716299D01*
X198122549Y-107716299D01*
X198104650Y-108006397D01*
X198052744Y-108218414D01*
X198018400Y-108271734D01*
X197821284Y-108367110D01*
X197602621Y-108339044D01*
X197439588Y-108198086D01*
X197436326Y-108192153D01*
X197383470Y-107996236D01*
X197367719Y-107718637D01*
X197384716Y-107416163D01*
X197430104Y-107145623D01*
X197499529Y-106963824D01*
X197533222Y-106928569D01*
X197749435Y-106855676D01*
X197945424Y-106943827D01*
X197986952Y-106982381D01*
X198062225Y-107143804D01*
X198107915Y-107408606D01*
X198122549Y-107716299D01*
X198627959Y-107716299D01*
X198628000Y-107695016D01*
X198613674Y-107233817D01*
X198563340Y-106907636D01*
X198465968Y-106684012D01*
X198310525Y-106530480D01*
X198212508Y-106472389D01*
X197819349Y-106351292D01*
X197432427Y-106399187D01*
G37*
X197432427Y-106399187D02*
X197281054Y-106464341D01*
X197069969Y-106627524D01*
X196934767Y-106873553D01*
X196867489Y-107227590D01*
X196860179Y-107714797D01*
X196863072Y-107786014D01*
X196883839Y-108135441D01*
X196916581Y-108361371D01*
X196975061Y-108509632D01*
X197073039Y-108626049D01*
X197130888Y-108677857D01*
X197355417Y-108819823D01*
X197632859Y-108876862D01*
X197778528Y-108881334D01*
X198050482Y-108865113D01*
X198229474Y-108795808D01*
X198390427Y-108642454D01*
X198408807Y-108620837D01*
X198521662Y-108467975D01*
X198587693Y-108308697D01*
X198619046Y-108091701D01*
X198627867Y-107765685D01*
X198627959Y-107716299D01*
X198122549Y-107716299D01*
X198104650Y-108006397D01*
X198052744Y-108218414D01*
X198018400Y-108271734D01*
X197821284Y-108367110D01*
X197602621Y-108339044D01*
X197439588Y-108198086D01*
X197436326Y-108192153D01*
X197383470Y-107996236D01*
X197367719Y-107718637D01*
X197384716Y-107416163D01*
X197430104Y-107145623D01*
X197499529Y-106963824D01*
X197533222Y-106928569D01*
X197749435Y-106855676D01*
X197945424Y-106943827D01*
X197986952Y-106982381D01*
X198062225Y-107143804D01*
X198107915Y-107408606D01*
X198122549Y-107716299D01*
X198627959Y-107716299D01*
X198628000Y-107695016D01*
X198613674Y-107233817D01*
X198563340Y-106907636D01*
X198465968Y-106684012D01*
X198310525Y-106530480D01*
X198212508Y-106472389D01*
X197819349Y-106351292D01*
X197432427Y-106399187D01*
G36*
X199588920Y-105672134D02*
G01*
X199502699Y-105727257D01*
X199476494Y-105875454D01*
X199474666Y-106045000D01*
X199463587Y-106283095D01*
X199417581Y-106395683D01*
X199317498Y-106425855D01*
X199305333Y-106426000D01*
X199172548Y-106475609D01*
X199136000Y-106637667D01*
X199175687Y-106803648D01*
X199305333Y-106849334D01*
X199385785Y-106862066D01*
X199435777Y-106921749D01*
X199462470Y-107060613D01*
X199473027Y-107310886D01*
X199474666Y-107611334D01*
X199471837Y-107973368D01*
X199458574Y-108198331D01*
X199427715Y-108318450D01*
X199372099Y-108365954D01*
X199305333Y-108373334D01*
X199181386Y-108413249D01*
X199137747Y-108561766D01*
X199136000Y-108627334D01*
X199154405Y-108802269D01*
X199244794Y-108870200D01*
X199411166Y-108880037D01*
X199631324Y-108861114D01*
X199778288Y-108817326D01*
X199779492Y-108816537D01*
X199918361Y-108662563D01*
X200008885Y-108405706D01*
X200056495Y-108023334D01*
X200067333Y-107616900D01*
X200072226Y-107243600D01*
X200090087Y-107010570D01*
X200125693Y-106888945D01*
X200183820Y-106849862D01*
X200194333Y-106849334D01*
X200296476Y-106775733D01*
X200321333Y-106637667D01*
X200277173Y-106467428D01*
X200194333Y-106426000D01*
X200110626Y-106376138D01*
X200072497Y-106206597D01*
X200067333Y-106045000D01*
X200061007Y-105810897D01*
X200018134Y-105700042D01*
X199902869Y-105666350D01*
X199771000Y-105664000D01*
X199588920Y-105672134D01*
G37*
X199588920Y-105672134D02*
X199502699Y-105727257D01*
X199476494Y-105875454D01*
X199474666Y-106045000D01*
X199463587Y-106283095D01*
X199417581Y-106395683D01*
X199317498Y-106425855D01*
X199305333Y-106426000D01*
X199172548Y-106475609D01*
X199136000Y-106637667D01*
X199175687Y-106803648D01*
X199305333Y-106849334D01*
X199385785Y-106862066D01*
X199435777Y-106921749D01*
X199462470Y-107060613D01*
X199473027Y-107310886D01*
X199474666Y-107611334D01*
X199471837Y-107973368D01*
X199458574Y-108198331D01*
X199427715Y-108318450D01*
X199372099Y-108365954D01*
X199305333Y-108373334D01*
X199181386Y-108413249D01*
X199137747Y-108561766D01*
X199136000Y-108627334D01*
X199154405Y-108802269D01*
X199244794Y-108870200D01*
X199411166Y-108880037D01*
X199631324Y-108861114D01*
X199778288Y-108817326D01*
X199779492Y-108816537D01*
X199918361Y-108662563D01*
X200008885Y-108405706D01*
X200056495Y-108023334D01*
X200067333Y-107616900D01*
X200072226Y-107243600D01*
X200090087Y-107010570D01*
X200125693Y-106888945D01*
X200183820Y-106849862D01*
X200194333Y-106849334D01*
X200296476Y-106775733D01*
X200321333Y-106637667D01*
X200277173Y-106467428D01*
X200194333Y-106426000D01*
X200110626Y-106376138D01*
X200072497Y-106206597D01*
X200067333Y-106045000D01*
X200061007Y-105810897D01*
X200018134Y-105700042D01*
X199902869Y-105666350D01*
X199771000Y-105664000D01*
X199588920Y-105672134D01*
G36*
X203081720Y-105422994D02*
G01*
X202622057Y-105453643D01*
X202302139Y-105516030D01*
X202093177Y-105625458D01*
X201966381Y-105797229D01*
X201892964Y-106046646D01*
X201891225Y-106055808D01*
X201879046Y-106355563D01*
X201938112Y-106646460D01*
X202051024Y-106873104D01*
X202179956Y-106975050D01*
X202265447Y-107018882D01*
X202250847Y-107092496D01*
X202124381Y-107234385D01*
X202090059Y-107268916D01*
X201898875Y-107570509D01*
X201829327Y-107933982D01*
X201883166Y-108301623D01*
X202049570Y-108601446D01*
X202155180Y-108712357D01*
X202268202Y-108783895D01*
X202428854Y-108826625D01*
X202677350Y-108851111D01*
X203053906Y-108867917D01*
X203065570Y-108868340D01*
X203877333Y-108897679D01*
X203877333Y-107357334D01*
X203369333Y-107357334D01*
X203369333Y-108373334D01*
X202994381Y-108373334D01*
X202695054Y-108339659D01*
X202495784Y-108249096D01*
X202486381Y-108240286D01*
X202373835Y-108020585D01*
X202367816Y-107738766D01*
X202440979Y-107521101D01*
X202538511Y-107416626D01*
X202716323Y-107367394D01*
X202948979Y-107357334D01*
X203369333Y-107357334D01*
X203877333Y-107357334D01*
X203877333Y-105918000D01*
X203369333Y-105918000D01*
X203369333Y-106849334D01*
X203005266Y-106849334D01*
X202755779Y-106826988D01*
X202572765Y-106771110D01*
X202539600Y-106747734D01*
X202471899Y-106600003D01*
X202438688Y-106370504D01*
X202438000Y-106333459D01*
X202461580Y-106114351D01*
X202554952Y-105987784D01*
X202752064Y-105930233D01*
X203037591Y-105918000D01*
X203369333Y-105918000D01*
X203877333Y-105918000D01*
X203877333Y-105393654D01*
X203081720Y-105422994D01*
G37*
X203081720Y-105422994D02*
X202622057Y-105453643D01*
X202302139Y-105516030D01*
X202093177Y-105625458D01*
X201966381Y-105797229D01*
X201892964Y-106046646D01*
X201891225Y-106055808D01*
X201879046Y-106355563D01*
X201938112Y-106646460D01*
X202051024Y-106873104D01*
X202179956Y-106975050D01*
X202265447Y-107018882D01*
X202250847Y-107092496D01*
X202124381Y-107234385D01*
X202090059Y-107268916D01*
X201898875Y-107570509D01*
X201829327Y-107933982D01*
X201883166Y-108301623D01*
X202049570Y-108601446D01*
X202155180Y-108712357D01*
X202268202Y-108783895D01*
X202428854Y-108826625D01*
X202677350Y-108851111D01*
X203053906Y-108867917D01*
X203065570Y-108868340D01*
X203877333Y-108897679D01*
X203877333Y-107357334D01*
X203369333Y-107357334D01*
X203369333Y-108373334D01*
X202994381Y-108373334D01*
X202695054Y-108339659D01*
X202495784Y-108249096D01*
X202486381Y-108240286D01*
X202373835Y-108020585D01*
X202367816Y-107738766D01*
X202440979Y-107521101D01*
X202538511Y-107416626D01*
X202716323Y-107367394D01*
X202948979Y-107357334D01*
X203369333Y-107357334D01*
X203877333Y-107357334D01*
X203877333Y-105918000D01*
X203369333Y-105918000D01*
X203369333Y-106849334D01*
X203005266Y-106849334D01*
X202755779Y-106826988D01*
X202572765Y-106771110D01*
X202539600Y-106747734D01*
X202471899Y-106600003D01*
X202438688Y-106370504D01*
X202438000Y-106333459D01*
X202461580Y-106114351D01*
X202554952Y-105987784D01*
X202752064Y-105930233D01*
X203037591Y-105918000D01*
X203369333Y-105918000D01*
X203877333Y-105918000D01*
X203877333Y-105393654D01*
X203081720Y-105422994D01*
G36*
X204470000Y-108881334D02*
G01*
X204766333Y-108881334D01*
X204972695Y-108855246D01*
X205061955Y-108787543D01*
X205062666Y-108779734D01*
X205087657Y-108720829D01*
X205164266Y-108779734D01*
X205356559Y-108869303D01*
X205619940Y-108878230D01*
X205880269Y-108812957D01*
X206044378Y-108703280D01*
X206137707Y-108510776D01*
X206204310Y-108200327D01*
X206242064Y-107821521D01*
X206244939Y-107652916D01*
X205740000Y-107652916D01*
X205717685Y-108020826D01*
X205642201Y-108245579D01*
X205500742Y-108348468D01*
X205317261Y-108355805D01*
X205212696Y-108334845D01*
X205148008Y-108278434D01*
X205111601Y-108151277D01*
X205091880Y-107918075D01*
X205080449Y-107634963D01*
X205070372Y-107293030D01*
X205076446Y-107083434D01*
X205108643Y-106969294D01*
X205176935Y-106913725D01*
X205284122Y-106881644D01*
X205496480Y-106879852D01*
X205638836Y-107007151D01*
X205717761Y-107274658D01*
X205740000Y-107652916D01*
X206244939Y-107652916D01*
X206248845Y-107423950D01*
X206222528Y-107057203D01*
X206160989Y-106770871D01*
X206130273Y-106697933D01*
X205928381Y-106466802D01*
X205657704Y-106366625D01*
X205367572Y-106410900D01*
X205270892Y-106462802D01*
X205062666Y-106599237D01*
X205062666Y-105410000D01*
X204470000Y-105410000D01*
X204470000Y-108881334D01*
G37*
X204470000Y-108881334D02*
X204766333Y-108881334D01*
X204972695Y-108855246D01*
X205061955Y-108787543D01*
X205062666Y-108779734D01*
X205087657Y-108720829D01*
X205164266Y-108779734D01*
X205356559Y-108869303D01*
X205619940Y-108878230D01*
X205880269Y-108812957D01*
X206044378Y-108703280D01*
X206137707Y-108510776D01*
X206204310Y-108200327D01*
X206242064Y-107821521D01*
X206244939Y-107652916D01*
X205740000Y-107652916D01*
X205717685Y-108020826D01*
X205642201Y-108245579D01*
X205500742Y-108348468D01*
X205317261Y-108355805D01*
X205212696Y-108334845D01*
X205148008Y-108278434D01*
X205111601Y-108151277D01*
X205091880Y-107918075D01*
X205080449Y-107634963D01*
X205070372Y-107293030D01*
X205076446Y-107083434D01*
X205108643Y-106969294D01*
X205176935Y-106913725D01*
X205284122Y-106881644D01*
X205496480Y-106879852D01*
X205638836Y-107007151D01*
X205717761Y-107274658D01*
X205740000Y-107652916D01*
X206244939Y-107652916D01*
X206248845Y-107423950D01*
X206222528Y-107057203D01*
X206160989Y-106770871D01*
X206130273Y-106697933D01*
X205928381Y-106466802D01*
X205657704Y-106366625D01*
X205367572Y-106410900D01*
X205270892Y-106462802D01*
X205062666Y-106599237D01*
X205062666Y-105410000D01*
X204470000Y-105410000D01*
X204470000Y-108881334D01*
G36*
X206925333Y-105918000D02*
G01*
X207941333Y-105918000D01*
X207941333Y-106258280D01*
X207933066Y-106473335D01*
X207888317Y-106559406D01*
X207777163Y-106556716D01*
X207728023Y-106545022D01*
X207435643Y-106544840D01*
X207155032Y-106661474D01*
X206955809Y-106863588D01*
X206936316Y-106901373D01*
X206887506Y-107092258D01*
X206853040Y-107386967D01*
X206840666Y-107705550D01*
X206868982Y-108186405D01*
X206963188Y-108525090D01*
X207137173Y-108740583D01*
X207404828Y-108851866D01*
X207699120Y-108878641D01*
X208056261Y-108837075D01*
X208271787Y-108733167D01*
X208399927Y-108576555D01*
X208507255Y-108363062D01*
X208570014Y-108154409D01*
X208564447Y-108012322D01*
X208554484Y-107998707D01*
X208390990Y-107938405D01*
X208193052Y-107985759D01*
X208034868Y-108118535D01*
X208010594Y-108161667D01*
X207857627Y-108330273D01*
X207649447Y-108371083D01*
X207450266Y-108271734D01*
X207394627Y-108135858D01*
X207357724Y-107891978D01*
X207348666Y-107682046D01*
X207358998Y-107390892D01*
X207399552Y-107220654D01*
X207484672Y-107123658D01*
X207523677Y-107100295D01*
X207699742Y-107053532D01*
X207888778Y-107131292D01*
X207901699Y-107139649D01*
X208132569Y-107241051D01*
X208319354Y-107272667D01*
X208534000Y-107272667D01*
X208534000Y-105410000D01*
X206925333Y-105410000D01*
X206925333Y-105918000D01*
G37*
X206925333Y-105918000D02*
X207941333Y-105918000D01*
X207941333Y-106258280D01*
X207933066Y-106473335D01*
X207888317Y-106559406D01*
X207777163Y-106556716D01*
X207728023Y-106545022D01*
X207435643Y-106544840D01*
X207155032Y-106661474D01*
X206955809Y-106863588D01*
X206936316Y-106901373D01*
X206887506Y-107092258D01*
X206853040Y-107386967D01*
X206840666Y-107705550D01*
X206868982Y-108186405D01*
X206963188Y-108525090D01*
X207137173Y-108740583D01*
X207404828Y-108851866D01*
X207699120Y-108878641D01*
X208056261Y-108837075D01*
X208271787Y-108733167D01*
X208399927Y-108576555D01*
X208507255Y-108363062D01*
X208570014Y-108154409D01*
X208564447Y-108012322D01*
X208554484Y-107998707D01*
X208390990Y-107938405D01*
X208193052Y-107985759D01*
X208034868Y-108118535D01*
X208010594Y-108161667D01*
X207857627Y-108330273D01*
X207649447Y-108371083D01*
X207450266Y-108271734D01*
X207394627Y-108135858D01*
X207357724Y-107891978D01*
X207348666Y-107682046D01*
X207358998Y-107390892D01*
X207399552Y-107220654D01*
X207484672Y-107123658D01*
X207523677Y-107100295D01*
X207699742Y-107053532D01*
X207888778Y-107131292D01*
X207901699Y-107139649D01*
X208132569Y-107241051D01*
X208319354Y-107272667D01*
X208534000Y-107272667D01*
X208534000Y-105410000D01*
X206925333Y-105410000D01*
X206925333Y-105918000D01*
G36*
X209210014Y-108305186D02*
G01*
X209140019Y-108388976D01*
X209126666Y-108585000D01*
X209140826Y-108784095D01*
X209212646Y-108865756D01*
X209380666Y-108881334D01*
X209551319Y-108864814D01*
X209621314Y-108781024D01*
X209634666Y-108585000D01*
X209620507Y-108385905D01*
X209548687Y-108304245D01*
X209380666Y-108288667D01*
X209210014Y-108305186D01*
G37*
X209210014Y-108305186D02*
X209140019Y-108388976D01*
X209126666Y-108585000D01*
X209140826Y-108784095D01*
X209212646Y-108865756D01*
X209380666Y-108881334D01*
X209551319Y-108864814D01*
X209621314Y-108781024D01*
X209634666Y-108585000D01*
X209620507Y-108385905D01*
X209548687Y-108304245D01*
X209380666Y-108288667D01*
X209210014Y-108305186D01*
G36*
X210683073Y-105441273D02*
G01*
X210412466Y-105619273D01*
X210354596Y-105689318D01*
X210250969Y-105957588D01*
X210228440Y-106297848D01*
X210283963Y-106635141D01*
X210402992Y-106880479D01*
X210511336Y-107038391D01*
X210509651Y-107119409D01*
X210453078Y-107151980D01*
X210287632Y-107298201D01*
X210187785Y-107553044D01*
X210154086Y-107868792D01*
X210187084Y-108197727D01*
X210287328Y-108492130D01*
X210435392Y-108688040D01*
X210727449Y-108841113D01*
X211083011Y-108890833D01*
X211435099Y-108837053D01*
X211704369Y-108690834D01*
X211875367Y-108470956D01*
X211973674Y-108225167D01*
X211997513Y-108037863D01*
X211941927Y-107963435D01*
X211766593Y-107950003D01*
X211759821Y-107950000D01*
X211547277Y-107985934D01*
X211430328Y-108119390D01*
X211412666Y-108161667D01*
X211277669Y-108337792D01*
X211139595Y-108372037D01*
X210910357Y-108338871D01*
X210786449Y-108222562D01*
X210746232Y-107992050D01*
X210751331Y-107814809D01*
X210773981Y-107566433D01*
X210822417Y-107440223D01*
X210929240Y-107389148D01*
X211057770Y-107372768D01*
X211247553Y-107338910D01*
X211315636Y-107251485D01*
X211311770Y-107076434D01*
X211266040Y-106880906D01*
X211148869Y-106797138D01*
X211055666Y-106780483D01*
X210888246Y-106728274D01*
X210800662Y-106587677D01*
X210770903Y-106462055D01*
X210768492Y-106177788D01*
X210872631Y-105992497D01*
X211067242Y-105931247D01*
X211108924Y-105935081D01*
X211278884Y-106027041D01*
X211369243Y-106150834D01*
X211492748Y-106292193D01*
X211664226Y-106350814D01*
X211824831Y-106324884D01*
X211915715Y-106212595D01*
X211920666Y-106167796D01*
X211842995Y-105842064D01*
X211637751Y-105567881D01*
X211371806Y-105410486D01*
X211023194Y-105366101D01*
X210683073Y-105441273D01*
G37*
X210683073Y-105441273D02*
X210412466Y-105619273D01*
X210354596Y-105689318D01*
X210250969Y-105957588D01*
X210228440Y-106297848D01*
X210283963Y-106635141D01*
X210402992Y-106880479D01*
X210511336Y-107038391D01*
X210509651Y-107119409D01*
X210453078Y-107151980D01*
X210287632Y-107298201D01*
X210187785Y-107553044D01*
X210154086Y-107868792D01*
X210187084Y-108197727D01*
X210287328Y-108492130D01*
X210435392Y-108688040D01*
X210727449Y-108841113D01*
X211083011Y-108890833D01*
X211435099Y-108837053D01*
X211704369Y-108690834D01*
X211875367Y-108470956D01*
X211973674Y-108225167D01*
X211997513Y-108037863D01*
X211941927Y-107963435D01*
X211766593Y-107950003D01*
X211759821Y-107950000D01*
X211547277Y-107985934D01*
X211430328Y-108119390D01*
X211412666Y-108161667D01*
X211277669Y-108337792D01*
X211139595Y-108372037D01*
X210910357Y-108338871D01*
X210786449Y-108222562D01*
X210746232Y-107992050D01*
X210751331Y-107814809D01*
X210773981Y-107566433D01*
X210822417Y-107440223D01*
X210929240Y-107389148D01*
X211057770Y-107372768D01*
X211247553Y-107338910D01*
X211315636Y-107251485D01*
X211311770Y-107076434D01*
X211266040Y-106880906D01*
X211148869Y-106797138D01*
X211055666Y-106780483D01*
X210888246Y-106728274D01*
X210800662Y-106587677D01*
X210770903Y-106462055D01*
X210768492Y-106177788D01*
X210872631Y-105992497D01*
X211067242Y-105931247D01*
X211108924Y-105935081D01*
X211278884Y-106027041D01*
X211369243Y-106150834D01*
X211492748Y-106292193D01*
X211664226Y-106350814D01*
X211824831Y-106324884D01*
X211915715Y-106212595D01*
X211920666Y-106167796D01*
X211842995Y-105842064D01*
X211637751Y-105567881D01*
X211371806Y-105410486D01*
X211023194Y-105366101D01*
X210683073Y-105441273D01*
G36*
X212428666Y-108881334D02*
G01*
X213021333Y-108881334D01*
X213021333Y-105983192D01*
X213233000Y-106121881D01*
X213375940Y-106206652D01*
X213433537Y-106182444D01*
X213444616Y-106021769D01*
X213444666Y-105972023D01*
X213371995Y-105692264D01*
X213164545Y-105502299D01*
X212838167Y-105414557D01*
X212727979Y-105410000D01*
X212428666Y-105410000D01*
X212428666Y-108881334D01*
G37*
X212428666Y-108881334D02*
X213021333Y-108881334D01*
X213021333Y-105983192D01*
X213233000Y-106121881D01*
X213375940Y-106206652D01*
X213433537Y-106182444D01*
X213444616Y-106021769D01*
X213444666Y-105972023D01*
X213371995Y-105692264D01*
X213164545Y-105502299D01*
X212838167Y-105414557D01*
X212727979Y-105410000D01*
X212428666Y-105410000D01*
X212428666Y-108881334D01*
G36*
X195900566Y-112162167D02*
G01*
X195876333Y-112987667D01*
X195495333Y-112322926D01*
X195261777Y-111920278D01*
X195089365Y-111643494D01*
X194957171Y-111470321D01*
X194844272Y-111378505D01*
X194729746Y-111345793D01*
X194592667Y-111349931D01*
X194581520Y-111351043D01*
X194306798Y-111379000D01*
X194721406Y-112046835D01*
X195136015Y-112714670D01*
X194773359Y-113496034D01*
X194603152Y-113859766D01*
X194444143Y-114194327D01*
X194319586Y-114451028D01*
X194273510Y-114542699D01*
X194136318Y-114808000D01*
X194471453Y-114808000D01*
X194707025Y-114787010D01*
X194826923Y-114709281D01*
X194861267Y-114635726D01*
X194922322Y-114477817D01*
X195033503Y-114218563D01*
X195172526Y-113909690D01*
X195195650Y-113859585D01*
X195475355Y-113255718D01*
X195697011Y-113606843D01*
X195864763Y-113960146D01*
X195918394Y-114346731D01*
X195918666Y-114382984D01*
X195924156Y-114634221D01*
X195957995Y-114759735D01*
X196046236Y-114803124D01*
X196172666Y-114808000D01*
X196426666Y-114808000D01*
X196426666Y-111336667D01*
X195924798Y-111336667D01*
X195900566Y-112162167D01*
G37*
X195900566Y-112162167D02*
X195876333Y-112987667D01*
X195495333Y-112322926D01*
X195261777Y-111920278D01*
X195089365Y-111643494D01*
X194957171Y-111470321D01*
X194844272Y-111378505D01*
X194729746Y-111345793D01*
X194592667Y-111349931D01*
X194581520Y-111351043D01*
X194306798Y-111379000D01*
X194721406Y-112046835D01*
X195136015Y-112714670D01*
X194773359Y-113496034D01*
X194603152Y-113859766D01*
X194444143Y-114194327D01*
X194319586Y-114451028D01*
X194273510Y-114542699D01*
X194136318Y-114808000D01*
X194471453Y-114808000D01*
X194707025Y-114787010D01*
X194826923Y-114709281D01*
X194861267Y-114635726D01*
X194922322Y-114477817D01*
X195033503Y-114218563D01*
X195172526Y-113909690D01*
X195195650Y-113859585D01*
X195475355Y-113255718D01*
X195697011Y-113606843D01*
X195864763Y-113960146D01*
X195918394Y-114346731D01*
X195918666Y-114382984D01*
X195924156Y-114634221D01*
X195957995Y-114759735D01*
X196046236Y-114803124D01*
X196172666Y-114808000D01*
X196426666Y-114808000D01*
X196426666Y-111336667D01*
X195924798Y-111336667D01*
X195900566Y-112162167D01*
G36*
X197019333Y-111844667D02*
G01*
X198374000Y-111844667D01*
X198374000Y-112776000D01*
X197188666Y-112776000D01*
X197188666Y-113368667D01*
X198374000Y-113368667D01*
X198374000Y-114300000D01*
X197019333Y-114300000D01*
X197019333Y-114808000D01*
X198882000Y-114808000D01*
X198882000Y-111336667D01*
X197019333Y-111336667D01*
X197019333Y-111844667D01*
G37*
X197019333Y-111844667D02*
X198374000Y-111844667D01*
X198374000Y-112776000D01*
X197188666Y-112776000D01*
X197188666Y-113368667D01*
X198374000Y-113368667D01*
X198374000Y-114300000D01*
X197019333Y-114300000D01*
X197019333Y-114808000D01*
X198882000Y-114808000D01*
X198882000Y-111336667D01*
X197019333Y-111336667D01*
X197019333Y-111844667D01*
G36*
X200039382Y-111378074D02*
G01*
X199743533Y-111571865D01*
X199544547Y-111859777D01*
X199474983Y-112204500D01*
X199501250Y-112374611D01*
X199616298Y-112432163D01*
X199707500Y-112435501D01*
X199896953Y-112390599D01*
X200031752Y-112231368D01*
X200067333Y-112160334D01*
X200237493Y-111943370D01*
X200459750Y-111853855D01*
X200687280Y-111904153D01*
X200776356Y-111973118D01*
X200839113Y-112068748D01*
X200880220Y-112226590D01*
X200903595Y-112477739D01*
X200913158Y-112853290D01*
X200914000Y-113065259D01*
X200910659Y-113490441D01*
X200897338Y-113779933D01*
X200869088Y-113967302D01*
X200820963Y-114086117D01*
X200751649Y-114166681D01*
X200521276Y-114284811D01*
X200294803Y-114245509D01*
X200106554Y-114057924D01*
X200067333Y-113984333D01*
X199937923Y-113785399D01*
X199769401Y-113712678D01*
X199707500Y-113709166D01*
X199536430Y-113735120D01*
X199478078Y-113848833D01*
X199474666Y-113924566D01*
X199546198Y-114298800D01*
X199751994Y-114578176D01*
X200078856Y-114751075D01*
X200476013Y-114806118D01*
X200767526Y-114792403D01*
X200963293Y-114731645D01*
X201135443Y-114598973D01*
X201167261Y-114567765D01*
X201321611Y-114364814D01*
X201426191Y-114099757D01*
X201485723Y-113745859D01*
X201504934Y-113276382D01*
X201491621Y-112732187D01*
X201451378Y-112236359D01*
X201370945Y-111878614D01*
X201235362Y-111629597D01*
X201029672Y-111459949D01*
X200790951Y-111357028D01*
X200399414Y-111299446D01*
X200039382Y-111378074D01*
G37*
X200039382Y-111378074D02*
X199743533Y-111571865D01*
X199544547Y-111859777D01*
X199474983Y-112204500D01*
X199501250Y-112374611D01*
X199616298Y-112432163D01*
X199707500Y-112435501D01*
X199896953Y-112390599D01*
X200031752Y-112231368D01*
X200067333Y-112160334D01*
X200237493Y-111943370D01*
X200459750Y-111853855D01*
X200687280Y-111904153D01*
X200776356Y-111973118D01*
X200839113Y-112068748D01*
X200880220Y-112226590D01*
X200903595Y-112477739D01*
X200913158Y-112853290D01*
X200914000Y-113065259D01*
X200910659Y-113490441D01*
X200897338Y-113779933D01*
X200869088Y-113967302D01*
X200820963Y-114086117D01*
X200751649Y-114166681D01*
X200521276Y-114284811D01*
X200294803Y-114245509D01*
X200106554Y-114057924D01*
X200067333Y-113984333D01*
X199937923Y-113785399D01*
X199769401Y-113712678D01*
X199707500Y-113709166D01*
X199536430Y-113735120D01*
X199478078Y-113848833D01*
X199474666Y-113924566D01*
X199546198Y-114298800D01*
X199751994Y-114578176D01*
X200078856Y-114751075D01*
X200476013Y-114806118D01*
X200767526Y-114792403D01*
X200963293Y-114731645D01*
X201135443Y-114598973D01*
X201167261Y-114567765D01*
X201321611Y-114364814D01*
X201426191Y-114099757D01*
X201485723Y-113745859D01*
X201504934Y-113276382D01*
X201491621Y-112732187D01*
X201451378Y-112236359D01*
X201370945Y-111878614D01*
X201235362Y-111629597D01*
X201029672Y-111459949D01*
X200790951Y-111357028D01*
X200399414Y-111299446D01*
X200039382Y-111378074D01*
G36*
X202099333Y-114808000D02*
G01*
X202607333Y-114808000D01*
X202607333Y-111336667D01*
X202099333Y-111336667D01*
X202099333Y-114808000D01*
G37*
X202099333Y-114808000D02*
X202607333Y-114808000D01*
X202607333Y-111336667D01*
X202099333Y-111336667D01*
X202099333Y-114808000D01*
G36*
X203764715Y-111378074D02*
G01*
X203468867Y-111571865D01*
X203269880Y-111859777D01*
X203200316Y-112204500D01*
X203226584Y-112374611D01*
X203341632Y-112432163D01*
X203432833Y-112435501D01*
X203622286Y-112390599D01*
X203757085Y-112231368D01*
X203792666Y-112160334D01*
X203962826Y-111943370D01*
X204185083Y-111853855D01*
X204412614Y-111904153D01*
X204501689Y-111973118D01*
X204564446Y-112068748D01*
X204605553Y-112226590D01*
X204628929Y-112477739D01*
X204638492Y-112853290D01*
X204639333Y-113065259D01*
X204635992Y-113490441D01*
X204622671Y-113779933D01*
X204594422Y-113967302D01*
X204546296Y-114086117D01*
X204476982Y-114166681D01*
X204246610Y-114284811D01*
X204020136Y-114245509D01*
X203831888Y-114057924D01*
X203792666Y-113984333D01*
X203663256Y-113785399D01*
X203494735Y-113712678D01*
X203432833Y-113709166D01*
X203261763Y-113735120D01*
X203203411Y-113848833D01*
X203200000Y-113924566D01*
X203271531Y-114298800D01*
X203477327Y-114578176D01*
X203804189Y-114751075D01*
X204201346Y-114806118D01*
X204492859Y-114792403D01*
X204688626Y-114731645D01*
X204860776Y-114598973D01*
X204892594Y-114567765D01*
X205046945Y-114364814D01*
X205151524Y-114099757D01*
X205211057Y-113745859D01*
X205230268Y-113276382D01*
X205216954Y-112732187D01*
X205176712Y-112236359D01*
X205096278Y-111878614D01*
X204960696Y-111629597D01*
X204755005Y-111459949D01*
X204516284Y-111357028D01*
X204124748Y-111299446D01*
X203764715Y-111378074D01*
G37*
X203764715Y-111378074D02*
X203468867Y-111571865D01*
X203269880Y-111859777D01*
X203200316Y-112204500D01*
X203226584Y-112374611D01*
X203341632Y-112432163D01*
X203432833Y-112435501D01*
X203622286Y-112390599D01*
X203757085Y-112231368D01*
X203792666Y-112160334D01*
X203962826Y-111943370D01*
X204185083Y-111853855D01*
X204412614Y-111904153D01*
X204501689Y-111973118D01*
X204564446Y-112068748D01*
X204605553Y-112226590D01*
X204628929Y-112477739D01*
X204638492Y-112853290D01*
X204639333Y-113065259D01*
X204635992Y-113490441D01*
X204622671Y-113779933D01*
X204594422Y-113967302D01*
X204546296Y-114086117D01*
X204476982Y-114166681D01*
X204246610Y-114284811D01*
X204020136Y-114245509D01*
X203831888Y-114057924D01*
X203792666Y-113984333D01*
X203663256Y-113785399D01*
X203494735Y-113712678D01*
X203432833Y-113709166D01*
X203261763Y-113735120D01*
X203203411Y-113848833D01*
X203200000Y-113924566D01*
X203271531Y-114298800D01*
X203477327Y-114578176D01*
X203804189Y-114751075D01*
X204201346Y-114806118D01*
X204492859Y-114792403D01*
X204688626Y-114731645D01*
X204860776Y-114598973D01*
X204892594Y-114567765D01*
X205046945Y-114364814D01*
X205151524Y-114099757D01*
X205211057Y-113745859D01*
X205230268Y-113276382D01*
X205216954Y-112732187D01*
X205176712Y-112236359D01*
X205096278Y-111878614D01*
X204960696Y-111629597D01*
X204755005Y-111459949D01*
X204516284Y-111357028D01*
X204124748Y-111299446D01*
X203764715Y-111378074D01*
G36*
X206925333Y-114808000D02*
G01*
X207433333Y-114808000D01*
X207433333Y-111336667D01*
X206925333Y-111336667D01*
X206925333Y-114808000D01*
G37*
X206925333Y-114808000D02*
X207433333Y-114808000D01*
X207433333Y-111336667D01*
X206925333Y-111336667D01*
X206925333Y-114808000D01*
G36*
X209347054Y-111349661D02*
G01*
X208887391Y-111380310D01*
X208567472Y-111442697D01*
X208358510Y-111552124D01*
X208231715Y-111723895D01*
X208158297Y-111973313D01*
X208156558Y-111982475D01*
X208144380Y-112282229D01*
X208203446Y-112573126D01*
X208316357Y-112799771D01*
X208445290Y-112901717D01*
X208530780Y-112945549D01*
X208516181Y-113019162D01*
X208389714Y-113161051D01*
X208355392Y-113195583D01*
X208164209Y-113497176D01*
X208094660Y-113860649D01*
X208148500Y-114228290D01*
X208314903Y-114528112D01*
X208420513Y-114639023D01*
X208533536Y-114710562D01*
X208694187Y-114753292D01*
X208942683Y-114777778D01*
X209319239Y-114794584D01*
X209330903Y-114795006D01*
X210142666Y-114824346D01*
X210142666Y-113284000D01*
X209634666Y-113284000D01*
X209634666Y-114300000D01*
X209259714Y-114300000D01*
X208960387Y-114266326D01*
X208761117Y-114175762D01*
X208751714Y-114166953D01*
X208639169Y-113947252D01*
X208633150Y-113665433D01*
X208706312Y-113447767D01*
X208803844Y-113343292D01*
X208981656Y-113294060D01*
X209214312Y-113284000D01*
X209634666Y-113284000D01*
X210142666Y-113284000D01*
X210142666Y-111844667D01*
X209634666Y-111844667D01*
X209634666Y-112776000D01*
X209270600Y-112776000D01*
X209021112Y-112753655D01*
X208838098Y-112697776D01*
X208804933Y-112674400D01*
X208737232Y-112526669D01*
X208704021Y-112297171D01*
X208703333Y-112260125D01*
X208726913Y-112041018D01*
X208820285Y-111914450D01*
X209017397Y-111856900D01*
X209302925Y-111844667D01*
X209634666Y-111844667D01*
X210142666Y-111844667D01*
X210142666Y-111320321D01*
X209347054Y-111349661D01*
G37*
X209347054Y-111349661D02*
X208887391Y-111380310D01*
X208567472Y-111442697D01*
X208358510Y-111552124D01*
X208231715Y-111723895D01*
X208158297Y-111973313D01*
X208156558Y-111982475D01*
X208144380Y-112282229D01*
X208203446Y-112573126D01*
X208316357Y-112799771D01*
X208445290Y-112901717D01*
X208530780Y-112945549D01*
X208516181Y-113019162D01*
X208389714Y-113161051D01*
X208355392Y-113195583D01*
X208164209Y-113497176D01*
X208094660Y-113860649D01*
X208148500Y-114228290D01*
X208314903Y-114528112D01*
X208420513Y-114639023D01*
X208533536Y-114710562D01*
X208694187Y-114753292D01*
X208942683Y-114777778D01*
X209319239Y-114794584D01*
X209330903Y-114795006D01*
X210142666Y-114824346D01*
X210142666Y-113284000D01*
X209634666Y-113284000D01*
X209634666Y-114300000D01*
X209259714Y-114300000D01*
X208960387Y-114266326D01*
X208761117Y-114175762D01*
X208751714Y-114166953D01*
X208639169Y-113947252D01*
X208633150Y-113665433D01*
X208706312Y-113447767D01*
X208803844Y-113343292D01*
X208981656Y-113294060D01*
X209214312Y-113284000D01*
X209634666Y-113284000D01*
X210142666Y-113284000D01*
X210142666Y-111844667D01*
X209634666Y-111844667D01*
X209634666Y-112776000D01*
X209270600Y-112776000D01*
X209021112Y-112753655D01*
X208838098Y-112697776D01*
X208804933Y-112674400D01*
X208737232Y-112526669D01*
X208704021Y-112297171D01*
X208703333Y-112260125D01*
X208726913Y-112041018D01*
X208820285Y-111914450D01*
X209017397Y-111856900D01*
X209302925Y-111844667D01*
X209634666Y-111844667D01*
X210142666Y-111844667D01*
X210142666Y-111320321D01*
X209347054Y-111349661D01*
G36*
X210650666Y-111844667D02*
G01*
X212005333Y-111844667D01*
X212005333Y-112776000D01*
X210820000Y-112776000D01*
X210820000Y-113368667D01*
X212005333Y-113368667D01*
X212005333Y-114300000D01*
X210650666Y-114300000D01*
X210650666Y-114808000D01*
X212513333Y-114808000D01*
X212513333Y-111336667D01*
X210650666Y-111336667D01*
X210650666Y-111844667D01*
G37*
X210650666Y-111844667D02*
X212005333Y-111844667D01*
X212005333Y-112776000D01*
X210820000Y-112776000D01*
X210820000Y-113368667D01*
X212005333Y-113368667D01*
X212005333Y-114300000D01*
X210650666Y-114300000D01*
X210650666Y-114808000D01*
X212513333Y-114808000D01*
X212513333Y-111336667D01*
X210650666Y-111336667D01*
X210650666Y-111844667D01*
G36*
X215124745Y-111352469D02*
G01*
X215017435Y-111370551D01*
X214927005Y-111416646D01*
X214837372Y-111514597D01*
X214732458Y-111688247D01*
X214596179Y-111961439D01*
X214412454Y-112358017D01*
X214341579Y-112513635D01*
X213825666Y-113648271D01*
X213802111Y-112492469D01*
X213778555Y-111336667D01*
X213275333Y-111336667D01*
X213275333Y-114808000D01*
X213515899Y-114808000D01*
X213612475Y-114798787D01*
X213698018Y-114756070D01*
X213788026Y-114657237D01*
X213897996Y-114479672D01*
X214043423Y-114200762D01*
X214239807Y-113797892D01*
X214313677Y-113643834D01*
X214870888Y-112479667D01*
X214877444Y-113643834D01*
X214884000Y-114808000D01*
X215392000Y-114808000D01*
X215392000Y-111325938D01*
X215124745Y-111352469D01*
G37*
X215124745Y-111352469D02*
X215017435Y-111370551D01*
X214927005Y-111416646D01*
X214837372Y-111514597D01*
X214732458Y-111688247D01*
X214596179Y-111961439D01*
X214412454Y-112358017D01*
X214341579Y-112513635D01*
X213825666Y-113648271D01*
X213802111Y-112492469D01*
X213778555Y-111336667D01*
X213275333Y-111336667D01*
X213275333Y-114808000D01*
X213515899Y-114808000D01*
X213612475Y-114798787D01*
X213698018Y-114756070D01*
X213788026Y-114657237D01*
X213897996Y-114479672D01*
X214043423Y-114200762D01*
X214239807Y-113797892D01*
X214313677Y-113643834D01*
X214870888Y-112479667D01*
X214877444Y-113643834D01*
X214884000Y-114808000D01*
X215392000Y-114808000D01*
X215392000Y-111325938D01*
X215124745Y-111352469D01*
G36*
X195918666Y-120734667D02*
G01*
X196511333Y-120734667D01*
X196511333Y-117836525D01*
X196723000Y-117975214D01*
X196865940Y-118059986D01*
X196923537Y-118035778D01*
X196934616Y-117875102D01*
X196934666Y-117825356D01*
X196861995Y-117545597D01*
X196654545Y-117355632D01*
X196328167Y-117267890D01*
X196217979Y-117263334D01*
X195918666Y-117263334D01*
X195918666Y-120734667D01*
G37*
X195918666Y-120734667D02*
X196511333Y-120734667D01*
X196511333Y-117836525D01*
X196723000Y-117975214D01*
X196865940Y-118059986D01*
X196923537Y-118035778D01*
X196934616Y-117875102D01*
X196934666Y-117825356D01*
X196861995Y-117545597D01*
X196654545Y-117355632D01*
X196328167Y-117267890D01*
X196217979Y-117263334D01*
X195918666Y-117263334D01*
X195918666Y-120734667D01*
G36*
X197942165Y-117265623D02*
G01*
X197630057Y-117429224D01*
X197430142Y-117709780D01*
X197358031Y-118085156D01*
X197358000Y-118093864D01*
X197411053Y-118355740D01*
X197563658Y-118726356D01*
X197805983Y-119185190D01*
X198128198Y-119711718D01*
X198146477Y-119739834D01*
X198463870Y-120226667D01*
X197358000Y-120226667D01*
X197358000Y-120734667D01*
X199136000Y-120734667D01*
X199136000Y-120482825D01*
X199083170Y-120273348D01*
X198923148Y-119947749D01*
X198653639Y-119501574D01*
X198539088Y-119325305D01*
X198284292Y-118930693D01*
X198114204Y-118642816D01*
X198014384Y-118431137D01*
X197970394Y-118265120D01*
X197967588Y-118116647D01*
X197999871Y-117913956D01*
X198081114Y-117829873D01*
X198247000Y-117813667D01*
X198469854Y-117862517D01*
X198584577Y-118004167D01*
X198706748Y-118143126D01*
X198877930Y-118202844D01*
X199038983Y-118180622D01*
X199130766Y-118073763D01*
X199136000Y-118029317D01*
X199061709Y-117691156D01*
X198859164Y-117431436D01*
X198558857Y-117269663D01*
X198191282Y-117225343D01*
X197942165Y-117265623D01*
G37*
X197942165Y-117265623D02*
X197630057Y-117429224D01*
X197430142Y-117709780D01*
X197358031Y-118085156D01*
X197358000Y-118093864D01*
X197411053Y-118355740D01*
X197563658Y-118726356D01*
X197805983Y-119185190D01*
X198128198Y-119711718D01*
X198146477Y-119739834D01*
X198463870Y-120226667D01*
X197358000Y-120226667D01*
X197358000Y-120734667D01*
X199136000Y-120734667D01*
X199136000Y-120482825D01*
X199083170Y-120273348D01*
X198923148Y-119947749D01*
X198653639Y-119501574D01*
X198539088Y-119325305D01*
X198284292Y-118930693D01*
X198114204Y-118642816D01*
X198014384Y-118431137D01*
X197970394Y-118265120D01*
X197967588Y-118116647D01*
X197999871Y-117913956D01*
X198081114Y-117829873D01*
X198247000Y-117813667D01*
X198469854Y-117862517D01*
X198584577Y-118004167D01*
X198706748Y-118143126D01*
X198877930Y-118202844D01*
X199038983Y-118180622D01*
X199130766Y-118073763D01*
X199136000Y-118029317D01*
X199061709Y-117691156D01*
X198859164Y-117431436D01*
X198558857Y-117269663D01*
X198191282Y-117225343D01*
X197942165Y-117265623D01*
G36*
X200274461Y-117250720D02*
G01*
X200073492Y-117328677D01*
X199916206Y-117460634D01*
X199818609Y-117566621D01*
X199752162Y-117676724D01*
X199709556Y-117825966D01*
X199683486Y-118049369D01*
X199666643Y-118381956D01*
X199656180Y-118706908D01*
X199646169Y-119281117D01*
X199657814Y-119714528D01*
X199695445Y-120034789D01*
X199763394Y-120269548D01*
X199865989Y-120446450D01*
X199942096Y-120532460D01*
X200125663Y-120668147D01*
X200358862Y-120725470D01*
X200550318Y-120732092D01*
X200826854Y-120712075D01*
X201051597Y-120664564D01*
X201112433Y-120638779D01*
X201274630Y-120489187D01*
X201390208Y-120244735D01*
X201463920Y-119885647D01*
X201500521Y-119392148D01*
X201501470Y-119331423D01*
X200901172Y-119331423D01*
X200899611Y-119696707D01*
X200891418Y-119969645D01*
X200877204Y-120114174D01*
X200874903Y-120121764D01*
X200757267Y-120203472D01*
X200554749Y-120210908D01*
X200279000Y-120184334D01*
X200279000Y-117813667D01*
X200871666Y-117813667D01*
X200895487Y-118909856D01*
X200901172Y-119331423D01*
X201501470Y-119331423D01*
X201506666Y-118999000D01*
X201490962Y-118393812D01*
X201437355Y-117937308D01*
X201336108Y-117611195D01*
X201177481Y-117397182D01*
X200951737Y-117276977D01*
X200649137Y-117232290D01*
X200565246Y-117230769D01*
X200274461Y-117250720D01*
G37*
X200274461Y-117250720D02*
X200073492Y-117328677D01*
X199916206Y-117460634D01*
X199818609Y-117566621D01*
X199752162Y-117676724D01*
X199709556Y-117825966D01*
X199683486Y-118049369D01*
X199666643Y-118381956D01*
X199656180Y-118706908D01*
X199646169Y-119281117D01*
X199657814Y-119714528D01*
X199695445Y-120034789D01*
X199763394Y-120269548D01*
X199865989Y-120446450D01*
X199942096Y-120532460D01*
X200125663Y-120668147D01*
X200358862Y-120725470D01*
X200550318Y-120732092D01*
X200826854Y-120712075D01*
X201051597Y-120664564D01*
X201112433Y-120638779D01*
X201274630Y-120489187D01*
X201390208Y-120244735D01*
X201463920Y-119885647D01*
X201500521Y-119392148D01*
X201501470Y-119331423D01*
X200901172Y-119331423D01*
X200899611Y-119696707D01*
X200891418Y-119969645D01*
X200877204Y-120114174D01*
X200874903Y-120121764D01*
X200757267Y-120203472D01*
X200554749Y-120210908D01*
X200279000Y-120184334D01*
X200279000Y-117813667D01*
X200871666Y-117813667D01*
X200895487Y-118909856D01*
X200901172Y-119331423D01*
X201501470Y-119331423D01*
X201506666Y-118999000D01*
X201490962Y-118393812D01*
X201437355Y-117937308D01*
X201336108Y-117611195D01*
X201177481Y-117397182D01*
X200951737Y-117276977D01*
X200649137Y-117232290D01*
X200565246Y-117230769D01*
X200274461Y-117250720D01*
G36*
X202598832Y-117265623D02*
G01*
X202286724Y-117429224D01*
X202086809Y-117709780D01*
X202014698Y-118085156D01*
X202014666Y-118093864D01*
X202067720Y-118355740D01*
X202220324Y-118726356D01*
X202462650Y-119185190D01*
X202784865Y-119711718D01*
X202803144Y-119739834D01*
X203120537Y-120226667D01*
X202014666Y-120226667D01*
X202014666Y-120734667D01*
X203792666Y-120734667D01*
X203792666Y-120482825D01*
X203739836Y-120273348D01*
X203579815Y-119947749D01*
X203310305Y-119501574D01*
X203195755Y-119325305D01*
X202940959Y-118930693D01*
X202770871Y-118642816D01*
X202671051Y-118431137D01*
X202627061Y-118265120D01*
X202624255Y-118116647D01*
X202656538Y-117913956D01*
X202737781Y-117829873D01*
X202903666Y-117813667D01*
X203126521Y-117862517D01*
X203241243Y-118004167D01*
X203363415Y-118143126D01*
X203534597Y-118202844D01*
X203695649Y-118180622D01*
X203787432Y-118073763D01*
X203792666Y-118029317D01*
X203718375Y-117691156D01*
X203515830Y-117431436D01*
X203215524Y-117269663D01*
X202847948Y-117225343D01*
X202598832Y-117265623D01*
G37*
X202598832Y-117265623D02*
X202286724Y-117429224D01*
X202086809Y-117709780D01*
X202014698Y-118085156D01*
X202014666Y-118093864D01*
X202067720Y-118355740D01*
X202220324Y-118726356D01*
X202462650Y-119185190D01*
X202784865Y-119711718D01*
X202803144Y-119739834D01*
X203120537Y-120226667D01*
X202014666Y-120226667D01*
X202014666Y-120734667D01*
X203792666Y-120734667D01*
X203792666Y-120482825D01*
X203739836Y-120273348D01*
X203579815Y-119947749D01*
X203310305Y-119501574D01*
X203195755Y-119325305D01*
X202940959Y-118930693D01*
X202770871Y-118642816D01*
X202671051Y-118431137D01*
X202627061Y-118265120D01*
X202624255Y-118116647D01*
X202656538Y-117913956D01*
X202737781Y-117829873D01*
X202903666Y-117813667D01*
X203126521Y-117862517D01*
X203241243Y-118004167D01*
X203363415Y-118143126D01*
X203534597Y-118202844D01*
X203695649Y-118180622D01*
X203787432Y-118073763D01*
X203792666Y-118029317D01*
X203718375Y-117691156D01*
X203515830Y-117431436D01*
X203215524Y-117269663D01*
X202847948Y-117225343D01*
X202598832Y-117265623D01*
G36*
X206318688Y-117325650D02*
G01*
X206063995Y-117555806D01*
X205899435Y-117886049D01*
X205845823Y-118294056D01*
X205862529Y-118491000D01*
X205914794Y-118704212D01*
X206018819Y-119027239D01*
X206159026Y-119414528D01*
X206304010Y-119782167D01*
X206469445Y-120181345D01*
X206589182Y-120449748D01*
X206681632Y-120613328D01*
X206765205Y-120698039D01*
X206858312Y-120729834D01*
X206979361Y-120734667D01*
X206979671Y-120734667D01*
X207170858Y-120726363D01*
X207262602Y-120706054D01*
X207264000Y-120702904D01*
X207231305Y-120616700D01*
X207144154Y-120414447D01*
X207018948Y-120133889D01*
X206967666Y-120020880D01*
X206832665Y-119720478D01*
X206729877Y-119483837D01*
X206675744Y-119349125D01*
X206671333Y-119332976D01*
X206745138Y-119306677D01*
X206923285Y-119295343D01*
X206929182Y-119295334D01*
X207219382Y-119217684D01*
X207394848Y-119087515D01*
X207508807Y-118950489D01*
X207571915Y-118791888D01*
X207598359Y-118558090D01*
X207602666Y-118302021D01*
X207595542Y-118179757D01*
X207078674Y-118179757D01*
X207059497Y-118516089D01*
X206947239Y-118721155D01*
X206756000Y-118787334D01*
X206576275Y-118726272D01*
X206507193Y-118666591D01*
X206450495Y-118510894D01*
X206429958Y-118267606D01*
X206433326Y-118179757D01*
X206457865Y-117951660D01*
X206515162Y-117845801D01*
X206646533Y-117815304D01*
X206756000Y-117813667D01*
X206941357Y-117823708D01*
X207031460Y-117885082D01*
X207067628Y-118044668D01*
X207078674Y-118179757D01*
X207595542Y-118179757D01*
X207578080Y-117880106D01*
X207492080Y-117589233D01*
X207326306Y-117396675D01*
X207062399Y-117269706D01*
X207015207Y-117254890D01*
X206642697Y-117217904D01*
X206318688Y-117325650D01*
G37*
X206318688Y-117325650D02*
X206063995Y-117555806D01*
X205899435Y-117886049D01*
X205845823Y-118294056D01*
X205862529Y-118491000D01*
X205914794Y-118704212D01*
X206018819Y-119027239D01*
X206159026Y-119414528D01*
X206304010Y-119782167D01*
X206469445Y-120181345D01*
X206589182Y-120449748D01*
X206681632Y-120613328D01*
X206765205Y-120698039D01*
X206858312Y-120729834D01*
X206979361Y-120734667D01*
X206979671Y-120734667D01*
X207170858Y-120726363D01*
X207262602Y-120706054D01*
X207264000Y-120702904D01*
X207231305Y-120616700D01*
X207144154Y-120414447D01*
X207018948Y-120133889D01*
X206967666Y-120020880D01*
X206832665Y-119720478D01*
X206729877Y-119483837D01*
X206675744Y-119349125D01*
X206671333Y-119332976D01*
X206745138Y-119306677D01*
X206923285Y-119295343D01*
X206929182Y-119295334D01*
X207219382Y-119217684D01*
X207394848Y-119087515D01*
X207508807Y-118950489D01*
X207571915Y-118791888D01*
X207598359Y-118558090D01*
X207602666Y-118302021D01*
X207595542Y-118179757D01*
X207078674Y-118179757D01*
X207059497Y-118516089D01*
X206947239Y-118721155D01*
X206756000Y-118787334D01*
X206576275Y-118726272D01*
X206507193Y-118666591D01*
X206450495Y-118510894D01*
X206429958Y-118267606D01*
X206433326Y-118179757D01*
X206457865Y-117951660D01*
X206515162Y-117845801D01*
X206646533Y-117815304D01*
X206756000Y-117813667D01*
X206941357Y-117823708D01*
X207031460Y-117885082D01*
X207067628Y-118044668D01*
X207078674Y-118179757D01*
X207595542Y-118179757D01*
X207578080Y-117880106D01*
X207492080Y-117589233D01*
X207326306Y-117396675D01*
X207062399Y-117269706D01*
X207015207Y-117254890D01*
X206642697Y-117217904D01*
X206318688Y-117325650D01*
G36*
X208825795Y-117250720D02*
G01*
X208624825Y-117328677D01*
X208467539Y-117460634D01*
X208369943Y-117566621D01*
X208303495Y-117676724D01*
X208260890Y-117825966D01*
X208234819Y-118049369D01*
X208217976Y-118381956D01*
X208207513Y-118706908D01*
X208197502Y-119281117D01*
X208209147Y-119714528D01*
X208246779Y-120034789D01*
X208314727Y-120269548D01*
X208417322Y-120446450D01*
X208493429Y-120532460D01*
X208676996Y-120668147D01*
X208910196Y-120725470D01*
X209101651Y-120732092D01*
X209378187Y-120712075D01*
X209602930Y-120664564D01*
X209663766Y-120638779D01*
X209825964Y-120489187D01*
X209941541Y-120244735D01*
X210015253Y-119885647D01*
X210051855Y-119392148D01*
X210052804Y-119331423D01*
X209452505Y-119331423D01*
X209450944Y-119696707D01*
X209442751Y-119969645D01*
X209428537Y-120114174D01*
X209426236Y-120121764D01*
X209308600Y-120203472D01*
X209106082Y-120210908D01*
X208830333Y-120184334D01*
X208830333Y-117813667D01*
X209423000Y-117813667D01*
X209446821Y-118909856D01*
X209452505Y-119331423D01*
X210052804Y-119331423D01*
X210058000Y-118999000D01*
X210042295Y-118393812D01*
X209988688Y-117937308D01*
X209887441Y-117611195D01*
X209728815Y-117397182D01*
X209503071Y-117276977D01*
X209200470Y-117232290D01*
X209116579Y-117230769D01*
X208825795Y-117250720D01*
G37*
X208825795Y-117250720D02*
X208624825Y-117328677D01*
X208467539Y-117460634D01*
X208369943Y-117566621D01*
X208303495Y-117676724D01*
X208260890Y-117825966D01*
X208234819Y-118049369D01*
X208217976Y-118381956D01*
X208207513Y-118706908D01*
X208197502Y-119281117D01*
X208209147Y-119714528D01*
X208246779Y-120034789D01*
X208314727Y-120269548D01*
X208417322Y-120446450D01*
X208493429Y-120532460D01*
X208676996Y-120668147D01*
X208910196Y-120725470D01*
X209101651Y-120732092D01*
X209378187Y-120712075D01*
X209602930Y-120664564D01*
X209663766Y-120638779D01*
X209825964Y-120489187D01*
X209941541Y-120244735D01*
X210015253Y-119885647D01*
X210051855Y-119392148D01*
X210052804Y-119331423D01*
X209452505Y-119331423D01*
X209450944Y-119696707D01*
X209442751Y-119969645D01*
X209428537Y-120114174D01*
X209426236Y-120121764D01*
X209308600Y-120203472D01*
X209106082Y-120210908D01*
X208830333Y-120184334D01*
X208830333Y-117813667D01*
X209423000Y-117813667D01*
X209446821Y-118909856D01*
X209452505Y-119331423D01*
X210052804Y-119331423D01*
X210058000Y-118999000D01*
X210042295Y-118393812D01*
X209988688Y-117937308D01*
X209887441Y-117611195D01*
X209728815Y-117397182D01*
X209503071Y-117276977D01*
X209200470Y-117232290D01*
X209116579Y-117230769D01*
X208825795Y-117250720D01*
G36*
X212259333Y-117771334D02*
G01*
X213275333Y-117771334D01*
X213275333Y-118111613D01*
X213267066Y-118326668D01*
X213222317Y-118412739D01*
X213111163Y-118410049D01*
X213062023Y-118398356D01*
X212769643Y-118398174D01*
X212489032Y-118514807D01*
X212289809Y-118716921D01*
X212270316Y-118754707D01*
X212221506Y-118945591D01*
X212187040Y-119240301D01*
X212174666Y-119558883D01*
X212202982Y-120039739D01*
X212297188Y-120378423D01*
X212471173Y-120593916D01*
X212738828Y-120705199D01*
X213033120Y-120731974D01*
X213390261Y-120690408D01*
X213605787Y-120586500D01*
X213733927Y-120429889D01*
X213841255Y-120216395D01*
X213904014Y-120007743D01*
X213898447Y-119865655D01*
X213888484Y-119852040D01*
X213724990Y-119791739D01*
X213527052Y-119839092D01*
X213368868Y-119971869D01*
X213344594Y-120015000D01*
X213191627Y-120183607D01*
X212983447Y-120224416D01*
X212784266Y-120125067D01*
X212728627Y-119989192D01*
X212691724Y-119745312D01*
X212682666Y-119535379D01*
X212692998Y-119244226D01*
X212733552Y-119073987D01*
X212818672Y-118976991D01*
X212857677Y-118953628D01*
X213033742Y-118906865D01*
X213222778Y-118984626D01*
X213235699Y-118992983D01*
X213466569Y-119094384D01*
X213653354Y-119126000D01*
X213868000Y-119126000D01*
X213868000Y-117263334D01*
X212259333Y-117263334D01*
X212259333Y-117771334D01*
G37*
X212259333Y-117771334D02*
X213275333Y-117771334D01*
X213275333Y-118111613D01*
X213267066Y-118326668D01*
X213222317Y-118412739D01*
X213111163Y-118410049D01*
X213062023Y-118398356D01*
X212769643Y-118398174D01*
X212489032Y-118514807D01*
X212289809Y-118716921D01*
X212270316Y-118754707D01*
X212221506Y-118945591D01*
X212187040Y-119240301D01*
X212174666Y-119558883D01*
X212202982Y-120039739D01*
X212297188Y-120378423D01*
X212471173Y-120593916D01*
X212738828Y-120705199D01*
X213033120Y-120731974D01*
X213390261Y-120690408D01*
X213605787Y-120586500D01*
X213733927Y-120429889D01*
X213841255Y-120216395D01*
X213904014Y-120007743D01*
X213898447Y-119865655D01*
X213888484Y-119852040D01*
X213724990Y-119791739D01*
X213527052Y-119839092D01*
X213368868Y-119971869D01*
X213344594Y-120015000D01*
X213191627Y-120183607D01*
X212983447Y-120224416D01*
X212784266Y-120125067D01*
X212728627Y-119989192D01*
X212691724Y-119745312D01*
X212682666Y-119535379D01*
X212692998Y-119244226D01*
X212733552Y-119073987D01*
X212818672Y-118976991D01*
X212857677Y-118953628D01*
X213033742Y-118906865D01*
X213222778Y-118984626D01*
X213235699Y-118992983D01*
X213466569Y-119094384D01*
X213653354Y-119126000D01*
X213868000Y-119126000D01*
X213868000Y-117263334D01*
X212259333Y-117263334D01*
X212259333Y-117771334D01*
G36*
X214545333Y-120734667D02*
G01*
X215138000Y-120734667D01*
X215138000Y-117836525D01*
X215349667Y-117975214D01*
X215492607Y-118059986D01*
X215550204Y-118035778D01*
X215561283Y-117875102D01*
X215561333Y-117825356D01*
X215488662Y-117545597D01*
X215281212Y-117355632D01*
X214954833Y-117267890D01*
X214844645Y-117263334D01*
X214545333Y-117263334D01*
X214545333Y-120734667D01*
G37*
X214545333Y-120734667D02*
X215138000Y-120734667D01*
X215138000Y-117836525D01*
X215349667Y-117975214D01*
X215492607Y-118059986D01*
X215550204Y-118035778D01*
X215561283Y-117875102D01*
X215561333Y-117825356D01*
X215488662Y-117545597D01*
X215281212Y-117355632D01*
X214954833Y-117267890D01*
X214844645Y-117263334D01*
X214545333Y-117263334D01*
X214545333Y-120734667D01*
G36*
X204245478Y-116839686D02*
G01*
X204222071Y-116840000D01*
X203978873Y-116840000D01*
X204562414Y-119104834D01*
X204714659Y-119696369D01*
X204852144Y-120231787D01*
X204969465Y-120689944D01*
X205061219Y-121049699D01*
X205122002Y-121289908D01*
X205146411Y-121389429D01*
X205146644Y-121390834D01*
X205221033Y-121405586D01*
X205399794Y-121411992D01*
X205407039Y-121412000D01*
X205585775Y-121392810D01*
X205633725Y-121318847D01*
X205622986Y-121263834D01*
X205589447Y-121139526D01*
X205521129Y-120878202D01*
X205425035Y-120506945D01*
X205308169Y-120052835D01*
X205177536Y-119542955D01*
X205146712Y-119422334D01*
X204963275Y-118703508D01*
X204816589Y-118131757D01*
X204700649Y-117690307D01*
X204609449Y-117362385D01*
X204536984Y-117131219D01*
X204477248Y-116980036D01*
X204424235Y-116892064D01*
X204371939Y-116850530D01*
X204314356Y-116838662D01*
X204245478Y-116839686D01*
G37*
X204245478Y-116839686D02*
X204222071Y-116840000D01*
X203978873Y-116840000D01*
X204562414Y-119104834D01*
X204714659Y-119696369D01*
X204852144Y-120231787D01*
X204969465Y-120689944D01*
X205061219Y-121049699D01*
X205122002Y-121289908D01*
X205146411Y-121389429D01*
X205146644Y-121390834D01*
X205221033Y-121405586D01*
X205399794Y-121411992D01*
X205407039Y-121412000D01*
X205585775Y-121392810D01*
X205633725Y-121318847D01*
X205622986Y-121263834D01*
X205589447Y-121139526D01*
X205521129Y-120878202D01*
X205425035Y-120506945D01*
X205308169Y-120052835D01*
X205177536Y-119542955D01*
X205146712Y-119422334D01*
X204963275Y-118703508D01*
X204816589Y-118131757D01*
X204700649Y-117690307D01*
X204609449Y-117362385D01*
X204536984Y-117131219D01*
X204477248Y-116980036D01*
X204424235Y-116892064D01*
X204371939Y-116850530D01*
X204314356Y-116838662D01*
X204245478Y-116839686D01*
G36*
X210510812Y-116839686D02*
G01*
X210487405Y-116840000D01*
X210244206Y-116840000D01*
X210827747Y-119104834D01*
X210979993Y-119696369D01*
X211117477Y-120231787D01*
X211234798Y-120689944D01*
X211326552Y-121049699D01*
X211387335Y-121289908D01*
X211411745Y-121389429D01*
X211411977Y-121390834D01*
X211486367Y-121405586D01*
X211665127Y-121411992D01*
X211672372Y-121412000D01*
X211851108Y-121392810D01*
X211899059Y-121318847D01*
X211888319Y-121263834D01*
X211854781Y-121139526D01*
X211786462Y-120878202D01*
X211690368Y-120506945D01*
X211573503Y-120052835D01*
X211442870Y-119542955D01*
X211412045Y-119422334D01*
X211228608Y-118703508D01*
X211081922Y-118131757D01*
X210965982Y-117690307D01*
X210874783Y-117362385D01*
X210802318Y-117131219D01*
X210742581Y-116980036D01*
X210689568Y-116892064D01*
X210637273Y-116850530D01*
X210579689Y-116838662D01*
X210510812Y-116839686D01*
G37*
X210510812Y-116839686D02*
X210487405Y-116840000D01*
X210244206Y-116840000D01*
X210827747Y-119104834D01*
X210979993Y-119696369D01*
X211117477Y-120231787D01*
X211234798Y-120689944D01*
X211326552Y-121049699D01*
X211387335Y-121289908D01*
X211411745Y-121389429D01*
X211411977Y-121390834D01*
X211486367Y-121405586D01*
X211665127Y-121411992D01*
X211672372Y-121412000D01*
X211851108Y-121392810D01*
X211899059Y-121318847D01*
X211888319Y-121263834D01*
X211854781Y-121139526D01*
X211786462Y-120878202D01*
X211690368Y-120506945D01*
X211573503Y-120052835D01*
X211442870Y-119542955D01*
X211412045Y-119422334D01*
X211228608Y-118703508D01*
X211081922Y-118131757D01*
X210965982Y-117690307D01*
X210874783Y-117362385D01*
X210802318Y-117131219D01*
X210742581Y-116980036D01*
X210689568Y-116892064D01*
X210637273Y-116850530D01*
X210579689Y-116838662D01*
X210510812Y-116839686D01*
D11*
X183956000Y-106994000D02*
X178756000Y-106994000D01*
X183956000Y-99314000D02*
X183956000Y-106994000D01*
X178756000Y-96714000D02*
X178756000Y-106994000D01*
X183956000Y-99314000D02*
X181356000Y-99314000D01*
X181356000Y-99314000D02*
X181356000Y-96714000D01*
X181356000Y-96714000D02*
X178756000Y-96714000D01*
X183956000Y-98044000D02*
X183956000Y-96714000D01*
X183956000Y-96714000D02*
X182626000Y-96714000D01*
D12*
X181689333Y-95166380D02*
X181689333Y-95880666D01*
X181736952Y-96023523D01*
X181832190Y-96118761D01*
X181975047Y-96166380D01*
X182070285Y-96166380D01*
X180736952Y-95166380D02*
X181213142Y-95166380D01*
X181260761Y-95642571D01*
X181213142Y-95594952D01*
X181117904Y-95547333D01*
X180879809Y-95547333D01*
X180784571Y-95594952D01*
X180736952Y-95642571D01*
X180689333Y-95737809D01*
X180689333Y-95975904D01*
X180736952Y-96071142D01*
X180784571Y-96118761D01*
X180879809Y-96166380D01*
X181117904Y-96166380D01*
X181213142Y-96118761D01*
X181260761Y-96071142D01*
M02*
