G04 #@! TF.GenerationSoftware,KiCad,Pcbnew,(5.1.10)-1*
G04 #@! TF.CreationDate,2021-09-22T21:53:00-04:00*
G04 #@! TF.ProjectId,rf-vga,72662d76-6761-42e6-9b69-6361645f7063,rev?*
G04 #@! TF.SameCoordinates,Original*
G04 #@! TF.FileFunction,Copper,L4,Bot*
G04 #@! TF.FilePolarity,Positive*
%FSLAX46Y46*%
G04 Gerber Fmt 4.6, Leading zero omitted, Abs format (unit mm)*
G04 Created by KiCad (PCBNEW (5.1.10)-1) date 2021-09-22 21:53:00*
%MOMM*%
%LPD*%
G01*
G04 APERTURE LIST*
G04 #@! TA.AperFunction,ComponentPad*
%ADD10O,1.700000X1.700000*%
G04 #@! TD*
G04 #@! TA.AperFunction,ComponentPad*
%ADD11R,1.700000X1.700000*%
G04 #@! TD*
G04 #@! TA.AperFunction,ComponentPad*
%ADD12R,3.500000X3.500000*%
G04 #@! TD*
G04 #@! TA.AperFunction,ComponentPad*
%ADD13R,2.000000X2.000000*%
G04 #@! TD*
G04 #@! TA.AperFunction,ComponentPad*
%ADD14C,2.000000*%
G04 #@! TD*
G04 #@! TA.AperFunction,ComponentPad*
%ADD15C,3.200000*%
G04 #@! TD*
G04 #@! TA.AperFunction,ComponentPad*
%ADD16C,0.400000*%
G04 #@! TD*
G04 #@! TA.AperFunction,SMDPad,CuDef*
%ADD17R,4.200000X1.350000*%
G04 #@! TD*
G04 #@! TA.AperFunction,SMDPad,CuDef*
%ADD18R,2.500000X2.500000*%
G04 #@! TD*
G04 #@! TA.AperFunction,ComponentPad*
%ADD19C,0.500000*%
G04 #@! TD*
G04 #@! TA.AperFunction,ComponentPad*
%ADD20C,1.100000*%
G04 #@! TD*
G04 #@! TA.AperFunction,ComponentPad*
%ADD21R,1.100000X1.100000*%
G04 #@! TD*
G04 #@! TA.AperFunction,ViaPad*
%ADD22C,0.600000*%
G04 #@! TD*
G04 #@! TA.AperFunction,ViaPad*
%ADD23C,0.800000*%
G04 #@! TD*
G04 #@! TA.AperFunction,Conductor*
%ADD24C,0.250000*%
G04 #@! TD*
G04 APERTURE END LIST*
D10*
X180086000Y-105664000D03*
X182626000Y-105664000D03*
X180086000Y-103124000D03*
X182626000Y-103124000D03*
X180086000Y-100584000D03*
X182626000Y-100584000D03*
X180086000Y-98044000D03*
D11*
X182626000Y-98044000D03*
G04 #@! TA.AperFunction,ComponentPad*
G36*
G01*
X171780000Y-132575000D02*
X171780000Y-130825000D01*
G75*
G02*
X172655000Y-129950000I875000J0D01*
G01*
X174405000Y-129950000D01*
G75*
G02*
X175280000Y-130825000I0J-875000D01*
G01*
X175280000Y-132575000D01*
G75*
G02*
X174405000Y-133450000I-875000J0D01*
G01*
X172655000Y-133450000D01*
G75*
G02*
X171780000Y-132575000I0J875000D01*
G01*
G37*
G04 #@! TD.AperFunction*
G04 #@! TA.AperFunction,ComponentPad*
G36*
G01*
X169030000Y-128000000D02*
X169030000Y-126000000D01*
G75*
G02*
X169780000Y-125250000I750000J0D01*
G01*
X171280000Y-125250000D01*
G75*
G02*
X172030000Y-126000000I0J-750000D01*
G01*
X172030000Y-128000000D01*
G75*
G02*
X171280000Y-128750000I-750000J0D01*
G01*
X169780000Y-128750000D01*
G75*
G02*
X169030000Y-128000000I0J750000D01*
G01*
G37*
G04 #@! TD.AperFunction*
D12*
X176530000Y-127000000D03*
D13*
X201295000Y-124460000D03*
D14*
X201295000Y-126960000D03*
X201295000Y-129460000D03*
D15*
X208795000Y-121360000D03*
X208795000Y-132560000D03*
D14*
X215795000Y-124460000D03*
X215795000Y-129460000D03*
D10*
X183515000Y-118745000D03*
D11*
X186055000Y-118745000D03*
D10*
X171450000Y-118745000D03*
D11*
X173990000Y-118745000D03*
D16*
X207010000Y-80772000D03*
X205486000Y-80772000D03*
X205994000Y-80772000D03*
X204978000Y-80772000D03*
X207518000Y-80772000D03*
X208026000Y-80772000D03*
X206502000Y-80772000D03*
X204470000Y-80772000D03*
X207010000Y-75692000D03*
X205486000Y-75692000D03*
X205994000Y-75692000D03*
X204978000Y-75692000D03*
X207518000Y-75692000D03*
X208026000Y-75692000D03*
X206502000Y-75692000D03*
X204470000Y-75692000D03*
X207010000Y-75057000D03*
X205486000Y-75057000D03*
X205994000Y-75057000D03*
X204978000Y-75057000D03*
X207518000Y-75057000D03*
X208026000Y-75057000D03*
X206502000Y-75057000D03*
X204470000Y-75057000D03*
X207518000Y-81407000D03*
X208026000Y-81407000D03*
X206502000Y-81407000D03*
X207010000Y-81407000D03*
X205486000Y-81407000D03*
X205994000Y-81407000D03*
X204978000Y-81407000D03*
X204470000Y-81407000D03*
D17*
X206248000Y-75407000D03*
X206248000Y-81057000D03*
D16*
X175206000Y-75692000D03*
X176730000Y-75692000D03*
X176222000Y-75692000D03*
X177238000Y-75692000D03*
X174698000Y-75692000D03*
X174190000Y-75692000D03*
X175714000Y-75692000D03*
X177746000Y-75692000D03*
X175206000Y-80772000D03*
X176730000Y-80772000D03*
X176222000Y-80772000D03*
X177238000Y-80772000D03*
X174698000Y-80772000D03*
X174190000Y-80772000D03*
X175714000Y-80772000D03*
X177746000Y-80772000D03*
X175206000Y-81407000D03*
X176730000Y-81407000D03*
X176222000Y-81407000D03*
X177238000Y-81407000D03*
X174698000Y-81407000D03*
X174190000Y-81407000D03*
X175714000Y-81407000D03*
X177746000Y-81407000D03*
X174698000Y-75057000D03*
X174190000Y-75057000D03*
X175714000Y-75057000D03*
X175206000Y-75057000D03*
X176730000Y-75057000D03*
X176222000Y-75057000D03*
X177238000Y-75057000D03*
X177746000Y-75057000D03*
D17*
X175968000Y-81057000D03*
X175968000Y-75407000D03*
D18*
X190500000Y-78486000D03*
D19*
X189500000Y-79486000D03*
X189500000Y-78486000D03*
X189500000Y-77486000D03*
X190500000Y-79486000D03*
X190500000Y-78486000D03*
X190500000Y-77486000D03*
X191500000Y-79486000D03*
X191500000Y-78486000D03*
X191500000Y-77486000D03*
D10*
X167005000Y-114300000D03*
X169545000Y-114300000D03*
X172085000Y-114300000D03*
D11*
X174625000Y-114300000D03*
D10*
X172720000Y-93980000D03*
X170180000Y-93980000D03*
D11*
X167640000Y-93980000D03*
D20*
X188468000Y-99314000D03*
X191008000Y-99314000D03*
X193548000Y-99314000D03*
X196088000Y-99314000D03*
X198628000Y-99314000D03*
X201168000Y-99314000D03*
X203708000Y-99314000D03*
X206248000Y-99314000D03*
X206248000Y-109474000D03*
X203708000Y-109474000D03*
X201168000Y-109474000D03*
X198628000Y-109474000D03*
X196088000Y-109474000D03*
X193548000Y-109474000D03*
X191008000Y-109474000D03*
D21*
X188468000Y-109474000D03*
D22*
X216154000Y-108204000D03*
X216154000Y-98044000D03*
X216154000Y-103124000D03*
X216154000Y-110744000D03*
X216154000Y-105664000D03*
X216154000Y-100584000D03*
X166370000Y-129794000D03*
X166370000Y-119634000D03*
X166370000Y-124714000D03*
X166370000Y-132334000D03*
X166370000Y-127254000D03*
X166370000Y-122174000D03*
X177292000Y-73660000D03*
X179832000Y-73660000D03*
X182372000Y-73660000D03*
X184912000Y-73660000D03*
X197612000Y-73660000D03*
X202692000Y-73660000D03*
X195072000Y-73660000D03*
X200152000Y-73660000D03*
X205232000Y-73660000D03*
X195072000Y-85344000D03*
X199926000Y-91412000D03*
X201958000Y-91412000D03*
X198120000Y-91440000D03*
X203708000Y-91440000D03*
X191770000Y-91440000D03*
X193802000Y-91440000D03*
X190246000Y-82550000D03*
X190246000Y-83820000D03*
X190246000Y-85090000D03*
X185674000Y-72898000D03*
X186690000Y-72136000D03*
X187960000Y-72136000D03*
X189230000Y-72136000D03*
X190500000Y-72136000D03*
X191516000Y-72898000D03*
X185166000Y-74930000D03*
X184150000Y-77216000D03*
X184150000Y-75692000D03*
X185181000Y-76439000D03*
X165100000Y-103632000D03*
X169926000Y-96774000D03*
X170688000Y-97536000D03*
X178054000Y-123698000D03*
X178816000Y-123698000D03*
X180340000Y-127508000D03*
X178816000Y-129540000D03*
X179324000Y-128016000D03*
X188976000Y-120904000D03*
X190500000Y-120904000D03*
X192532000Y-120904000D03*
X194056000Y-120904000D03*
X191770000Y-131318000D03*
X191770000Y-129794000D03*
X191770000Y-128778000D03*
X191770058Y-133349998D03*
X180580000Y-131332000D03*
X181170000Y-132080000D03*
X182499000Y-132080000D03*
X200660000Y-118872000D03*
X207010000Y-118872000D03*
X216154000Y-117094000D03*
X192532000Y-114300000D03*
X196596000Y-114300000D03*
X200660000Y-114300000D03*
X204851000Y-114300000D03*
X173483321Y-110871000D03*
X176276000Y-100075970D03*
X165100000Y-100583974D03*
X207772000Y-85344000D03*
X205232000Y-85344000D03*
X202692000Y-85344000D03*
X200152000Y-85344000D03*
X197612000Y-85344000D03*
X184912000Y-85344000D03*
X187452000Y-85344000D03*
X177292000Y-85344000D03*
X182372000Y-85344000D03*
X179832000Y-85344000D03*
X174752000Y-85344000D03*
X184784986Y-90297000D03*
X185927964Y-91440000D03*
X195834000Y-130302000D03*
X195834000Y-131572000D03*
X195834000Y-133350000D03*
X195834000Y-132334000D03*
X187198000Y-129540000D03*
X187198000Y-130301988D03*
X187198000Y-128778000D03*
X187198000Y-128016000D03*
X168910000Y-96774000D03*
X174498000Y-110871000D03*
X182880000Y-121412000D03*
X184404000Y-121412000D03*
X181356000Y-121412000D03*
X213995000Y-116078000D03*
X200533000Y-120015000D03*
X203200000Y-116204990D03*
X175260000Y-100076000D03*
X164896179Y-106192687D03*
X168148000Y-97535990D03*
X182880000Y-127254000D03*
X182880000Y-126238000D03*
X182880000Y-125222000D03*
D23*
X168381236Y-101807075D03*
D22*
X167640000Y-100330000D03*
X168284990Y-106807000D03*
X194818000Y-80264000D03*
X168275000Y-109728000D03*
X193548000Y-81788004D03*
X166106010Y-107493041D03*
X194297994Y-79236000D03*
X169545000Y-101854000D03*
X172974000Y-100965000D03*
X170141202Y-102479010D03*
X177377537Y-105494930D03*
X176791434Y-104237123D03*
X178679010Y-104419909D03*
X181356000Y-107950000D03*
X178816000Y-108340990D03*
X178816000Y-109855000D03*
X179197000Y-111379000D03*
X171069000Y-115951000D03*
X176784000Y-106648962D03*
X177012487Y-107898974D03*
X190754000Y-107975002D03*
X187223002Y-107975002D03*
X182880000Y-109982000D03*
X175259988Y-107442000D03*
X174117000Y-112649000D03*
X178435000Y-113030000D03*
X172212000Y-109601000D03*
X177673000Y-111125000D03*
X174752000Y-92202000D03*
X169418000Y-100965000D03*
X184912000Y-101854000D03*
X191516000Y-101854000D03*
X196342000Y-101854000D03*
X170561000Y-101092000D03*
X174752000Y-93472000D03*
X172507449Y-96815451D03*
X172507154Y-98336054D03*
X176755506Y-93912023D03*
X188976034Y-106680000D03*
X184150000Y-108712000D03*
X174107002Y-101701153D03*
X193548000Y-106680000D03*
X175452345Y-95696345D03*
X175615012Y-93912021D03*
X191516000Y-103378000D03*
X176967331Y-110033229D03*
X173990000Y-106807000D03*
X193548005Y-103377995D03*
X175514008Y-110871008D03*
X172233310Y-110870990D03*
X191516000Y-105156000D03*
X178435006Y-112014000D03*
X171245828Y-110894417D03*
X193548012Y-105156000D03*
X178520539Y-99526539D03*
X177042788Y-102987111D03*
X178601538Y-102909538D03*
X177413362Y-103696120D03*
X173990000Y-103886000D03*
X172212000Y-104267000D03*
D24*
X167640000Y-100330000D02*
X167640000Y-106162010D01*
X167640000Y-106162010D02*
X168284990Y-106807000D01*
X178121919Y-87376000D02*
X190882411Y-87376000D01*
X172720000Y-92777919D02*
X178121919Y-87376000D01*
X195117999Y-80563999D02*
X194818000Y-80264000D01*
X195117999Y-83140412D02*
X195117999Y-80563999D01*
X190882411Y-87376000D02*
X195117999Y-83140412D01*
X172720000Y-93980000D02*
X172720000Y-92777919D01*
X166878000Y-108331000D02*
X168275000Y-109728000D01*
X170180000Y-93980000D02*
X166878000Y-97282000D01*
X166878000Y-97282000D02*
X166878000Y-108331000D01*
X170180000Y-93980000D02*
X182371996Y-81788004D01*
X182371996Y-81788004D02*
X193548000Y-81788004D01*
X166106010Y-97037990D02*
X166106010Y-107493041D01*
X167640000Y-95504000D02*
X166106010Y-97037990D01*
X167640000Y-93980000D02*
X167640000Y-95504000D01*
X194297994Y-79514006D02*
X194297994Y-79236000D01*
X193064002Y-80747998D02*
X194297994Y-79514006D01*
X180872002Y-80747998D02*
X193064002Y-80747998D01*
X167640000Y-93980000D02*
X180872002Y-80747998D01*
X172974000Y-100965000D02*
X172085000Y-101854000D01*
X172085000Y-101854000D02*
X169545000Y-101854000D01*
X169545000Y-114300000D02*
X168910000Y-113665000D01*
X168910000Y-102489000D02*
X169545000Y-101854000D01*
X168910000Y-113665000D02*
X168910000Y-102489000D01*
X169418000Y-103202212D02*
X170141202Y-102479010D01*
X169418000Y-111633000D02*
X169418000Y-103202212D01*
X172085000Y-114300000D02*
X169418000Y-111633000D01*
X180086000Y-105664000D02*
X177546607Y-105664000D01*
X177546607Y-105664000D02*
X177377537Y-105494930D01*
X176791434Y-104237123D02*
X176974220Y-104419909D01*
X176974220Y-104419909D02*
X178679010Y-104419909D01*
X180086000Y-103924998D02*
X181356000Y-105194998D01*
X180086000Y-103124000D02*
X180086000Y-103924998D01*
X181356000Y-105194998D02*
X181356000Y-107950000D01*
X178816000Y-108340990D02*
X178816000Y-109474000D01*
X178816000Y-109474000D02*
X178816000Y-109855000D01*
X177165000Y-115951000D02*
X171069000Y-115951000D01*
X179197000Y-113919000D02*
X177165000Y-115951000D01*
X179197000Y-111379000D02*
X179197000Y-113919000D01*
X177012487Y-106877449D02*
X176784000Y-106648962D01*
X177012487Y-107898974D02*
X177012487Y-106877449D01*
X190754000Y-107975002D02*
X187223002Y-107975002D01*
X182880000Y-109982000D02*
X182381998Y-110480002D01*
X175477996Y-107442000D02*
X175259988Y-107442000D01*
X182381998Y-110480002D02*
X178515998Y-110480002D01*
X178515998Y-110480002D02*
X175477996Y-107442000D01*
X174117000Y-112649000D02*
X178054000Y-112649000D01*
X178054000Y-112649000D02*
X178435000Y-113030000D01*
X176693002Y-111125000D02*
X177673000Y-111125000D01*
X175169002Y-109601000D02*
X176693002Y-111125000D01*
X172212000Y-109601000D02*
X175169002Y-109601000D01*
X171577000Y-98806000D02*
X169418000Y-100965000D01*
X171577000Y-96862002D02*
X171577000Y-98806000D01*
X174117000Y-94322002D02*
X171577000Y-96862002D01*
X174117000Y-92837000D02*
X174117000Y-94322002D01*
X174752000Y-92202000D02*
X174117000Y-92837000D01*
X191516000Y-101854000D02*
X196342000Y-101854000D01*
X171831000Y-101092000D02*
X170561000Y-101092000D01*
X176530000Y-96393000D02*
X171831000Y-101092000D01*
X183515000Y-96393000D02*
X176530000Y-96393000D01*
X184912000Y-97790000D02*
X183515000Y-96393000D01*
X184912000Y-101854000D02*
X184912000Y-97790000D01*
X174752000Y-94570900D02*
X172507449Y-96815451D01*
X174752000Y-93472000D02*
X174752000Y-94570900D01*
X176755506Y-95277084D02*
X176755506Y-93912023D01*
X173696536Y-98336054D02*
X176755506Y-95277084D01*
X172507154Y-98336054D02*
X173696536Y-98336054D01*
X173228000Y-102580155D02*
X174107002Y-101701153D01*
X180112012Y-108712000D02*
X179116001Y-107715989D01*
X173228000Y-105348330D02*
X173228000Y-102580155D01*
X173640352Y-105760682D02*
X173228000Y-105348330D01*
X177077536Y-106094022D02*
X176744196Y-105760682D01*
X176744196Y-105760682D02*
X173640352Y-105760682D01*
X177130286Y-106094022D02*
X177077536Y-106094022D01*
X178752253Y-107715989D02*
X177130286Y-106094022D01*
X179116001Y-107715989D02*
X178752253Y-107715989D01*
X184150000Y-108712000D02*
X180112012Y-108712000D01*
X188976034Y-106680000D02*
X193421002Y-106680000D01*
X193421002Y-106680000D02*
X193548000Y-106680000D01*
X175452345Y-94074688D02*
X175615012Y-93912021D01*
X175452345Y-95696345D02*
X175452345Y-94074688D01*
X174244000Y-107061000D02*
X173990000Y-106807000D01*
X174244000Y-107859002D02*
X174244000Y-107061000D01*
X176418227Y-110033229D02*
X174244000Y-107859002D01*
X176967331Y-110033229D02*
X176418227Y-110033229D01*
X193548000Y-103378000D02*
X193548005Y-103377995D01*
X191516000Y-103378000D02*
X193548000Y-103378000D01*
X175514008Y-110871008D02*
X174833017Y-111551999D01*
X174833017Y-111551999D02*
X172914319Y-111551999D01*
X172914319Y-111551999D02*
X172233310Y-110870990D01*
X172365411Y-112014000D02*
X171245828Y-110894417D01*
X178435006Y-112014000D02*
X172365411Y-112014000D01*
X191516000Y-105156000D02*
X193548012Y-105156000D01*
X182626000Y-98044000D02*
X181443460Y-99226540D01*
X178820538Y-99226540D02*
X178520539Y-99526539D01*
X181443460Y-99226540D02*
X178820538Y-99226540D01*
X182626000Y-100584000D02*
X181450999Y-101759001D01*
X181450999Y-101759001D02*
X178270898Y-101759001D01*
X178270898Y-101759001D02*
X177042788Y-102987111D01*
X177814956Y-103696120D02*
X177413362Y-103696120D01*
X178601538Y-102909538D02*
X177814956Y-103696120D01*
X180086000Y-100584000D02*
X178435000Y-100584000D01*
X178435000Y-100584000D02*
X178181000Y-100584000D01*
X174879000Y-103886000D02*
X173990000Y-103886000D01*
X178181000Y-100584000D02*
X174879000Y-103886000D01*
X174634999Y-100193001D02*
X172212000Y-102616000D01*
X180086000Y-98044000D02*
X176366998Y-98044000D01*
X176366998Y-98044000D02*
X174634999Y-99775999D01*
X174634999Y-99775999D02*
X174634999Y-100193001D01*
X172212000Y-102616000D02*
X172212000Y-104267000D01*
M02*
