%FSLAX45Y45*%
G04 Gerber Fmt 4.5, Leading zero omitted, Abs format (unit mm)*
G04 Created by KiCad (PCBNEW (5.1.10)-1) date 2021-09-22 21:53:58*
%MOMM*%
%LPD*%
G01*
G04 APERTURE LIST*
%TA.AperFunction,Profile*%
%ADD10C,0.050000*%
%TD*%
%ADD11C,0.200000*%
%ADD12C,0.300000*%
G04 APERTURE END LIST*
D10*
X21793200Y-13208000D02*
G75*
G02*
X21539200Y-13462000I-254000J0D01*
G01*
X16662400Y-13462000D02*
G75*
G02*
X16408400Y-13208000I0J254000D01*
G01*
X20574000Y-7112000D02*
G75*
G02*
X20828000Y-7366000I0J-254000D01*
G01*
X17373600Y-7366000D02*
G75*
G02*
X17627600Y-7112000I254000J0D01*
G01*
X17373600Y-8280400D02*
G75*
G02*
X17119600Y-8534400I-254000J0D01*
G01*
X21082000Y-8534400D02*
X21539200Y-8534400D01*
X21082000Y-8534400D02*
G75*
G02*
X20828000Y-8280400I0J254000D01*
G01*
X16662400Y-8534400D02*
X17119600Y-8534400D01*
X16408400Y-8788400D02*
G75*
G02*
X16662400Y-8534400I254000J0D01*
G01*
X21539200Y-8534400D02*
G75*
G02*
X21793200Y-8788400I0J-254000D01*
G01*
X21793200Y-8788400D02*
X21793200Y-8940800D01*
X16662400Y-13462000D02*
X21539200Y-13462000D01*
X16408400Y-8788400D02*
X16408400Y-13208000D01*
X17373600Y-7366000D02*
X17373600Y-8280400D01*
X20574000Y-7112000D02*
X17627600Y-7112000D01*
X20828000Y-8280400D02*
X20828000Y-7366000D01*
X21793200Y-13208000D02*
X21793200Y-8940800D01*
D11*
D12*
X16692328Y-13930214D02*
X16692328Y-13630214D01*
X16763757Y-13630214D01*
X16806614Y-13644500D01*
X16835186Y-13673071D01*
X16849471Y-13701643D01*
X16863757Y-13758786D01*
X16863757Y-13801643D01*
X16849471Y-13858786D01*
X16835186Y-13887357D01*
X16806614Y-13915929D01*
X16763757Y-13930214D01*
X16692328Y-13930214D01*
X16992328Y-13930214D02*
X16992328Y-13730214D01*
X16992328Y-13787357D02*
X17006614Y-13758786D01*
X17020900Y-13744500D01*
X17049471Y-13730214D01*
X17078043Y-13730214D01*
X17178043Y-13930214D02*
X17178043Y-13730214D01*
X17178043Y-13630214D02*
X17163757Y-13644500D01*
X17178043Y-13658786D01*
X17192328Y-13644500D01*
X17178043Y-13630214D01*
X17178043Y-13658786D01*
X17363757Y-13930214D02*
X17335186Y-13915929D01*
X17320900Y-13887357D01*
X17320900Y-13630214D01*
X17520900Y-13930214D02*
X17492328Y-13915929D01*
X17478043Y-13887357D01*
X17478043Y-13630214D01*
X17863757Y-13930214D02*
X17863757Y-13630214D01*
X17963757Y-13844500D01*
X18063757Y-13630214D01*
X18063757Y-13930214D01*
X18335186Y-13930214D02*
X18335186Y-13773071D01*
X18320900Y-13744500D01*
X18292328Y-13730214D01*
X18235186Y-13730214D01*
X18206614Y-13744500D01*
X18335186Y-13915929D02*
X18306614Y-13930214D01*
X18235186Y-13930214D01*
X18206614Y-13915929D01*
X18192328Y-13887357D01*
X18192328Y-13858786D01*
X18206614Y-13830214D01*
X18235186Y-13815929D01*
X18306614Y-13815929D01*
X18335186Y-13801643D01*
X18478043Y-13730214D02*
X18478043Y-14030214D01*
X18478043Y-13744500D02*
X18506614Y-13730214D01*
X18563757Y-13730214D01*
X18592328Y-13744500D01*
X18606614Y-13758786D01*
X18620900Y-13787357D01*
X18620900Y-13873071D01*
X18606614Y-13901643D01*
X18592328Y-13915929D01*
X18563757Y-13930214D01*
X18506614Y-13930214D01*
X18478043Y-13915929D01*
X18749471Y-13901643D02*
X18763757Y-13915929D01*
X18749471Y-13930214D01*
X18735186Y-13915929D01*
X18749471Y-13901643D01*
X18749471Y-13930214D01*
X18749471Y-13744500D02*
X18763757Y-13758786D01*
X18749471Y-13773071D01*
X18735186Y-13758786D01*
X18749471Y-13744500D01*
X18749471Y-13773071D01*
M02*
