G04 #@! TF.GenerationSoftware,KiCad,Pcbnew,(5.1.10)-1*
G04 #@! TF.CreationDate,2021-09-22T21:53:00-04:00*
G04 #@! TF.ProjectId,rf-vga,72662d76-6761-42e6-9b69-6361645f7063,rev?*
G04 #@! TF.SameCoordinates,Original*
G04 #@! TF.FileFunction,Paste,Top*
G04 #@! TF.FilePolarity,Positive*
%FSLAX46Y46*%
G04 Gerber Fmt 4.6, Leading zero omitted, Abs format (unit mm)*
G04 Created by KiCad (PCBNEW (5.1.10)-1) date 2021-09-22 21:53:00*
%MOMM*%
%LPD*%
G01*
G04 APERTURE LIST*
%ADD10R,3.300000X1.270000*%
%ADD11R,3.300000X0.400000*%
%ADD12R,2.750000X3.050000*%
%ADD13R,1.200000X2.200000*%
%ADD14R,3.600000X0.900000*%
%ADD15R,4.200000X1.350000*%
%ADD16R,1.500000X2.000000*%
%ADD17R,3.800000X2.000000*%
%ADD18C,0.100000*%
%ADD19R,0.800000X0.900000*%
G04 APERTURE END LIST*
G36*
G01*
X195348400Y-90405799D02*
X195348400Y-91305801D01*
G75*
G02*
X195098401Y-91555800I-249999J0D01*
G01*
X194398399Y-91555800D01*
G75*
G02*
X194148400Y-91305801I0J249999D01*
G01*
X194148400Y-90405799D01*
G75*
G02*
X194398399Y-90155800I249999J0D01*
G01*
X195098401Y-90155800D01*
G75*
G02*
X195348400Y-90405799I0J-249999D01*
G01*
G37*
G36*
G01*
X197348400Y-90405799D02*
X197348400Y-91305801D01*
G75*
G02*
X197098401Y-91555800I-249999J0D01*
G01*
X196398399Y-91555800D01*
G75*
G02*
X196148400Y-91305801I0J249999D01*
G01*
X196148400Y-90405799D01*
G75*
G02*
X196398399Y-90155800I249999J0D01*
G01*
X197098401Y-90155800D01*
G75*
G02*
X197348400Y-90405799I0J-249999D01*
G01*
G37*
G36*
G01*
X187208000Y-89915750D02*
X187208000Y-90678250D01*
G75*
G02*
X186989250Y-90897000I-218750J0D01*
G01*
X186551750Y-90897000D01*
G75*
G02*
X186333000Y-90678250I0J218750D01*
G01*
X186333000Y-89915750D01*
G75*
G02*
X186551750Y-89697000I218750J0D01*
G01*
X186989250Y-89697000D01*
G75*
G02*
X187208000Y-89915750I0J-218750D01*
G01*
G37*
G36*
G01*
X189333000Y-89915750D02*
X189333000Y-90678250D01*
G75*
G02*
X189114250Y-90897000I-218750J0D01*
G01*
X188676750Y-90897000D01*
G75*
G02*
X188458000Y-90678250I0J218750D01*
G01*
X188458000Y-89915750D01*
G75*
G02*
X188676750Y-89697000I218750J0D01*
G01*
X189114250Y-89697000D01*
G75*
G02*
X189333000Y-89915750I0J-218750D01*
G01*
G37*
G36*
G01*
X187081000Y-86740750D02*
X187081000Y-87503250D01*
G75*
G02*
X186862250Y-87722000I-218750J0D01*
G01*
X186424750Y-87722000D01*
G75*
G02*
X186206000Y-87503250I0J218750D01*
G01*
X186206000Y-86740750D01*
G75*
G02*
X186424750Y-86522000I218750J0D01*
G01*
X186862250Y-86522000D01*
G75*
G02*
X187081000Y-86740750I0J-218750D01*
G01*
G37*
G36*
G01*
X189206000Y-86740750D02*
X189206000Y-87503250D01*
G75*
G02*
X188987250Y-87722000I-218750J0D01*
G01*
X188549750Y-87722000D01*
G75*
G02*
X188331000Y-87503250I0J218750D01*
G01*
X188331000Y-86740750D01*
G75*
G02*
X188549750Y-86522000I218750J0D01*
G01*
X188987250Y-86522000D01*
G75*
G02*
X189206000Y-86740750I0J-218750D01*
G01*
G37*
G36*
G01*
X198062000Y-75531725D02*
X198062000Y-74582275D01*
G75*
G02*
X198312275Y-74332000I250275J0D01*
G01*
X198986725Y-74332000D01*
G75*
G02*
X199237000Y-74582275I0J-250275D01*
G01*
X199237000Y-75531725D01*
G75*
G02*
X198986725Y-75782000I-250275J0D01*
G01*
X198312275Y-75782000D01*
G75*
G02*
X198062000Y-75531725I0J250275D01*
G01*
G37*
G36*
G01*
X195987000Y-75532000D02*
X195987000Y-74582000D01*
G75*
G02*
X196237000Y-74332000I250000J0D01*
G01*
X196912000Y-74332000D01*
G75*
G02*
X197162000Y-74582000I0J-250000D01*
G01*
X197162000Y-75532000D01*
G75*
G02*
X196912000Y-75782000I-250000J0D01*
G01*
X196237000Y-75782000D01*
G75*
G02*
X195987000Y-75532000I0J250000D01*
G01*
G37*
G36*
G01*
X196578200Y-77462880D02*
X196258200Y-77462880D01*
G75*
G02*
X196098200Y-77302880I0J160000D01*
G01*
X196098200Y-76857880D01*
G75*
G02*
X196258200Y-76697880I160000J0D01*
G01*
X196578200Y-76697880D01*
G75*
G02*
X196738200Y-76857880I0J-160000D01*
G01*
X196738200Y-77302880D01*
G75*
G02*
X196578200Y-77462880I-160000J0D01*
G01*
G37*
G36*
G01*
X196668200Y-78425380D02*
X196168200Y-78425380D01*
G75*
G02*
X196068200Y-78325380I0J100000D01*
G01*
X196068200Y-78125380D01*
G75*
G02*
X196168200Y-78025380I100000J0D01*
G01*
X196668200Y-78025380D01*
G75*
G02*
X196768200Y-78125380I0J-100000D01*
G01*
X196768200Y-78325380D01*
G75*
G02*
X196668200Y-78425380I-100000J0D01*
G01*
G37*
G36*
G01*
X175968000Y-99230000D02*
X175968000Y-98890000D01*
G75*
G02*
X176108000Y-98750000I140000J0D01*
G01*
X176388000Y-98750000D01*
G75*
G02*
X176528000Y-98890000I0J-140000D01*
G01*
X176528000Y-99230000D01*
G75*
G02*
X176388000Y-99370000I-140000J0D01*
G01*
X176108000Y-99370000D01*
G75*
G02*
X175968000Y-99230000I0J140000D01*
G01*
G37*
G36*
G01*
X175008000Y-99230000D02*
X175008000Y-98890000D01*
G75*
G02*
X175148000Y-98750000I140000J0D01*
G01*
X175428000Y-98750000D01*
G75*
G02*
X175568000Y-98890000I0J-140000D01*
G01*
X175568000Y-99230000D01*
G75*
G02*
X175428000Y-99370000I-140000J0D01*
G01*
X175148000Y-99370000D01*
G75*
G02*
X175008000Y-99230000I0J140000D01*
G01*
G37*
G36*
G01*
X168296000Y-100386000D02*
X168296000Y-99061000D01*
G75*
G02*
X168371000Y-98986000I75000J0D01*
G01*
X168521000Y-98986000D01*
G75*
G02*
X168596000Y-99061000I0J-75000D01*
G01*
X168596000Y-100386000D01*
G75*
G02*
X168521000Y-100461000I-75000J0D01*
G01*
X168371000Y-100461000D01*
G75*
G02*
X168296000Y-100386000I0J75000D01*
G01*
G37*
G36*
G01*
X168796000Y-100386000D02*
X168796000Y-99061000D01*
G75*
G02*
X168871000Y-98986000I75000J0D01*
G01*
X169021000Y-98986000D01*
G75*
G02*
X169096000Y-99061000I0J-75000D01*
G01*
X169096000Y-100386000D01*
G75*
G02*
X169021000Y-100461000I-75000J0D01*
G01*
X168871000Y-100461000D01*
G75*
G02*
X168796000Y-100386000I0J75000D01*
G01*
G37*
G36*
G01*
X169296000Y-100386000D02*
X169296000Y-99061000D01*
G75*
G02*
X169371000Y-98986000I75000J0D01*
G01*
X169521000Y-98986000D01*
G75*
G02*
X169596000Y-99061000I0J-75000D01*
G01*
X169596000Y-100386000D01*
G75*
G02*
X169521000Y-100461000I-75000J0D01*
G01*
X169371000Y-100461000D01*
G75*
G02*
X169296000Y-100386000I0J75000D01*
G01*
G37*
G36*
G01*
X169796000Y-100386000D02*
X169796000Y-99061000D01*
G75*
G02*
X169871000Y-98986000I75000J0D01*
G01*
X170021000Y-98986000D01*
G75*
G02*
X170096000Y-99061000I0J-75000D01*
G01*
X170096000Y-100386000D01*
G75*
G02*
X170021000Y-100461000I-75000J0D01*
G01*
X169871000Y-100461000D01*
G75*
G02*
X169796000Y-100386000I0J75000D01*
G01*
G37*
G36*
G01*
X170296000Y-100386000D02*
X170296000Y-99061000D01*
G75*
G02*
X170371000Y-98986000I75000J0D01*
G01*
X170521000Y-98986000D01*
G75*
G02*
X170596000Y-99061000I0J-75000D01*
G01*
X170596000Y-100386000D01*
G75*
G02*
X170521000Y-100461000I-75000J0D01*
G01*
X170371000Y-100461000D01*
G75*
G02*
X170296000Y-100386000I0J75000D01*
G01*
G37*
G36*
G01*
X170796000Y-100386000D02*
X170796000Y-99061000D01*
G75*
G02*
X170871000Y-98986000I75000J0D01*
G01*
X171021000Y-98986000D01*
G75*
G02*
X171096000Y-99061000I0J-75000D01*
G01*
X171096000Y-100386000D01*
G75*
G02*
X171021000Y-100461000I-75000J0D01*
G01*
X170871000Y-100461000D01*
G75*
G02*
X170796000Y-100386000I0J75000D01*
G01*
G37*
G36*
G01*
X171296000Y-100386000D02*
X171296000Y-99061000D01*
G75*
G02*
X171371000Y-98986000I75000J0D01*
G01*
X171521000Y-98986000D01*
G75*
G02*
X171596000Y-99061000I0J-75000D01*
G01*
X171596000Y-100386000D01*
G75*
G02*
X171521000Y-100461000I-75000J0D01*
G01*
X171371000Y-100461000D01*
G75*
G02*
X171296000Y-100386000I0J75000D01*
G01*
G37*
G36*
G01*
X171796000Y-100386000D02*
X171796000Y-99061000D01*
G75*
G02*
X171871000Y-98986000I75000J0D01*
G01*
X172021000Y-98986000D01*
G75*
G02*
X172096000Y-99061000I0J-75000D01*
G01*
X172096000Y-100386000D01*
G75*
G02*
X172021000Y-100461000I-75000J0D01*
G01*
X171871000Y-100461000D01*
G75*
G02*
X171796000Y-100386000I0J75000D01*
G01*
G37*
G36*
G01*
X172296000Y-100386000D02*
X172296000Y-99061000D01*
G75*
G02*
X172371000Y-98986000I75000J0D01*
G01*
X172521000Y-98986000D01*
G75*
G02*
X172596000Y-99061000I0J-75000D01*
G01*
X172596000Y-100386000D01*
G75*
G02*
X172521000Y-100461000I-75000J0D01*
G01*
X172371000Y-100461000D01*
G75*
G02*
X172296000Y-100386000I0J75000D01*
G01*
G37*
G36*
G01*
X172796000Y-100386000D02*
X172796000Y-99061000D01*
G75*
G02*
X172871000Y-98986000I75000J0D01*
G01*
X173021000Y-98986000D01*
G75*
G02*
X173096000Y-99061000I0J-75000D01*
G01*
X173096000Y-100386000D01*
G75*
G02*
X173021000Y-100461000I-75000J0D01*
G01*
X172871000Y-100461000D01*
G75*
G02*
X172796000Y-100386000I0J75000D01*
G01*
G37*
G36*
G01*
X173296000Y-100386000D02*
X173296000Y-99061000D01*
G75*
G02*
X173371000Y-98986000I75000J0D01*
G01*
X173521000Y-98986000D01*
G75*
G02*
X173596000Y-99061000I0J-75000D01*
G01*
X173596000Y-100386000D01*
G75*
G02*
X173521000Y-100461000I-75000J0D01*
G01*
X173371000Y-100461000D01*
G75*
G02*
X173296000Y-100386000I0J75000D01*
G01*
G37*
G36*
G01*
X173796000Y-100386000D02*
X173796000Y-99061000D01*
G75*
G02*
X173871000Y-98986000I75000J0D01*
G01*
X174021000Y-98986000D01*
G75*
G02*
X174096000Y-99061000I0J-75000D01*
G01*
X174096000Y-100386000D01*
G75*
G02*
X174021000Y-100461000I-75000J0D01*
G01*
X173871000Y-100461000D01*
G75*
G02*
X173796000Y-100386000I0J75000D01*
G01*
G37*
G36*
G01*
X174621000Y-101211000D02*
X174621000Y-101061000D01*
G75*
G02*
X174696000Y-100986000I75000J0D01*
G01*
X176021000Y-100986000D01*
G75*
G02*
X176096000Y-101061000I0J-75000D01*
G01*
X176096000Y-101211000D01*
G75*
G02*
X176021000Y-101286000I-75000J0D01*
G01*
X174696000Y-101286000D01*
G75*
G02*
X174621000Y-101211000I0J75000D01*
G01*
G37*
G36*
G01*
X174621000Y-101711000D02*
X174621000Y-101561000D01*
G75*
G02*
X174696000Y-101486000I75000J0D01*
G01*
X176021000Y-101486000D01*
G75*
G02*
X176096000Y-101561000I0J-75000D01*
G01*
X176096000Y-101711000D01*
G75*
G02*
X176021000Y-101786000I-75000J0D01*
G01*
X174696000Y-101786000D01*
G75*
G02*
X174621000Y-101711000I0J75000D01*
G01*
G37*
G36*
G01*
X174621000Y-102211000D02*
X174621000Y-102061000D01*
G75*
G02*
X174696000Y-101986000I75000J0D01*
G01*
X176021000Y-101986000D01*
G75*
G02*
X176096000Y-102061000I0J-75000D01*
G01*
X176096000Y-102211000D01*
G75*
G02*
X176021000Y-102286000I-75000J0D01*
G01*
X174696000Y-102286000D01*
G75*
G02*
X174621000Y-102211000I0J75000D01*
G01*
G37*
G36*
G01*
X174621000Y-102711000D02*
X174621000Y-102561000D01*
G75*
G02*
X174696000Y-102486000I75000J0D01*
G01*
X176021000Y-102486000D01*
G75*
G02*
X176096000Y-102561000I0J-75000D01*
G01*
X176096000Y-102711000D01*
G75*
G02*
X176021000Y-102786000I-75000J0D01*
G01*
X174696000Y-102786000D01*
G75*
G02*
X174621000Y-102711000I0J75000D01*
G01*
G37*
G36*
G01*
X174621000Y-103211000D02*
X174621000Y-103061000D01*
G75*
G02*
X174696000Y-102986000I75000J0D01*
G01*
X176021000Y-102986000D01*
G75*
G02*
X176096000Y-103061000I0J-75000D01*
G01*
X176096000Y-103211000D01*
G75*
G02*
X176021000Y-103286000I-75000J0D01*
G01*
X174696000Y-103286000D01*
G75*
G02*
X174621000Y-103211000I0J75000D01*
G01*
G37*
G36*
G01*
X174621000Y-103711000D02*
X174621000Y-103561000D01*
G75*
G02*
X174696000Y-103486000I75000J0D01*
G01*
X176021000Y-103486000D01*
G75*
G02*
X176096000Y-103561000I0J-75000D01*
G01*
X176096000Y-103711000D01*
G75*
G02*
X176021000Y-103786000I-75000J0D01*
G01*
X174696000Y-103786000D01*
G75*
G02*
X174621000Y-103711000I0J75000D01*
G01*
G37*
G36*
G01*
X174621000Y-104211000D02*
X174621000Y-104061000D01*
G75*
G02*
X174696000Y-103986000I75000J0D01*
G01*
X176021000Y-103986000D01*
G75*
G02*
X176096000Y-104061000I0J-75000D01*
G01*
X176096000Y-104211000D01*
G75*
G02*
X176021000Y-104286000I-75000J0D01*
G01*
X174696000Y-104286000D01*
G75*
G02*
X174621000Y-104211000I0J75000D01*
G01*
G37*
G36*
G01*
X174621000Y-104711000D02*
X174621000Y-104561000D01*
G75*
G02*
X174696000Y-104486000I75000J0D01*
G01*
X176021000Y-104486000D01*
G75*
G02*
X176096000Y-104561000I0J-75000D01*
G01*
X176096000Y-104711000D01*
G75*
G02*
X176021000Y-104786000I-75000J0D01*
G01*
X174696000Y-104786000D01*
G75*
G02*
X174621000Y-104711000I0J75000D01*
G01*
G37*
G36*
G01*
X174621000Y-105211000D02*
X174621000Y-105061000D01*
G75*
G02*
X174696000Y-104986000I75000J0D01*
G01*
X176021000Y-104986000D01*
G75*
G02*
X176096000Y-105061000I0J-75000D01*
G01*
X176096000Y-105211000D01*
G75*
G02*
X176021000Y-105286000I-75000J0D01*
G01*
X174696000Y-105286000D01*
G75*
G02*
X174621000Y-105211000I0J75000D01*
G01*
G37*
G36*
G01*
X174621000Y-105711000D02*
X174621000Y-105561000D01*
G75*
G02*
X174696000Y-105486000I75000J0D01*
G01*
X176021000Y-105486000D01*
G75*
G02*
X176096000Y-105561000I0J-75000D01*
G01*
X176096000Y-105711000D01*
G75*
G02*
X176021000Y-105786000I-75000J0D01*
G01*
X174696000Y-105786000D01*
G75*
G02*
X174621000Y-105711000I0J75000D01*
G01*
G37*
G36*
G01*
X174621000Y-106211000D02*
X174621000Y-106061000D01*
G75*
G02*
X174696000Y-105986000I75000J0D01*
G01*
X176021000Y-105986000D01*
G75*
G02*
X176096000Y-106061000I0J-75000D01*
G01*
X176096000Y-106211000D01*
G75*
G02*
X176021000Y-106286000I-75000J0D01*
G01*
X174696000Y-106286000D01*
G75*
G02*
X174621000Y-106211000I0J75000D01*
G01*
G37*
G36*
G01*
X174621000Y-106711000D02*
X174621000Y-106561000D01*
G75*
G02*
X174696000Y-106486000I75000J0D01*
G01*
X176021000Y-106486000D01*
G75*
G02*
X176096000Y-106561000I0J-75000D01*
G01*
X176096000Y-106711000D01*
G75*
G02*
X176021000Y-106786000I-75000J0D01*
G01*
X174696000Y-106786000D01*
G75*
G02*
X174621000Y-106711000I0J75000D01*
G01*
G37*
G36*
G01*
X173796000Y-108711000D02*
X173796000Y-107386000D01*
G75*
G02*
X173871000Y-107311000I75000J0D01*
G01*
X174021000Y-107311000D01*
G75*
G02*
X174096000Y-107386000I0J-75000D01*
G01*
X174096000Y-108711000D01*
G75*
G02*
X174021000Y-108786000I-75000J0D01*
G01*
X173871000Y-108786000D01*
G75*
G02*
X173796000Y-108711000I0J75000D01*
G01*
G37*
G36*
G01*
X173296000Y-108711000D02*
X173296000Y-107386000D01*
G75*
G02*
X173371000Y-107311000I75000J0D01*
G01*
X173521000Y-107311000D01*
G75*
G02*
X173596000Y-107386000I0J-75000D01*
G01*
X173596000Y-108711000D01*
G75*
G02*
X173521000Y-108786000I-75000J0D01*
G01*
X173371000Y-108786000D01*
G75*
G02*
X173296000Y-108711000I0J75000D01*
G01*
G37*
G36*
G01*
X172796000Y-108711000D02*
X172796000Y-107386000D01*
G75*
G02*
X172871000Y-107311000I75000J0D01*
G01*
X173021000Y-107311000D01*
G75*
G02*
X173096000Y-107386000I0J-75000D01*
G01*
X173096000Y-108711000D01*
G75*
G02*
X173021000Y-108786000I-75000J0D01*
G01*
X172871000Y-108786000D01*
G75*
G02*
X172796000Y-108711000I0J75000D01*
G01*
G37*
G36*
G01*
X172296000Y-108711000D02*
X172296000Y-107386000D01*
G75*
G02*
X172371000Y-107311000I75000J0D01*
G01*
X172521000Y-107311000D01*
G75*
G02*
X172596000Y-107386000I0J-75000D01*
G01*
X172596000Y-108711000D01*
G75*
G02*
X172521000Y-108786000I-75000J0D01*
G01*
X172371000Y-108786000D01*
G75*
G02*
X172296000Y-108711000I0J75000D01*
G01*
G37*
G36*
G01*
X171796000Y-108711000D02*
X171796000Y-107386000D01*
G75*
G02*
X171871000Y-107311000I75000J0D01*
G01*
X172021000Y-107311000D01*
G75*
G02*
X172096000Y-107386000I0J-75000D01*
G01*
X172096000Y-108711000D01*
G75*
G02*
X172021000Y-108786000I-75000J0D01*
G01*
X171871000Y-108786000D01*
G75*
G02*
X171796000Y-108711000I0J75000D01*
G01*
G37*
G36*
G01*
X171296000Y-108711000D02*
X171296000Y-107386000D01*
G75*
G02*
X171371000Y-107311000I75000J0D01*
G01*
X171521000Y-107311000D01*
G75*
G02*
X171596000Y-107386000I0J-75000D01*
G01*
X171596000Y-108711000D01*
G75*
G02*
X171521000Y-108786000I-75000J0D01*
G01*
X171371000Y-108786000D01*
G75*
G02*
X171296000Y-108711000I0J75000D01*
G01*
G37*
G36*
G01*
X170796000Y-108711000D02*
X170796000Y-107386000D01*
G75*
G02*
X170871000Y-107311000I75000J0D01*
G01*
X171021000Y-107311000D01*
G75*
G02*
X171096000Y-107386000I0J-75000D01*
G01*
X171096000Y-108711000D01*
G75*
G02*
X171021000Y-108786000I-75000J0D01*
G01*
X170871000Y-108786000D01*
G75*
G02*
X170796000Y-108711000I0J75000D01*
G01*
G37*
G36*
G01*
X170296000Y-108711000D02*
X170296000Y-107386000D01*
G75*
G02*
X170371000Y-107311000I75000J0D01*
G01*
X170521000Y-107311000D01*
G75*
G02*
X170596000Y-107386000I0J-75000D01*
G01*
X170596000Y-108711000D01*
G75*
G02*
X170521000Y-108786000I-75000J0D01*
G01*
X170371000Y-108786000D01*
G75*
G02*
X170296000Y-108711000I0J75000D01*
G01*
G37*
G36*
G01*
X169796000Y-108711000D02*
X169796000Y-107386000D01*
G75*
G02*
X169871000Y-107311000I75000J0D01*
G01*
X170021000Y-107311000D01*
G75*
G02*
X170096000Y-107386000I0J-75000D01*
G01*
X170096000Y-108711000D01*
G75*
G02*
X170021000Y-108786000I-75000J0D01*
G01*
X169871000Y-108786000D01*
G75*
G02*
X169796000Y-108711000I0J75000D01*
G01*
G37*
G36*
G01*
X169296000Y-108711000D02*
X169296000Y-107386000D01*
G75*
G02*
X169371000Y-107311000I75000J0D01*
G01*
X169521000Y-107311000D01*
G75*
G02*
X169596000Y-107386000I0J-75000D01*
G01*
X169596000Y-108711000D01*
G75*
G02*
X169521000Y-108786000I-75000J0D01*
G01*
X169371000Y-108786000D01*
G75*
G02*
X169296000Y-108711000I0J75000D01*
G01*
G37*
G36*
G01*
X168796000Y-108711000D02*
X168796000Y-107386000D01*
G75*
G02*
X168871000Y-107311000I75000J0D01*
G01*
X169021000Y-107311000D01*
G75*
G02*
X169096000Y-107386000I0J-75000D01*
G01*
X169096000Y-108711000D01*
G75*
G02*
X169021000Y-108786000I-75000J0D01*
G01*
X168871000Y-108786000D01*
G75*
G02*
X168796000Y-108711000I0J75000D01*
G01*
G37*
G36*
G01*
X168296000Y-108711000D02*
X168296000Y-107386000D01*
G75*
G02*
X168371000Y-107311000I75000J0D01*
G01*
X168521000Y-107311000D01*
G75*
G02*
X168596000Y-107386000I0J-75000D01*
G01*
X168596000Y-108711000D01*
G75*
G02*
X168521000Y-108786000I-75000J0D01*
G01*
X168371000Y-108786000D01*
G75*
G02*
X168296000Y-108711000I0J75000D01*
G01*
G37*
G36*
G01*
X166296000Y-106711000D02*
X166296000Y-106561000D01*
G75*
G02*
X166371000Y-106486000I75000J0D01*
G01*
X167696000Y-106486000D01*
G75*
G02*
X167771000Y-106561000I0J-75000D01*
G01*
X167771000Y-106711000D01*
G75*
G02*
X167696000Y-106786000I-75000J0D01*
G01*
X166371000Y-106786000D01*
G75*
G02*
X166296000Y-106711000I0J75000D01*
G01*
G37*
G36*
G01*
X166296000Y-106211000D02*
X166296000Y-106061000D01*
G75*
G02*
X166371000Y-105986000I75000J0D01*
G01*
X167696000Y-105986000D01*
G75*
G02*
X167771000Y-106061000I0J-75000D01*
G01*
X167771000Y-106211000D01*
G75*
G02*
X167696000Y-106286000I-75000J0D01*
G01*
X166371000Y-106286000D01*
G75*
G02*
X166296000Y-106211000I0J75000D01*
G01*
G37*
G36*
G01*
X166296000Y-105711000D02*
X166296000Y-105561000D01*
G75*
G02*
X166371000Y-105486000I75000J0D01*
G01*
X167696000Y-105486000D01*
G75*
G02*
X167771000Y-105561000I0J-75000D01*
G01*
X167771000Y-105711000D01*
G75*
G02*
X167696000Y-105786000I-75000J0D01*
G01*
X166371000Y-105786000D01*
G75*
G02*
X166296000Y-105711000I0J75000D01*
G01*
G37*
G36*
G01*
X166296000Y-105211000D02*
X166296000Y-105061000D01*
G75*
G02*
X166371000Y-104986000I75000J0D01*
G01*
X167696000Y-104986000D01*
G75*
G02*
X167771000Y-105061000I0J-75000D01*
G01*
X167771000Y-105211000D01*
G75*
G02*
X167696000Y-105286000I-75000J0D01*
G01*
X166371000Y-105286000D01*
G75*
G02*
X166296000Y-105211000I0J75000D01*
G01*
G37*
G36*
G01*
X166296000Y-104711000D02*
X166296000Y-104561000D01*
G75*
G02*
X166371000Y-104486000I75000J0D01*
G01*
X167696000Y-104486000D01*
G75*
G02*
X167771000Y-104561000I0J-75000D01*
G01*
X167771000Y-104711000D01*
G75*
G02*
X167696000Y-104786000I-75000J0D01*
G01*
X166371000Y-104786000D01*
G75*
G02*
X166296000Y-104711000I0J75000D01*
G01*
G37*
G36*
G01*
X166296000Y-104211000D02*
X166296000Y-104061000D01*
G75*
G02*
X166371000Y-103986000I75000J0D01*
G01*
X167696000Y-103986000D01*
G75*
G02*
X167771000Y-104061000I0J-75000D01*
G01*
X167771000Y-104211000D01*
G75*
G02*
X167696000Y-104286000I-75000J0D01*
G01*
X166371000Y-104286000D01*
G75*
G02*
X166296000Y-104211000I0J75000D01*
G01*
G37*
G36*
G01*
X166296000Y-103711000D02*
X166296000Y-103561000D01*
G75*
G02*
X166371000Y-103486000I75000J0D01*
G01*
X167696000Y-103486000D01*
G75*
G02*
X167771000Y-103561000I0J-75000D01*
G01*
X167771000Y-103711000D01*
G75*
G02*
X167696000Y-103786000I-75000J0D01*
G01*
X166371000Y-103786000D01*
G75*
G02*
X166296000Y-103711000I0J75000D01*
G01*
G37*
G36*
G01*
X166296000Y-103211000D02*
X166296000Y-103061000D01*
G75*
G02*
X166371000Y-102986000I75000J0D01*
G01*
X167696000Y-102986000D01*
G75*
G02*
X167771000Y-103061000I0J-75000D01*
G01*
X167771000Y-103211000D01*
G75*
G02*
X167696000Y-103286000I-75000J0D01*
G01*
X166371000Y-103286000D01*
G75*
G02*
X166296000Y-103211000I0J75000D01*
G01*
G37*
G36*
G01*
X166296000Y-102711000D02*
X166296000Y-102561000D01*
G75*
G02*
X166371000Y-102486000I75000J0D01*
G01*
X167696000Y-102486000D01*
G75*
G02*
X167771000Y-102561000I0J-75000D01*
G01*
X167771000Y-102711000D01*
G75*
G02*
X167696000Y-102786000I-75000J0D01*
G01*
X166371000Y-102786000D01*
G75*
G02*
X166296000Y-102711000I0J75000D01*
G01*
G37*
G36*
G01*
X166296000Y-102211000D02*
X166296000Y-102061000D01*
G75*
G02*
X166371000Y-101986000I75000J0D01*
G01*
X167696000Y-101986000D01*
G75*
G02*
X167771000Y-102061000I0J-75000D01*
G01*
X167771000Y-102211000D01*
G75*
G02*
X167696000Y-102286000I-75000J0D01*
G01*
X166371000Y-102286000D01*
G75*
G02*
X166296000Y-102211000I0J75000D01*
G01*
G37*
G36*
G01*
X166296000Y-101711000D02*
X166296000Y-101561000D01*
G75*
G02*
X166371000Y-101486000I75000J0D01*
G01*
X167696000Y-101486000D01*
G75*
G02*
X167771000Y-101561000I0J-75000D01*
G01*
X167771000Y-101711000D01*
G75*
G02*
X167696000Y-101786000I-75000J0D01*
G01*
X166371000Y-101786000D01*
G75*
G02*
X166296000Y-101711000I0J75000D01*
G01*
G37*
G36*
G01*
X166296000Y-101211000D02*
X166296000Y-101061000D01*
G75*
G02*
X166371000Y-100986000I75000J0D01*
G01*
X167696000Y-100986000D01*
G75*
G02*
X167771000Y-101061000I0J-75000D01*
G01*
X167771000Y-101211000D01*
G75*
G02*
X167696000Y-101286000I-75000J0D01*
G01*
X166371000Y-101286000D01*
G75*
G02*
X166296000Y-101211000I0J75000D01*
G01*
G37*
G36*
G01*
X194209665Y-95744000D02*
X194579665Y-95744000D01*
G75*
G02*
X194714665Y-95879000I0J-135000D01*
G01*
X194714665Y-96149000D01*
G75*
G02*
X194579665Y-96284000I-135000J0D01*
G01*
X194209665Y-96284000D01*
G75*
G02*
X194074665Y-96149000I0J135000D01*
G01*
X194074665Y-95879000D01*
G75*
G02*
X194209665Y-95744000I135000J0D01*
G01*
G37*
G36*
G01*
X194209665Y-94724000D02*
X194579665Y-94724000D01*
G75*
G02*
X194714665Y-94859000I0J-135000D01*
G01*
X194714665Y-95129000D01*
G75*
G02*
X194579665Y-95264000I-135000J0D01*
G01*
X194209665Y-95264000D01*
G75*
G02*
X194074665Y-95129000I0J135000D01*
G01*
X194074665Y-94859000D01*
G75*
G02*
X194209665Y-94724000I135000J0D01*
G01*
G37*
G36*
G01*
X188283000Y-95744000D02*
X188653000Y-95744000D01*
G75*
G02*
X188788000Y-95879000I0J-135000D01*
G01*
X188788000Y-96149000D01*
G75*
G02*
X188653000Y-96284000I-135000J0D01*
G01*
X188283000Y-96284000D01*
G75*
G02*
X188148000Y-96149000I0J135000D01*
G01*
X188148000Y-95879000D01*
G75*
G02*
X188283000Y-95744000I135000J0D01*
G01*
G37*
G36*
G01*
X188283000Y-94724000D02*
X188653000Y-94724000D01*
G75*
G02*
X188788000Y-94859000I0J-135000D01*
G01*
X188788000Y-95129000D01*
G75*
G02*
X188653000Y-95264000I-135000J0D01*
G01*
X188283000Y-95264000D01*
G75*
G02*
X188148000Y-95129000I0J135000D01*
G01*
X188148000Y-94859000D01*
G75*
G02*
X188283000Y-94724000I135000J0D01*
G01*
G37*
G36*
G01*
X196185220Y-95744000D02*
X196555220Y-95744000D01*
G75*
G02*
X196690220Y-95879000I0J-135000D01*
G01*
X196690220Y-96149000D01*
G75*
G02*
X196555220Y-96284000I-135000J0D01*
G01*
X196185220Y-96284000D01*
G75*
G02*
X196050220Y-96149000I0J135000D01*
G01*
X196050220Y-95879000D01*
G75*
G02*
X196185220Y-95744000I135000J0D01*
G01*
G37*
G36*
G01*
X196185220Y-94724000D02*
X196555220Y-94724000D01*
G75*
G02*
X196690220Y-94859000I0J-135000D01*
G01*
X196690220Y-95129000D01*
G75*
G02*
X196555220Y-95264000I-135000J0D01*
G01*
X196185220Y-95264000D01*
G75*
G02*
X196050220Y-95129000I0J135000D01*
G01*
X196050220Y-94859000D01*
G75*
G02*
X196185220Y-94724000I135000J0D01*
G01*
G37*
G36*
G01*
X192234110Y-95744000D02*
X192604110Y-95744000D01*
G75*
G02*
X192739110Y-95879000I0J-135000D01*
G01*
X192739110Y-96149000D01*
G75*
G02*
X192604110Y-96284000I-135000J0D01*
G01*
X192234110Y-96284000D01*
G75*
G02*
X192099110Y-96149000I0J135000D01*
G01*
X192099110Y-95879000D01*
G75*
G02*
X192234110Y-95744000I135000J0D01*
G01*
G37*
G36*
G01*
X192234110Y-94724000D02*
X192604110Y-94724000D01*
G75*
G02*
X192739110Y-94859000I0J-135000D01*
G01*
X192739110Y-95129000D01*
G75*
G02*
X192604110Y-95264000I-135000J0D01*
G01*
X192234110Y-95264000D01*
G75*
G02*
X192099110Y-95129000I0J135000D01*
G01*
X192099110Y-94859000D01*
G75*
G02*
X192234110Y-94724000I135000J0D01*
G01*
G37*
G36*
G01*
X200136330Y-95744000D02*
X200506330Y-95744000D01*
G75*
G02*
X200641330Y-95879000I0J-135000D01*
G01*
X200641330Y-96149000D01*
G75*
G02*
X200506330Y-96284000I-135000J0D01*
G01*
X200136330Y-96284000D01*
G75*
G02*
X200001330Y-96149000I0J135000D01*
G01*
X200001330Y-95879000D01*
G75*
G02*
X200136330Y-95744000I135000J0D01*
G01*
G37*
G36*
G01*
X200136330Y-94724000D02*
X200506330Y-94724000D01*
G75*
G02*
X200641330Y-94859000I0J-135000D01*
G01*
X200641330Y-95129000D01*
G75*
G02*
X200506330Y-95264000I-135000J0D01*
G01*
X200136330Y-95264000D01*
G75*
G02*
X200001330Y-95129000I0J135000D01*
G01*
X200001330Y-94859000D01*
G75*
G02*
X200136330Y-94724000I135000J0D01*
G01*
G37*
G36*
G01*
X202111885Y-95744000D02*
X202481885Y-95744000D01*
G75*
G02*
X202616885Y-95879000I0J-135000D01*
G01*
X202616885Y-96149000D01*
G75*
G02*
X202481885Y-96284000I-135000J0D01*
G01*
X202111885Y-96284000D01*
G75*
G02*
X201976885Y-96149000I0J135000D01*
G01*
X201976885Y-95879000D01*
G75*
G02*
X202111885Y-95744000I135000J0D01*
G01*
G37*
G36*
G01*
X202111885Y-94724000D02*
X202481885Y-94724000D01*
G75*
G02*
X202616885Y-94859000I0J-135000D01*
G01*
X202616885Y-95129000D01*
G75*
G02*
X202481885Y-95264000I-135000J0D01*
G01*
X202111885Y-95264000D01*
G75*
G02*
X201976885Y-95129000I0J135000D01*
G01*
X201976885Y-94859000D01*
G75*
G02*
X202111885Y-94724000I135000J0D01*
G01*
G37*
G36*
G01*
X190258555Y-95744000D02*
X190628555Y-95744000D01*
G75*
G02*
X190763555Y-95879000I0J-135000D01*
G01*
X190763555Y-96149000D01*
G75*
G02*
X190628555Y-96284000I-135000J0D01*
G01*
X190258555Y-96284000D01*
G75*
G02*
X190123555Y-96149000I0J135000D01*
G01*
X190123555Y-95879000D01*
G75*
G02*
X190258555Y-95744000I135000J0D01*
G01*
G37*
G36*
G01*
X190258555Y-94724000D02*
X190628555Y-94724000D01*
G75*
G02*
X190763555Y-94859000I0J-135000D01*
G01*
X190763555Y-95129000D01*
G75*
G02*
X190628555Y-95264000I-135000J0D01*
G01*
X190258555Y-95264000D01*
G75*
G02*
X190123555Y-95129000I0J135000D01*
G01*
X190123555Y-94859000D01*
G75*
G02*
X190258555Y-94724000I135000J0D01*
G01*
G37*
G36*
G01*
X203383000Y-117255000D02*
X203013000Y-117255000D01*
G75*
G02*
X202878000Y-117120000I0J135000D01*
G01*
X202878000Y-116850000D01*
G75*
G02*
X203013000Y-116715000I135000J0D01*
G01*
X203383000Y-116715000D01*
G75*
G02*
X203518000Y-116850000I0J-135000D01*
G01*
X203518000Y-117120000D01*
G75*
G02*
X203383000Y-117255000I-135000J0D01*
G01*
G37*
G36*
G01*
X203383000Y-118275000D02*
X203013000Y-118275000D01*
G75*
G02*
X202878000Y-118140000I0J135000D01*
G01*
X202878000Y-117870000D01*
G75*
G02*
X203013000Y-117735000I135000J0D01*
G01*
X203383000Y-117735000D01*
G75*
G02*
X203518000Y-117870000I0J-135000D01*
G01*
X203518000Y-118140000D01*
G75*
G02*
X203383000Y-118275000I-135000J0D01*
G01*
G37*
G36*
G01*
X204087440Y-95744000D02*
X204457440Y-95744000D01*
G75*
G02*
X204592440Y-95879000I0J-135000D01*
G01*
X204592440Y-96149000D01*
G75*
G02*
X204457440Y-96284000I-135000J0D01*
G01*
X204087440Y-96284000D01*
G75*
G02*
X203952440Y-96149000I0J135000D01*
G01*
X203952440Y-95879000D01*
G75*
G02*
X204087440Y-95744000I135000J0D01*
G01*
G37*
G36*
G01*
X204087440Y-94724000D02*
X204457440Y-94724000D01*
G75*
G02*
X204592440Y-94859000I0J-135000D01*
G01*
X204592440Y-95129000D01*
G75*
G02*
X204457440Y-95264000I-135000J0D01*
G01*
X204087440Y-95264000D01*
G75*
G02*
X203952440Y-95129000I0J135000D01*
G01*
X203952440Y-94859000D01*
G75*
G02*
X204087440Y-94724000I135000J0D01*
G01*
G37*
G36*
G01*
X204657000Y-117255000D02*
X204287000Y-117255000D01*
G75*
G02*
X204152000Y-117120000I0J135000D01*
G01*
X204152000Y-116850000D01*
G75*
G02*
X204287000Y-116715000I135000J0D01*
G01*
X204657000Y-116715000D01*
G75*
G02*
X204792000Y-116850000I0J-135000D01*
G01*
X204792000Y-117120000D01*
G75*
G02*
X204657000Y-117255000I-135000J0D01*
G01*
G37*
G36*
G01*
X204657000Y-118275000D02*
X204287000Y-118275000D01*
G75*
G02*
X204152000Y-118140000I0J135000D01*
G01*
X204152000Y-117870000D01*
G75*
G02*
X204287000Y-117735000I135000J0D01*
G01*
X204657000Y-117735000D01*
G75*
G02*
X204792000Y-117870000I0J-135000D01*
G01*
X204792000Y-118140000D01*
G75*
G02*
X204657000Y-118275000I-135000J0D01*
G01*
G37*
G36*
G01*
X198160775Y-95744000D02*
X198530775Y-95744000D01*
G75*
G02*
X198665775Y-95879000I0J-135000D01*
G01*
X198665775Y-96149000D01*
G75*
G02*
X198530775Y-96284000I-135000J0D01*
G01*
X198160775Y-96284000D01*
G75*
G02*
X198025775Y-96149000I0J135000D01*
G01*
X198025775Y-95879000D01*
G75*
G02*
X198160775Y-95744000I135000J0D01*
G01*
G37*
G36*
G01*
X198160775Y-94724000D02*
X198530775Y-94724000D01*
G75*
G02*
X198665775Y-94859000I0J-135000D01*
G01*
X198665775Y-95129000D01*
G75*
G02*
X198530775Y-95264000I-135000J0D01*
G01*
X198160775Y-95264000D01*
G75*
G02*
X198025775Y-95129000I0J135000D01*
G01*
X198025775Y-94859000D01*
G75*
G02*
X198160775Y-94724000I135000J0D01*
G01*
G37*
G36*
G01*
X206063000Y-95744000D02*
X206433000Y-95744000D01*
G75*
G02*
X206568000Y-95879000I0J-135000D01*
G01*
X206568000Y-96149000D01*
G75*
G02*
X206433000Y-96284000I-135000J0D01*
G01*
X206063000Y-96284000D01*
G75*
G02*
X205928000Y-96149000I0J135000D01*
G01*
X205928000Y-95879000D01*
G75*
G02*
X206063000Y-95744000I135000J0D01*
G01*
G37*
G36*
G01*
X206063000Y-94724000D02*
X206433000Y-94724000D01*
G75*
G02*
X206568000Y-94859000I0J-135000D01*
G01*
X206568000Y-95129000D01*
G75*
G02*
X206433000Y-95264000I-135000J0D01*
G01*
X206063000Y-95264000D01*
G75*
G02*
X205928000Y-95129000I0J135000D01*
G01*
X205928000Y-94859000D01*
G75*
G02*
X206063000Y-94724000I135000J0D01*
G01*
G37*
G36*
G01*
X201739000Y-117735000D02*
X202109000Y-117735000D01*
G75*
G02*
X202244000Y-117870000I0J-135000D01*
G01*
X202244000Y-118140000D01*
G75*
G02*
X202109000Y-118275000I-135000J0D01*
G01*
X201739000Y-118275000D01*
G75*
G02*
X201604000Y-118140000I0J135000D01*
G01*
X201604000Y-117870000D01*
G75*
G02*
X201739000Y-117735000I135000J0D01*
G01*
G37*
G36*
G01*
X201739000Y-116715000D02*
X202109000Y-116715000D01*
G75*
G02*
X202244000Y-116850000I0J-135000D01*
G01*
X202244000Y-117120000D01*
G75*
G02*
X202109000Y-117255000I-135000J0D01*
G01*
X201739000Y-117255000D01*
G75*
G02*
X201604000Y-117120000I0J135000D01*
G01*
X201604000Y-116850000D01*
G75*
G02*
X201739000Y-116715000I135000J0D01*
G01*
G37*
G36*
G01*
X205561000Y-117735000D02*
X205931000Y-117735000D01*
G75*
G02*
X206066000Y-117870000I0J-135000D01*
G01*
X206066000Y-118140000D01*
G75*
G02*
X205931000Y-118275000I-135000J0D01*
G01*
X205561000Y-118275000D01*
G75*
G02*
X205426000Y-118140000I0J135000D01*
G01*
X205426000Y-117870000D01*
G75*
G02*
X205561000Y-117735000I135000J0D01*
G01*
G37*
G36*
G01*
X205561000Y-116715000D02*
X205931000Y-116715000D01*
G75*
G02*
X206066000Y-116850000I0J-135000D01*
G01*
X206066000Y-117120000D01*
G75*
G02*
X205931000Y-117255000I-135000J0D01*
G01*
X205561000Y-117255000D01*
G75*
G02*
X205426000Y-117120000I0J135000D01*
G01*
X205426000Y-116850000D01*
G75*
G02*
X205561000Y-116715000I135000J0D01*
G01*
G37*
G36*
G01*
X214180000Y-117235000D02*
X213810000Y-117235000D01*
G75*
G02*
X213675000Y-117100000I0J135000D01*
G01*
X213675000Y-116830000D01*
G75*
G02*
X213810000Y-116695000I135000J0D01*
G01*
X214180000Y-116695000D01*
G75*
G02*
X214315000Y-116830000I0J-135000D01*
G01*
X214315000Y-117100000D01*
G75*
G02*
X214180000Y-117235000I-135000J0D01*
G01*
G37*
G36*
G01*
X214180000Y-118255000D02*
X213810000Y-118255000D01*
G75*
G02*
X213675000Y-118120000I0J135000D01*
G01*
X213675000Y-117850000D01*
G75*
G02*
X213810000Y-117715000I135000J0D01*
G01*
X214180000Y-117715000D01*
G75*
G02*
X214315000Y-117850000I0J-135000D01*
G01*
X214315000Y-118120000D01*
G75*
G02*
X214180000Y-118255000I-135000J0D01*
G01*
G37*
G36*
G01*
X193615000Y-133180000D02*
X193615000Y-133520000D01*
G75*
G02*
X193475000Y-133660000I-140000J0D01*
G01*
X193195000Y-133660000D01*
G75*
G02*
X193055000Y-133520000I0J140000D01*
G01*
X193055000Y-133180000D01*
G75*
G02*
X193195000Y-133040000I140000J0D01*
G01*
X193475000Y-133040000D01*
G75*
G02*
X193615000Y-133180000I0J-140000D01*
G01*
G37*
G36*
G01*
X194575000Y-133180000D02*
X194575000Y-133520000D01*
G75*
G02*
X194435000Y-133660000I-140000J0D01*
G01*
X194155000Y-133660000D01*
G75*
G02*
X194015000Y-133520000I0J140000D01*
G01*
X194015000Y-133180000D01*
G75*
G02*
X194155000Y-133040000I140000J0D01*
G01*
X194435000Y-133040000D01*
G75*
G02*
X194575000Y-133180000I0J-140000D01*
G01*
G37*
G36*
G01*
X189925000Y-133520000D02*
X189925000Y-133180000D01*
G75*
G02*
X190065000Y-133040000I140000J0D01*
G01*
X190345000Y-133040000D01*
G75*
G02*
X190485000Y-133180000I0J-140000D01*
G01*
X190485000Y-133520000D01*
G75*
G02*
X190345000Y-133660000I-140000J0D01*
G01*
X190065000Y-133660000D01*
G75*
G02*
X189925000Y-133520000I0J140000D01*
G01*
G37*
G36*
G01*
X188965000Y-133520000D02*
X188965000Y-133180000D01*
G75*
G02*
X189105000Y-133040000I140000J0D01*
G01*
X189385000Y-133040000D01*
G75*
G02*
X189525000Y-133180000I0J-140000D01*
G01*
X189525000Y-133520000D01*
G75*
G02*
X189385000Y-133660000I-140000J0D01*
G01*
X189105000Y-133660000D01*
G75*
G02*
X188965000Y-133520000I0J140000D01*
G01*
G37*
G36*
G01*
X165270000Y-104702000D02*
X164930000Y-104702000D01*
G75*
G02*
X164790000Y-104562000I0J140000D01*
G01*
X164790000Y-104282000D01*
G75*
G02*
X164930000Y-104142000I140000J0D01*
G01*
X165270000Y-104142000D01*
G75*
G02*
X165410000Y-104282000I0J-140000D01*
G01*
X165410000Y-104562000D01*
G75*
G02*
X165270000Y-104702000I-140000J0D01*
G01*
G37*
G36*
G01*
X165270000Y-105662000D02*
X164930000Y-105662000D01*
G75*
G02*
X164790000Y-105522000I0J140000D01*
G01*
X164790000Y-105242000D01*
G75*
G02*
X164930000Y-105102000I140000J0D01*
G01*
X165270000Y-105102000D01*
G75*
G02*
X165410000Y-105242000I0J-140000D01*
G01*
X165410000Y-105522000D01*
G75*
G02*
X165270000Y-105662000I-140000J0D01*
G01*
G37*
G36*
G01*
X165270000Y-101908000D02*
X164930000Y-101908000D01*
G75*
G02*
X164790000Y-101768000I0J140000D01*
G01*
X164790000Y-101488000D01*
G75*
G02*
X164930000Y-101348000I140000J0D01*
G01*
X165270000Y-101348000D01*
G75*
G02*
X165410000Y-101488000I0J-140000D01*
G01*
X165410000Y-101768000D01*
G75*
G02*
X165270000Y-101908000I-140000J0D01*
G01*
G37*
G36*
G01*
X165270000Y-102868000D02*
X164930000Y-102868000D01*
G75*
G02*
X164790000Y-102728000I0J140000D01*
G01*
X164790000Y-102448000D01*
G75*
G02*
X164930000Y-102308000I140000J0D01*
G01*
X165270000Y-102308000D01*
G75*
G02*
X165410000Y-102448000I0J-140000D01*
G01*
X165410000Y-102728000D01*
G75*
G02*
X165270000Y-102868000I-140000J0D01*
G01*
G37*
G36*
G01*
X169605000Y-97960000D02*
X169605000Y-97620000D01*
G75*
G02*
X169745000Y-97480000I140000J0D01*
G01*
X170025000Y-97480000D01*
G75*
G02*
X170165000Y-97620000I0J-140000D01*
G01*
X170165000Y-97960000D01*
G75*
G02*
X170025000Y-98100000I-140000J0D01*
G01*
X169745000Y-98100000D01*
G75*
G02*
X169605000Y-97960000I0J140000D01*
G01*
G37*
G36*
G01*
X168645000Y-97960000D02*
X168645000Y-97620000D01*
G75*
G02*
X168785000Y-97480000I140000J0D01*
G01*
X169065000Y-97480000D01*
G75*
G02*
X169205000Y-97620000I0J-140000D01*
G01*
X169205000Y-97960000D01*
G75*
G02*
X169065000Y-98100000I-140000J0D01*
G01*
X168785000Y-98100000D01*
G75*
G02*
X168645000Y-97960000I0J140000D01*
G01*
G37*
G36*
G01*
X173790000Y-109812000D02*
X173790000Y-110152000D01*
G75*
G02*
X173650000Y-110292000I-140000J0D01*
G01*
X173370000Y-110292000D01*
G75*
G02*
X173230000Y-110152000I0J140000D01*
G01*
X173230000Y-109812000D01*
G75*
G02*
X173370000Y-109672000I140000J0D01*
G01*
X173650000Y-109672000D01*
G75*
G02*
X173790000Y-109812000I0J-140000D01*
G01*
G37*
G36*
G01*
X174750000Y-109812000D02*
X174750000Y-110152000D01*
G75*
G02*
X174610000Y-110292000I-140000J0D01*
G01*
X174330000Y-110292000D01*
G75*
G02*
X174190000Y-110152000I0J140000D01*
G01*
X174190000Y-109812000D01*
G75*
G02*
X174330000Y-109672000I140000J0D01*
G01*
X174610000Y-109672000D01*
G75*
G02*
X174750000Y-109812000I0J-140000D01*
G01*
G37*
G36*
G01*
X206840000Y-117675000D02*
X207180000Y-117675000D01*
G75*
G02*
X207320000Y-117815000I0J-140000D01*
G01*
X207320000Y-118095000D01*
G75*
G02*
X207180000Y-118235000I-140000J0D01*
G01*
X206840000Y-118235000D01*
G75*
G02*
X206700000Y-118095000I0J140000D01*
G01*
X206700000Y-117815000D01*
G75*
G02*
X206840000Y-117675000I140000J0D01*
G01*
G37*
G36*
G01*
X206840000Y-116715000D02*
X207180000Y-116715000D01*
G75*
G02*
X207320000Y-116855000I0J-140000D01*
G01*
X207320000Y-117135000D01*
G75*
G02*
X207180000Y-117275000I-140000J0D01*
G01*
X206840000Y-117275000D01*
G75*
G02*
X206700000Y-117135000I0J140000D01*
G01*
X206700000Y-116855000D01*
G75*
G02*
X206840000Y-116715000I140000J0D01*
G01*
G37*
G36*
G01*
X200490000Y-117675000D02*
X200830000Y-117675000D01*
G75*
G02*
X200970000Y-117815000I0J-140000D01*
G01*
X200970000Y-118095000D01*
G75*
G02*
X200830000Y-118235000I-140000J0D01*
G01*
X200490000Y-118235000D01*
G75*
G02*
X200350000Y-118095000I0J140000D01*
G01*
X200350000Y-117815000D01*
G75*
G02*
X200490000Y-117675000I140000J0D01*
G01*
G37*
G36*
G01*
X200490000Y-116715000D02*
X200830000Y-116715000D01*
G75*
G02*
X200970000Y-116855000I0J-140000D01*
G01*
X200970000Y-117135000D01*
G75*
G02*
X200830000Y-117275000I-140000J0D01*
G01*
X200490000Y-117275000D01*
G75*
G02*
X200350000Y-117135000I0J140000D01*
G01*
X200350000Y-116855000D01*
G75*
G02*
X200490000Y-116715000I140000J0D01*
G01*
G37*
G36*
G01*
X178138000Y-122615000D02*
X178478000Y-122615000D01*
G75*
G02*
X178618000Y-122755000I0J-140000D01*
G01*
X178618000Y-123035000D01*
G75*
G02*
X178478000Y-123175000I-140000J0D01*
G01*
X178138000Y-123175000D01*
G75*
G02*
X177998000Y-123035000I0J140000D01*
G01*
X177998000Y-122755000D01*
G75*
G02*
X178138000Y-122615000I140000J0D01*
G01*
G37*
G36*
G01*
X178138000Y-121655000D02*
X178478000Y-121655000D01*
G75*
G02*
X178618000Y-121795000I0J-140000D01*
G01*
X178618000Y-122075000D01*
G75*
G02*
X178478000Y-122215000I-140000J0D01*
G01*
X178138000Y-122215000D01*
G75*
G02*
X177998000Y-122075000I0J140000D01*
G01*
X177998000Y-121795000D01*
G75*
G02*
X178138000Y-121655000I140000J0D01*
G01*
G37*
G36*
G01*
X215435000Y-117275000D02*
X215095000Y-117275000D01*
G75*
G02*
X214955000Y-117135000I0J140000D01*
G01*
X214955000Y-116855000D01*
G75*
G02*
X215095000Y-116715000I140000J0D01*
G01*
X215435000Y-116715000D01*
G75*
G02*
X215575000Y-116855000I0J-140000D01*
G01*
X215575000Y-117135000D01*
G75*
G02*
X215435000Y-117275000I-140000J0D01*
G01*
G37*
G36*
G01*
X215435000Y-118235000D02*
X215095000Y-118235000D01*
G75*
G02*
X214955000Y-118095000I0J140000D01*
G01*
X214955000Y-117815000D01*
G75*
G02*
X215095000Y-117675000I140000J0D01*
G01*
X215435000Y-117675000D01*
G75*
G02*
X215575000Y-117815000I0J-140000D01*
G01*
X215575000Y-118095000D01*
G75*
G02*
X215435000Y-118235000I-140000J0D01*
G01*
G37*
G36*
G01*
X184445000Y-131910000D02*
X184445000Y-132250000D01*
G75*
G02*
X184305000Y-132390000I-140000J0D01*
G01*
X184025000Y-132390000D01*
G75*
G02*
X183885000Y-132250000I0J140000D01*
G01*
X183885000Y-131910000D01*
G75*
G02*
X184025000Y-131770000I140000J0D01*
G01*
X184305000Y-131770000D01*
G75*
G02*
X184445000Y-131910000I0J-140000D01*
G01*
G37*
G36*
G01*
X185405000Y-131910000D02*
X185405000Y-132250000D01*
G75*
G02*
X185265000Y-132390000I-140000J0D01*
G01*
X184985000Y-132390000D01*
G75*
G02*
X184845000Y-132250000I0J140000D01*
G01*
X184845000Y-131910000D01*
G75*
G02*
X184985000Y-131770000I140000J0D01*
G01*
X185265000Y-131770000D01*
G75*
G02*
X185405000Y-131910000I0J-140000D01*
G01*
G37*
G36*
G01*
X202266000Y-78062000D02*
X202266000Y-78402000D01*
G75*
G02*
X202126000Y-78542000I-140000J0D01*
G01*
X201846000Y-78542000D01*
G75*
G02*
X201706000Y-78402000I0J140000D01*
G01*
X201706000Y-78062000D01*
G75*
G02*
X201846000Y-77922000I140000J0D01*
G01*
X202126000Y-77922000D01*
G75*
G02*
X202266000Y-78062000I0J-140000D01*
G01*
G37*
G36*
G01*
X203226000Y-78062000D02*
X203226000Y-78402000D01*
G75*
G02*
X203086000Y-78542000I-140000J0D01*
G01*
X202806000Y-78542000D01*
G75*
G02*
X202666000Y-78402000I0J140000D01*
G01*
X202666000Y-78062000D01*
G75*
G02*
X202806000Y-77922000I140000J0D01*
G01*
X203086000Y-77922000D01*
G75*
G02*
X203226000Y-78062000I0J-140000D01*
G01*
G37*
G36*
G01*
X198966000Y-91132000D02*
X199306000Y-91132000D01*
G75*
G02*
X199446000Y-91272000I0J-140000D01*
G01*
X199446000Y-91552000D01*
G75*
G02*
X199306000Y-91692000I-140000J0D01*
G01*
X198966000Y-91692000D01*
G75*
G02*
X198826000Y-91552000I0J140000D01*
G01*
X198826000Y-91272000D01*
G75*
G02*
X198966000Y-91132000I140000J0D01*
G01*
G37*
G36*
G01*
X198966000Y-90172000D02*
X199306000Y-90172000D01*
G75*
G02*
X199446000Y-90312000I0J-140000D01*
G01*
X199446000Y-90592000D01*
G75*
G02*
X199306000Y-90732000I-140000J0D01*
G01*
X198966000Y-90732000D01*
G75*
G02*
X198826000Y-90592000I0J140000D01*
G01*
X198826000Y-90312000D01*
G75*
G02*
X198966000Y-90172000I140000J0D01*
G01*
G37*
G36*
G01*
X200744000Y-91145000D02*
X201084000Y-91145000D01*
G75*
G02*
X201224000Y-91285000I0J-140000D01*
G01*
X201224000Y-91565000D01*
G75*
G02*
X201084000Y-91705000I-140000J0D01*
G01*
X200744000Y-91705000D01*
G75*
G02*
X200604000Y-91565000I0J140000D01*
G01*
X200604000Y-91285000D01*
G75*
G02*
X200744000Y-91145000I140000J0D01*
G01*
G37*
G36*
G01*
X200744000Y-90185000D02*
X201084000Y-90185000D01*
G75*
G02*
X201224000Y-90325000I0J-140000D01*
G01*
X201224000Y-90605000D01*
G75*
G02*
X201084000Y-90745000I-140000J0D01*
G01*
X200744000Y-90745000D01*
G75*
G02*
X200604000Y-90605000I0J140000D01*
G01*
X200604000Y-90325000D01*
G75*
G02*
X200744000Y-90185000I140000J0D01*
G01*
G37*
G36*
G01*
X202522000Y-91145000D02*
X202862000Y-91145000D01*
G75*
G02*
X203002000Y-91285000I0J-140000D01*
G01*
X203002000Y-91565000D01*
G75*
G02*
X202862000Y-91705000I-140000J0D01*
G01*
X202522000Y-91705000D01*
G75*
G02*
X202382000Y-91565000I0J140000D01*
G01*
X202382000Y-91285000D01*
G75*
G02*
X202522000Y-91145000I140000J0D01*
G01*
G37*
G36*
G01*
X202522000Y-90185000D02*
X202862000Y-90185000D01*
G75*
G02*
X203002000Y-90325000I0J-140000D01*
G01*
X203002000Y-90605000D01*
G75*
G02*
X202862000Y-90745000I-140000J0D01*
G01*
X202522000Y-90745000D01*
G75*
G02*
X202382000Y-90605000I0J140000D01*
G01*
X202382000Y-90325000D01*
G75*
G02*
X202522000Y-90185000I140000J0D01*
G01*
G37*
G36*
G01*
X182572000Y-78402000D02*
X182572000Y-78062000D01*
G75*
G02*
X182712000Y-77922000I140000J0D01*
G01*
X182992000Y-77922000D01*
G75*
G02*
X183132000Y-78062000I0J-140000D01*
G01*
X183132000Y-78402000D01*
G75*
G02*
X182992000Y-78542000I-140000J0D01*
G01*
X182712000Y-78542000D01*
G75*
G02*
X182572000Y-78402000I0J140000D01*
G01*
G37*
G36*
G01*
X181612000Y-78402000D02*
X181612000Y-78062000D01*
G75*
G02*
X181752000Y-77922000I140000J0D01*
G01*
X182032000Y-77922000D01*
G75*
G02*
X182172000Y-78062000I0J-140000D01*
G01*
X182172000Y-78402000D01*
G75*
G02*
X182032000Y-78542000I-140000J0D01*
G01*
X181752000Y-78542000D01*
G75*
G02*
X181612000Y-78402000I0J140000D01*
G01*
G37*
G36*
G01*
X192616000Y-91132000D02*
X192956000Y-91132000D01*
G75*
G02*
X193096000Y-91272000I0J-140000D01*
G01*
X193096000Y-91552000D01*
G75*
G02*
X192956000Y-91692000I-140000J0D01*
G01*
X192616000Y-91692000D01*
G75*
G02*
X192476000Y-91552000I0J140000D01*
G01*
X192476000Y-91272000D01*
G75*
G02*
X192616000Y-91132000I140000J0D01*
G01*
G37*
G36*
G01*
X192616000Y-90172000D02*
X192956000Y-90172000D01*
G75*
G02*
X193096000Y-90312000I0J-140000D01*
G01*
X193096000Y-90592000D01*
G75*
G02*
X192956000Y-90732000I-140000J0D01*
G01*
X192616000Y-90732000D01*
G75*
G02*
X192476000Y-90592000I0J140000D01*
G01*
X192476000Y-90312000D01*
G75*
G02*
X192616000Y-90172000I140000J0D01*
G01*
G37*
G36*
G01*
X185461000Y-77046000D02*
X185461000Y-77386000D01*
G75*
G02*
X185321000Y-77526000I-140000J0D01*
G01*
X185041000Y-77526000D01*
G75*
G02*
X184901000Y-77386000I0J140000D01*
G01*
X184901000Y-77046000D01*
G75*
G02*
X185041000Y-76906000I140000J0D01*
G01*
X185321000Y-76906000D01*
G75*
G02*
X185461000Y-77046000I0J-140000D01*
G01*
G37*
G36*
G01*
X186421000Y-77046000D02*
X186421000Y-77386000D01*
G75*
G02*
X186281000Y-77526000I-140000J0D01*
G01*
X186001000Y-77526000D01*
G75*
G02*
X185861000Y-77386000I0J140000D01*
G01*
X185861000Y-77046000D01*
G75*
G02*
X186001000Y-76906000I140000J0D01*
G01*
X186281000Y-76906000D01*
G75*
G02*
X186421000Y-77046000I0J-140000D01*
G01*
G37*
G36*
G01*
X185461000Y-75522000D02*
X185461000Y-75862000D01*
G75*
G02*
X185321000Y-76002000I-140000J0D01*
G01*
X185041000Y-76002000D01*
G75*
G02*
X184901000Y-75862000I0J140000D01*
G01*
X184901000Y-75522000D01*
G75*
G02*
X185041000Y-75382000I140000J0D01*
G01*
X185321000Y-75382000D01*
G75*
G02*
X185461000Y-75522000I0J-140000D01*
G01*
G37*
G36*
G01*
X186421000Y-75522000D02*
X186421000Y-75862000D01*
G75*
G02*
X186281000Y-76002000I-140000J0D01*
G01*
X186001000Y-76002000D01*
G75*
G02*
X185861000Y-75862000I0J140000D01*
G01*
X185861000Y-75522000D01*
G75*
G02*
X186001000Y-75382000I140000J0D01*
G01*
X186281000Y-75382000D01*
G75*
G02*
X186421000Y-75522000I0J-140000D01*
G01*
G37*
G36*
G01*
X186860000Y-73193000D02*
X186520000Y-73193000D01*
G75*
G02*
X186380000Y-73053000I0J140000D01*
G01*
X186380000Y-72773000D01*
G75*
G02*
X186520000Y-72633000I140000J0D01*
G01*
X186860000Y-72633000D01*
G75*
G02*
X187000000Y-72773000I0J-140000D01*
G01*
X187000000Y-73053000D01*
G75*
G02*
X186860000Y-73193000I-140000J0D01*
G01*
G37*
G36*
G01*
X186860000Y-74153000D02*
X186520000Y-74153000D01*
G75*
G02*
X186380000Y-74013000I0J140000D01*
G01*
X186380000Y-73733000D01*
G75*
G02*
X186520000Y-73593000I140000J0D01*
G01*
X186860000Y-73593000D01*
G75*
G02*
X187000000Y-73733000I0J-140000D01*
G01*
X187000000Y-74013000D01*
G75*
G02*
X186860000Y-74153000I-140000J0D01*
G01*
G37*
G36*
G01*
X188130000Y-73206000D02*
X187790000Y-73206000D01*
G75*
G02*
X187650000Y-73066000I0J140000D01*
G01*
X187650000Y-72786000D01*
G75*
G02*
X187790000Y-72646000I140000J0D01*
G01*
X188130000Y-72646000D01*
G75*
G02*
X188270000Y-72786000I0J-140000D01*
G01*
X188270000Y-73066000D01*
G75*
G02*
X188130000Y-73206000I-140000J0D01*
G01*
G37*
G36*
G01*
X188130000Y-74166000D02*
X187790000Y-74166000D01*
G75*
G02*
X187650000Y-74026000I0J140000D01*
G01*
X187650000Y-73746000D01*
G75*
G02*
X187790000Y-73606000I140000J0D01*
G01*
X188130000Y-73606000D01*
G75*
G02*
X188270000Y-73746000I0J-140000D01*
G01*
X188270000Y-74026000D01*
G75*
G02*
X188130000Y-74166000I-140000J0D01*
G01*
G37*
G36*
G01*
X189400000Y-73234000D02*
X189060000Y-73234000D01*
G75*
G02*
X188920000Y-73094000I0J140000D01*
G01*
X188920000Y-72814000D01*
G75*
G02*
X189060000Y-72674000I140000J0D01*
G01*
X189400000Y-72674000D01*
G75*
G02*
X189540000Y-72814000I0J-140000D01*
G01*
X189540000Y-73094000D01*
G75*
G02*
X189400000Y-73234000I-140000J0D01*
G01*
G37*
G36*
G01*
X189400000Y-74194000D02*
X189060000Y-74194000D01*
G75*
G02*
X188920000Y-74054000I0J140000D01*
G01*
X188920000Y-73774000D01*
G75*
G02*
X189060000Y-73634000I140000J0D01*
G01*
X189400000Y-73634000D01*
G75*
G02*
X189540000Y-73774000I0J-140000D01*
G01*
X189540000Y-74054000D01*
G75*
G02*
X189400000Y-74194000I-140000J0D01*
G01*
G37*
G36*
G01*
X190670000Y-73219000D02*
X190330000Y-73219000D01*
G75*
G02*
X190190000Y-73079000I0J140000D01*
G01*
X190190000Y-72799000D01*
G75*
G02*
X190330000Y-72659000I140000J0D01*
G01*
X190670000Y-72659000D01*
G75*
G02*
X190810000Y-72799000I0J-140000D01*
G01*
X190810000Y-73079000D01*
G75*
G02*
X190670000Y-73219000I-140000J0D01*
G01*
G37*
G36*
G01*
X190670000Y-74179000D02*
X190330000Y-74179000D01*
G75*
G02*
X190190000Y-74039000I0J140000D01*
G01*
X190190000Y-73759000D01*
G75*
G02*
X190330000Y-73619000I140000J0D01*
G01*
X190670000Y-73619000D01*
G75*
G02*
X190810000Y-73759000I0J-140000D01*
G01*
X190810000Y-74039000D01*
G75*
G02*
X190670000Y-74179000I-140000J0D01*
G01*
G37*
G36*
G01*
X189176000Y-85260000D02*
X189176000Y-84920000D01*
G75*
G02*
X189316000Y-84780000I140000J0D01*
G01*
X189596000Y-84780000D01*
G75*
G02*
X189736000Y-84920000I0J-140000D01*
G01*
X189736000Y-85260000D01*
G75*
G02*
X189596000Y-85400000I-140000J0D01*
G01*
X189316000Y-85400000D01*
G75*
G02*
X189176000Y-85260000I0J140000D01*
G01*
G37*
G36*
G01*
X188216000Y-85260000D02*
X188216000Y-84920000D01*
G75*
G02*
X188356000Y-84780000I140000J0D01*
G01*
X188636000Y-84780000D01*
G75*
G02*
X188776000Y-84920000I0J-140000D01*
G01*
X188776000Y-85260000D01*
G75*
G02*
X188636000Y-85400000I-140000J0D01*
G01*
X188356000Y-85400000D01*
G75*
G02*
X188216000Y-85260000I0J140000D01*
G01*
G37*
G36*
G01*
X189176000Y-83990000D02*
X189176000Y-83650000D01*
G75*
G02*
X189316000Y-83510000I140000J0D01*
G01*
X189596000Y-83510000D01*
G75*
G02*
X189736000Y-83650000I0J-140000D01*
G01*
X189736000Y-83990000D01*
G75*
G02*
X189596000Y-84130000I-140000J0D01*
G01*
X189316000Y-84130000D01*
G75*
G02*
X189176000Y-83990000I0J140000D01*
G01*
G37*
G36*
G01*
X188216000Y-83990000D02*
X188216000Y-83650000D01*
G75*
G02*
X188356000Y-83510000I140000J0D01*
G01*
X188636000Y-83510000D01*
G75*
G02*
X188776000Y-83650000I0J-140000D01*
G01*
X188776000Y-83990000D01*
G75*
G02*
X188636000Y-84130000I-140000J0D01*
G01*
X188356000Y-84130000D01*
G75*
G02*
X188216000Y-83990000I0J140000D01*
G01*
G37*
G36*
G01*
X189176000Y-82720000D02*
X189176000Y-82380000D01*
G75*
G02*
X189316000Y-82240000I140000J0D01*
G01*
X189596000Y-82240000D01*
G75*
G02*
X189736000Y-82380000I0J-140000D01*
G01*
X189736000Y-82720000D01*
G75*
G02*
X189596000Y-82860000I-140000J0D01*
G01*
X189316000Y-82860000D01*
G75*
G02*
X189176000Y-82720000I0J140000D01*
G01*
G37*
G36*
G01*
X188216000Y-82720000D02*
X188216000Y-82380000D01*
G75*
G02*
X188356000Y-82240000I140000J0D01*
G01*
X188636000Y-82240000D01*
G75*
G02*
X188776000Y-82380000I0J-140000D01*
G01*
X188776000Y-82720000D01*
G75*
G02*
X188636000Y-82860000I-140000J0D01*
G01*
X188356000Y-82860000D01*
G75*
G02*
X188216000Y-82720000I0J140000D01*
G01*
G37*
G36*
G01*
X192450000Y-74592000D02*
X192450000Y-74252000D01*
G75*
G02*
X192590000Y-74112000I140000J0D01*
G01*
X192870000Y-74112000D01*
G75*
G02*
X193010000Y-74252000I0J-140000D01*
G01*
X193010000Y-74592000D01*
G75*
G02*
X192870000Y-74732000I-140000J0D01*
G01*
X192590000Y-74732000D01*
G75*
G02*
X192450000Y-74592000I0J140000D01*
G01*
G37*
G36*
G01*
X191490000Y-74592000D02*
X191490000Y-74252000D01*
G75*
G02*
X191630000Y-74112000I140000J0D01*
G01*
X191910000Y-74112000D01*
G75*
G02*
X192050000Y-74252000I0J-140000D01*
G01*
X192050000Y-74592000D01*
G75*
G02*
X191910000Y-74732000I-140000J0D01*
G01*
X191630000Y-74732000D01*
G75*
G02*
X191490000Y-74592000I0J140000D01*
G01*
G37*
D10*
X199390000Y-88900000D03*
D11*
X196600000Y-78230000D03*
D12*
X193295000Y-126575000D03*
X190245000Y-123225000D03*
X190245000Y-126575000D03*
X193295000Y-123225000D03*
D13*
X194050000Y-131200000D03*
X189490000Y-131200000D03*
D14*
X206448000Y-78232000D03*
D15*
X206248000Y-75407000D03*
X206248000Y-81057000D03*
D14*
X175768000Y-78232000D03*
D15*
X175968000Y-81057000D03*
X175968000Y-75407000D03*
D16*
X180580000Y-129490000D03*
X185180000Y-129490000D03*
X182880000Y-129490000D03*
D17*
X182880000Y-123190000D03*
D18*
G36*
X189427823Y-80059734D02*
G01*
X189422095Y-80078617D01*
X189412793Y-80096020D01*
X189400274Y-80111274D01*
X189385020Y-80123793D01*
X189367617Y-80133095D01*
X189348734Y-80138823D01*
X189329096Y-80140757D01*
X188945904Y-80140757D01*
X188926266Y-80138823D01*
X188907383Y-80133095D01*
X188889980Y-80123793D01*
X188874726Y-80111274D01*
X188862207Y-80096020D01*
X188852905Y-80078617D01*
X188847177Y-80059734D01*
X188845243Y-80040096D01*
X188845243Y-79656904D01*
X188847177Y-79637266D01*
X188852905Y-79618383D01*
X188862207Y-79600980D01*
X188874726Y-79585726D01*
X188889980Y-79573207D01*
X188907383Y-79563905D01*
X188926266Y-79558177D01*
X188945904Y-79556243D01*
X189245705Y-79556243D01*
X189265343Y-79558177D01*
X189284226Y-79563905D01*
X189301629Y-79573207D01*
X189316883Y-79585726D01*
X189400274Y-79669117D01*
X189412793Y-79684371D01*
X189422095Y-79701774D01*
X189427823Y-79720657D01*
X189429757Y-79740295D01*
X189429757Y-80040096D01*
X189427823Y-80059734D01*
G37*
G36*
X192152823Y-80059734D02*
G01*
X192147095Y-80078617D01*
X192137793Y-80096020D01*
X192125274Y-80111274D01*
X192110020Y-80123793D01*
X192092617Y-80133095D01*
X192073734Y-80138823D01*
X192054096Y-80140757D01*
X191670904Y-80140757D01*
X191651266Y-80138823D01*
X191632383Y-80133095D01*
X191614980Y-80123793D01*
X191599726Y-80111274D01*
X191587207Y-80096020D01*
X191577905Y-80078617D01*
X191572177Y-80059734D01*
X191570243Y-80040096D01*
X191570243Y-79740295D01*
X191572177Y-79720657D01*
X191577905Y-79701774D01*
X191587207Y-79684371D01*
X191599726Y-79669117D01*
X191683117Y-79585726D01*
X191698371Y-79573207D01*
X191715774Y-79563905D01*
X191734657Y-79558177D01*
X191754295Y-79556243D01*
X192054096Y-79556243D01*
X192073734Y-79558177D01*
X192092617Y-79563905D01*
X192110020Y-79573207D01*
X192125274Y-79585726D01*
X192137793Y-79600980D01*
X192147095Y-79618383D01*
X192152823Y-79637266D01*
X192154757Y-79656904D01*
X192154757Y-80040096D01*
X192152823Y-80059734D01*
G37*
G36*
X189427823Y-77251343D02*
G01*
X189422095Y-77270226D01*
X189412793Y-77287629D01*
X189400274Y-77302883D01*
X189316883Y-77386274D01*
X189301629Y-77398793D01*
X189284226Y-77408095D01*
X189265343Y-77413823D01*
X189245705Y-77415757D01*
X188945904Y-77415757D01*
X188926266Y-77413823D01*
X188907383Y-77408095D01*
X188889980Y-77398793D01*
X188874726Y-77386274D01*
X188862207Y-77371020D01*
X188852905Y-77353617D01*
X188847177Y-77334734D01*
X188845243Y-77315096D01*
X188845243Y-76931904D01*
X188847177Y-76912266D01*
X188852905Y-76893383D01*
X188862207Y-76875980D01*
X188874726Y-76860726D01*
X188889980Y-76848207D01*
X188907383Y-76838905D01*
X188926266Y-76833177D01*
X188945904Y-76831243D01*
X189329096Y-76831243D01*
X189348734Y-76833177D01*
X189367617Y-76838905D01*
X189385020Y-76848207D01*
X189400274Y-76860726D01*
X189412793Y-76875980D01*
X189422095Y-76893383D01*
X189427823Y-76912266D01*
X189429757Y-76931904D01*
X189429757Y-77231705D01*
X189427823Y-77251343D01*
G37*
G36*
X192152823Y-77334734D02*
G01*
X192147095Y-77353617D01*
X192137793Y-77371020D01*
X192125274Y-77386274D01*
X192110020Y-77398793D01*
X192092617Y-77408095D01*
X192073734Y-77413823D01*
X192054096Y-77415757D01*
X191754295Y-77415757D01*
X191734657Y-77413823D01*
X191715774Y-77408095D01*
X191698371Y-77398793D01*
X191683117Y-77386274D01*
X191599726Y-77302883D01*
X191587207Y-77287629D01*
X191577905Y-77270226D01*
X191572177Y-77251343D01*
X191570243Y-77231705D01*
X191570243Y-76931904D01*
X191572177Y-76912266D01*
X191577905Y-76893383D01*
X191587207Y-76875980D01*
X191599726Y-76860726D01*
X191614980Y-76848207D01*
X191632383Y-76838905D01*
X191651266Y-76833177D01*
X191670904Y-76831243D01*
X192054096Y-76831243D01*
X192073734Y-76833177D01*
X192092617Y-76838905D01*
X192110020Y-76848207D01*
X192125274Y-76860726D01*
X192137793Y-76875980D01*
X192147095Y-76893383D01*
X192152823Y-76912266D01*
X192154757Y-76931904D01*
X192154757Y-77315096D01*
X192152823Y-77334734D01*
G37*
G36*
X189428185Y-79255471D02*
G01*
X189423529Y-79270821D01*
X189415968Y-79284966D01*
X189405792Y-79297365D01*
X189338009Y-79365148D01*
X189325610Y-79375324D01*
X189311465Y-79382885D01*
X189296115Y-79387541D01*
X189280153Y-79389113D01*
X188927064Y-79389113D01*
X188911102Y-79387541D01*
X188895752Y-79382885D01*
X188881607Y-79375324D01*
X188869208Y-79365148D01*
X188859032Y-79352749D01*
X188851471Y-79338604D01*
X188846815Y-79323254D01*
X188845243Y-79307292D01*
X188845243Y-78664708D01*
X188846815Y-78648746D01*
X188851471Y-78633396D01*
X188859032Y-78619251D01*
X188869208Y-78606852D01*
X188881607Y-78596676D01*
X188895752Y-78589115D01*
X188911102Y-78584459D01*
X188927064Y-78582887D01*
X189280153Y-78582887D01*
X189296115Y-78584459D01*
X189311465Y-78589115D01*
X189325610Y-78596676D01*
X189338009Y-78606852D01*
X189405792Y-78674635D01*
X189415968Y-78687034D01*
X189423529Y-78701179D01*
X189428185Y-78716529D01*
X189429757Y-78732491D01*
X189429757Y-79239509D01*
X189428185Y-79255471D01*
G37*
G36*
X189428185Y-78255471D02*
G01*
X189423529Y-78270821D01*
X189415968Y-78284966D01*
X189405792Y-78297365D01*
X189338009Y-78365148D01*
X189325610Y-78375324D01*
X189311465Y-78382885D01*
X189296115Y-78387541D01*
X189280153Y-78389113D01*
X188927064Y-78389113D01*
X188911102Y-78387541D01*
X188895752Y-78382885D01*
X188881607Y-78375324D01*
X188869208Y-78365148D01*
X188859032Y-78352749D01*
X188851471Y-78338604D01*
X188846815Y-78323254D01*
X188845243Y-78307292D01*
X188845243Y-77664708D01*
X188846815Y-77648746D01*
X188851471Y-77633396D01*
X188859032Y-77619251D01*
X188869208Y-77606852D01*
X188881607Y-77596676D01*
X188895752Y-77589115D01*
X188911102Y-77584459D01*
X188927064Y-77582887D01*
X189280153Y-77582887D01*
X189296115Y-77584459D01*
X189311465Y-77589115D01*
X189325610Y-77596676D01*
X189338009Y-77606852D01*
X189405792Y-77674635D01*
X189415968Y-77687034D01*
X189423529Y-77701179D01*
X189428185Y-77716529D01*
X189429757Y-77732491D01*
X189429757Y-78239509D01*
X189428185Y-78255471D01*
G37*
G36*
X192153185Y-79323254D02*
G01*
X192148529Y-79338604D01*
X192140968Y-79352749D01*
X192130792Y-79365148D01*
X192118393Y-79375324D01*
X192104248Y-79382885D01*
X192088898Y-79387541D01*
X192072936Y-79389113D01*
X191719847Y-79389113D01*
X191703885Y-79387541D01*
X191688535Y-79382885D01*
X191674390Y-79375324D01*
X191661991Y-79365148D01*
X191594208Y-79297365D01*
X191584032Y-79284966D01*
X191576471Y-79270821D01*
X191571815Y-79255471D01*
X191570243Y-79239509D01*
X191570243Y-78732491D01*
X191571815Y-78716529D01*
X191576471Y-78701179D01*
X191584032Y-78687034D01*
X191594208Y-78674635D01*
X191661991Y-78606852D01*
X191674390Y-78596676D01*
X191688535Y-78589115D01*
X191703885Y-78584459D01*
X191719847Y-78582887D01*
X192072936Y-78582887D01*
X192088898Y-78584459D01*
X192104248Y-78589115D01*
X192118393Y-78596676D01*
X192130792Y-78606852D01*
X192140968Y-78619251D01*
X192148529Y-78633396D01*
X192153185Y-78648746D01*
X192154757Y-78664708D01*
X192154757Y-79307292D01*
X192153185Y-79323254D01*
G37*
G36*
X192153185Y-78323254D02*
G01*
X192148529Y-78338604D01*
X192140968Y-78352749D01*
X192130792Y-78365148D01*
X192118393Y-78375324D01*
X192104248Y-78382885D01*
X192088898Y-78387541D01*
X192072936Y-78389113D01*
X191719847Y-78389113D01*
X191703885Y-78387541D01*
X191688535Y-78382885D01*
X191674390Y-78375324D01*
X191661991Y-78365148D01*
X191594208Y-78297365D01*
X191584032Y-78284966D01*
X191576471Y-78270821D01*
X191571815Y-78255471D01*
X191570243Y-78239509D01*
X191570243Y-77732491D01*
X191571815Y-77716529D01*
X191576471Y-77701179D01*
X191584032Y-77687034D01*
X191594208Y-77674635D01*
X191661991Y-77606852D01*
X191674390Y-77596676D01*
X191688535Y-77589115D01*
X191703885Y-77584459D01*
X191719847Y-77582887D01*
X192072936Y-77582887D01*
X192088898Y-77584459D01*
X192104248Y-77589115D01*
X192118393Y-77596676D01*
X192130792Y-77606852D01*
X192140968Y-77619251D01*
X192148529Y-77633396D01*
X192153185Y-77648746D01*
X192154757Y-77664708D01*
X192154757Y-78307292D01*
X192153185Y-78323254D01*
G37*
G36*
X190401541Y-80074898D02*
G01*
X190396885Y-80090248D01*
X190389324Y-80104393D01*
X190379148Y-80116792D01*
X190366749Y-80126968D01*
X190352604Y-80134529D01*
X190337254Y-80139185D01*
X190321292Y-80140757D01*
X189678708Y-80140757D01*
X189662746Y-80139185D01*
X189647396Y-80134529D01*
X189633251Y-80126968D01*
X189620852Y-80116792D01*
X189610676Y-80104393D01*
X189603115Y-80090248D01*
X189598459Y-80074898D01*
X189596887Y-80058936D01*
X189596887Y-79705847D01*
X189598459Y-79689885D01*
X189603115Y-79674535D01*
X189610676Y-79660390D01*
X189620852Y-79647991D01*
X189688635Y-79580208D01*
X189701034Y-79570032D01*
X189715179Y-79562471D01*
X189730529Y-79557815D01*
X189746491Y-79556243D01*
X190253509Y-79556243D01*
X190269471Y-79557815D01*
X190284821Y-79562471D01*
X190298966Y-79570032D01*
X190311365Y-79580208D01*
X190379148Y-79647991D01*
X190389324Y-79660390D01*
X190396885Y-79674535D01*
X190401541Y-79689885D01*
X190403113Y-79705847D01*
X190403113Y-80058936D01*
X190401541Y-80074898D01*
G37*
G36*
X191401541Y-80074898D02*
G01*
X191396885Y-80090248D01*
X191389324Y-80104393D01*
X191379148Y-80116792D01*
X191366749Y-80126968D01*
X191352604Y-80134529D01*
X191337254Y-80139185D01*
X191321292Y-80140757D01*
X190678708Y-80140757D01*
X190662746Y-80139185D01*
X190647396Y-80134529D01*
X190633251Y-80126968D01*
X190620852Y-80116792D01*
X190610676Y-80104393D01*
X190603115Y-80090248D01*
X190598459Y-80074898D01*
X190596887Y-80058936D01*
X190596887Y-79705847D01*
X190598459Y-79689885D01*
X190603115Y-79674535D01*
X190610676Y-79660390D01*
X190620852Y-79647991D01*
X190688635Y-79580208D01*
X190701034Y-79570032D01*
X190715179Y-79562471D01*
X190730529Y-79557815D01*
X190746491Y-79556243D01*
X191253509Y-79556243D01*
X191269471Y-79557815D01*
X191284821Y-79562471D01*
X191298966Y-79570032D01*
X191311365Y-79580208D01*
X191379148Y-79647991D01*
X191389324Y-79660390D01*
X191396885Y-79674535D01*
X191401541Y-79689885D01*
X191403113Y-79705847D01*
X191403113Y-80058936D01*
X191401541Y-80074898D01*
G37*
G36*
X190401541Y-77282115D02*
G01*
X190396885Y-77297465D01*
X190389324Y-77311610D01*
X190379148Y-77324009D01*
X190311365Y-77391792D01*
X190298966Y-77401968D01*
X190284821Y-77409529D01*
X190269471Y-77414185D01*
X190253509Y-77415757D01*
X189746491Y-77415757D01*
X189730529Y-77414185D01*
X189715179Y-77409529D01*
X189701034Y-77401968D01*
X189688635Y-77391792D01*
X189620852Y-77324009D01*
X189610676Y-77311610D01*
X189603115Y-77297465D01*
X189598459Y-77282115D01*
X189596887Y-77266153D01*
X189596887Y-76913064D01*
X189598459Y-76897102D01*
X189603115Y-76881752D01*
X189610676Y-76867607D01*
X189620852Y-76855208D01*
X189633251Y-76845032D01*
X189647396Y-76837471D01*
X189662746Y-76832815D01*
X189678708Y-76831243D01*
X190321292Y-76831243D01*
X190337254Y-76832815D01*
X190352604Y-76837471D01*
X190366749Y-76845032D01*
X190379148Y-76855208D01*
X190389324Y-76867607D01*
X190396885Y-76881752D01*
X190401541Y-76897102D01*
X190403113Y-76913064D01*
X190403113Y-77266153D01*
X190401541Y-77282115D01*
G37*
G36*
X191401541Y-77282115D02*
G01*
X191396885Y-77297465D01*
X191389324Y-77311610D01*
X191379148Y-77324009D01*
X191311365Y-77391792D01*
X191298966Y-77401968D01*
X191284821Y-77409529D01*
X191269471Y-77414185D01*
X191253509Y-77415757D01*
X190746491Y-77415757D01*
X190730529Y-77414185D01*
X190715179Y-77409529D01*
X190701034Y-77401968D01*
X190688635Y-77391792D01*
X190620852Y-77324009D01*
X190610676Y-77311610D01*
X190603115Y-77297465D01*
X190598459Y-77282115D01*
X190596887Y-77266153D01*
X190596887Y-76913064D01*
X190598459Y-76897102D01*
X190603115Y-76881752D01*
X190610676Y-76867607D01*
X190620852Y-76855208D01*
X190633251Y-76845032D01*
X190647396Y-76837471D01*
X190662746Y-76832815D01*
X190678708Y-76831243D01*
X191321292Y-76831243D01*
X191337254Y-76832815D01*
X191352604Y-76837471D01*
X191366749Y-76845032D01*
X191379148Y-76855208D01*
X191389324Y-76867607D01*
X191396885Y-76881752D01*
X191401541Y-76897102D01*
X191403113Y-76913064D01*
X191403113Y-77266153D01*
X191401541Y-77282115D01*
G37*
G36*
G01*
X189798443Y-78582887D02*
X190201557Y-78582887D01*
G75*
G02*
X190403113Y-78784443I0J-201556D01*
G01*
X190403113Y-79187557D01*
G75*
G02*
X190201557Y-79389113I-201556J0D01*
G01*
X189798443Y-79389113D01*
G75*
G02*
X189596887Y-79187557I0J201556D01*
G01*
X189596887Y-78784443D01*
G75*
G02*
X189798443Y-78582887I201556J0D01*
G01*
G37*
G36*
G01*
X190798443Y-78582887D02*
X191201557Y-78582887D01*
G75*
G02*
X191403113Y-78784443I0J-201556D01*
G01*
X191403113Y-79187557D01*
G75*
G02*
X191201557Y-79389113I-201556J0D01*
G01*
X190798443Y-79389113D01*
G75*
G02*
X190596887Y-79187557I0J201556D01*
G01*
X190596887Y-78784443D01*
G75*
G02*
X190798443Y-78582887I201556J0D01*
G01*
G37*
G36*
G01*
X189798443Y-77582887D02*
X190201557Y-77582887D01*
G75*
G02*
X190403113Y-77784443I0J-201556D01*
G01*
X190403113Y-78187557D01*
G75*
G02*
X190201557Y-78389113I-201556J0D01*
G01*
X189798443Y-78389113D01*
G75*
G02*
X189596887Y-78187557I0J201556D01*
G01*
X189596887Y-77784443D01*
G75*
G02*
X189798443Y-77582887I201556J0D01*
G01*
G37*
G36*
G01*
X190798443Y-77582887D02*
X191201557Y-77582887D01*
G75*
G02*
X191403113Y-77784443I0J-201556D01*
G01*
X191403113Y-78187557D01*
G75*
G02*
X191201557Y-78389113I-201556J0D01*
G01*
X190798443Y-78389113D01*
G75*
G02*
X190596887Y-78187557I0J201556D01*
G01*
X190596887Y-77784443D01*
G75*
G02*
X190798443Y-77582887I201556J0D01*
G01*
G37*
G36*
G01*
X192562500Y-76611000D02*
X193312500Y-76611000D01*
G75*
G02*
X193375000Y-76673500I0J-62500D01*
G01*
X193375000Y-76798500D01*
G75*
G02*
X193312500Y-76861000I-62500J0D01*
G01*
X192562500Y-76861000D01*
G75*
G02*
X192500000Y-76798500I0J62500D01*
G01*
X192500000Y-76673500D01*
G75*
G02*
X192562500Y-76611000I62500J0D01*
G01*
G37*
G36*
G01*
X192562500Y-77111000D02*
X193312500Y-77111000D01*
G75*
G02*
X193375000Y-77173500I0J-62500D01*
G01*
X193375000Y-77298500D01*
G75*
G02*
X193312500Y-77361000I-62500J0D01*
G01*
X192562500Y-77361000D01*
G75*
G02*
X192500000Y-77298500I0J62500D01*
G01*
X192500000Y-77173500D01*
G75*
G02*
X192562500Y-77111000I62500J0D01*
G01*
G37*
G36*
G01*
X192562500Y-77611000D02*
X193312500Y-77611000D01*
G75*
G02*
X193375000Y-77673500I0J-62500D01*
G01*
X193375000Y-77798500D01*
G75*
G02*
X193312500Y-77861000I-62500J0D01*
G01*
X192562500Y-77861000D01*
G75*
G02*
X192500000Y-77798500I0J62500D01*
G01*
X192500000Y-77673500D01*
G75*
G02*
X192562500Y-77611000I62500J0D01*
G01*
G37*
G36*
G01*
X192562500Y-78111000D02*
X193312500Y-78111000D01*
G75*
G02*
X193375000Y-78173500I0J-62500D01*
G01*
X193375000Y-78298500D01*
G75*
G02*
X193312500Y-78361000I-62500J0D01*
G01*
X192562500Y-78361000D01*
G75*
G02*
X192500000Y-78298500I0J62500D01*
G01*
X192500000Y-78173500D01*
G75*
G02*
X192562500Y-78111000I62500J0D01*
G01*
G37*
G36*
G01*
X192562500Y-78611000D02*
X193312500Y-78611000D01*
G75*
G02*
X193375000Y-78673500I0J-62500D01*
G01*
X193375000Y-78798500D01*
G75*
G02*
X193312500Y-78861000I-62500J0D01*
G01*
X192562500Y-78861000D01*
G75*
G02*
X192500000Y-78798500I0J62500D01*
G01*
X192500000Y-78673500D01*
G75*
G02*
X192562500Y-78611000I62500J0D01*
G01*
G37*
G36*
G01*
X192562500Y-79111000D02*
X193312500Y-79111000D01*
G75*
G02*
X193375000Y-79173500I0J-62500D01*
G01*
X193375000Y-79298500D01*
G75*
G02*
X193312500Y-79361000I-62500J0D01*
G01*
X192562500Y-79361000D01*
G75*
G02*
X192500000Y-79298500I0J62500D01*
G01*
X192500000Y-79173500D01*
G75*
G02*
X192562500Y-79111000I62500J0D01*
G01*
G37*
G36*
G01*
X192562500Y-79611000D02*
X193312500Y-79611000D01*
G75*
G02*
X193375000Y-79673500I0J-62500D01*
G01*
X193375000Y-79798500D01*
G75*
G02*
X193312500Y-79861000I-62500J0D01*
G01*
X192562500Y-79861000D01*
G75*
G02*
X192500000Y-79798500I0J62500D01*
G01*
X192500000Y-79673500D01*
G75*
G02*
X192562500Y-79611000I62500J0D01*
G01*
G37*
G36*
G01*
X192562500Y-80111000D02*
X193312500Y-80111000D01*
G75*
G02*
X193375000Y-80173500I0J-62500D01*
G01*
X193375000Y-80298500D01*
G75*
G02*
X193312500Y-80361000I-62500J0D01*
G01*
X192562500Y-80361000D01*
G75*
G02*
X192500000Y-80298500I0J62500D01*
G01*
X192500000Y-80173500D01*
G75*
G02*
X192562500Y-80111000I62500J0D01*
G01*
G37*
G36*
G01*
X192187500Y-80486000D02*
X192312500Y-80486000D01*
G75*
G02*
X192375000Y-80548500I0J-62500D01*
G01*
X192375000Y-81298500D01*
G75*
G02*
X192312500Y-81361000I-62500J0D01*
G01*
X192187500Y-81361000D01*
G75*
G02*
X192125000Y-81298500I0J62500D01*
G01*
X192125000Y-80548500D01*
G75*
G02*
X192187500Y-80486000I62500J0D01*
G01*
G37*
G36*
G01*
X191687500Y-80486000D02*
X191812500Y-80486000D01*
G75*
G02*
X191875000Y-80548500I0J-62500D01*
G01*
X191875000Y-81298500D01*
G75*
G02*
X191812500Y-81361000I-62500J0D01*
G01*
X191687500Y-81361000D01*
G75*
G02*
X191625000Y-81298500I0J62500D01*
G01*
X191625000Y-80548500D01*
G75*
G02*
X191687500Y-80486000I62500J0D01*
G01*
G37*
G36*
G01*
X191187500Y-80486000D02*
X191312500Y-80486000D01*
G75*
G02*
X191375000Y-80548500I0J-62500D01*
G01*
X191375000Y-81298500D01*
G75*
G02*
X191312500Y-81361000I-62500J0D01*
G01*
X191187500Y-81361000D01*
G75*
G02*
X191125000Y-81298500I0J62500D01*
G01*
X191125000Y-80548500D01*
G75*
G02*
X191187500Y-80486000I62500J0D01*
G01*
G37*
G36*
G01*
X190687500Y-80486000D02*
X190812500Y-80486000D01*
G75*
G02*
X190875000Y-80548500I0J-62500D01*
G01*
X190875000Y-81298500D01*
G75*
G02*
X190812500Y-81361000I-62500J0D01*
G01*
X190687500Y-81361000D01*
G75*
G02*
X190625000Y-81298500I0J62500D01*
G01*
X190625000Y-80548500D01*
G75*
G02*
X190687500Y-80486000I62500J0D01*
G01*
G37*
G36*
G01*
X190187500Y-80486000D02*
X190312500Y-80486000D01*
G75*
G02*
X190375000Y-80548500I0J-62500D01*
G01*
X190375000Y-81298500D01*
G75*
G02*
X190312500Y-81361000I-62500J0D01*
G01*
X190187500Y-81361000D01*
G75*
G02*
X190125000Y-81298500I0J62500D01*
G01*
X190125000Y-80548500D01*
G75*
G02*
X190187500Y-80486000I62500J0D01*
G01*
G37*
G36*
G01*
X189687500Y-80486000D02*
X189812500Y-80486000D01*
G75*
G02*
X189875000Y-80548500I0J-62500D01*
G01*
X189875000Y-81298500D01*
G75*
G02*
X189812500Y-81361000I-62500J0D01*
G01*
X189687500Y-81361000D01*
G75*
G02*
X189625000Y-81298500I0J62500D01*
G01*
X189625000Y-80548500D01*
G75*
G02*
X189687500Y-80486000I62500J0D01*
G01*
G37*
G36*
G01*
X189187500Y-80486000D02*
X189312500Y-80486000D01*
G75*
G02*
X189375000Y-80548500I0J-62500D01*
G01*
X189375000Y-81298500D01*
G75*
G02*
X189312500Y-81361000I-62500J0D01*
G01*
X189187500Y-81361000D01*
G75*
G02*
X189125000Y-81298500I0J62500D01*
G01*
X189125000Y-80548500D01*
G75*
G02*
X189187500Y-80486000I62500J0D01*
G01*
G37*
G36*
G01*
X188687500Y-80486000D02*
X188812500Y-80486000D01*
G75*
G02*
X188875000Y-80548500I0J-62500D01*
G01*
X188875000Y-81298500D01*
G75*
G02*
X188812500Y-81361000I-62500J0D01*
G01*
X188687500Y-81361000D01*
G75*
G02*
X188625000Y-81298500I0J62500D01*
G01*
X188625000Y-80548500D01*
G75*
G02*
X188687500Y-80486000I62500J0D01*
G01*
G37*
G36*
G01*
X187687500Y-80111000D02*
X188437500Y-80111000D01*
G75*
G02*
X188500000Y-80173500I0J-62500D01*
G01*
X188500000Y-80298500D01*
G75*
G02*
X188437500Y-80361000I-62500J0D01*
G01*
X187687500Y-80361000D01*
G75*
G02*
X187625000Y-80298500I0J62500D01*
G01*
X187625000Y-80173500D01*
G75*
G02*
X187687500Y-80111000I62500J0D01*
G01*
G37*
G36*
G01*
X187687500Y-79611000D02*
X188437500Y-79611000D01*
G75*
G02*
X188500000Y-79673500I0J-62500D01*
G01*
X188500000Y-79798500D01*
G75*
G02*
X188437500Y-79861000I-62500J0D01*
G01*
X187687500Y-79861000D01*
G75*
G02*
X187625000Y-79798500I0J62500D01*
G01*
X187625000Y-79673500D01*
G75*
G02*
X187687500Y-79611000I62500J0D01*
G01*
G37*
G36*
G01*
X187687500Y-79111000D02*
X188437500Y-79111000D01*
G75*
G02*
X188500000Y-79173500I0J-62500D01*
G01*
X188500000Y-79298500D01*
G75*
G02*
X188437500Y-79361000I-62500J0D01*
G01*
X187687500Y-79361000D01*
G75*
G02*
X187625000Y-79298500I0J62500D01*
G01*
X187625000Y-79173500D01*
G75*
G02*
X187687500Y-79111000I62500J0D01*
G01*
G37*
G36*
G01*
X187687500Y-78611000D02*
X188437500Y-78611000D01*
G75*
G02*
X188500000Y-78673500I0J-62500D01*
G01*
X188500000Y-78798500D01*
G75*
G02*
X188437500Y-78861000I-62500J0D01*
G01*
X187687500Y-78861000D01*
G75*
G02*
X187625000Y-78798500I0J62500D01*
G01*
X187625000Y-78673500D01*
G75*
G02*
X187687500Y-78611000I62500J0D01*
G01*
G37*
G36*
G01*
X187687500Y-78111000D02*
X188437500Y-78111000D01*
G75*
G02*
X188500000Y-78173500I0J-62500D01*
G01*
X188500000Y-78298500D01*
G75*
G02*
X188437500Y-78361000I-62500J0D01*
G01*
X187687500Y-78361000D01*
G75*
G02*
X187625000Y-78298500I0J62500D01*
G01*
X187625000Y-78173500D01*
G75*
G02*
X187687500Y-78111000I62500J0D01*
G01*
G37*
G36*
G01*
X187687500Y-77611000D02*
X188437500Y-77611000D01*
G75*
G02*
X188500000Y-77673500I0J-62500D01*
G01*
X188500000Y-77798500D01*
G75*
G02*
X188437500Y-77861000I-62500J0D01*
G01*
X187687500Y-77861000D01*
G75*
G02*
X187625000Y-77798500I0J62500D01*
G01*
X187625000Y-77673500D01*
G75*
G02*
X187687500Y-77611000I62500J0D01*
G01*
G37*
G36*
G01*
X187687500Y-77111000D02*
X188437500Y-77111000D01*
G75*
G02*
X188500000Y-77173500I0J-62500D01*
G01*
X188500000Y-77298500D01*
G75*
G02*
X188437500Y-77361000I-62500J0D01*
G01*
X187687500Y-77361000D01*
G75*
G02*
X187625000Y-77298500I0J62500D01*
G01*
X187625000Y-77173500D01*
G75*
G02*
X187687500Y-77111000I62500J0D01*
G01*
G37*
G36*
G01*
X187687500Y-76611000D02*
X188437500Y-76611000D01*
G75*
G02*
X188500000Y-76673500I0J-62500D01*
G01*
X188500000Y-76798500D01*
G75*
G02*
X188437500Y-76861000I-62500J0D01*
G01*
X187687500Y-76861000D01*
G75*
G02*
X187625000Y-76798500I0J62500D01*
G01*
X187625000Y-76673500D01*
G75*
G02*
X187687500Y-76611000I62500J0D01*
G01*
G37*
G36*
G01*
X188687500Y-75611000D02*
X188812500Y-75611000D01*
G75*
G02*
X188875000Y-75673500I0J-62500D01*
G01*
X188875000Y-76423500D01*
G75*
G02*
X188812500Y-76486000I-62500J0D01*
G01*
X188687500Y-76486000D01*
G75*
G02*
X188625000Y-76423500I0J62500D01*
G01*
X188625000Y-75673500D01*
G75*
G02*
X188687500Y-75611000I62500J0D01*
G01*
G37*
G36*
G01*
X189187500Y-75611000D02*
X189312500Y-75611000D01*
G75*
G02*
X189375000Y-75673500I0J-62500D01*
G01*
X189375000Y-76423500D01*
G75*
G02*
X189312500Y-76486000I-62500J0D01*
G01*
X189187500Y-76486000D01*
G75*
G02*
X189125000Y-76423500I0J62500D01*
G01*
X189125000Y-75673500D01*
G75*
G02*
X189187500Y-75611000I62500J0D01*
G01*
G37*
G36*
G01*
X189687500Y-75611000D02*
X189812500Y-75611000D01*
G75*
G02*
X189875000Y-75673500I0J-62500D01*
G01*
X189875000Y-76423500D01*
G75*
G02*
X189812500Y-76486000I-62500J0D01*
G01*
X189687500Y-76486000D01*
G75*
G02*
X189625000Y-76423500I0J62500D01*
G01*
X189625000Y-75673500D01*
G75*
G02*
X189687500Y-75611000I62500J0D01*
G01*
G37*
G36*
G01*
X190187500Y-75611000D02*
X190312500Y-75611000D01*
G75*
G02*
X190375000Y-75673500I0J-62500D01*
G01*
X190375000Y-76423500D01*
G75*
G02*
X190312500Y-76486000I-62500J0D01*
G01*
X190187500Y-76486000D01*
G75*
G02*
X190125000Y-76423500I0J62500D01*
G01*
X190125000Y-75673500D01*
G75*
G02*
X190187500Y-75611000I62500J0D01*
G01*
G37*
G36*
G01*
X190687500Y-75611000D02*
X190812500Y-75611000D01*
G75*
G02*
X190875000Y-75673500I0J-62500D01*
G01*
X190875000Y-76423500D01*
G75*
G02*
X190812500Y-76486000I-62500J0D01*
G01*
X190687500Y-76486000D01*
G75*
G02*
X190625000Y-76423500I0J62500D01*
G01*
X190625000Y-75673500D01*
G75*
G02*
X190687500Y-75611000I62500J0D01*
G01*
G37*
G36*
G01*
X191187500Y-75611000D02*
X191312500Y-75611000D01*
G75*
G02*
X191375000Y-75673500I0J-62500D01*
G01*
X191375000Y-76423500D01*
G75*
G02*
X191312500Y-76486000I-62500J0D01*
G01*
X191187500Y-76486000D01*
G75*
G02*
X191125000Y-76423500I0J62500D01*
G01*
X191125000Y-75673500D01*
G75*
G02*
X191187500Y-75611000I62500J0D01*
G01*
G37*
G36*
G01*
X191687500Y-75611000D02*
X191812500Y-75611000D01*
G75*
G02*
X191875000Y-75673500I0J-62500D01*
G01*
X191875000Y-76423500D01*
G75*
G02*
X191812500Y-76486000I-62500J0D01*
G01*
X191687500Y-76486000D01*
G75*
G02*
X191625000Y-76423500I0J62500D01*
G01*
X191625000Y-75673500D01*
G75*
G02*
X191687500Y-75611000I62500J0D01*
G01*
G37*
G36*
G01*
X192187500Y-75611000D02*
X192312500Y-75611000D01*
G75*
G02*
X192375000Y-75673500I0J-62500D01*
G01*
X192375000Y-76423500D01*
G75*
G02*
X192312500Y-76486000I-62500J0D01*
G01*
X192187500Y-76486000D01*
G75*
G02*
X192125000Y-76423500I0J62500D01*
G01*
X192125000Y-75673500D01*
G75*
G02*
X192187500Y-75611000I62500J0D01*
G01*
G37*
D19*
X190500000Y-112284000D03*
X191450000Y-114284000D03*
X189550000Y-114284000D03*
X194564000Y-112284000D03*
X195514000Y-114284000D03*
X193614000Y-114284000D03*
X198628000Y-112284000D03*
X199578000Y-114284000D03*
X197678000Y-114284000D03*
X202692000Y-112284000D03*
X203642000Y-114284000D03*
X201742000Y-114284000D03*
M02*
