%FSLAX45Y45*%
G04 Gerber Fmt 4.5, Leading zero omitted, Abs format (unit mm)*
G04 Created by KiCad (PCBNEW (5.1.10)-1) date 2021-09-22 21:53:58*
%MOMM*%
%LPD*%
G01*
G04 APERTURE LIST*
%TA.AperFunction,Profile*%
%ADD10C,0.050000*%
%TD*%
%ADD11C,0.200000*%
%ADD12C,0.300000*%
G04 APERTURE END LIST*
D10*
X21793200Y-13208000D02*
G75*
G02*
X21539200Y-13462000I-254000J0D01*
G01*
X16662400Y-13462000D02*
G75*
G02*
X16408400Y-13208000I0J254000D01*
G01*
X20574000Y-7112000D02*
G75*
G02*
X20828000Y-7366000I0J-254000D01*
G01*
X17373600Y-7366000D02*
G75*
G02*
X17627600Y-7112000I254000J0D01*
G01*
X17373600Y-8280400D02*
G75*
G02*
X17119600Y-8534400I-254000J0D01*
G01*
X21082000Y-8534400D02*
X21539200Y-8534400D01*
X21082000Y-8534400D02*
G75*
G02*
X20828000Y-8280400I0J254000D01*
G01*
X16662400Y-8534400D02*
X17119600Y-8534400D01*
X16408400Y-8788400D02*
G75*
G02*
X16662400Y-8534400I254000J0D01*
G01*
X21539200Y-8534400D02*
G75*
G02*
X21793200Y-8788400I0J-254000D01*
G01*
X21793200Y-8788400D02*
X21793200Y-8940800D01*
X16662400Y-13462000D02*
X21539200Y-13462000D01*
X16408400Y-8788400D02*
X16408400Y-13208000D01*
X17373600Y-7366000D02*
X17373600Y-8280400D01*
X20574000Y-7112000D02*
X17627600Y-7112000D01*
X20828000Y-8280400D02*
X20828000Y-7366000D01*
X21793200Y-13208000D02*
X21793200Y-8940800D01*
D11*
X17409000Y-7495700D02*
X17429000Y-7515700D01*
X17429000Y-7495700D02*
X17409000Y-7515700D01*
X17409000Y-7559200D02*
X17429000Y-7579200D01*
X17429000Y-7559200D02*
X17409000Y-7579200D01*
X17409000Y-8067200D02*
X17429000Y-8087200D01*
X17429000Y-8067200D02*
X17409000Y-8087200D01*
X17409000Y-8130700D02*
X17429000Y-8150700D01*
X17429000Y-8130700D02*
X17409000Y-8150700D01*
X17459800Y-7495700D02*
X17479800Y-7515700D01*
X17479800Y-7495700D02*
X17459800Y-7515700D01*
X17459800Y-7559200D02*
X17479800Y-7579200D01*
X17479800Y-7559200D02*
X17459800Y-7579200D01*
X17459800Y-8067200D02*
X17479800Y-8087200D01*
X17479800Y-8067200D02*
X17459800Y-8087200D01*
X17459800Y-8130700D02*
X17479800Y-8150700D01*
X17479800Y-8130700D02*
X17459800Y-8150700D01*
X17510600Y-7495700D02*
X17530600Y-7515700D01*
X17530600Y-7495700D02*
X17510600Y-7515700D01*
X17510600Y-7559200D02*
X17530600Y-7579200D01*
X17530600Y-7559200D02*
X17510600Y-7579200D01*
X17510600Y-8067200D02*
X17530600Y-8087200D01*
X17530600Y-8067200D02*
X17510600Y-8087200D01*
X17510600Y-8130700D02*
X17530600Y-8150700D01*
X17530600Y-8130700D02*
X17510600Y-8150700D01*
X17561400Y-7495700D02*
X17581400Y-7515700D01*
X17581400Y-7495700D02*
X17561400Y-7515700D01*
X17561400Y-7559200D02*
X17581400Y-7579200D01*
X17581400Y-7559200D02*
X17561400Y-7579200D01*
X17561400Y-8067200D02*
X17581400Y-8087200D01*
X17581400Y-8067200D02*
X17561400Y-8087200D01*
X17561400Y-8130700D02*
X17581400Y-8150700D01*
X17581400Y-8130700D02*
X17561400Y-8150700D01*
X17612200Y-7495700D02*
X17632200Y-7515700D01*
X17632200Y-7495700D02*
X17612200Y-7515700D01*
X17612200Y-7559200D02*
X17632200Y-7579200D01*
X17632200Y-7559200D02*
X17612200Y-7579200D01*
X17612200Y-8067200D02*
X17632200Y-8087200D01*
X17632200Y-8067200D02*
X17612200Y-8087200D01*
X17612200Y-8130700D02*
X17632200Y-8150700D01*
X17632200Y-8130700D02*
X17612200Y-8150700D01*
X17663000Y-7495700D02*
X17683000Y-7515700D01*
X17683000Y-7495700D02*
X17663000Y-7515700D01*
X17663000Y-7559200D02*
X17683000Y-7579200D01*
X17683000Y-7559200D02*
X17663000Y-7579200D01*
X17663000Y-8067200D02*
X17683000Y-8087200D01*
X17683000Y-8067200D02*
X17663000Y-8087200D01*
X17663000Y-8130700D02*
X17683000Y-8150700D01*
X17683000Y-8130700D02*
X17663000Y-8150700D01*
X17713800Y-7495700D02*
X17733800Y-7515700D01*
X17733800Y-7495700D02*
X17713800Y-7515700D01*
X17713800Y-7559200D02*
X17733800Y-7579200D01*
X17733800Y-7559200D02*
X17713800Y-7579200D01*
X17713800Y-8067200D02*
X17733800Y-8087200D01*
X17733800Y-8067200D02*
X17713800Y-8087200D01*
X17713800Y-8130700D02*
X17733800Y-8150700D01*
X17733800Y-8130700D02*
X17713800Y-8150700D01*
X17764600Y-7495700D02*
X17784600Y-7515700D01*
X17784600Y-7495700D02*
X17764600Y-7515700D01*
X17764600Y-7559200D02*
X17784600Y-7579200D01*
X17784600Y-7559200D02*
X17764600Y-7579200D01*
X17764600Y-8067200D02*
X17784600Y-8087200D01*
X17784600Y-8067200D02*
X17764600Y-8087200D01*
X17764600Y-8130700D02*
X17784600Y-8150700D01*
X17784600Y-8130700D02*
X17764600Y-8150700D01*
X18940000Y-7738600D02*
X18960000Y-7758600D01*
X18960000Y-7738600D02*
X18940000Y-7758600D01*
X18940000Y-7838600D02*
X18960000Y-7858600D01*
X18960000Y-7838600D02*
X18940000Y-7858600D01*
X18940000Y-7938600D02*
X18960000Y-7958600D01*
X18960000Y-7938600D02*
X18940000Y-7958600D01*
X19040000Y-7738600D02*
X19060000Y-7758600D01*
X19060000Y-7738600D02*
X19040000Y-7758600D01*
X19040000Y-7838600D02*
X19060000Y-7858600D01*
X19060000Y-7838600D02*
X19040000Y-7858600D01*
X19040000Y-7938600D02*
X19060000Y-7958600D01*
X19060000Y-7938600D02*
X19040000Y-7958600D01*
X19140000Y-7738600D02*
X19160000Y-7758600D01*
X19160000Y-7738600D02*
X19140000Y-7758600D01*
X19140000Y-7838600D02*
X19160000Y-7858600D01*
X19160000Y-7838600D02*
X19140000Y-7858600D01*
X19140000Y-7938600D02*
X19160000Y-7958600D01*
X19160000Y-7938600D02*
X19140000Y-7958600D01*
X20437000Y-7495700D02*
X20457000Y-7515700D01*
X20457000Y-7495700D02*
X20437000Y-7515700D01*
X20437000Y-7559200D02*
X20457000Y-7579200D01*
X20457000Y-7559200D02*
X20437000Y-7579200D01*
X20437000Y-8067200D02*
X20457000Y-8087200D01*
X20457000Y-8067200D02*
X20437000Y-8087200D01*
X20437000Y-8130700D02*
X20457000Y-8150700D01*
X20457000Y-8130700D02*
X20437000Y-8150700D01*
X20487800Y-7495700D02*
X20507800Y-7515700D01*
X20507800Y-7495700D02*
X20487800Y-7515700D01*
X20487800Y-7559200D02*
X20507800Y-7579200D01*
X20507800Y-7559200D02*
X20487800Y-7579200D01*
X20487800Y-8067200D02*
X20507800Y-8087200D01*
X20507800Y-8067200D02*
X20487800Y-8087200D01*
X20487800Y-8130700D02*
X20507800Y-8150700D01*
X20507800Y-8130700D02*
X20487800Y-8150700D01*
X20538600Y-7495700D02*
X20558600Y-7515700D01*
X20558600Y-7495700D02*
X20538600Y-7515700D01*
X20538600Y-7559200D02*
X20558600Y-7579200D01*
X20558600Y-7559200D02*
X20538600Y-7579200D01*
X20538600Y-8067200D02*
X20558600Y-8087200D01*
X20558600Y-8067200D02*
X20538600Y-8087200D01*
X20538600Y-8130700D02*
X20558600Y-8150700D01*
X20558600Y-8130700D02*
X20538600Y-8150700D01*
X20589400Y-7495700D02*
X20609400Y-7515700D01*
X20609400Y-7495700D02*
X20589400Y-7515700D01*
X20589400Y-7559200D02*
X20609400Y-7579200D01*
X20609400Y-7559200D02*
X20589400Y-7579200D01*
X20589400Y-8067200D02*
X20609400Y-8087200D01*
X20609400Y-8067200D02*
X20589400Y-8087200D01*
X20589400Y-8130700D02*
X20609400Y-8150700D01*
X20609400Y-8130700D02*
X20589400Y-8150700D01*
X20640200Y-7495700D02*
X20660200Y-7515700D01*
X20660200Y-7495700D02*
X20640200Y-7515700D01*
X20640200Y-7559200D02*
X20660200Y-7579200D01*
X20660200Y-7559200D02*
X20640200Y-7579200D01*
X20640200Y-8067200D02*
X20660200Y-8087200D01*
X20660200Y-8067200D02*
X20640200Y-8087200D01*
X20640200Y-8130700D02*
X20660200Y-8150700D01*
X20660200Y-8130700D02*
X20640200Y-8150700D01*
X20691000Y-7495700D02*
X20711000Y-7515700D01*
X20711000Y-7495700D02*
X20691000Y-7515700D01*
X20691000Y-7559200D02*
X20711000Y-7579200D01*
X20711000Y-7559200D02*
X20691000Y-7579200D01*
X20691000Y-8067200D02*
X20711000Y-8087200D01*
X20711000Y-8067200D02*
X20691000Y-8087200D01*
X20691000Y-8130700D02*
X20711000Y-8150700D01*
X20711000Y-8130700D02*
X20691000Y-8150700D01*
X20741800Y-7495700D02*
X20761800Y-7515700D01*
X20761800Y-7495700D02*
X20741800Y-7515700D01*
X20741800Y-7559200D02*
X20761800Y-7579200D01*
X20761800Y-7559200D02*
X20741800Y-7579200D01*
X20741800Y-8067200D02*
X20761800Y-8087200D01*
X20761800Y-8067200D02*
X20741800Y-8087200D01*
X20741800Y-8130700D02*
X20761800Y-8150700D01*
X20761800Y-8130700D02*
X20741800Y-8150700D01*
X20792600Y-7495700D02*
X20812600Y-7515700D01*
X20812600Y-7495700D02*
X20792600Y-7515700D01*
X20792600Y-7559200D02*
X20812600Y-7579200D01*
X20812600Y-7559200D02*
X20792600Y-7579200D01*
X20792600Y-8067200D02*
X20812600Y-8087200D01*
X20812600Y-8067200D02*
X20792600Y-8087200D01*
X20792600Y-8130700D02*
X20812600Y-8150700D01*
X20812600Y-8130700D02*
X20792600Y-8150700D01*
X16509618Y-10619269D02*
G75*
G03*
X16509618Y-10619269I-20000J0D01*
G01*
X16530000Y-10058397D02*
G75*
G03*
X16530000Y-10058397I-20000J0D01*
G01*
X16530000Y-10363200D02*
G75*
G03*
X16530000Y-10363200I-20000J0D01*
G01*
X16630601Y-10749304D02*
G75*
G03*
X16630601Y-10749304I-20000J0D01*
G01*
X16657000Y-11963400D02*
G75*
G03*
X16657000Y-11963400I-20000J0D01*
G01*
X16657000Y-12217400D02*
G75*
G03*
X16657000Y-12217400I-20000J0D01*
G01*
X16657000Y-12471400D02*
G75*
G03*
X16657000Y-12471400I-20000J0D01*
G01*
X16657000Y-12725400D02*
G75*
G03*
X16657000Y-12725400I-20000J0D01*
G01*
X16657000Y-12979400D02*
G75*
G03*
X16657000Y-12979400I-20000J0D01*
G01*
X16657000Y-13233400D02*
G75*
G03*
X16657000Y-13233400I-20000J0D01*
G01*
X16784000Y-10033000D02*
G75*
G03*
X16784000Y-10033000I-20000J0D01*
G01*
X16834800Y-9753599D02*
G75*
G03*
X16834800Y-9753599I-20000J0D01*
G01*
X16847500Y-10972800D02*
G75*
G03*
X16847500Y-10972800I-20000J0D01*
G01*
X16848499Y-10680700D02*
G75*
G03*
X16848499Y-10680700I-20000J0D01*
G01*
X16858124Y-10180708D02*
G75*
G03*
X16858124Y-10180708I-20000J0D01*
G01*
X16911000Y-9677400D02*
G75*
G03*
X16911000Y-9677400I-20000J0D01*
G01*
X16961800Y-10096500D02*
G75*
G03*
X16961800Y-10096500I-20000J0D01*
G01*
X16974500Y-10185400D02*
G75*
G03*
X16974500Y-10185400I-20000J0D01*
G01*
X17012600Y-9677400D02*
G75*
G03*
X17012600Y-9677400I-20000J0D01*
G01*
X17034120Y-10247901D02*
G75*
G03*
X17034120Y-10247901I-20000J0D01*
G01*
X17076100Y-10109200D02*
G75*
G03*
X17076100Y-10109200I-20000J0D01*
G01*
X17088800Y-9753600D02*
G75*
G03*
X17088800Y-9753600I-20000J0D01*
G01*
X17126900Y-11595100D02*
G75*
G03*
X17126900Y-11595100I-20000J0D01*
G01*
X17144583Y-11089442D02*
G75*
G03*
X17144583Y-11089442I-20000J0D01*
G01*
X17241200Y-10426700D02*
G75*
G03*
X17241200Y-10426700I-20000J0D01*
G01*
X17241200Y-10960100D02*
G75*
G03*
X17241200Y-10960100I-20000J0D01*
G01*
X17243331Y-11087099D02*
G75*
G03*
X17243331Y-11087099I-20000J0D01*
G01*
X17270715Y-9833605D02*
G75*
G03*
X17270715Y-9833605I-20000J0D01*
G01*
X17270745Y-9681545D02*
G75*
G03*
X17270745Y-9681545I-20000J0D01*
G01*
X17317400Y-10096500D02*
G75*
G03*
X17317400Y-10096500I-20000J0D01*
G01*
X17368332Y-11087100D02*
G75*
G03*
X17368332Y-11087100I-20000J0D01*
G01*
X17419000Y-10388600D02*
G75*
G03*
X17419000Y-10388600I-20000J0D01*
G01*
X17419000Y-10680700D02*
G75*
G03*
X17419000Y-10680700I-20000J0D01*
G01*
X17430700Y-10170115D02*
G75*
G03*
X17430700Y-10170115I-20000J0D01*
G01*
X17431700Y-11264900D02*
G75*
G03*
X17431700Y-11264900I-20000J0D01*
G01*
X17469800Y-11087100D02*
G75*
G03*
X17469800Y-11087100I-20000J0D01*
G01*
X17495200Y-8534400D02*
G75*
G03*
X17495200Y-8534400I-20000J0D01*
G01*
X17495200Y-9220200D02*
G75*
G03*
X17495200Y-9220200I-20000J0D01*
G01*
X17495200Y-9347200D02*
G75*
G03*
X17495200Y-9347200I-20000J0D01*
G01*
X17545999Y-10744200D02*
G75*
G03*
X17545999Y-10744200I-20000J0D01*
G01*
X17546000Y-10007600D02*
G75*
G03*
X17546000Y-10007600I-20000J0D01*
G01*
X17565235Y-9569635D02*
G75*
G03*
X17565235Y-9569635I-20000J0D01*
G01*
X17571401Y-11087101D02*
G75*
G03*
X17571401Y-11087101I-20000J0D01*
G01*
X17581501Y-9391202D02*
G75*
G03*
X17581501Y-9391202I-20000J0D01*
G01*
X17647600Y-10007597D02*
G75*
G03*
X17647600Y-10007597I-20000J0D01*
G01*
X17695551Y-9391202D02*
G75*
G03*
X17695551Y-9391202I-20000J0D01*
G01*
X17698400Y-10664896D02*
G75*
G03*
X17698400Y-10664896I-20000J0D01*
G01*
X17699143Y-10423712D02*
G75*
G03*
X17699143Y-10423712I-20000J0D01*
G01*
X17716733Y-11003323D02*
G75*
G03*
X17716733Y-11003323I-20000J0D01*
G01*
X17721249Y-10789897D02*
G75*
G03*
X17721249Y-10789897I-20000J0D01*
G01*
X17724279Y-10298711D02*
G75*
G03*
X17724279Y-10298711I-20000J0D01*
G01*
X17749200Y-7366000D02*
G75*
G03*
X17749200Y-7366000I-20000J0D01*
G01*
X17749200Y-8534400D02*
G75*
G03*
X17749200Y-8534400I-20000J0D01*
G01*
X17757754Y-10549493D02*
G75*
G03*
X17757754Y-10549493I-20000J0D01*
G01*
X17761336Y-10369612D02*
G75*
G03*
X17761336Y-10369612I-20000J0D01*
G01*
X17787300Y-11112500D02*
G75*
G03*
X17787300Y-11112500I-20000J0D01*
G01*
X17825400Y-12369800D02*
G75*
G03*
X17825400Y-12369800I-20000J0D01*
G01*
X17863500Y-11303000D02*
G75*
G03*
X17863500Y-11303000I-20000J0D01*
G01*
X17863501Y-11201400D02*
G75*
G03*
X17863501Y-11201400I-20000J0D01*
G01*
X17872054Y-9952654D02*
G75*
G03*
X17872054Y-9952654I-20000J0D01*
G01*
X17880154Y-10290954D02*
G75*
G03*
X17880154Y-10290954I-20000J0D01*
G01*
X17887901Y-10441991D02*
G75*
G03*
X17887901Y-10441991I-20000J0D01*
G01*
X17901600Y-10834099D02*
G75*
G03*
X17901600Y-10834099I-20000J0D01*
G01*
X17901600Y-10985500D02*
G75*
G03*
X17901600Y-10985500I-20000J0D01*
G01*
X17901600Y-12369800D02*
G75*
G03*
X17901600Y-12369800I-20000J0D01*
G01*
X17901600Y-12954000D02*
G75*
G03*
X17901600Y-12954000I-20000J0D01*
G01*
X17939700Y-11137900D02*
G75*
G03*
X17939700Y-11137900I-20000J0D01*
G01*
X17952400Y-12801600D02*
G75*
G03*
X17952400Y-12801600I-20000J0D01*
G01*
X18003200Y-7366000D02*
G75*
G03*
X18003200Y-7366000I-20000J0D01*
G01*
X18003200Y-8534400D02*
G75*
G03*
X18003200Y-8534400I-20000J0D01*
G01*
X18054000Y-12750800D02*
G75*
G03*
X18054000Y-12750800I-20000J0D01*
G01*
X18078000Y-13133200D02*
G75*
G03*
X18078000Y-13133200I-20000J0D01*
G01*
X18137000Y-13208000D02*
G75*
G03*
X18137000Y-13208000I-20000J0D01*
G01*
X18155600Y-10795000D02*
G75*
G03*
X18155600Y-10795000I-20000J0D01*
G01*
X18155600Y-12141200D02*
G75*
G03*
X18155600Y-12141200I-20000J0D01*
G01*
X18257200Y-7366000D02*
G75*
G03*
X18257200Y-7366000I-20000J0D01*
G01*
X18257200Y-8534400D02*
G75*
G03*
X18257200Y-8534400I-20000J0D01*
G01*
X18269900Y-13208000D02*
G75*
G03*
X18269900Y-13208000I-20000J0D01*
G01*
X18308000Y-10998200D02*
G75*
G03*
X18308000Y-10998200I-20000J0D01*
G01*
X18308000Y-12141200D02*
G75*
G03*
X18308000Y-12141200I-20000J0D01*
G01*
X18308000Y-12522200D02*
G75*
G03*
X18308000Y-12522200I-20000J0D01*
G01*
X18308000Y-12623800D02*
G75*
G03*
X18308000Y-12623800I-20000J0D01*
G01*
X18308000Y-12725400D02*
G75*
G03*
X18308000Y-12725400I-20000J0D01*
G01*
X18435000Y-7569200D02*
G75*
G03*
X18435000Y-7569200I-20000J0D01*
G01*
X18435000Y-7721600D02*
G75*
G03*
X18435000Y-7721600I-20000J0D01*
G01*
X18435000Y-10871200D02*
G75*
G03*
X18435000Y-10871200I-20000J0D01*
G01*
X18460400Y-12141200D02*
G75*
G03*
X18460400Y-12141200I-20000J0D01*
G01*
X18498499Y-9029700D02*
G75*
G03*
X18498499Y-9029700I-20000J0D01*
G01*
X18511200Y-7366000D02*
G75*
G03*
X18511200Y-7366000I-20000J0D01*
G01*
X18511200Y-8534400D02*
G75*
G03*
X18511200Y-8534400I-20000J0D01*
G01*
X18511200Y-10185400D02*
G75*
G03*
X18511200Y-10185400I-20000J0D01*
G01*
X18536600Y-7493000D02*
G75*
G03*
X18536600Y-7493000I-20000J0D01*
G01*
X18538100Y-7643900D02*
G75*
G03*
X18538100Y-7643900I-20000J0D01*
G01*
X18587400Y-7289800D02*
G75*
G03*
X18587400Y-7289800I-20000J0D01*
G01*
X18612796Y-9144000D02*
G75*
G03*
X18612796Y-9144000I-20000J0D01*
G01*
X18689000Y-7213600D02*
G75*
G03*
X18689000Y-7213600I-20000J0D01*
G01*
X18739800Y-12801600D02*
G75*
G03*
X18739800Y-12801600I-20000J0D01*
G01*
X18739800Y-12877800D02*
G75*
G03*
X18739800Y-12877800I-20000J0D01*
G01*
X18739800Y-12954000D02*
G75*
G03*
X18739800Y-12954000I-20000J0D01*
G01*
X18739800Y-13030199D02*
G75*
G03*
X18739800Y-13030199I-20000J0D01*
G01*
X18742300Y-10797500D02*
G75*
G03*
X18742300Y-10797500I-20000J0D01*
G01*
X18765200Y-8534400D02*
G75*
G03*
X18765200Y-8534400I-20000J0D01*
G01*
X18816000Y-7213600D02*
G75*
G03*
X18816000Y-7213600I-20000J0D01*
G01*
X18917600Y-12090400D02*
G75*
G03*
X18917600Y-12090400I-20000J0D01*
G01*
X18917603Y-10668000D02*
G75*
G03*
X18917603Y-10668000I-20000J0D01*
G01*
X18943000Y-7213600D02*
G75*
G03*
X18943000Y-7213600I-20000J0D01*
G01*
X19044600Y-8255000D02*
G75*
G03*
X19044600Y-8255000I-20000J0D01*
G01*
X19044600Y-8382000D02*
G75*
G03*
X19044600Y-8382000I-20000J0D01*
G01*
X19044600Y-8509000D02*
G75*
G03*
X19044600Y-8509000I-20000J0D01*
G01*
X19070000Y-7213600D02*
G75*
G03*
X19070000Y-7213600I-20000J0D01*
G01*
X19070000Y-12090400D02*
G75*
G03*
X19070000Y-12090400I-20000J0D01*
G01*
X19095400Y-10797500D02*
G75*
G03*
X19095400Y-10797500I-20000J0D01*
G01*
X19171600Y-7289800D02*
G75*
G03*
X19171600Y-7289800I-20000J0D01*
G01*
X19171600Y-10185400D02*
G75*
G03*
X19171600Y-10185400I-20000J0D01*
G01*
X19171600Y-10337800D02*
G75*
G03*
X19171600Y-10337800I-20000J0D01*
G01*
X19171600Y-10515600D02*
G75*
G03*
X19171600Y-10515600I-20000J0D01*
G01*
X19197000Y-9144000D02*
G75*
G03*
X19197000Y-9144000I-20000J0D01*
G01*
X19197000Y-12877800D02*
G75*
G03*
X19197000Y-12877800I-20000J0D01*
G01*
X19197000Y-12979400D02*
G75*
G03*
X19197000Y-12979400I-20000J0D01*
G01*
X19197000Y-13131800D02*
G75*
G03*
X19197000Y-13131800I-20000J0D01*
G01*
X19197006Y-13335000D02*
G75*
G03*
X19197006Y-13335000I-20000J0D01*
G01*
X19273200Y-11430000D02*
G75*
G03*
X19273200Y-11430000I-20000J0D01*
G01*
X19273200Y-12090400D02*
G75*
G03*
X19273200Y-12090400I-20000J0D01*
G01*
X19374800Y-8178800D02*
G75*
G03*
X19374800Y-8178800I-20000J0D01*
G01*
X19374800Y-10668000D02*
G75*
G03*
X19374800Y-10668000I-20000J0D01*
G01*
X19374801Y-10337800D02*
G75*
G03*
X19374801Y-10337800I-20000J0D01*
G01*
X19374801Y-10515600D02*
G75*
G03*
X19374801Y-10515600I-20000J0D01*
G01*
X19400200Y-9144000D02*
G75*
G03*
X19400200Y-9144000I-20000J0D01*
G01*
X19425600Y-12090400D02*
G75*
G03*
X19425600Y-12090400I-20000J0D01*
G01*
X19449799Y-7923600D02*
G75*
G03*
X19449799Y-7923600I-20000J0D01*
G01*
X19501800Y-8026400D02*
G75*
G03*
X19501800Y-8026400I-20000J0D01*
G01*
X19527200Y-7366000D02*
G75*
G03*
X19527200Y-7366000I-20000J0D01*
G01*
X19527200Y-8534400D02*
G75*
G03*
X19527200Y-8534400I-20000J0D01*
G01*
X19603400Y-13030200D02*
G75*
G03*
X19603400Y-13030200I-20000J0D01*
G01*
X19603400Y-13157200D02*
G75*
G03*
X19603400Y-13157200I-20000J0D01*
G01*
X19603400Y-13233400D02*
G75*
G03*
X19603400Y-13233400I-20000J0D01*
G01*
X19603400Y-13335000D02*
G75*
G03*
X19603400Y-13335000I-20000J0D01*
G01*
X19654200Y-10185400D02*
G75*
G03*
X19654200Y-10185400I-20000J0D01*
G01*
X19679600Y-11430000D02*
G75*
G03*
X19679600Y-11430000I-20000J0D01*
G01*
X19781200Y-7366000D02*
G75*
G03*
X19781200Y-7366000I-20000J0D01*
G01*
X19781200Y-8534400D02*
G75*
G03*
X19781200Y-8534400I-20000J0D01*
G01*
X19832000Y-9144000D02*
G75*
G03*
X19832000Y-9144000I-20000J0D01*
G01*
X20012600Y-9141200D02*
G75*
G03*
X20012600Y-9141200I-20000J0D01*
G01*
X20035200Y-7366000D02*
G75*
G03*
X20035200Y-7366000I-20000J0D01*
G01*
X20035200Y-8534400D02*
G75*
G03*
X20035200Y-8534400I-20000J0D01*
G01*
X20073300Y-12001500D02*
G75*
G03*
X20073300Y-12001500I-20000J0D01*
G01*
X20086000Y-11430000D02*
G75*
G03*
X20086000Y-11430000I-20000J0D01*
G01*
X20086000Y-11887200D02*
G75*
G03*
X20086000Y-11887200I-20000J0D01*
G01*
X20215800Y-9141200D02*
G75*
G03*
X20215800Y-9141200I-20000J0D01*
G01*
X20289200Y-7366000D02*
G75*
G03*
X20289200Y-7366000I-20000J0D01*
G01*
X20289200Y-8534400D02*
G75*
G03*
X20289200Y-8534400I-20000J0D01*
G01*
X20340000Y-11620499D02*
G75*
G03*
X20340000Y-11620499I-20000J0D01*
G01*
X20390800Y-9144000D02*
G75*
G03*
X20390800Y-9144000I-20000J0D01*
G01*
X20505100Y-11430000D02*
G75*
G03*
X20505100Y-11430000I-20000J0D01*
G01*
X20543200Y-7366000D02*
G75*
G03*
X20543200Y-7366000I-20000J0D01*
G01*
X20543200Y-8534400D02*
G75*
G03*
X20543200Y-8534400I-20000J0D01*
G01*
X20721000Y-11887200D02*
G75*
G03*
X20721000Y-11887200I-20000J0D01*
G01*
X20797200Y-8534400D02*
G75*
G03*
X20797200Y-8534400I-20000J0D01*
G01*
X21419500Y-11607800D02*
G75*
G03*
X21419500Y-11607800I-20000J0D01*
G01*
X21635400Y-9804400D02*
G75*
G03*
X21635400Y-9804400I-20000J0D01*
G01*
X21635400Y-10058400D02*
G75*
G03*
X21635400Y-10058400I-20000J0D01*
G01*
X21635400Y-10312400D02*
G75*
G03*
X21635400Y-10312400I-20000J0D01*
G01*
X21635400Y-10566400D02*
G75*
G03*
X21635400Y-10566400I-20000J0D01*
G01*
X21635400Y-10820400D02*
G75*
G03*
X21635400Y-10820400I-20000J0D01*
G01*
X21635400Y-11074400D02*
G75*
G03*
X21635400Y-11074400I-20000J0D01*
G01*
X21635400Y-11709400D02*
G75*
G03*
X21635400Y-11709400I-20000J0D01*
G01*
X18846800Y-9896400D02*
X18846800Y-9966400D01*
X18811800Y-9931400D02*
X18881800Y-9931400D01*
X18846800Y-10912400D02*
X18846800Y-10982400D01*
X18811800Y-10947400D02*
X18881800Y-10947400D01*
X19100800Y-9896400D02*
X19100800Y-9966400D01*
X19065800Y-9931400D02*
X19135800Y-9931400D01*
X19100800Y-10912400D02*
X19100800Y-10982400D01*
X19065800Y-10947400D02*
X19135800Y-10947400D01*
X19354800Y-9896400D02*
X19354800Y-9966400D01*
X19319800Y-9931400D02*
X19389800Y-9931400D01*
X19354800Y-10912400D02*
X19354800Y-10982400D01*
X19319800Y-10947400D02*
X19389800Y-10947400D01*
X19608800Y-9896400D02*
X19608800Y-9966400D01*
X19573800Y-9931400D02*
X19643800Y-9931400D01*
X19608800Y-10912400D02*
X19608800Y-10982400D01*
X19573800Y-10947400D02*
X19643800Y-10947400D01*
X19862800Y-9896400D02*
X19862800Y-9966400D01*
X19827800Y-9931400D02*
X19897800Y-9931400D01*
X19862800Y-10912400D02*
X19862800Y-10982400D01*
X19827800Y-10947400D02*
X19897800Y-10947400D01*
X20116800Y-9896400D02*
X20116800Y-9966400D01*
X20081800Y-9931400D02*
X20151800Y-9931400D01*
X20116800Y-10912400D02*
X20116800Y-10982400D01*
X20081800Y-10947400D02*
X20151800Y-10947400D01*
X20370800Y-9896400D02*
X20370800Y-9966400D01*
X20335800Y-9931400D02*
X20405800Y-9931400D01*
X20370800Y-10912400D02*
X20370800Y-10982400D01*
X20335800Y-10947400D02*
X20405800Y-10947400D01*
X20624800Y-9896400D02*
X20624800Y-9966400D01*
X20589800Y-9931400D02*
X20659800Y-9931400D01*
X20624800Y-10912400D02*
X20624800Y-10982400D01*
X20589800Y-10947400D02*
X20659800Y-10947400D01*
X16735856Y-11465356D02*
X16735856Y-11394644D01*
X16665144Y-11394644D01*
X16665144Y-11465356D01*
X16735856Y-11465356D01*
X16799356Y-9433356D02*
X16799356Y-9362644D01*
X16728644Y-9362644D01*
X16728644Y-9433356D01*
X16799356Y-9433356D01*
X16989856Y-11465356D02*
X16989856Y-11394644D01*
X16919144Y-11394644D01*
X16919144Y-11465356D01*
X16989856Y-11465356D01*
X17053356Y-9433356D02*
X17053356Y-9362644D01*
X16982644Y-9362644D01*
X16982644Y-9433356D01*
X17053356Y-9433356D01*
X17088356Y-12735356D02*
X17088356Y-12664644D01*
X17017644Y-12664644D01*
X17017644Y-12735356D01*
X17088356Y-12735356D01*
X17013000Y-12600000D02*
X17013000Y-12800000D01*
X17093000Y-12600000D02*
X17093000Y-12800000D01*
X17013000Y-12800000D02*
G75*
G03*
X17093000Y-12800000I40000J0D01*
G01*
X17093000Y-12600000D02*
G75*
G03*
X17013000Y-12600000I-40000J0D01*
G01*
X17180356Y-11909856D02*
X17180356Y-11839144D01*
X17109644Y-11839144D01*
X17109644Y-11909856D01*
X17180356Y-11909856D01*
X17243856Y-11465356D02*
X17243856Y-11394644D01*
X17173144Y-11394644D01*
X17173144Y-11465356D01*
X17243856Y-11465356D01*
X17307356Y-9433356D02*
X17307356Y-9362644D01*
X17236644Y-9362644D01*
X17236644Y-9433356D01*
X17307356Y-9433356D01*
X17388356Y-13205356D02*
X17388356Y-13134644D01*
X17317644Y-13134644D01*
X17317644Y-13205356D01*
X17388356Y-13205356D01*
X17253000Y-13210000D02*
X17453000Y-13210000D01*
X17253000Y-13130000D02*
X17453000Y-13130000D01*
X17453000Y-13210000D02*
G75*
G03*
X17453000Y-13130000I0J40000D01*
G01*
X17253000Y-13130000D02*
G75*
G03*
X17253000Y-13210000I0J-40000D01*
G01*
X17434356Y-11909856D02*
X17434356Y-11839144D01*
X17363644Y-11839144D01*
X17363644Y-11909856D01*
X17434356Y-11909856D01*
X17497856Y-11465356D02*
X17497856Y-11394644D01*
X17427144Y-11394644D01*
X17427144Y-11465356D01*
X17497856Y-11465356D01*
X17688356Y-12735356D02*
X17688356Y-12664644D01*
X17617644Y-12664644D01*
X17617644Y-12735356D01*
X17688356Y-12735356D01*
X17613000Y-12600000D02*
X17613000Y-12800000D01*
X17693000Y-12600000D02*
X17693000Y-12800000D01*
X17613000Y-12800000D02*
G75*
G03*
X17693000Y-12800000I40000J0D01*
G01*
X17693000Y-12600000D02*
G75*
G03*
X17613000Y-12600000I-40000J0D01*
G01*
X18043956Y-9839756D02*
X18043956Y-9769044D01*
X17973244Y-9769044D01*
X17973244Y-9839756D01*
X18043956Y-9839756D01*
X18043956Y-10093756D02*
X18043956Y-10023044D01*
X17973244Y-10023044D01*
X17973244Y-10093756D01*
X18043956Y-10093756D01*
X18043956Y-10347756D02*
X18043956Y-10277044D01*
X17973244Y-10277044D01*
X17973244Y-10347756D01*
X18043956Y-10347756D01*
X18043956Y-10601756D02*
X18043956Y-10531044D01*
X17973244Y-10531044D01*
X17973244Y-10601756D01*
X18043956Y-10601756D01*
X18297956Y-9839756D02*
X18297956Y-9769044D01*
X18227244Y-9769044D01*
X18227244Y-9839756D01*
X18297956Y-9839756D01*
X18297956Y-10093756D02*
X18297956Y-10023044D01*
X18227244Y-10023044D01*
X18227244Y-10093756D01*
X18297956Y-10093756D01*
X18297956Y-10347756D02*
X18297956Y-10277044D01*
X18227244Y-10277044D01*
X18227244Y-10347756D01*
X18297956Y-10347756D01*
X18297956Y-10601756D02*
X18297956Y-10531044D01*
X18227244Y-10531044D01*
X18227244Y-10601756D01*
X18297956Y-10601756D01*
X18386856Y-11909856D02*
X18386856Y-11839144D01*
X18316144Y-11839144D01*
X18316144Y-11909856D01*
X18386856Y-11909856D01*
X18640856Y-11909856D02*
X18640856Y-11839144D01*
X18570144Y-11839144D01*
X18570144Y-11909856D01*
X18640856Y-11909856D01*
X20164856Y-12481356D02*
X20164856Y-12410644D01*
X20094144Y-12410644D01*
X20094144Y-12481356D01*
X20164856Y-12481356D01*
X20164856Y-12731356D02*
X20164856Y-12660644D01*
X20094144Y-12660644D01*
X20094144Y-12731356D01*
X20164856Y-12731356D01*
X20164856Y-12981356D02*
X20164856Y-12910644D01*
X20094144Y-12910644D01*
X20094144Y-12981356D01*
X20164856Y-12981356D01*
X21614856Y-12481356D02*
X21614856Y-12410644D01*
X21544144Y-12410644D01*
X21544144Y-12481356D01*
X21614856Y-12481356D01*
X21614856Y-12981356D02*
X21614856Y-12910644D01*
X21544144Y-12910644D01*
X21544144Y-12981356D01*
X21614856Y-12981356D01*
X20879500Y-12266000D02*
X21009500Y-12136000D01*
X20879500Y-12006000D01*
X20749500Y-12136000D01*
X20879500Y-12266000D01*
X20879500Y-13386000D02*
X21009500Y-13256000D01*
X20879500Y-13126000D01*
X20749500Y-13256000D01*
X20879500Y-13386000D01*
D12*
X16692328Y-13930214D02*
X16692328Y-13630214D01*
X16763757Y-13630214D01*
X16806614Y-13644500D01*
X16835186Y-13673071D01*
X16849471Y-13701643D01*
X16863757Y-13758786D01*
X16863757Y-13801643D01*
X16849471Y-13858786D01*
X16835186Y-13887357D01*
X16806614Y-13915929D01*
X16763757Y-13930214D01*
X16692328Y-13930214D01*
X16992328Y-13930214D02*
X16992328Y-13730214D01*
X16992328Y-13787357D02*
X17006614Y-13758786D01*
X17020900Y-13744500D01*
X17049471Y-13730214D01*
X17078043Y-13730214D01*
X17178043Y-13930214D02*
X17178043Y-13730214D01*
X17178043Y-13630214D02*
X17163757Y-13644500D01*
X17178043Y-13658786D01*
X17192328Y-13644500D01*
X17178043Y-13630214D01*
X17178043Y-13658786D01*
X17363757Y-13930214D02*
X17335186Y-13915929D01*
X17320900Y-13887357D01*
X17320900Y-13630214D01*
X17520900Y-13930214D02*
X17492328Y-13915929D01*
X17478043Y-13887357D01*
X17478043Y-13630214D01*
X17863757Y-13930214D02*
X17863757Y-13630214D01*
X17963757Y-13844500D01*
X18063757Y-13630214D01*
X18063757Y-13930214D01*
X18335186Y-13930214D02*
X18335186Y-13773071D01*
X18320900Y-13744500D01*
X18292328Y-13730214D01*
X18235186Y-13730214D01*
X18206614Y-13744500D01*
X18335186Y-13915929D02*
X18306614Y-13930214D01*
X18235186Y-13930214D01*
X18206614Y-13915929D01*
X18192328Y-13887357D01*
X18192328Y-13858786D01*
X18206614Y-13830214D01*
X18235186Y-13815929D01*
X18306614Y-13815929D01*
X18335186Y-13801643D01*
X18478043Y-13730214D02*
X18478043Y-14030214D01*
X18478043Y-13744500D02*
X18506614Y-13730214D01*
X18563757Y-13730214D01*
X18592328Y-13744500D01*
X18606614Y-13758786D01*
X18620900Y-13787357D01*
X18620900Y-13873071D01*
X18606614Y-13901643D01*
X18592328Y-13915929D01*
X18563757Y-13930214D01*
X18506614Y-13930214D01*
X18478043Y-13915929D01*
X18749471Y-13901643D02*
X18763757Y-13915929D01*
X18749471Y-13930214D01*
X18735186Y-13915929D01*
X18749471Y-13901643D01*
X18749471Y-13930214D01*
X18749471Y-13744500D02*
X18763757Y-13758786D01*
X18749471Y-13773071D01*
X18735186Y-13758786D01*
X18749471Y-13744500D01*
X18749471Y-13773071D01*
X16385900Y-14414500D02*
X16405900Y-14434500D01*
X16405900Y-14414500D02*
X16385900Y-14434500D01*
X16749471Y-14260214D02*
X16778043Y-14260214D01*
X16806614Y-14274500D01*
X16820900Y-14288786D01*
X16835186Y-14317357D01*
X16849471Y-14374500D01*
X16849471Y-14445929D01*
X16835186Y-14503071D01*
X16820900Y-14531643D01*
X16806614Y-14545929D01*
X16778043Y-14560214D01*
X16749471Y-14560214D01*
X16720900Y-14545929D01*
X16706614Y-14531643D01*
X16692328Y-14503071D01*
X16678043Y-14445929D01*
X16678043Y-14374500D01*
X16692328Y-14317357D01*
X16706614Y-14288786D01*
X16720900Y-14274500D01*
X16749471Y-14260214D01*
X16978043Y-14531643D02*
X16992328Y-14545929D01*
X16978043Y-14560214D01*
X16963757Y-14545929D01*
X16978043Y-14531643D01*
X16978043Y-14560214D01*
X17106614Y-14288786D02*
X17120900Y-14274500D01*
X17149471Y-14260214D01*
X17220900Y-14260214D01*
X17249471Y-14274500D01*
X17263757Y-14288786D01*
X17278043Y-14317357D01*
X17278043Y-14345929D01*
X17263757Y-14388786D01*
X17092328Y-14560214D01*
X17278043Y-14560214D01*
X17463757Y-14260214D02*
X17492328Y-14260214D01*
X17520900Y-14274500D01*
X17535186Y-14288786D01*
X17549471Y-14317357D01*
X17563757Y-14374500D01*
X17563757Y-14445929D01*
X17549471Y-14503071D01*
X17535186Y-14531643D01*
X17520900Y-14545929D01*
X17492328Y-14560214D01*
X17463757Y-14560214D01*
X17435186Y-14545929D01*
X17420900Y-14531643D01*
X17406614Y-14503071D01*
X17392328Y-14445929D01*
X17392328Y-14374500D01*
X17406614Y-14317357D01*
X17420900Y-14288786D01*
X17435186Y-14274500D01*
X17463757Y-14260214D01*
X17749471Y-14260214D02*
X17778043Y-14260214D01*
X17806614Y-14274500D01*
X17820900Y-14288786D01*
X17835186Y-14317357D01*
X17849471Y-14374500D01*
X17849471Y-14445929D01*
X17835186Y-14503071D01*
X17820900Y-14531643D01*
X17806614Y-14545929D01*
X17778043Y-14560214D01*
X17749471Y-14560214D01*
X17720900Y-14545929D01*
X17706614Y-14531643D01*
X17692328Y-14503071D01*
X17678043Y-14445929D01*
X17678043Y-14374500D01*
X17692328Y-14317357D01*
X17706614Y-14288786D01*
X17720900Y-14274500D01*
X17749471Y-14260214D01*
X17978043Y-14560214D02*
X17978043Y-14360214D01*
X17978043Y-14388786D02*
X17992328Y-14374500D01*
X18020900Y-14360214D01*
X18063757Y-14360214D01*
X18092328Y-14374500D01*
X18106614Y-14403071D01*
X18106614Y-14560214D01*
X18106614Y-14403071D02*
X18120900Y-14374500D01*
X18149471Y-14360214D01*
X18192328Y-14360214D01*
X18220900Y-14374500D01*
X18235186Y-14403071D01*
X18235186Y-14560214D01*
X18378043Y-14560214D02*
X18378043Y-14360214D01*
X18378043Y-14388786D02*
X18392328Y-14374500D01*
X18420900Y-14360214D01*
X18463757Y-14360214D01*
X18492328Y-14374500D01*
X18506614Y-14403071D01*
X18506614Y-14560214D01*
X18506614Y-14403071D02*
X18520900Y-14374500D01*
X18549471Y-14360214D01*
X18592328Y-14360214D01*
X18620900Y-14374500D01*
X18635186Y-14403071D01*
X18635186Y-14560214D01*
X19220900Y-14245929D02*
X18963757Y-14631643D01*
X19606614Y-14260214D02*
X19635186Y-14260214D01*
X19663757Y-14274500D01*
X19678043Y-14288786D01*
X19692328Y-14317357D01*
X19706614Y-14374500D01*
X19706614Y-14445929D01*
X19692328Y-14503071D01*
X19678043Y-14531643D01*
X19663757Y-14545929D01*
X19635186Y-14560214D01*
X19606614Y-14560214D01*
X19578043Y-14545929D01*
X19563757Y-14531643D01*
X19549471Y-14503071D01*
X19535186Y-14445929D01*
X19535186Y-14374500D01*
X19549471Y-14317357D01*
X19563757Y-14288786D01*
X19578043Y-14274500D01*
X19606614Y-14260214D01*
X19835186Y-14531643D02*
X19849471Y-14545929D01*
X19835186Y-14560214D01*
X19820900Y-14545929D01*
X19835186Y-14531643D01*
X19835186Y-14560214D01*
X20035186Y-14260214D02*
X20063757Y-14260214D01*
X20092328Y-14274500D01*
X20106614Y-14288786D01*
X20120900Y-14317357D01*
X20135186Y-14374500D01*
X20135186Y-14445929D01*
X20120900Y-14503071D01*
X20106614Y-14531643D01*
X20092328Y-14545929D01*
X20063757Y-14560214D01*
X20035186Y-14560214D01*
X20006614Y-14545929D01*
X19992328Y-14531643D01*
X19978043Y-14503071D01*
X19963757Y-14445929D01*
X19963757Y-14374500D01*
X19978043Y-14317357D01*
X19992328Y-14288786D01*
X20006614Y-14274500D01*
X20035186Y-14260214D01*
X20320900Y-14260214D02*
X20349471Y-14260214D01*
X20378043Y-14274500D01*
X20392328Y-14288786D01*
X20406614Y-14317357D01*
X20420900Y-14374500D01*
X20420900Y-14445929D01*
X20406614Y-14503071D01*
X20392328Y-14531643D01*
X20378043Y-14545929D01*
X20349471Y-14560214D01*
X20320900Y-14560214D01*
X20292328Y-14545929D01*
X20278043Y-14531643D01*
X20263757Y-14503071D01*
X20249471Y-14445929D01*
X20249471Y-14374500D01*
X20263757Y-14317357D01*
X20278043Y-14288786D01*
X20292328Y-14274500D01*
X20320900Y-14260214D01*
X20520900Y-14260214D02*
X20720900Y-14260214D01*
X20592328Y-14560214D01*
X20849471Y-14560214D02*
X20906614Y-14560214D01*
X20935186Y-14545929D01*
X20949471Y-14531643D01*
X20978043Y-14488786D01*
X20992328Y-14431643D01*
X20992328Y-14317357D01*
X20978043Y-14288786D01*
X20963757Y-14274500D01*
X20935186Y-14260214D01*
X20878043Y-14260214D01*
X20849471Y-14274500D01*
X20835186Y-14288786D01*
X20820900Y-14317357D01*
X20820900Y-14388786D01*
X20835186Y-14417357D01*
X20849471Y-14431643D01*
X20878043Y-14445929D01*
X20935186Y-14445929D01*
X20963757Y-14431643D01*
X20978043Y-14417357D01*
X20992328Y-14388786D01*
X21106614Y-14260214D02*
X21106614Y-14317357D01*
X21220900Y-14260214D02*
X21220900Y-14317357D01*
X21663757Y-14674500D02*
X21649471Y-14660214D01*
X21620900Y-14617357D01*
X21606614Y-14588786D01*
X21592328Y-14545929D01*
X21578043Y-14474500D01*
X21578043Y-14417357D01*
X21592328Y-14345929D01*
X21606614Y-14303071D01*
X21620900Y-14274500D01*
X21649471Y-14231643D01*
X21663757Y-14217357D01*
X21749471Y-14260214D02*
X21949471Y-14260214D01*
X21820900Y-14560214D01*
X22035186Y-14260214D02*
X22220900Y-14260214D01*
X22120900Y-14374500D01*
X22163757Y-14374500D01*
X22192328Y-14388786D01*
X22206614Y-14403071D01*
X22220900Y-14431643D01*
X22220900Y-14503071D01*
X22206614Y-14531643D01*
X22192328Y-14545929D01*
X22163757Y-14560214D01*
X22078043Y-14560214D01*
X22049471Y-14545929D01*
X22035186Y-14531643D01*
X22578043Y-14560214D02*
X22578043Y-14260214D01*
X22706614Y-14560214D02*
X22706614Y-14403071D01*
X22692328Y-14374500D01*
X22663757Y-14360214D01*
X22620900Y-14360214D01*
X22592328Y-14374500D01*
X22578043Y-14388786D01*
X22892328Y-14560214D02*
X22863757Y-14545929D01*
X22849471Y-14531643D01*
X22835186Y-14503071D01*
X22835186Y-14417357D01*
X22849471Y-14388786D01*
X22863757Y-14374500D01*
X22892328Y-14360214D01*
X22935186Y-14360214D01*
X22963757Y-14374500D01*
X22978043Y-14388786D01*
X22992328Y-14417357D01*
X22992328Y-14503071D01*
X22978043Y-14531643D01*
X22963757Y-14545929D01*
X22935186Y-14560214D01*
X22892328Y-14560214D01*
X23163757Y-14560214D02*
X23135186Y-14545929D01*
X23120900Y-14517357D01*
X23120900Y-14260214D01*
X23392328Y-14545929D02*
X23363757Y-14560214D01*
X23306614Y-14560214D01*
X23278043Y-14545929D01*
X23263757Y-14517357D01*
X23263757Y-14403071D01*
X23278043Y-14374500D01*
X23306614Y-14360214D01*
X23363757Y-14360214D01*
X23392328Y-14374500D01*
X23406614Y-14403071D01*
X23406614Y-14431643D01*
X23263757Y-14460214D01*
X23520900Y-14545929D02*
X23549471Y-14560214D01*
X23606614Y-14560214D01*
X23635186Y-14545929D01*
X23649471Y-14517357D01*
X23649471Y-14503071D01*
X23635186Y-14474500D01*
X23606614Y-14460214D01*
X23563757Y-14460214D01*
X23535186Y-14445929D01*
X23520900Y-14417357D01*
X23520900Y-14403071D01*
X23535186Y-14374500D01*
X23563757Y-14360214D01*
X23606614Y-14360214D01*
X23635186Y-14374500D01*
X23749471Y-14674500D02*
X23763757Y-14660214D01*
X23792328Y-14617357D01*
X23806614Y-14588786D01*
X23820900Y-14545929D01*
X23835186Y-14474500D01*
X23835186Y-14417357D01*
X23820900Y-14345929D01*
X23806614Y-14303071D01*
X23792328Y-14274500D01*
X23763757Y-14231643D01*
X23749471Y-14217357D01*
X16405900Y-14820500D02*
G75*
G03*
X16405900Y-14820500I-20000J0D01*
G01*
X16749471Y-14656214D02*
X16778043Y-14656214D01*
X16806614Y-14670500D01*
X16820900Y-14684786D01*
X16835186Y-14713357D01*
X16849471Y-14770500D01*
X16849471Y-14841929D01*
X16835186Y-14899071D01*
X16820900Y-14927643D01*
X16806614Y-14941929D01*
X16778043Y-14956214D01*
X16749471Y-14956214D01*
X16720900Y-14941929D01*
X16706614Y-14927643D01*
X16692328Y-14899071D01*
X16678043Y-14841929D01*
X16678043Y-14770500D01*
X16692328Y-14713357D01*
X16706614Y-14684786D01*
X16720900Y-14670500D01*
X16749471Y-14656214D01*
X16978043Y-14927643D02*
X16992328Y-14941929D01*
X16978043Y-14956214D01*
X16963757Y-14941929D01*
X16978043Y-14927643D01*
X16978043Y-14956214D01*
X17249471Y-14756214D02*
X17249471Y-14956214D01*
X17178043Y-14641929D02*
X17106614Y-14856214D01*
X17292328Y-14856214D01*
X17463757Y-14656214D02*
X17492328Y-14656214D01*
X17520900Y-14670500D01*
X17535186Y-14684786D01*
X17549471Y-14713357D01*
X17563757Y-14770500D01*
X17563757Y-14841929D01*
X17549471Y-14899071D01*
X17535186Y-14927643D01*
X17520900Y-14941929D01*
X17492328Y-14956214D01*
X17463757Y-14956214D01*
X17435186Y-14941929D01*
X17420900Y-14927643D01*
X17406614Y-14899071D01*
X17392328Y-14841929D01*
X17392328Y-14770500D01*
X17406614Y-14713357D01*
X17420900Y-14684786D01*
X17435186Y-14670500D01*
X17463757Y-14656214D01*
X17749471Y-14656214D02*
X17778043Y-14656214D01*
X17806614Y-14670500D01*
X17820900Y-14684786D01*
X17835186Y-14713357D01*
X17849471Y-14770500D01*
X17849471Y-14841929D01*
X17835186Y-14899071D01*
X17820900Y-14927643D01*
X17806614Y-14941929D01*
X17778043Y-14956214D01*
X17749471Y-14956214D01*
X17720900Y-14941929D01*
X17706614Y-14927643D01*
X17692328Y-14899071D01*
X17678043Y-14841929D01*
X17678043Y-14770500D01*
X17692328Y-14713357D01*
X17706614Y-14684786D01*
X17720900Y-14670500D01*
X17749471Y-14656214D01*
X17978043Y-14956214D02*
X17978043Y-14756214D01*
X17978043Y-14784786D02*
X17992328Y-14770500D01*
X18020900Y-14756214D01*
X18063757Y-14756214D01*
X18092328Y-14770500D01*
X18106614Y-14799071D01*
X18106614Y-14956214D01*
X18106614Y-14799071D02*
X18120900Y-14770500D01*
X18149471Y-14756214D01*
X18192328Y-14756214D01*
X18220900Y-14770500D01*
X18235186Y-14799071D01*
X18235186Y-14956214D01*
X18378043Y-14956214D02*
X18378043Y-14756214D01*
X18378043Y-14784786D02*
X18392328Y-14770500D01*
X18420900Y-14756214D01*
X18463757Y-14756214D01*
X18492328Y-14770500D01*
X18506614Y-14799071D01*
X18506614Y-14956214D01*
X18506614Y-14799071D02*
X18520900Y-14770500D01*
X18549471Y-14756214D01*
X18592328Y-14756214D01*
X18620900Y-14770500D01*
X18635186Y-14799071D01*
X18635186Y-14956214D01*
X19220900Y-14641929D02*
X18963757Y-15027643D01*
X19606614Y-14656214D02*
X19635186Y-14656214D01*
X19663757Y-14670500D01*
X19678043Y-14684786D01*
X19692328Y-14713357D01*
X19706614Y-14770500D01*
X19706614Y-14841929D01*
X19692328Y-14899071D01*
X19678043Y-14927643D01*
X19663757Y-14941929D01*
X19635186Y-14956214D01*
X19606614Y-14956214D01*
X19578043Y-14941929D01*
X19563757Y-14927643D01*
X19549471Y-14899071D01*
X19535186Y-14841929D01*
X19535186Y-14770500D01*
X19549471Y-14713357D01*
X19563757Y-14684786D01*
X19578043Y-14670500D01*
X19606614Y-14656214D01*
X19835186Y-14927643D02*
X19849471Y-14941929D01*
X19835186Y-14956214D01*
X19820900Y-14941929D01*
X19835186Y-14927643D01*
X19835186Y-14956214D01*
X20035186Y-14656214D02*
X20063757Y-14656214D01*
X20092328Y-14670500D01*
X20106614Y-14684786D01*
X20120900Y-14713357D01*
X20135186Y-14770500D01*
X20135186Y-14841929D01*
X20120900Y-14899071D01*
X20106614Y-14927643D01*
X20092328Y-14941929D01*
X20063757Y-14956214D01*
X20035186Y-14956214D01*
X20006614Y-14941929D01*
X19992328Y-14927643D01*
X19978043Y-14899071D01*
X19963757Y-14841929D01*
X19963757Y-14770500D01*
X19978043Y-14713357D01*
X19992328Y-14684786D01*
X20006614Y-14670500D01*
X20035186Y-14656214D01*
X20420900Y-14956214D02*
X20249471Y-14956214D01*
X20335186Y-14956214D02*
X20335186Y-14656214D01*
X20306614Y-14699071D01*
X20278043Y-14727643D01*
X20249471Y-14741929D01*
X20692328Y-14656214D02*
X20549471Y-14656214D01*
X20535186Y-14799071D01*
X20549471Y-14784786D01*
X20578043Y-14770500D01*
X20649471Y-14770500D01*
X20678043Y-14784786D01*
X20692328Y-14799071D01*
X20706614Y-14827643D01*
X20706614Y-14899071D01*
X20692328Y-14927643D01*
X20678043Y-14941929D01*
X20649471Y-14956214D01*
X20578043Y-14956214D01*
X20549471Y-14941929D01*
X20535186Y-14927643D01*
X20806614Y-14656214D02*
X21006614Y-14656214D01*
X20878043Y-14956214D01*
X21106614Y-14656214D02*
X21106614Y-14713357D01*
X21220900Y-14656214D02*
X21220900Y-14713357D01*
X21663757Y-15070500D02*
X21649471Y-15056214D01*
X21620900Y-15013357D01*
X21606614Y-14984786D01*
X21592328Y-14941929D01*
X21578043Y-14870500D01*
X21578043Y-14813357D01*
X21592328Y-14741929D01*
X21606614Y-14699071D01*
X21620900Y-14670500D01*
X21649471Y-14627643D01*
X21663757Y-14613357D01*
X21935186Y-14956214D02*
X21763757Y-14956214D01*
X21849471Y-14956214D02*
X21849471Y-14656214D01*
X21820900Y-14699071D01*
X21792328Y-14727643D01*
X21763757Y-14741929D01*
X22192328Y-14656214D02*
X22135186Y-14656214D01*
X22106614Y-14670500D01*
X22092328Y-14684786D01*
X22063757Y-14727643D01*
X22049471Y-14784786D01*
X22049471Y-14899071D01*
X22063757Y-14927643D01*
X22078043Y-14941929D01*
X22106614Y-14956214D01*
X22163757Y-14956214D01*
X22192328Y-14941929D01*
X22206614Y-14927643D01*
X22220900Y-14899071D01*
X22220900Y-14827643D01*
X22206614Y-14799071D01*
X22192328Y-14784786D01*
X22163757Y-14770500D01*
X22106614Y-14770500D01*
X22078043Y-14784786D01*
X22063757Y-14799071D01*
X22049471Y-14827643D01*
X22478043Y-14656214D02*
X22420900Y-14656214D01*
X22392328Y-14670500D01*
X22378043Y-14684786D01*
X22349471Y-14727643D01*
X22335186Y-14784786D01*
X22335186Y-14899071D01*
X22349471Y-14927643D01*
X22363757Y-14941929D01*
X22392328Y-14956214D01*
X22449471Y-14956214D01*
X22478043Y-14941929D01*
X22492328Y-14927643D01*
X22506614Y-14899071D01*
X22506614Y-14827643D01*
X22492328Y-14799071D01*
X22478043Y-14784786D01*
X22449471Y-14770500D01*
X22392328Y-14770500D01*
X22363757Y-14784786D01*
X22349471Y-14799071D01*
X22335186Y-14827643D01*
X22863757Y-14956214D02*
X22863757Y-14656214D01*
X22992328Y-14956214D02*
X22992328Y-14799071D01*
X22978043Y-14770500D01*
X22949471Y-14756214D01*
X22906614Y-14756214D01*
X22878043Y-14770500D01*
X22863757Y-14784786D01*
X23178043Y-14956214D02*
X23149471Y-14941929D01*
X23135186Y-14927643D01*
X23120900Y-14899071D01*
X23120900Y-14813357D01*
X23135186Y-14784786D01*
X23149471Y-14770500D01*
X23178043Y-14756214D01*
X23220900Y-14756214D01*
X23249471Y-14770500D01*
X23263757Y-14784786D01*
X23278043Y-14813357D01*
X23278043Y-14899071D01*
X23263757Y-14927643D01*
X23249471Y-14941929D01*
X23220900Y-14956214D01*
X23178043Y-14956214D01*
X23449471Y-14956214D02*
X23420900Y-14941929D01*
X23406614Y-14913357D01*
X23406614Y-14656214D01*
X23678043Y-14941929D02*
X23649471Y-14956214D01*
X23592328Y-14956214D01*
X23563757Y-14941929D01*
X23549471Y-14913357D01*
X23549471Y-14799071D01*
X23563757Y-14770500D01*
X23592328Y-14756214D01*
X23649471Y-14756214D01*
X23678043Y-14770500D01*
X23692328Y-14799071D01*
X23692328Y-14827643D01*
X23549471Y-14856214D01*
X23806614Y-14941929D02*
X23835186Y-14956214D01*
X23892328Y-14956214D01*
X23920900Y-14941929D01*
X23935186Y-14913357D01*
X23935186Y-14899071D01*
X23920900Y-14870500D01*
X23892328Y-14856214D01*
X23849471Y-14856214D01*
X23820900Y-14841929D01*
X23806614Y-14813357D01*
X23806614Y-14799071D01*
X23820900Y-14770500D01*
X23849471Y-14756214D01*
X23892328Y-14756214D01*
X23920900Y-14770500D01*
X24035186Y-15070500D02*
X24049471Y-15056214D01*
X24078043Y-15013357D01*
X24092328Y-14984786D01*
X24106614Y-14941929D01*
X24120900Y-14870500D01*
X24120900Y-14813357D01*
X24106614Y-14741929D01*
X24092328Y-14699071D01*
X24078043Y-14670500D01*
X24049471Y-14627643D01*
X24035186Y-14613357D01*
X16370900Y-15181500D02*
X16370900Y-15251500D01*
X16335900Y-15216500D02*
X16405900Y-15216500D01*
X16749471Y-15052214D02*
X16778043Y-15052214D01*
X16806614Y-15066500D01*
X16820900Y-15080786D01*
X16835186Y-15109357D01*
X16849471Y-15166500D01*
X16849471Y-15237929D01*
X16835186Y-15295071D01*
X16820900Y-15323643D01*
X16806614Y-15337929D01*
X16778043Y-15352214D01*
X16749471Y-15352214D01*
X16720900Y-15337929D01*
X16706614Y-15323643D01*
X16692328Y-15295071D01*
X16678043Y-15237929D01*
X16678043Y-15166500D01*
X16692328Y-15109357D01*
X16706614Y-15080786D01*
X16720900Y-15066500D01*
X16749471Y-15052214D01*
X16978043Y-15323643D02*
X16992328Y-15337929D01*
X16978043Y-15352214D01*
X16963757Y-15337929D01*
X16978043Y-15323643D01*
X16978043Y-15352214D01*
X17092328Y-15052214D02*
X17292328Y-15052214D01*
X17163757Y-15352214D01*
X17463757Y-15052214D02*
X17492328Y-15052214D01*
X17520900Y-15066500D01*
X17535186Y-15080786D01*
X17549471Y-15109357D01*
X17563757Y-15166500D01*
X17563757Y-15237929D01*
X17549471Y-15295071D01*
X17535186Y-15323643D01*
X17520900Y-15337929D01*
X17492328Y-15352214D01*
X17463757Y-15352214D01*
X17435186Y-15337929D01*
X17420900Y-15323643D01*
X17406614Y-15295071D01*
X17392328Y-15237929D01*
X17392328Y-15166500D01*
X17406614Y-15109357D01*
X17420900Y-15080786D01*
X17435186Y-15066500D01*
X17463757Y-15052214D01*
X17749471Y-15052214D02*
X17778043Y-15052214D01*
X17806614Y-15066500D01*
X17820900Y-15080786D01*
X17835186Y-15109357D01*
X17849471Y-15166500D01*
X17849471Y-15237929D01*
X17835186Y-15295071D01*
X17820900Y-15323643D01*
X17806614Y-15337929D01*
X17778043Y-15352214D01*
X17749471Y-15352214D01*
X17720900Y-15337929D01*
X17706614Y-15323643D01*
X17692328Y-15295071D01*
X17678043Y-15237929D01*
X17678043Y-15166500D01*
X17692328Y-15109357D01*
X17706614Y-15080786D01*
X17720900Y-15066500D01*
X17749471Y-15052214D01*
X17978043Y-15352214D02*
X17978043Y-15152214D01*
X17978043Y-15180786D02*
X17992328Y-15166500D01*
X18020900Y-15152214D01*
X18063757Y-15152214D01*
X18092328Y-15166500D01*
X18106614Y-15195071D01*
X18106614Y-15352214D01*
X18106614Y-15195071D02*
X18120900Y-15166500D01*
X18149471Y-15152214D01*
X18192328Y-15152214D01*
X18220900Y-15166500D01*
X18235186Y-15195071D01*
X18235186Y-15352214D01*
X18378043Y-15352214D02*
X18378043Y-15152214D01*
X18378043Y-15180786D02*
X18392328Y-15166500D01*
X18420900Y-15152214D01*
X18463757Y-15152214D01*
X18492328Y-15166500D01*
X18506614Y-15195071D01*
X18506614Y-15352214D01*
X18506614Y-15195071D02*
X18520900Y-15166500D01*
X18549471Y-15152214D01*
X18592328Y-15152214D01*
X18620900Y-15166500D01*
X18635186Y-15195071D01*
X18635186Y-15352214D01*
X19220900Y-15037929D02*
X18963757Y-15423643D01*
X19606614Y-15052214D02*
X19635186Y-15052214D01*
X19663757Y-15066500D01*
X19678043Y-15080786D01*
X19692328Y-15109357D01*
X19706614Y-15166500D01*
X19706614Y-15237929D01*
X19692328Y-15295071D01*
X19678043Y-15323643D01*
X19663757Y-15337929D01*
X19635186Y-15352214D01*
X19606614Y-15352214D01*
X19578043Y-15337929D01*
X19563757Y-15323643D01*
X19549471Y-15295071D01*
X19535186Y-15237929D01*
X19535186Y-15166500D01*
X19549471Y-15109357D01*
X19563757Y-15080786D01*
X19578043Y-15066500D01*
X19606614Y-15052214D01*
X19835186Y-15323643D02*
X19849471Y-15337929D01*
X19835186Y-15352214D01*
X19820900Y-15337929D01*
X19835186Y-15323643D01*
X19835186Y-15352214D01*
X20035186Y-15052214D02*
X20063757Y-15052214D01*
X20092328Y-15066500D01*
X20106614Y-15080786D01*
X20120900Y-15109357D01*
X20135186Y-15166500D01*
X20135186Y-15237929D01*
X20120900Y-15295071D01*
X20106614Y-15323643D01*
X20092328Y-15337929D01*
X20063757Y-15352214D01*
X20035186Y-15352214D01*
X20006614Y-15337929D01*
X19992328Y-15323643D01*
X19978043Y-15295071D01*
X19963757Y-15237929D01*
X19963757Y-15166500D01*
X19978043Y-15109357D01*
X19992328Y-15080786D01*
X20006614Y-15066500D01*
X20035186Y-15052214D01*
X20249471Y-15080786D02*
X20263757Y-15066500D01*
X20292328Y-15052214D01*
X20363757Y-15052214D01*
X20392328Y-15066500D01*
X20406614Y-15080786D01*
X20420900Y-15109357D01*
X20420900Y-15137929D01*
X20406614Y-15180786D01*
X20235186Y-15352214D01*
X20420900Y-15352214D01*
X20520900Y-15052214D02*
X20720900Y-15052214D01*
X20592328Y-15352214D01*
X20963757Y-15052214D02*
X20906614Y-15052214D01*
X20878043Y-15066500D01*
X20863757Y-15080786D01*
X20835186Y-15123643D01*
X20820900Y-15180786D01*
X20820900Y-15295071D01*
X20835186Y-15323643D01*
X20849471Y-15337929D01*
X20878043Y-15352214D01*
X20935186Y-15352214D01*
X20963757Y-15337929D01*
X20978043Y-15323643D01*
X20992328Y-15295071D01*
X20992328Y-15223643D01*
X20978043Y-15195071D01*
X20963757Y-15180786D01*
X20935186Y-15166500D01*
X20878043Y-15166500D01*
X20849471Y-15180786D01*
X20835186Y-15195071D01*
X20820900Y-15223643D01*
X21106614Y-15052214D02*
X21106614Y-15109357D01*
X21220900Y-15052214D02*
X21220900Y-15109357D01*
X21663757Y-15466500D02*
X21649471Y-15452214D01*
X21620900Y-15409357D01*
X21606614Y-15380786D01*
X21592328Y-15337929D01*
X21578043Y-15266500D01*
X21578043Y-15209357D01*
X21592328Y-15137929D01*
X21606614Y-15095071D01*
X21620900Y-15066500D01*
X21649471Y-15023643D01*
X21663757Y-15009357D01*
X21935186Y-15352214D02*
X21763757Y-15352214D01*
X21849471Y-15352214D02*
X21849471Y-15052214D01*
X21820900Y-15095071D01*
X21792328Y-15123643D01*
X21763757Y-15137929D01*
X22192328Y-15052214D02*
X22135186Y-15052214D01*
X22106614Y-15066500D01*
X22092328Y-15080786D01*
X22063757Y-15123643D01*
X22049471Y-15180786D01*
X22049471Y-15295071D01*
X22063757Y-15323643D01*
X22078043Y-15337929D01*
X22106614Y-15352214D01*
X22163757Y-15352214D01*
X22192328Y-15337929D01*
X22206614Y-15323643D01*
X22220900Y-15295071D01*
X22220900Y-15223643D01*
X22206614Y-15195071D01*
X22192328Y-15180786D01*
X22163757Y-15166500D01*
X22106614Y-15166500D01*
X22078043Y-15180786D01*
X22063757Y-15195071D01*
X22049471Y-15223643D01*
X22578043Y-15352214D02*
X22578043Y-15052214D01*
X22706614Y-15352214D02*
X22706614Y-15195071D01*
X22692328Y-15166500D01*
X22663757Y-15152214D01*
X22620900Y-15152214D01*
X22592328Y-15166500D01*
X22578043Y-15180786D01*
X22892328Y-15352214D02*
X22863757Y-15337929D01*
X22849471Y-15323643D01*
X22835186Y-15295071D01*
X22835186Y-15209357D01*
X22849471Y-15180786D01*
X22863757Y-15166500D01*
X22892328Y-15152214D01*
X22935186Y-15152214D01*
X22963757Y-15166500D01*
X22978043Y-15180786D01*
X22992328Y-15209357D01*
X22992328Y-15295071D01*
X22978043Y-15323643D01*
X22963757Y-15337929D01*
X22935186Y-15352214D01*
X22892328Y-15352214D01*
X23163757Y-15352214D02*
X23135186Y-15337929D01*
X23120900Y-15309357D01*
X23120900Y-15052214D01*
X23392328Y-15337929D02*
X23363757Y-15352214D01*
X23306614Y-15352214D01*
X23278043Y-15337929D01*
X23263757Y-15309357D01*
X23263757Y-15195071D01*
X23278043Y-15166500D01*
X23306614Y-15152214D01*
X23363757Y-15152214D01*
X23392328Y-15166500D01*
X23406614Y-15195071D01*
X23406614Y-15223643D01*
X23263757Y-15252214D01*
X23520900Y-15337929D02*
X23549471Y-15352214D01*
X23606614Y-15352214D01*
X23635186Y-15337929D01*
X23649471Y-15309357D01*
X23649471Y-15295071D01*
X23635186Y-15266500D01*
X23606614Y-15252214D01*
X23563757Y-15252214D01*
X23535186Y-15237929D01*
X23520900Y-15209357D01*
X23520900Y-15195071D01*
X23535186Y-15166500D01*
X23563757Y-15152214D01*
X23606614Y-15152214D01*
X23635186Y-15166500D01*
X23749471Y-15466500D02*
X23763757Y-15452214D01*
X23792328Y-15409357D01*
X23806614Y-15380786D01*
X23820900Y-15337929D01*
X23835186Y-15266500D01*
X23835186Y-15209357D01*
X23820900Y-15137929D01*
X23806614Y-15095071D01*
X23792328Y-15066500D01*
X23763757Y-15023643D01*
X23749471Y-15009357D01*
X16391256Y-15647856D02*
X16391256Y-15577144D01*
X16320544Y-15577144D01*
X16320544Y-15647856D01*
X16391256Y-15647856D01*
X16849471Y-15748214D02*
X16678043Y-15748214D01*
X16763757Y-15748214D02*
X16763757Y-15448214D01*
X16735186Y-15491071D01*
X16706614Y-15519643D01*
X16678043Y-15533929D01*
X16978043Y-15719643D02*
X16992328Y-15733929D01*
X16978043Y-15748214D01*
X16963757Y-15733929D01*
X16978043Y-15719643D01*
X16978043Y-15748214D01*
X17178043Y-15448214D02*
X17206614Y-15448214D01*
X17235186Y-15462500D01*
X17249471Y-15476786D01*
X17263757Y-15505357D01*
X17278043Y-15562500D01*
X17278043Y-15633929D01*
X17263757Y-15691071D01*
X17249471Y-15719643D01*
X17235186Y-15733929D01*
X17206614Y-15748214D01*
X17178043Y-15748214D01*
X17149471Y-15733929D01*
X17135186Y-15719643D01*
X17120900Y-15691071D01*
X17106614Y-15633929D01*
X17106614Y-15562500D01*
X17120900Y-15505357D01*
X17135186Y-15476786D01*
X17149471Y-15462500D01*
X17178043Y-15448214D01*
X17463757Y-15448214D02*
X17492328Y-15448214D01*
X17520900Y-15462500D01*
X17535186Y-15476786D01*
X17549471Y-15505357D01*
X17563757Y-15562500D01*
X17563757Y-15633929D01*
X17549471Y-15691071D01*
X17535186Y-15719643D01*
X17520900Y-15733929D01*
X17492328Y-15748214D01*
X17463757Y-15748214D01*
X17435186Y-15733929D01*
X17420900Y-15719643D01*
X17406614Y-15691071D01*
X17392328Y-15633929D01*
X17392328Y-15562500D01*
X17406614Y-15505357D01*
X17420900Y-15476786D01*
X17435186Y-15462500D01*
X17463757Y-15448214D01*
X17749471Y-15448214D02*
X17778043Y-15448214D01*
X17806614Y-15462500D01*
X17820900Y-15476786D01*
X17835186Y-15505357D01*
X17849471Y-15562500D01*
X17849471Y-15633929D01*
X17835186Y-15691071D01*
X17820900Y-15719643D01*
X17806614Y-15733929D01*
X17778043Y-15748214D01*
X17749471Y-15748214D01*
X17720900Y-15733929D01*
X17706614Y-15719643D01*
X17692328Y-15691071D01*
X17678043Y-15633929D01*
X17678043Y-15562500D01*
X17692328Y-15505357D01*
X17706614Y-15476786D01*
X17720900Y-15462500D01*
X17749471Y-15448214D01*
X17978043Y-15748214D02*
X17978043Y-15548214D01*
X17978043Y-15576786D02*
X17992328Y-15562500D01*
X18020900Y-15548214D01*
X18063757Y-15548214D01*
X18092328Y-15562500D01*
X18106614Y-15591071D01*
X18106614Y-15748214D01*
X18106614Y-15591071D02*
X18120900Y-15562500D01*
X18149471Y-15548214D01*
X18192328Y-15548214D01*
X18220900Y-15562500D01*
X18235186Y-15591071D01*
X18235186Y-15748214D01*
X18378043Y-15748214D02*
X18378043Y-15548214D01*
X18378043Y-15576786D02*
X18392328Y-15562500D01*
X18420900Y-15548214D01*
X18463757Y-15548214D01*
X18492328Y-15562500D01*
X18506614Y-15591071D01*
X18506614Y-15748214D01*
X18506614Y-15591071D02*
X18520900Y-15562500D01*
X18549471Y-15548214D01*
X18592328Y-15548214D01*
X18620900Y-15562500D01*
X18635186Y-15591071D01*
X18635186Y-15748214D01*
X19220900Y-15433929D02*
X18963757Y-15819643D01*
X19606614Y-15448214D02*
X19635186Y-15448214D01*
X19663757Y-15462500D01*
X19678043Y-15476786D01*
X19692328Y-15505357D01*
X19706614Y-15562500D01*
X19706614Y-15633929D01*
X19692328Y-15691071D01*
X19678043Y-15719643D01*
X19663757Y-15733929D01*
X19635186Y-15748214D01*
X19606614Y-15748214D01*
X19578043Y-15733929D01*
X19563757Y-15719643D01*
X19549471Y-15691071D01*
X19535186Y-15633929D01*
X19535186Y-15562500D01*
X19549471Y-15505357D01*
X19563757Y-15476786D01*
X19578043Y-15462500D01*
X19606614Y-15448214D01*
X19835186Y-15719643D02*
X19849471Y-15733929D01*
X19835186Y-15748214D01*
X19820900Y-15733929D01*
X19835186Y-15719643D01*
X19835186Y-15748214D01*
X20035186Y-15448214D02*
X20063757Y-15448214D01*
X20092328Y-15462500D01*
X20106614Y-15476786D01*
X20120900Y-15505357D01*
X20135186Y-15562500D01*
X20135186Y-15633929D01*
X20120900Y-15691071D01*
X20106614Y-15719643D01*
X20092328Y-15733929D01*
X20063757Y-15748214D01*
X20035186Y-15748214D01*
X20006614Y-15733929D01*
X19992328Y-15719643D01*
X19978043Y-15691071D01*
X19963757Y-15633929D01*
X19963757Y-15562500D01*
X19978043Y-15505357D01*
X19992328Y-15476786D01*
X20006614Y-15462500D01*
X20035186Y-15448214D01*
X20235186Y-15448214D02*
X20420900Y-15448214D01*
X20320900Y-15562500D01*
X20363757Y-15562500D01*
X20392328Y-15576786D01*
X20406614Y-15591071D01*
X20420900Y-15619643D01*
X20420900Y-15691071D01*
X20406614Y-15719643D01*
X20392328Y-15733929D01*
X20363757Y-15748214D01*
X20278043Y-15748214D01*
X20249471Y-15733929D01*
X20235186Y-15719643D01*
X20563757Y-15748214D02*
X20620900Y-15748214D01*
X20649471Y-15733929D01*
X20663757Y-15719643D01*
X20692328Y-15676786D01*
X20706614Y-15619643D01*
X20706614Y-15505357D01*
X20692328Y-15476786D01*
X20678043Y-15462500D01*
X20649471Y-15448214D01*
X20592328Y-15448214D01*
X20563757Y-15462500D01*
X20549471Y-15476786D01*
X20535186Y-15505357D01*
X20535186Y-15576786D01*
X20549471Y-15605357D01*
X20563757Y-15619643D01*
X20592328Y-15633929D01*
X20649471Y-15633929D01*
X20678043Y-15619643D01*
X20692328Y-15605357D01*
X20706614Y-15576786D01*
X20963757Y-15548214D02*
X20963757Y-15748214D01*
X20892328Y-15433929D02*
X20820900Y-15648214D01*
X21006614Y-15648214D01*
X21106614Y-15448214D02*
X21106614Y-15505357D01*
X21220900Y-15448214D02*
X21220900Y-15505357D01*
X21663757Y-15862500D02*
X21649471Y-15848214D01*
X21620900Y-15805357D01*
X21606614Y-15776786D01*
X21592328Y-15733929D01*
X21578043Y-15662500D01*
X21578043Y-15605357D01*
X21592328Y-15533929D01*
X21606614Y-15491071D01*
X21620900Y-15462500D01*
X21649471Y-15419643D01*
X21663757Y-15405357D01*
X21763757Y-15476786D02*
X21778043Y-15462500D01*
X21806614Y-15448214D01*
X21878043Y-15448214D01*
X21906614Y-15462500D01*
X21920900Y-15476786D01*
X21935186Y-15505357D01*
X21935186Y-15533929D01*
X21920900Y-15576786D01*
X21749471Y-15748214D01*
X21935186Y-15748214D01*
X22192328Y-15548214D02*
X22192328Y-15748214D01*
X22120900Y-15433929D02*
X22049471Y-15648214D01*
X22235186Y-15648214D01*
X22578043Y-15748214D02*
X22578043Y-15448214D01*
X22706614Y-15748214D02*
X22706614Y-15591071D01*
X22692328Y-15562500D01*
X22663757Y-15548214D01*
X22620900Y-15548214D01*
X22592328Y-15562500D01*
X22578043Y-15576786D01*
X22892328Y-15748214D02*
X22863757Y-15733929D01*
X22849471Y-15719643D01*
X22835186Y-15691071D01*
X22835186Y-15605357D01*
X22849471Y-15576786D01*
X22863757Y-15562500D01*
X22892328Y-15548214D01*
X22935186Y-15548214D01*
X22963757Y-15562500D01*
X22978043Y-15576786D01*
X22992328Y-15605357D01*
X22992328Y-15691071D01*
X22978043Y-15719643D01*
X22963757Y-15733929D01*
X22935186Y-15748214D01*
X22892328Y-15748214D01*
X23163757Y-15748214D02*
X23135186Y-15733929D01*
X23120900Y-15705357D01*
X23120900Y-15448214D01*
X23392328Y-15733929D02*
X23363757Y-15748214D01*
X23306614Y-15748214D01*
X23278043Y-15733929D01*
X23263757Y-15705357D01*
X23263757Y-15591071D01*
X23278043Y-15562500D01*
X23306614Y-15548214D01*
X23363757Y-15548214D01*
X23392328Y-15562500D01*
X23406614Y-15591071D01*
X23406614Y-15619643D01*
X23263757Y-15648214D01*
X23520900Y-15733929D02*
X23549471Y-15748214D01*
X23606614Y-15748214D01*
X23635186Y-15733929D01*
X23649471Y-15705357D01*
X23649471Y-15691071D01*
X23635186Y-15662500D01*
X23606614Y-15648214D01*
X23563757Y-15648214D01*
X23535186Y-15633929D01*
X23520900Y-15605357D01*
X23520900Y-15591071D01*
X23535186Y-15562500D01*
X23563757Y-15548214D01*
X23606614Y-15548214D01*
X23635186Y-15562500D01*
X24006614Y-15633929D02*
X24235186Y-15633929D01*
X24120900Y-15748214D02*
X24120900Y-15519643D01*
X24578043Y-15448214D02*
X24763757Y-15448214D01*
X24663757Y-15562500D01*
X24706614Y-15562500D01*
X24735186Y-15576786D01*
X24749471Y-15591071D01*
X24763757Y-15619643D01*
X24763757Y-15691071D01*
X24749471Y-15719643D01*
X24735186Y-15733929D01*
X24706614Y-15748214D01*
X24620900Y-15748214D01*
X24592328Y-15733929D01*
X24578043Y-15719643D01*
X25106614Y-15733929D02*
X25135186Y-15748214D01*
X25192328Y-15748214D01*
X25220900Y-15733929D01*
X25235186Y-15705357D01*
X25235186Y-15691071D01*
X25220900Y-15662500D01*
X25192328Y-15648214D01*
X25149471Y-15648214D01*
X25120900Y-15633929D01*
X25106614Y-15605357D01*
X25106614Y-15591071D01*
X25120900Y-15562500D01*
X25149471Y-15548214D01*
X25192328Y-15548214D01*
X25220900Y-15562500D01*
X25406614Y-15748214D02*
X25378043Y-15733929D01*
X25363757Y-15705357D01*
X25363757Y-15448214D01*
X25563757Y-15748214D02*
X25535186Y-15733929D01*
X25520900Y-15719643D01*
X25506614Y-15691071D01*
X25506614Y-15605357D01*
X25520900Y-15576786D01*
X25535186Y-15562500D01*
X25563757Y-15548214D01*
X25606614Y-15548214D01*
X25635186Y-15562500D01*
X25649471Y-15576786D01*
X25663757Y-15605357D01*
X25663757Y-15691071D01*
X25649471Y-15719643D01*
X25635186Y-15733929D01*
X25606614Y-15748214D01*
X25563757Y-15748214D01*
X25749471Y-15548214D02*
X25863757Y-15548214D01*
X25792328Y-15448214D02*
X25792328Y-15705357D01*
X25806614Y-15733929D01*
X25835186Y-15748214D01*
X25863757Y-15748214D01*
X25949471Y-15733929D02*
X25978043Y-15748214D01*
X26035186Y-15748214D01*
X26063757Y-15733929D01*
X26078043Y-15705357D01*
X26078043Y-15691071D01*
X26063757Y-15662500D01*
X26035186Y-15648214D01*
X25992328Y-15648214D01*
X25963757Y-15633929D01*
X25949471Y-15605357D01*
X25949471Y-15591071D01*
X25963757Y-15562500D01*
X25992328Y-15548214D01*
X26035186Y-15548214D01*
X26063757Y-15562500D01*
X26178043Y-15862500D02*
X26192328Y-15848214D01*
X26220900Y-15805357D01*
X26235186Y-15776786D01*
X26249471Y-15733929D01*
X26263757Y-15662500D01*
X26263757Y-15605357D01*
X26249471Y-15533929D01*
X26235186Y-15491071D01*
X26220900Y-15462500D01*
X26192328Y-15419643D01*
X26178043Y-15405357D01*
X16275900Y-16138500D02*
X16405900Y-16008500D01*
X16275900Y-15878500D01*
X16145900Y-16008500D01*
X16275900Y-16138500D01*
X16678043Y-15872786D02*
X16692328Y-15858500D01*
X16720900Y-15844214D01*
X16792328Y-15844214D01*
X16820900Y-15858500D01*
X16835186Y-15872786D01*
X16849471Y-15901357D01*
X16849471Y-15929929D01*
X16835186Y-15972786D01*
X16663757Y-16144214D01*
X16849471Y-16144214D01*
X16978043Y-16115643D02*
X16992328Y-16129929D01*
X16978043Y-16144214D01*
X16963757Y-16129929D01*
X16978043Y-16115643D01*
X16978043Y-16144214D01*
X17249471Y-15844214D02*
X17192328Y-15844214D01*
X17163757Y-15858500D01*
X17149471Y-15872786D01*
X17120900Y-15915643D01*
X17106614Y-15972786D01*
X17106614Y-16087071D01*
X17120900Y-16115643D01*
X17135186Y-16129929D01*
X17163757Y-16144214D01*
X17220900Y-16144214D01*
X17249471Y-16129929D01*
X17263757Y-16115643D01*
X17278043Y-16087071D01*
X17278043Y-16015643D01*
X17263757Y-15987071D01*
X17249471Y-15972786D01*
X17220900Y-15958500D01*
X17163757Y-15958500D01*
X17135186Y-15972786D01*
X17120900Y-15987071D01*
X17106614Y-16015643D01*
X17463757Y-15844214D02*
X17492328Y-15844214D01*
X17520900Y-15858500D01*
X17535186Y-15872786D01*
X17549471Y-15901357D01*
X17563757Y-15958500D01*
X17563757Y-16029929D01*
X17549471Y-16087071D01*
X17535186Y-16115643D01*
X17520900Y-16129929D01*
X17492328Y-16144214D01*
X17463757Y-16144214D01*
X17435186Y-16129929D01*
X17420900Y-16115643D01*
X17406614Y-16087071D01*
X17392328Y-16029929D01*
X17392328Y-15958500D01*
X17406614Y-15901357D01*
X17420900Y-15872786D01*
X17435186Y-15858500D01*
X17463757Y-15844214D01*
X17749471Y-15844214D02*
X17778043Y-15844214D01*
X17806614Y-15858500D01*
X17820900Y-15872786D01*
X17835186Y-15901357D01*
X17849471Y-15958500D01*
X17849471Y-16029929D01*
X17835186Y-16087071D01*
X17820900Y-16115643D01*
X17806614Y-16129929D01*
X17778043Y-16144214D01*
X17749471Y-16144214D01*
X17720900Y-16129929D01*
X17706614Y-16115643D01*
X17692328Y-16087071D01*
X17678043Y-16029929D01*
X17678043Y-15958500D01*
X17692328Y-15901357D01*
X17706614Y-15872786D01*
X17720900Y-15858500D01*
X17749471Y-15844214D01*
X17978043Y-16144214D02*
X17978043Y-15944214D01*
X17978043Y-15972786D02*
X17992328Y-15958500D01*
X18020900Y-15944214D01*
X18063757Y-15944214D01*
X18092328Y-15958500D01*
X18106614Y-15987071D01*
X18106614Y-16144214D01*
X18106614Y-15987071D02*
X18120900Y-15958500D01*
X18149471Y-15944214D01*
X18192328Y-15944214D01*
X18220900Y-15958500D01*
X18235186Y-15987071D01*
X18235186Y-16144214D01*
X18378043Y-16144214D02*
X18378043Y-15944214D01*
X18378043Y-15972786D02*
X18392328Y-15958500D01*
X18420900Y-15944214D01*
X18463757Y-15944214D01*
X18492328Y-15958500D01*
X18506614Y-15987071D01*
X18506614Y-16144214D01*
X18506614Y-15987071D02*
X18520900Y-15958500D01*
X18549471Y-15944214D01*
X18592328Y-15944214D01*
X18620900Y-15958500D01*
X18635186Y-15987071D01*
X18635186Y-16144214D01*
X19220900Y-15829929D02*
X18963757Y-16215643D01*
X19606614Y-15844214D02*
X19635186Y-15844214D01*
X19663757Y-15858500D01*
X19678043Y-15872786D01*
X19692328Y-15901357D01*
X19706614Y-15958500D01*
X19706614Y-16029929D01*
X19692328Y-16087071D01*
X19678043Y-16115643D01*
X19663757Y-16129929D01*
X19635186Y-16144214D01*
X19606614Y-16144214D01*
X19578043Y-16129929D01*
X19563757Y-16115643D01*
X19549471Y-16087071D01*
X19535186Y-16029929D01*
X19535186Y-15958500D01*
X19549471Y-15901357D01*
X19563757Y-15872786D01*
X19578043Y-15858500D01*
X19606614Y-15844214D01*
X19835186Y-16115643D02*
X19849471Y-16129929D01*
X19835186Y-16144214D01*
X19820900Y-16129929D01*
X19835186Y-16115643D01*
X19835186Y-16144214D01*
X20135186Y-16144214D02*
X19963757Y-16144214D01*
X20049471Y-16144214D02*
X20049471Y-15844214D01*
X20020900Y-15887071D01*
X19992328Y-15915643D01*
X19963757Y-15929929D01*
X20320900Y-15844214D02*
X20349471Y-15844214D01*
X20378043Y-15858500D01*
X20392328Y-15872786D01*
X20406614Y-15901357D01*
X20420900Y-15958500D01*
X20420900Y-16029929D01*
X20406614Y-16087071D01*
X20392328Y-16115643D01*
X20378043Y-16129929D01*
X20349471Y-16144214D01*
X20320900Y-16144214D01*
X20292328Y-16129929D01*
X20278043Y-16115643D01*
X20263757Y-16087071D01*
X20249471Y-16029929D01*
X20249471Y-15958500D01*
X20263757Y-15901357D01*
X20278043Y-15872786D01*
X20292328Y-15858500D01*
X20320900Y-15844214D01*
X20535186Y-15872786D02*
X20549471Y-15858500D01*
X20578043Y-15844214D01*
X20649471Y-15844214D01*
X20678043Y-15858500D01*
X20692328Y-15872786D01*
X20706614Y-15901357D01*
X20706614Y-15929929D01*
X20692328Y-15972786D01*
X20520900Y-16144214D01*
X20706614Y-16144214D01*
X20963757Y-15944214D02*
X20963757Y-16144214D01*
X20892328Y-15829929D02*
X20820900Y-16044214D01*
X21006614Y-16044214D01*
X21106614Y-15844214D02*
X21106614Y-15901357D01*
X21220900Y-15844214D02*
X21220900Y-15901357D01*
X21663757Y-16258500D02*
X21649471Y-16244214D01*
X21620900Y-16201357D01*
X21606614Y-16172786D01*
X21592328Y-16129929D01*
X21578043Y-16058500D01*
X21578043Y-16001357D01*
X21592328Y-15929929D01*
X21606614Y-15887071D01*
X21620900Y-15858500D01*
X21649471Y-15815643D01*
X21663757Y-15801357D01*
X21763757Y-15872786D02*
X21778043Y-15858500D01*
X21806614Y-15844214D01*
X21878043Y-15844214D01*
X21906614Y-15858500D01*
X21920900Y-15872786D01*
X21935186Y-15901357D01*
X21935186Y-15929929D01*
X21920900Y-15972786D01*
X21749471Y-16144214D01*
X21935186Y-16144214D01*
X22292328Y-16144214D02*
X22292328Y-15844214D01*
X22420900Y-16144214D02*
X22420900Y-15987071D01*
X22406614Y-15958500D01*
X22378043Y-15944214D01*
X22335186Y-15944214D01*
X22306614Y-15958500D01*
X22292328Y-15972786D01*
X22606614Y-16144214D02*
X22578043Y-16129929D01*
X22563757Y-16115643D01*
X22549471Y-16087071D01*
X22549471Y-16001357D01*
X22563757Y-15972786D01*
X22578043Y-15958500D01*
X22606614Y-15944214D01*
X22649471Y-15944214D01*
X22678043Y-15958500D01*
X22692328Y-15972786D01*
X22706614Y-16001357D01*
X22706614Y-16087071D01*
X22692328Y-16115643D01*
X22678043Y-16129929D01*
X22649471Y-16144214D01*
X22606614Y-16144214D01*
X22878043Y-16144214D02*
X22849471Y-16129929D01*
X22835186Y-16101357D01*
X22835186Y-15844214D01*
X23106614Y-16129929D02*
X23078043Y-16144214D01*
X23020900Y-16144214D01*
X22992328Y-16129929D01*
X22978043Y-16101357D01*
X22978043Y-15987071D01*
X22992328Y-15958500D01*
X23020900Y-15944214D01*
X23078043Y-15944214D01*
X23106614Y-15958500D01*
X23120900Y-15987071D01*
X23120900Y-16015643D01*
X22978043Y-16044214D01*
X23235186Y-16129929D02*
X23263757Y-16144214D01*
X23320900Y-16144214D01*
X23349471Y-16129929D01*
X23363757Y-16101357D01*
X23363757Y-16087071D01*
X23349471Y-16058500D01*
X23320900Y-16044214D01*
X23278043Y-16044214D01*
X23249471Y-16029929D01*
X23235186Y-16001357D01*
X23235186Y-15987071D01*
X23249471Y-15958500D01*
X23278043Y-15944214D01*
X23320900Y-15944214D01*
X23349471Y-15958500D01*
X23463757Y-16258500D02*
X23478043Y-16244214D01*
X23506614Y-16201357D01*
X23520900Y-16172786D01*
X23535186Y-16129929D01*
X23549471Y-16058500D01*
X23549471Y-16001357D01*
X23535186Y-15929929D01*
X23520900Y-15887071D01*
X23506614Y-15858500D01*
X23478043Y-15815643D01*
X23463757Y-15801357D01*
M02*
