M48
; DRILL file {KiCad (5.1.10)-1} date 09/22/21 21:53:46
; FORMAT={-:-/ absolute / metric / decimal}
; #@! TF.CreationDate,2021-09-22T21:53:46-04:00
; #@! TF.GenerationSoftware,Kicad,Pcbnew,(5.1.10)-1
; #@! TF.FileFunction,Plated,1,4,PTH
FMAT,2
METRIC
T1C0.200
T2C0.400
T3C0.700
T4C1.000
T5C2.600
%
G90
G05
T1
X174.19Y-75.057
X174.19Y-75.692
X174.19Y-80.772
X174.19Y-81.407
X174.698Y-75.057
X174.698Y-75.692
X174.698Y-80.772
X174.698Y-81.407
X175.206Y-75.057
X175.206Y-75.692
X175.206Y-80.772
X175.206Y-81.407
X175.714Y-75.057
X175.714Y-75.692
X175.714Y-80.772
X175.714Y-81.407
X176.222Y-75.057
X176.222Y-75.692
X176.222Y-80.772
X176.222Y-81.407
X176.73Y-75.057
X176.73Y-75.692
X176.73Y-80.772
X176.73Y-81.407
X177.238Y-75.057
X177.238Y-75.692
X177.238Y-80.772
X177.238Y-81.407
X177.746Y-75.057
X177.746Y-75.692
X177.746Y-80.772
X177.746Y-81.407
X189.5Y-77.486
X189.5Y-78.486
X189.5Y-79.486
X190.5Y-77.486
X190.5Y-78.486
X190.5Y-79.486
X191.5Y-77.486
X191.5Y-78.486
X191.5Y-79.486
X204.47Y-75.057
X204.47Y-75.692
X204.47Y-80.772
X204.47Y-81.407
X204.978Y-75.057
X204.978Y-75.692
X204.978Y-80.772
X204.978Y-81.407
X205.486Y-75.057
X205.486Y-75.692
X205.486Y-80.772
X205.486Y-81.407
X205.994Y-75.057
X205.994Y-75.692
X205.994Y-80.772
X205.994Y-81.407
X206.502Y-75.057
X206.502Y-75.692
X206.502Y-80.772
X206.502Y-81.407
X207.01Y-75.057
X207.01Y-75.692
X207.01Y-80.772
X207.01Y-81.407
X207.518Y-75.057
X207.518Y-75.692
X207.518Y-80.772
X207.518Y-81.407
X208.026Y-75.057
X208.026Y-75.692
X208.026Y-80.772
X208.026Y-81.407
T2
X164.896Y-106.193
X165.1Y-100.584
X165.1Y-103.632
X166.106Y-107.493
X166.37Y-119.634
X166.37Y-122.174
X166.37Y-124.714
X166.37Y-127.254
X166.37Y-129.794
X166.37Y-132.334
X167.64Y-100.33
X168.148Y-97.536
X168.275Y-109.728
X168.285Y-106.807
X168.381Y-101.807
X168.91Y-96.774
X169.418Y-100.965
X169.545Y-101.854
X169.926Y-96.774
X170.141Y-102.479
X170.561Y-101.092
X170.688Y-97.536
X171.069Y-115.951
X171.246Y-110.894
X172.212Y-104.267
X172.212Y-109.601
X172.233Y-110.871
X172.507Y-98.336
X172.507Y-96.815
X172.974Y-100.965
X173.483Y-110.871
X173.99Y-103.886
X173.99Y-106.807
X174.107Y-101.701
X174.117Y-112.649
X174.498Y-110.871
X174.752Y-85.344
X174.752Y-92.202
X174.752Y-93.472
X175.26Y-107.442
X175.26Y-100.076
X175.452Y-95.696
X175.514Y-110.871
X175.615Y-93.912
X176.276Y-100.076
X176.756Y-93.912
X176.784Y-106.649
X176.791Y-104.237
X176.967Y-110.033
X177.012Y-107.899
X177.043Y-102.987
X177.292Y-73.66
X177.292Y-85.344
X177.378Y-105.495
X177.413Y-103.696
X177.673Y-111.125
X178.054Y-123.698
X178.435Y-113.03
X178.435Y-112.014
X178.521Y-99.527
X178.602Y-102.91
X178.679Y-104.42
X178.816Y-108.341
X178.816Y-109.855
X178.816Y-123.698
X178.816Y-129.54
X179.197Y-111.379
X179.324Y-128.016
X179.832Y-73.66
X179.832Y-85.344
X180.34Y-127.508
X180.58Y-131.332
X181.17Y-132.08
X181.356Y-107.95
X181.356Y-121.412
X182.372Y-73.66
X182.372Y-85.344
X182.499Y-132.08
X182.88Y-109.982
X182.88Y-121.412
X182.88Y-125.222
X182.88Y-126.238
X182.88Y-127.254
X184.15Y-75.692
X184.15Y-77.216
X184.15Y-108.712
X184.404Y-121.412
X184.785Y-90.297
X184.912Y-73.66
X184.912Y-85.344
X184.912Y-101.854
X185.166Y-74.93
X185.181Y-76.439
X185.674Y-72.898
X185.928Y-91.44
X186.69Y-72.136
X187.198Y-128.016
X187.198Y-128.778
X187.198Y-129.54
X187.198Y-130.302
X187.223Y-107.975
X187.452Y-85.344
X187.96Y-72.136
X188.976Y-120.904
X188.976Y-106.68
X189.23Y-72.136
X190.246Y-82.55
X190.246Y-83.82
X190.246Y-85.09
X190.5Y-72.136
X190.5Y-120.904
X190.754Y-107.975
X191.516Y-72.898
X191.516Y-101.854
X191.516Y-103.378
X191.516Y-105.156
X191.77Y-91.44
X191.77Y-128.778
X191.77Y-129.794
X191.77Y-131.318
X191.77Y-133.35
X192.532Y-114.3
X192.532Y-120.904
X193.548Y-81.788
X193.548Y-106.68
X193.548Y-103.378
X193.548Y-105.156
X193.802Y-91.44
X194.056Y-120.904
X194.298Y-79.236
X194.818Y-80.264
X195.072Y-73.66
X195.072Y-85.344
X195.834Y-130.302
X195.834Y-131.572
X195.834Y-132.334
X195.834Y-133.35
X196.342Y-101.854
X196.596Y-114.3
X197.612Y-73.66
X197.612Y-85.344
X198.12Y-91.44
X199.926Y-91.412
X200.152Y-73.66
X200.152Y-85.344
X200.533Y-120.015
X200.66Y-114.3
X200.66Y-118.872
X201.958Y-91.412
X202.692Y-73.66
X202.692Y-85.344
X203.2Y-116.205
X203.708Y-91.44
X204.851Y-114.3
X205.232Y-73.66
X205.232Y-85.344
X207.01Y-118.872
X207.772Y-85.344
X213.995Y-116.078
X216.154Y-98.044
X216.154Y-100.584
X216.154Y-103.124
X216.154Y-105.664
X216.154Y-108.204
X216.154Y-110.744
X216.154Y-117.094
T3
X188.468Y-99.314
X188.468Y-109.474
X191.008Y-99.314
X191.008Y-109.474
X193.548Y-99.314
X193.548Y-109.474
X196.088Y-99.314
X196.088Y-109.474
X198.628Y-99.314
X198.628Y-109.474
X201.168Y-99.314
X201.168Y-109.474
X203.708Y-99.314
X203.708Y-109.474
X206.248Y-99.314
X206.248Y-109.474
T4
X167.005Y-114.3
X167.64Y-93.98
X169.545Y-114.3
X170.18Y-93.98
X171.45Y-118.745
X172.085Y-114.3
X172.72Y-93.98
X173.99Y-118.745
X174.625Y-114.3
X180.086Y-98.044
X180.086Y-100.584
X180.086Y-103.124
X180.086Y-105.664
X182.626Y-98.044
X182.626Y-100.584
X182.626Y-103.124
X182.626Y-105.664
X183.515Y-118.745
X186.055Y-118.745
X201.295Y-124.46
X201.295Y-126.96
X201.295Y-129.46
X215.795Y-124.46
X215.795Y-129.46
T5
X208.795Y-121.36
X208.795Y-132.56
T4
X170.53Y-126.0G85X170.53Y-128.0
G05
X172.53Y-131.7G85X174.53Y-131.7
G05
X176.53Y-126.0G85X176.53Y-128.0
G05
T0
M30
