G04 #@! TF.GenerationSoftware,KiCad,Pcbnew,(5.1.10)-1*
G04 #@! TF.CreationDate,2021-09-22T21:53:00-04:00*
G04 #@! TF.ProjectId,rf-vga,72662d76-6761-42e6-9b69-6361645f7063,rev?*
G04 #@! TF.SameCoordinates,Original*
G04 #@! TF.FileFunction,Legend,Top*
G04 #@! TF.FilePolarity,Positive*
%FSLAX46Y46*%
G04 Gerber Fmt 4.6, Leading zero omitted, Abs format (unit mm)*
G04 Created by KiCad (PCBNEW (5.1.10)-1) date 2021-09-22 21:53:00*
%MOMM*%
%LPD*%
G01*
G04 APERTURE LIST*
%ADD10C,0.100000*%
%ADD11C,0.300000*%
%ADD12C,0.150000*%
%ADD13C,0.120000*%
%ADD14C,0.010000*%
%ADD15C,0.127000*%
%ADD16C,0.240000*%
G04 APERTURE END LIST*
D10*
G36*
X203200000Y-80264000D02*
G01*
X202438000Y-81026000D01*
X202438000Y-80518000D01*
X199136000Y-80518000D01*
X199136000Y-80010000D01*
X202438000Y-80010000D01*
X202438000Y-79502000D01*
X203200000Y-80264000D01*
G37*
X203200000Y-80264000D02*
X202438000Y-81026000D01*
X202438000Y-80518000D01*
X199136000Y-80518000D01*
X199136000Y-80010000D01*
X202438000Y-80010000D01*
X202438000Y-79502000D01*
X203200000Y-80264000D01*
G36*
X184150000Y-80264000D02*
G01*
X183388000Y-81026000D01*
X183388000Y-80518000D01*
X180086000Y-80518000D01*
X180086000Y-80010000D01*
X183388000Y-80010000D01*
X183388000Y-79502000D01*
X184150000Y-80264000D01*
G37*
X184150000Y-80264000D02*
X183388000Y-81026000D01*
X183388000Y-80518000D01*
X180086000Y-80518000D01*
X180086000Y-80010000D01*
X183388000Y-80010000D01*
X183388000Y-79502000D01*
X184150000Y-80264000D01*
D11*
X190087714Y-119776761D02*
X189421047Y-118824380D01*
X188944857Y-119776761D02*
X188944857Y-117776761D01*
X189706761Y-117776761D01*
X189897238Y-117872000D01*
X189992476Y-117967238D01*
X190087714Y-118157714D01*
X190087714Y-118443428D01*
X189992476Y-118633904D01*
X189897238Y-118729142D01*
X189706761Y-118824380D01*
X188944857Y-118824380D01*
X191611523Y-118729142D02*
X190944857Y-118729142D01*
X190944857Y-119776761D02*
X190944857Y-117776761D01*
X191897238Y-117776761D01*
X193897238Y-117776761D02*
X194563904Y-119776761D01*
X195230571Y-117776761D01*
X196944857Y-117872000D02*
X196754380Y-117776761D01*
X196468666Y-117776761D01*
X196182952Y-117872000D01*
X195992476Y-118062476D01*
X195897238Y-118252952D01*
X195802000Y-118633904D01*
X195802000Y-118919619D01*
X195897238Y-119300571D01*
X195992476Y-119491047D01*
X196182952Y-119681523D01*
X196468666Y-119776761D01*
X196659142Y-119776761D01*
X196944857Y-119681523D01*
X197040095Y-119586285D01*
X197040095Y-118919619D01*
X196659142Y-118919619D01*
X197802000Y-119205333D02*
X198754380Y-119205333D01*
X197611523Y-119776761D02*
X198278190Y-117776761D01*
X198944857Y-119776761D01*
D10*
X183337238Y-116386000D02*
X183299142Y-116366952D01*
X183242000Y-116366952D01*
X183184857Y-116386000D01*
X183146761Y-116424095D01*
X183127714Y-116462190D01*
X183108666Y-116538380D01*
X183108666Y-116595523D01*
X183127714Y-116671714D01*
X183146761Y-116709809D01*
X183184857Y-116747904D01*
X183242000Y-116766952D01*
X183280095Y-116766952D01*
X183337238Y-116747904D01*
X183356285Y-116728857D01*
X183356285Y-116595523D01*
X183280095Y-116595523D01*
X183527714Y-116766952D02*
X183527714Y-116366952D01*
X183756285Y-116766952D01*
X183756285Y-116366952D01*
X183946761Y-116766952D02*
X183946761Y-116366952D01*
X184042000Y-116366952D01*
X184099142Y-116386000D01*
X184137238Y-116424095D01*
X184156285Y-116462190D01*
X184175333Y-116538380D01*
X184175333Y-116595523D01*
X184156285Y-116671714D01*
X184137238Y-116709809D01*
X184099142Y-116747904D01*
X184042000Y-116766952D01*
X183946761Y-116766952D01*
X185667714Y-116614571D02*
X185972476Y-116614571D01*
X185820095Y-116766952D02*
X185820095Y-116462190D01*
X186353428Y-116366952D02*
X186162952Y-116366952D01*
X186143904Y-116557428D01*
X186162952Y-116538380D01*
X186201047Y-116519333D01*
X186296285Y-116519333D01*
X186334380Y-116538380D01*
X186353428Y-116557428D01*
X186372476Y-116595523D01*
X186372476Y-116690761D01*
X186353428Y-116728857D01*
X186334380Y-116747904D01*
X186296285Y-116766952D01*
X186201047Y-116766952D01*
X186162952Y-116747904D01*
X186143904Y-116728857D01*
X186486761Y-116366952D02*
X186620095Y-116766952D01*
X186753428Y-116366952D01*
X171793000Y-91855904D02*
X171850142Y-91874952D01*
X171945380Y-91874952D01*
X171983476Y-91855904D01*
X172002523Y-91836857D01*
X172021571Y-91798761D01*
X172021571Y-91760666D01*
X172002523Y-91722571D01*
X171983476Y-91703523D01*
X171945380Y-91684476D01*
X171869190Y-91665428D01*
X171831095Y-91646380D01*
X171812047Y-91627333D01*
X171793000Y-91589238D01*
X171793000Y-91551142D01*
X171812047Y-91513047D01*
X171831095Y-91494000D01*
X171869190Y-91474952D01*
X171964428Y-91474952D01*
X172021571Y-91494000D01*
X172193000Y-91665428D02*
X172326333Y-91665428D01*
X172383476Y-91874952D02*
X172193000Y-91874952D01*
X172193000Y-91474952D01*
X172383476Y-91474952D01*
X172783476Y-91874952D02*
X172650142Y-91684476D01*
X172554904Y-91874952D02*
X172554904Y-91474952D01*
X172707285Y-91474952D01*
X172745380Y-91494000D01*
X172764428Y-91513047D01*
X172783476Y-91551142D01*
X172783476Y-91608285D01*
X172764428Y-91646380D01*
X172745380Y-91665428D01*
X172707285Y-91684476D01*
X172554904Y-91684476D01*
X172954904Y-91874952D02*
X172954904Y-91474952D01*
X173145380Y-91874952D02*
X173145380Y-91474952D01*
X173373952Y-91874952D01*
X173373952Y-91474952D01*
X169814904Y-91836857D02*
X169795857Y-91855904D01*
X169738714Y-91874952D01*
X169700619Y-91874952D01*
X169643476Y-91855904D01*
X169605380Y-91817809D01*
X169586333Y-91779714D01*
X169567285Y-91703523D01*
X169567285Y-91646380D01*
X169586333Y-91570190D01*
X169605380Y-91532095D01*
X169643476Y-91494000D01*
X169700619Y-91474952D01*
X169738714Y-91474952D01*
X169795857Y-91494000D01*
X169814904Y-91513047D01*
X170176809Y-91874952D02*
X169986333Y-91874952D01*
X169986333Y-91474952D01*
X170310142Y-91874952D02*
X170310142Y-91474952D01*
X170538714Y-91874952D02*
X170367285Y-91646380D01*
X170538714Y-91474952D02*
X170310142Y-91703523D01*
X167709857Y-91874952D02*
X167519380Y-91874952D01*
X167519380Y-91474952D01*
X167843190Y-91665428D02*
X167976523Y-91665428D01*
X168033666Y-91874952D02*
X167843190Y-91874952D01*
X167843190Y-91474952D01*
X168033666Y-91474952D01*
X166229333Y-112551333D02*
X166329333Y-112584666D01*
X166496000Y-112584666D01*
X166562666Y-112551333D01*
X166596000Y-112518000D01*
X166629333Y-112451333D01*
X166629333Y-112384666D01*
X166596000Y-112318000D01*
X166562666Y-112284666D01*
X166496000Y-112251333D01*
X166362666Y-112218000D01*
X166296000Y-112184666D01*
X166262666Y-112151333D01*
X166229333Y-112084666D01*
X166229333Y-112018000D01*
X166262666Y-111951333D01*
X166296000Y-111918000D01*
X166362666Y-111884666D01*
X166529333Y-111884666D01*
X166629333Y-111918000D01*
X166829333Y-111884666D02*
X167229333Y-111884666D01*
X167029333Y-112584666D02*
X167029333Y-111884666D01*
X167462666Y-112584666D02*
X167462666Y-111884666D01*
X167696000Y-112384666D01*
X167929333Y-111884666D01*
X167929333Y-112584666D01*
X168196000Y-111884666D02*
X168629333Y-111884666D01*
X168396000Y-112151333D01*
X168496000Y-112151333D01*
X168562666Y-112184666D01*
X168596000Y-112218000D01*
X168629333Y-112284666D01*
X168629333Y-112451333D01*
X168596000Y-112518000D01*
X168562666Y-112551333D01*
X168496000Y-112584666D01*
X168296000Y-112584666D01*
X168229333Y-112551333D01*
X168196000Y-112518000D01*
X168896000Y-111951333D02*
X168929333Y-111918000D01*
X168996000Y-111884666D01*
X169162666Y-111884666D01*
X169229333Y-111918000D01*
X169262666Y-111951333D01*
X169296000Y-112018000D01*
X169296000Y-112084666D01*
X169262666Y-112184666D01*
X168862666Y-112584666D01*
X169296000Y-112584666D01*
X170096000Y-112551333D02*
X170196000Y-112584666D01*
X170362666Y-112584666D01*
X170429333Y-112551333D01*
X170462666Y-112518000D01*
X170496000Y-112451333D01*
X170496000Y-112384666D01*
X170462666Y-112318000D01*
X170429333Y-112284666D01*
X170362666Y-112251333D01*
X170229333Y-112218000D01*
X170162666Y-112184666D01*
X170129333Y-112151333D01*
X170096000Y-112084666D01*
X170096000Y-112018000D01*
X170129333Y-111951333D01*
X170162666Y-111918000D01*
X170229333Y-111884666D01*
X170396000Y-111884666D01*
X170496000Y-111918000D01*
X170729333Y-111884666D02*
X170896000Y-112584666D01*
X171029333Y-112084666D01*
X171162666Y-112584666D01*
X171329333Y-111884666D01*
X171596000Y-112584666D02*
X171596000Y-111884666D01*
X171762666Y-111884666D01*
X171862666Y-111918000D01*
X171929333Y-111984666D01*
X171962666Y-112051333D01*
X171996000Y-112184666D01*
X171996000Y-112284666D01*
X171962666Y-112418000D01*
X171929333Y-112484666D01*
X171862666Y-112551333D01*
X171762666Y-112584666D01*
X171596000Y-112584666D01*
X172829333Y-112584666D02*
X172829333Y-111884666D01*
X172829333Y-112218000D02*
X173229333Y-112218000D01*
X173229333Y-112584666D02*
X173229333Y-111884666D01*
X173829333Y-112551333D02*
X173762666Y-112584666D01*
X173629333Y-112584666D01*
X173562666Y-112551333D01*
X173529333Y-112484666D01*
X173529333Y-112218000D01*
X173562666Y-112151333D01*
X173629333Y-112118000D01*
X173762666Y-112118000D01*
X173829333Y-112151333D01*
X173862666Y-112218000D01*
X173862666Y-112284666D01*
X173529333Y-112351333D01*
X174462666Y-112584666D02*
X174462666Y-112218000D01*
X174429333Y-112151333D01*
X174362666Y-112118000D01*
X174229333Y-112118000D01*
X174162666Y-112151333D01*
X174462666Y-112551333D02*
X174396000Y-112584666D01*
X174229333Y-112584666D01*
X174162666Y-112551333D01*
X174129333Y-112484666D01*
X174129333Y-112418000D01*
X174162666Y-112351333D01*
X174229333Y-112318000D01*
X174396000Y-112318000D01*
X174462666Y-112284666D01*
X175096000Y-112584666D02*
X175096000Y-111884666D01*
X175096000Y-112551333D02*
X175029333Y-112584666D01*
X174896000Y-112584666D01*
X174829333Y-112551333D01*
X174796000Y-112518000D01*
X174762666Y-112451333D01*
X174762666Y-112251333D01*
X174796000Y-112184666D01*
X174829333Y-112151333D01*
X174896000Y-112118000D01*
X175029333Y-112118000D01*
X175096000Y-112151333D01*
X175696000Y-112551333D02*
X175629333Y-112584666D01*
X175496000Y-112584666D01*
X175429333Y-112551333D01*
X175396000Y-112484666D01*
X175396000Y-112218000D01*
X175429333Y-112151333D01*
X175496000Y-112118000D01*
X175629333Y-112118000D01*
X175696000Y-112151333D01*
X175729333Y-112218000D01*
X175729333Y-112284666D01*
X175396000Y-112351333D01*
X176029333Y-112584666D02*
X176029333Y-112118000D01*
X176029333Y-112251333D02*
X176062666Y-112184666D01*
X176096000Y-112151333D01*
X176162666Y-112118000D01*
X176229333Y-112118000D01*
X172688428Y-120932571D02*
X172993190Y-120932571D01*
X172840809Y-121084952D02*
X172840809Y-120780190D01*
X173145571Y-120684952D02*
X173393190Y-120684952D01*
X173259857Y-120837333D01*
X173317000Y-120837333D01*
X173355095Y-120856380D01*
X173374142Y-120875428D01*
X173393190Y-120913523D01*
X173393190Y-121008761D01*
X173374142Y-121046857D01*
X173355095Y-121065904D01*
X173317000Y-121084952D01*
X173202714Y-121084952D01*
X173164619Y-121065904D01*
X173145571Y-121046857D01*
X173640809Y-120684952D02*
X173678904Y-120684952D01*
X173717000Y-120704000D01*
X173736047Y-120723047D01*
X173755095Y-120761142D01*
X173774142Y-120837333D01*
X173774142Y-120932571D01*
X173755095Y-121008761D01*
X173736047Y-121046857D01*
X173717000Y-121065904D01*
X173678904Y-121084952D01*
X173640809Y-121084952D01*
X173602714Y-121065904D01*
X173583666Y-121046857D01*
X173564619Y-121008761D01*
X173545571Y-120932571D01*
X173545571Y-120837333D01*
X173564619Y-120761142D01*
X173583666Y-120723047D01*
X173602714Y-120704000D01*
X173640809Y-120684952D01*
X173888428Y-120684952D02*
X174021761Y-121084952D01*
X174155095Y-120684952D01*
X174593190Y-121084952D02*
X174593190Y-120684952D01*
X174726523Y-120970666D01*
X174859857Y-120684952D01*
X174859857Y-121084952D01*
X175221761Y-121084952D02*
X175221761Y-120875428D01*
X175202714Y-120837333D01*
X175164619Y-120818285D01*
X175088428Y-120818285D01*
X175050333Y-120837333D01*
X175221761Y-121065904D02*
X175183666Y-121084952D01*
X175088428Y-121084952D01*
X175050333Y-121065904D01*
X175031285Y-121027809D01*
X175031285Y-120989714D01*
X175050333Y-120951619D01*
X175088428Y-120932571D01*
X175183666Y-120932571D01*
X175221761Y-120913523D01*
X175374142Y-121084952D02*
X175583666Y-120818285D01*
X175374142Y-120818285D02*
X175583666Y-121084952D01*
X171145238Y-120704000D02*
X171107142Y-120684952D01*
X171050000Y-120684952D01*
X170992857Y-120704000D01*
X170954761Y-120742095D01*
X170935714Y-120780190D01*
X170916666Y-120856380D01*
X170916666Y-120913523D01*
X170935714Y-120989714D01*
X170954761Y-121027809D01*
X170992857Y-121065904D01*
X171050000Y-121084952D01*
X171088095Y-121084952D01*
X171145238Y-121065904D01*
X171164285Y-121046857D01*
X171164285Y-120913523D01*
X171088095Y-120913523D01*
X171335714Y-121084952D02*
X171335714Y-120684952D01*
X171564285Y-121084952D01*
X171564285Y-120684952D01*
X171754761Y-121084952D02*
X171754761Y-120684952D01*
X171850000Y-120684952D01*
X171907142Y-120704000D01*
X171945238Y-120742095D01*
X171964285Y-120780190D01*
X171983333Y-120856380D01*
X171983333Y-120913523D01*
X171964285Y-120989714D01*
X171945238Y-121027809D01*
X171907142Y-121065904D01*
X171850000Y-121084952D01*
X171754761Y-121084952D01*
X173952000Y-116614571D02*
X174256761Y-116614571D01*
X174104380Y-116766952D02*
X174104380Y-116462190D01*
X174409142Y-116366952D02*
X174656761Y-116366952D01*
X174523428Y-116519333D01*
X174580571Y-116519333D01*
X174618666Y-116538380D01*
X174637714Y-116557428D01*
X174656761Y-116595523D01*
X174656761Y-116690761D01*
X174637714Y-116728857D01*
X174618666Y-116747904D01*
X174580571Y-116766952D01*
X174466285Y-116766952D01*
X174428190Y-116747904D01*
X174409142Y-116728857D01*
X174828190Y-116728857D02*
X174847238Y-116747904D01*
X174828190Y-116766952D01*
X174809142Y-116747904D01*
X174828190Y-116728857D01*
X174828190Y-116766952D01*
X174980571Y-116366952D02*
X175228190Y-116366952D01*
X175094857Y-116519333D01*
X175152000Y-116519333D01*
X175190095Y-116538380D01*
X175209142Y-116557428D01*
X175228190Y-116595523D01*
X175228190Y-116690761D01*
X175209142Y-116728857D01*
X175190095Y-116747904D01*
X175152000Y-116766952D01*
X175037714Y-116766952D01*
X174999619Y-116747904D01*
X174980571Y-116728857D01*
X175342476Y-116366952D02*
X175475809Y-116766952D01*
X175609142Y-116366952D01*
X166827238Y-116386000D02*
X166789142Y-116366952D01*
X166732000Y-116366952D01*
X166674857Y-116386000D01*
X166636761Y-116424095D01*
X166617714Y-116462190D01*
X166598666Y-116538380D01*
X166598666Y-116595523D01*
X166617714Y-116671714D01*
X166636761Y-116709809D01*
X166674857Y-116747904D01*
X166732000Y-116766952D01*
X166770095Y-116766952D01*
X166827238Y-116747904D01*
X166846285Y-116728857D01*
X166846285Y-116595523D01*
X166770095Y-116595523D01*
X167017714Y-116766952D02*
X167017714Y-116366952D01*
X167246285Y-116766952D01*
X167246285Y-116366952D01*
X167436761Y-116766952D02*
X167436761Y-116366952D01*
X167532000Y-116366952D01*
X167589142Y-116386000D01*
X167627238Y-116424095D01*
X167646285Y-116462190D01*
X167665333Y-116538380D01*
X167665333Y-116595523D01*
X167646285Y-116671714D01*
X167627238Y-116709809D01*
X167589142Y-116747904D01*
X167532000Y-116766952D01*
X167436761Y-116766952D01*
X171110380Y-116747904D02*
X171167523Y-116766952D01*
X171262761Y-116766952D01*
X171300857Y-116747904D01*
X171319904Y-116728857D01*
X171338952Y-116690761D01*
X171338952Y-116652666D01*
X171319904Y-116614571D01*
X171300857Y-116595523D01*
X171262761Y-116576476D01*
X171186571Y-116557428D01*
X171148476Y-116538380D01*
X171129428Y-116519333D01*
X171110380Y-116481238D01*
X171110380Y-116443142D01*
X171129428Y-116405047D01*
X171148476Y-116386000D01*
X171186571Y-116366952D01*
X171281809Y-116366952D01*
X171338952Y-116386000D01*
X171472285Y-116366952D02*
X171567523Y-116766952D01*
X171643714Y-116481238D01*
X171719904Y-116766952D01*
X171815142Y-116366952D01*
X171967523Y-116766952D02*
X171967523Y-116366952D01*
X172062761Y-116366952D01*
X172119904Y-116386000D01*
X172158000Y-116424095D01*
X172177047Y-116462190D01*
X172196095Y-116538380D01*
X172196095Y-116595523D01*
X172177047Y-116671714D01*
X172158000Y-116709809D01*
X172119904Y-116747904D01*
X172062761Y-116766952D01*
X171967523Y-116766952D01*
X172367523Y-116766952D02*
X172367523Y-116366952D01*
X172634190Y-116366952D02*
X172710380Y-116366952D01*
X172748476Y-116386000D01*
X172786571Y-116424095D01*
X172805619Y-116500285D01*
X172805619Y-116633619D01*
X172786571Y-116709809D01*
X172748476Y-116747904D01*
X172710380Y-116766952D01*
X172634190Y-116766952D01*
X172596095Y-116747904D01*
X172558000Y-116709809D01*
X172538952Y-116633619D01*
X172538952Y-116500285D01*
X172558000Y-116424095D01*
X172596095Y-116386000D01*
X172634190Y-116366952D01*
X168513238Y-116747904D02*
X168570380Y-116766952D01*
X168665619Y-116766952D01*
X168703714Y-116747904D01*
X168722761Y-116728857D01*
X168741809Y-116690761D01*
X168741809Y-116652666D01*
X168722761Y-116614571D01*
X168703714Y-116595523D01*
X168665619Y-116576476D01*
X168589428Y-116557428D01*
X168551333Y-116538380D01*
X168532285Y-116519333D01*
X168513238Y-116481238D01*
X168513238Y-116443142D01*
X168532285Y-116405047D01*
X168551333Y-116386000D01*
X168589428Y-116366952D01*
X168684666Y-116366952D01*
X168741809Y-116386000D01*
X168875142Y-116366952D02*
X168970380Y-116766952D01*
X169046571Y-116481238D01*
X169122761Y-116766952D01*
X169218000Y-116366952D01*
X169598952Y-116728857D02*
X169579904Y-116747904D01*
X169522761Y-116766952D01*
X169484666Y-116766952D01*
X169427523Y-116747904D01*
X169389428Y-116709809D01*
X169370380Y-116671714D01*
X169351333Y-116595523D01*
X169351333Y-116538380D01*
X169370380Y-116462190D01*
X169389428Y-116424095D01*
X169427523Y-116386000D01*
X169484666Y-116366952D01*
X169522761Y-116366952D01*
X169579904Y-116386000D01*
X169598952Y-116405047D01*
X169960857Y-116766952D02*
X169770380Y-116766952D01*
X169770380Y-116366952D01*
X170094190Y-116766952D02*
X170094190Y-116366952D01*
X170322761Y-116766952D02*
X170151333Y-116538380D01*
X170322761Y-116366952D02*
X170094190Y-116595523D01*
D12*
X204740000Y-83018380D02*
X204930476Y-83018380D01*
X205025714Y-83066000D01*
X205120952Y-83161238D01*
X205168571Y-83351714D01*
X205168571Y-83685047D01*
X205120952Y-83875523D01*
X205025714Y-83970761D01*
X204930476Y-84018380D01*
X204740000Y-84018380D01*
X204644761Y-83970761D01*
X204549523Y-83875523D01*
X204501904Y-83685047D01*
X204501904Y-83351714D01*
X204549523Y-83161238D01*
X204644761Y-83066000D01*
X204740000Y-83018380D01*
X205597142Y-83018380D02*
X205597142Y-83827904D01*
X205644761Y-83923142D01*
X205692380Y-83970761D01*
X205787619Y-84018380D01*
X205978095Y-84018380D01*
X206073333Y-83970761D01*
X206120952Y-83923142D01*
X206168571Y-83827904D01*
X206168571Y-83018380D01*
X206501904Y-83018380D02*
X207073333Y-83018380D01*
X206787619Y-84018380D02*
X206787619Y-83018380D01*
X175752190Y-84018380D02*
X175752190Y-83018380D01*
X176228380Y-84018380D02*
X176228380Y-83018380D01*
X176799809Y-84018380D01*
X176799809Y-83018380D01*
X166705595Y-88336380D02*
X166705595Y-87336380D01*
X167038928Y-88050666D01*
X167372261Y-87336380D01*
X167372261Y-88336380D01*
X168277023Y-88336380D02*
X168277023Y-87812571D01*
X168229404Y-87717333D01*
X168134166Y-87669714D01*
X167943690Y-87669714D01*
X167848452Y-87717333D01*
X168277023Y-88288761D02*
X168181785Y-88336380D01*
X167943690Y-88336380D01*
X167848452Y-88288761D01*
X167800833Y-88193523D01*
X167800833Y-88098285D01*
X167848452Y-88003047D01*
X167943690Y-87955428D01*
X168181785Y-87955428D01*
X168277023Y-87907809D01*
X168657976Y-88336380D02*
X169181785Y-87669714D01*
X168657976Y-87669714D02*
X169181785Y-88336380D01*
X170324642Y-88336380D02*
X170324642Y-87336380D01*
X170800833Y-87669714D02*
X170800833Y-88336380D01*
X170800833Y-87764952D02*
X170848452Y-87717333D01*
X170943690Y-87669714D01*
X171086547Y-87669714D01*
X171181785Y-87717333D01*
X171229404Y-87812571D01*
X171229404Y-88336380D01*
X171705595Y-87669714D02*
X171705595Y-88669714D01*
X171705595Y-87717333D02*
X171800833Y-87669714D01*
X171991309Y-87669714D01*
X172086547Y-87717333D01*
X172134166Y-87764952D01*
X172181785Y-87860190D01*
X172181785Y-88145904D01*
X172134166Y-88241142D01*
X172086547Y-88288761D01*
X171991309Y-88336380D01*
X171800833Y-88336380D01*
X171705595Y-88288761D01*
X173038928Y-87669714D02*
X173038928Y-88336380D01*
X172610357Y-87669714D02*
X172610357Y-88193523D01*
X172657976Y-88288761D01*
X172753214Y-88336380D01*
X172896071Y-88336380D01*
X172991309Y-88288761D01*
X173038928Y-88241142D01*
X173372261Y-87669714D02*
X173753214Y-87669714D01*
X173515119Y-87336380D02*
X173515119Y-88193523D01*
X173562738Y-88288761D01*
X173657976Y-88336380D01*
X173753214Y-88336380D01*
X175372261Y-88336380D02*
X174800833Y-88336380D01*
X175086547Y-88336380D02*
X175086547Y-87336380D01*
X174991309Y-87479238D01*
X174896071Y-87574476D01*
X174800833Y-87622095D01*
X176324642Y-88336380D02*
X175753214Y-88336380D01*
X176038928Y-88336380D02*
X176038928Y-87336380D01*
X175943690Y-87479238D01*
X175848452Y-87574476D01*
X175753214Y-87622095D01*
X177181785Y-88336380D02*
X177181785Y-87336380D01*
X177181785Y-88288761D02*
X177086547Y-88336380D01*
X176896071Y-88336380D01*
X176800833Y-88288761D01*
X176753214Y-88241142D01*
X176705595Y-88145904D01*
X176705595Y-87860190D01*
X176753214Y-87764952D01*
X176800833Y-87717333D01*
X176896071Y-87669714D01*
X177086547Y-87669714D01*
X177181785Y-87717333D01*
X177991309Y-87812571D02*
X178134166Y-87860190D01*
X178181785Y-87907809D01*
X178229404Y-88003047D01*
X178229404Y-88145904D01*
X178181785Y-88241142D01*
X178134166Y-88288761D01*
X178038928Y-88336380D01*
X177657976Y-88336380D01*
X177657976Y-87336380D01*
X177991309Y-87336380D01*
X178086547Y-87384000D01*
X178134166Y-87431619D01*
X178181785Y-87526857D01*
X178181785Y-87622095D01*
X178134166Y-87717333D01*
X178086547Y-87764952D01*
X177991309Y-87812571D01*
X177657976Y-87812571D01*
X178657976Y-88336380D02*
X178657976Y-87669714D01*
X178657976Y-87764952D02*
X178705595Y-87717333D01*
X178800833Y-87669714D01*
X178943690Y-87669714D01*
X179038928Y-87717333D01*
X179086547Y-87812571D01*
X179086547Y-88336380D01*
X179086547Y-87812571D02*
X179134166Y-87717333D01*
X179229404Y-87669714D01*
X179372261Y-87669714D01*
X179467500Y-87717333D01*
X179515119Y-87812571D01*
X179515119Y-88336380D01*
D13*
X195975464Y-90120800D02*
X195521336Y-90120800D01*
X195975464Y-91590800D02*
X195521336Y-91590800D01*
X188232622Y-89737000D02*
X187433378Y-89737000D01*
X188232622Y-90857000D02*
X187433378Y-90857000D01*
X188105622Y-86562000D02*
X187306378Y-86562000D01*
X188105622Y-87682000D02*
X187306378Y-87682000D01*
X197350748Y-74322000D02*
X197873252Y-74322000D01*
X197350748Y-75792000D02*
X197873252Y-75792000D01*
X196058200Y-77753080D02*
X196058200Y-77552680D01*
X196778200Y-77753080D02*
X196778200Y-77552680D01*
D14*
G36*
X216399560Y-84702579D02*
G01*
X216404951Y-84756679D01*
X216378462Y-84841644D01*
X216357044Y-84887105D01*
X216296273Y-84989763D01*
X216231509Y-85072427D01*
X216168806Y-85130878D01*
X216114219Y-85160898D01*
X216073801Y-85158270D01*
X216053608Y-85118775D01*
X216052400Y-85099348D01*
X216068305Y-85027157D01*
X216110055Y-84940133D01*
X216168698Y-84850289D01*
X216235286Y-84769635D01*
X216300867Y-84710183D01*
X216356492Y-84683946D01*
X216362182Y-84683600D01*
X216399560Y-84702579D01*
G37*
X216399560Y-84702579D02*
X216404951Y-84756679D01*
X216378462Y-84841644D01*
X216357044Y-84887105D01*
X216296273Y-84989763D01*
X216231509Y-85072427D01*
X216168806Y-85130878D01*
X216114219Y-85160898D01*
X216073801Y-85158270D01*
X216053608Y-85118775D01*
X216052400Y-85099348D01*
X216068305Y-85027157D01*
X216110055Y-84940133D01*
X216168698Y-84850289D01*
X216235286Y-84769635D01*
X216300867Y-84710183D01*
X216356492Y-84683946D01*
X216362182Y-84683600D01*
X216399560Y-84702579D01*
G36*
X214602999Y-84669910D02*
G01*
X214628620Y-84713955D01*
X214616617Y-84789721D01*
X214567477Y-84895344D01*
X214526396Y-84963018D01*
X214472874Y-85050377D01*
X214405305Y-85167281D01*
X214332631Y-85297968D01*
X214268432Y-85417806D01*
X214176983Y-85586690D01*
X214103547Y-85709491D01*
X214047144Y-85787241D01*
X214006797Y-85820974D01*
X213981528Y-85811722D01*
X213970359Y-85760519D01*
X213969600Y-85733464D01*
X213980104Y-85669588D01*
X214012991Y-85577726D01*
X214070322Y-85452813D01*
X214136875Y-85322443D01*
X214254102Y-85105208D01*
X214353473Y-84933387D01*
X214436184Y-84805304D01*
X214503434Y-84719282D01*
X214556420Y-84673645D01*
X214596340Y-84666715D01*
X214602999Y-84669910D01*
G37*
X214602999Y-84669910D02*
X214628620Y-84713955D01*
X214616617Y-84789721D01*
X214567477Y-84895344D01*
X214526396Y-84963018D01*
X214472874Y-85050377D01*
X214405305Y-85167281D01*
X214332631Y-85297968D01*
X214268432Y-85417806D01*
X214176983Y-85586690D01*
X214103547Y-85709491D01*
X214047144Y-85787241D01*
X214006797Y-85820974D01*
X213981528Y-85811722D01*
X213970359Y-85760519D01*
X213969600Y-85733464D01*
X213980104Y-85669588D01*
X214012991Y-85577726D01*
X214070322Y-85452813D01*
X214136875Y-85322443D01*
X214254102Y-85105208D01*
X214353473Y-84933387D01*
X214436184Y-84805304D01*
X214503434Y-84719282D01*
X214556420Y-84673645D01*
X214596340Y-84666715D01*
X214602999Y-84669910D01*
G36*
X210172419Y-86044897D02*
G01*
X210237073Y-86073725D01*
X210318242Y-86121205D01*
X210404700Y-86180370D01*
X210485221Y-86244251D01*
X210531514Y-86287501D01*
X210592461Y-86364359D01*
X210610964Y-86420618D01*
X210592418Y-86452776D01*
X210542216Y-86457330D01*
X210465752Y-86430778D01*
X210385660Y-86382219D01*
X210253293Y-86280233D01*
X210162756Y-86192562D01*
X210115305Y-86120918D01*
X210112198Y-86067010D01*
X210135508Y-86041691D01*
X210172419Y-86044897D01*
G37*
X210172419Y-86044897D02*
X210237073Y-86073725D01*
X210318242Y-86121205D01*
X210404700Y-86180370D01*
X210485221Y-86244251D01*
X210531514Y-86287501D01*
X210592461Y-86364359D01*
X210610964Y-86420618D01*
X210592418Y-86452776D01*
X210542216Y-86457330D01*
X210465752Y-86430778D01*
X210385660Y-86382219D01*
X210253293Y-86280233D01*
X210162756Y-86192562D01*
X210115305Y-86120918D01*
X210112198Y-86067010D01*
X210135508Y-86041691D01*
X210172419Y-86044897D01*
G36*
X211983961Y-86186706D02*
G01*
X211968526Y-86227682D01*
X211921211Y-86282844D01*
X211845348Y-86347339D01*
X211744273Y-86416312D01*
X211727289Y-86426657D01*
X211636398Y-86483447D01*
X211552906Y-86539422D01*
X211497501Y-86580434D01*
X211427374Y-86623659D01*
X211363463Y-86639268D01*
X211317898Y-86626629D01*
X211302600Y-86590569D01*
X211324301Y-86536976D01*
X211382998Y-86469920D01*
X211469083Y-86396154D01*
X211572946Y-86322429D01*
X211684978Y-86255496D01*
X211795570Y-86202107D01*
X211895112Y-86169012D01*
X211905850Y-86166727D01*
X211964180Y-86164770D01*
X211983961Y-86186706D01*
G37*
X211983961Y-86186706D02*
X211968526Y-86227682D01*
X211921211Y-86282844D01*
X211845348Y-86347339D01*
X211744273Y-86416312D01*
X211727289Y-86426657D01*
X211636398Y-86483447D01*
X211552906Y-86539422D01*
X211497501Y-86580434D01*
X211427374Y-86623659D01*
X211363463Y-86639268D01*
X211317898Y-86626629D01*
X211302600Y-86590569D01*
X211324301Y-86536976D01*
X211382998Y-86469920D01*
X211469083Y-86396154D01*
X211572946Y-86322429D01*
X211684978Y-86255496D01*
X211795570Y-86202107D01*
X211895112Y-86169012D01*
X211905850Y-86166727D01*
X211964180Y-86164770D01*
X211983961Y-86186706D01*
G36*
X208245343Y-85936039D02*
G01*
X208254600Y-85958166D01*
X208242973Y-85989277D01*
X208210714Y-86057067D01*
X208161755Y-86153745D01*
X208100028Y-86271526D01*
X208039805Y-86383616D01*
X207958813Y-86534861D01*
X207876432Y-86692395D01*
X207799995Y-86841947D01*
X207736836Y-86969244D01*
X207710317Y-87024810D01*
X207647547Y-87147663D01*
X207587265Y-87245083D01*
X207533220Y-87313740D01*
X207489164Y-87350305D01*
X207458848Y-87351449D01*
X207446022Y-87313842D01*
X207450592Y-87255350D01*
X207470497Y-87186572D01*
X207511627Y-87082562D01*
X207569583Y-86951919D01*
X207639971Y-86803244D01*
X207718391Y-86645138D01*
X207800449Y-86486200D01*
X207881746Y-86335033D01*
X207957887Y-86200236D01*
X208024473Y-86090409D01*
X208077110Y-86014155D01*
X208096781Y-85991345D01*
X208153386Y-85948769D01*
X208207550Y-85929357D01*
X208245343Y-85936039D01*
G37*
X208245343Y-85936039D02*
X208254600Y-85958166D01*
X208242973Y-85989277D01*
X208210714Y-86057067D01*
X208161755Y-86153745D01*
X208100028Y-86271526D01*
X208039805Y-86383616D01*
X207958813Y-86534861D01*
X207876432Y-86692395D01*
X207799995Y-86841947D01*
X207736836Y-86969244D01*
X207710317Y-87024810D01*
X207647547Y-87147663D01*
X207587265Y-87245083D01*
X207533220Y-87313740D01*
X207489164Y-87350305D01*
X207458848Y-87351449D01*
X207446022Y-87313842D01*
X207450592Y-87255350D01*
X207470497Y-87186572D01*
X207511627Y-87082562D01*
X207569583Y-86951919D01*
X207639971Y-86803244D01*
X207718391Y-86645138D01*
X207800449Y-86486200D01*
X207881746Y-86335033D01*
X207957887Y-86200236D01*
X208024473Y-86090409D01*
X208077110Y-86014155D01*
X208096781Y-85991345D01*
X208153386Y-85948769D01*
X208207550Y-85929357D01*
X208245343Y-85936039D01*
G36*
X211248314Y-86086801D02*
G01*
X211265755Y-86132313D01*
X211257387Y-86204687D01*
X211223286Y-86311315D01*
X211208051Y-86351085D01*
X211165415Y-86463669D01*
X211125219Y-86576724D01*
X211095333Y-86668016D01*
X211092506Y-86677500D01*
X211055315Y-86804500D01*
X211655207Y-86806297D01*
X211934621Y-86809583D01*
X212174858Y-86818524D01*
X212387360Y-86834468D01*
X212583568Y-86858762D01*
X212774923Y-86892752D01*
X212972865Y-86937786D01*
X213136486Y-86980703D01*
X213568704Y-87119384D01*
X214004622Y-87297600D01*
X214428215Y-87508071D01*
X214823460Y-87743516D01*
X214841433Y-87755313D01*
X215189743Y-88003747D01*
X215524577Y-88279175D01*
X215840758Y-88575750D01*
X216133111Y-88887622D01*
X216396457Y-89208944D01*
X216625622Y-89533867D01*
X216815430Y-89856543D01*
X216944932Y-90131900D01*
X216994785Y-90260292D01*
X217039643Y-90388873D01*
X217076777Y-90508214D01*
X217103459Y-90608884D01*
X217116959Y-90681454D01*
X217114547Y-90716493D01*
X217114222Y-90716844D01*
X217083218Y-90720510D01*
X217017411Y-90715046D01*
X216940854Y-90703301D01*
X216813463Y-90687626D01*
X216692125Y-90691210D01*
X216559400Y-90715852D01*
X216415862Y-90757504D01*
X216213041Y-90846555D01*
X216013504Y-90979039D01*
X215825440Y-91147824D01*
X215657040Y-91345779D01*
X215544283Y-91516399D01*
X215439491Y-91695827D01*
X215381019Y-91650463D01*
X215339507Y-91616246D01*
X215269777Y-91556676D01*
X215181579Y-91480152D01*
X215085233Y-91395580D01*
X214845699Y-91206710D01*
X214607533Y-91066063D01*
X214365288Y-90971521D01*
X214113516Y-90920965D01*
X213846769Y-90912278D01*
X213842600Y-90912457D01*
X213595335Y-90941518D01*
X213366069Y-91008040D01*
X213148919Y-91115067D01*
X212938002Y-91265644D01*
X212727434Y-91462814D01*
X212678832Y-91514640D01*
X212596500Y-91602837D01*
X212526136Y-91675409D01*
X212474945Y-91725121D01*
X212450132Y-91744737D01*
X212449658Y-91744800D01*
X212427346Y-91724619D01*
X212394218Y-91674496D01*
X212384989Y-91657967D01*
X212320415Y-91563960D01*
X212224506Y-91456358D01*
X212109676Y-91347387D01*
X211988337Y-91249274D01*
X211926732Y-91206568D01*
X211848476Y-91162305D01*
X211748993Y-91114818D01*
X211642748Y-91069997D01*
X211544204Y-91033732D01*
X211467826Y-91011914D01*
X211439624Y-91008200D01*
X211437986Y-91032934D01*
X211436432Y-91104474D01*
X211434983Y-91218827D01*
X211433660Y-91371999D01*
X211432486Y-91559996D01*
X211431481Y-91778823D01*
X211430669Y-92024488D01*
X211430070Y-92292997D01*
X211429707Y-92580355D01*
X211429600Y-92849700D01*
X211429600Y-94691200D01*
X211514563Y-94691200D01*
X211578700Y-94697166D01*
X211626182Y-94719599D01*
X211660172Y-94765302D01*
X211683834Y-94841074D01*
X211700334Y-94953719D01*
X211712834Y-95110037D01*
X211713377Y-95118585D01*
X211727631Y-95280067D01*
X211749105Y-95440852D01*
X211775963Y-95593057D01*
X211806367Y-95728801D01*
X211838482Y-95840202D01*
X211870470Y-95919379D01*
X211900495Y-95958450D01*
X211909727Y-95961200D01*
X211942109Y-95941786D01*
X211985532Y-95894737D01*
X212026399Y-95836841D01*
X212050294Y-95787655D01*
X212059171Y-95745698D01*
X212072647Y-95666125D01*
X212088649Y-95561681D01*
X212100201Y-95480906D01*
X212124034Y-95334636D01*
X212152000Y-95227780D01*
X212189530Y-95148969D01*
X212242056Y-95086833D01*
X212315007Y-95030003D01*
X212315867Y-95029417D01*
X212406048Y-94987972D01*
X212524903Y-94959632D01*
X212651216Y-94947923D01*
X212759781Y-94955601D01*
X212884322Y-95003737D01*
X212999732Y-95096063D01*
X213100632Y-95226105D01*
X213181644Y-95387393D01*
X213222968Y-95512894D01*
X213246079Y-95646041D01*
X213255922Y-95808986D01*
X213252609Y-95982517D01*
X213236247Y-96147425D01*
X213218827Y-96240214D01*
X213138949Y-96485129D01*
X213021144Y-96714973D01*
X212871328Y-96922675D01*
X212695419Y-97101161D01*
X212499330Y-97243361D01*
X212300398Y-97338164D01*
X212177020Y-97370677D01*
X212028731Y-97392089D01*
X211875000Y-97401064D01*
X211735294Y-97396266D01*
X211651024Y-97382724D01*
X211474660Y-97315545D01*
X211299569Y-97206146D01*
X211136134Y-97062284D01*
X210995953Y-96893445D01*
X210890011Y-96713637D01*
X210802662Y-96500985D01*
X210733187Y-96252335D01*
X210680867Y-95964535D01*
X210644982Y-95634432D01*
X210625124Y-95268646D01*
X210620039Y-95100386D01*
X210617554Y-94975393D01*
X210618098Y-94886182D01*
X210621860Y-94828907D01*
X210848211Y-94828907D01*
X210864809Y-94832115D01*
X210923214Y-94834118D01*
X210985100Y-94834584D01*
X211071315Y-94833737D01*
X211120549Y-94831343D01*
X211127613Y-94827810D01*
X211106516Y-94825039D01*
X211010623Y-94821074D01*
X210904492Y-94823179D01*
X210877916Y-94824898D01*
X210848211Y-94828907D01*
X210621860Y-94828907D01*
X210622100Y-94825267D01*
X210622925Y-94821067D01*
X211340700Y-94821067D01*
X211429600Y-94852872D01*
X211498502Y-94874753D01*
X211527785Y-94874979D01*
X211524041Y-94852994D01*
X211519544Y-94845289D01*
X211484746Y-94826800D01*
X211423858Y-94819605D01*
X211421750Y-94819633D01*
X211340700Y-94821067D01*
X210622925Y-94821067D01*
X210629986Y-94785161D01*
X210642186Y-94758378D01*
X210655265Y-94741596D01*
X210711921Y-94702846D01*
X210760436Y-94691200D01*
X210972068Y-94691200D01*
X211302600Y-94691200D01*
X211302600Y-90980375D01*
X211143850Y-90987937D01*
X210985100Y-90995500D01*
X210972068Y-94691200D01*
X210760436Y-94691200D01*
X210807458Y-94678343D01*
X210820456Y-94634050D01*
X210821844Y-94591778D01*
X210825447Y-94507544D01*
X210830858Y-94390116D01*
X210837673Y-94248263D01*
X210845485Y-94090755D01*
X210846587Y-94068900D01*
X210852568Y-93910827D01*
X210856974Y-93708308D01*
X210859775Y-93467674D01*
X210860939Y-93195256D01*
X210860439Y-92897384D01*
X210858244Y-92580390D01*
X210854952Y-92295469D01*
X210837642Y-91030039D01*
X210772713Y-91046336D01*
X210621214Y-91102624D01*
X210459148Y-91193784D01*
X210300026Y-91309956D01*
X210157363Y-91441283D01*
X210045300Y-91576993D01*
X209943700Y-91724804D01*
X209867500Y-91629694D01*
X209682783Y-91415832D01*
X209505384Y-91247355D01*
X209329006Y-91120706D01*
X209147356Y-91032326D01*
X208954139Y-90978658D01*
X208743060Y-90956144D01*
X208673700Y-90954933D01*
X208400829Y-90977083D01*
X208153030Y-91042034D01*
X207932577Y-91148213D01*
X207741739Y-91294050D01*
X207582790Y-91477973D01*
X207458002Y-91698410D01*
X207405630Y-91832045D01*
X207394232Y-91847422D01*
X207372334Y-91843557D01*
X207334422Y-91816219D01*
X207274982Y-91761176D01*
X207188498Y-91674197D01*
X207155045Y-91639788D01*
X206928206Y-91427286D01*
X206704500Y-91262906D01*
X206479354Y-91144560D01*
X206248193Y-91070157D01*
X206006443Y-91037608D01*
X205837804Y-91038094D01*
X205734185Y-91045910D01*
X205647335Y-91060021D01*
X205560720Y-91084917D01*
X205457807Y-91125093D01*
X205360051Y-91167922D01*
X205254424Y-91213977D01*
X205166827Y-91249691D01*
X205106886Y-91271307D01*
X205084456Y-91275522D01*
X205078672Y-91238939D01*
X205087982Y-91162815D01*
X205110153Y-91055362D01*
X205142950Y-90924792D01*
X205184140Y-90779318D01*
X205231489Y-90627153D01*
X205282764Y-90476507D01*
X205335730Y-90335594D01*
X205349112Y-90302513D01*
X205526712Y-89931912D01*
X205751399Y-89565855D01*
X206019462Y-89208328D01*
X206280042Y-88916178D01*
X210342620Y-88916178D01*
X210356986Y-88982477D01*
X210413454Y-89059309D01*
X210505435Y-89142704D01*
X210626344Y-89228694D01*
X210769595Y-89313312D01*
X210928602Y-89392590D01*
X211096778Y-89462558D01*
X211267538Y-89519250D01*
X211397023Y-89551438D01*
X211538770Y-89574116D01*
X211686787Y-89582389D01*
X211861400Y-89577544D01*
X212025391Y-89571490D01*
X212150218Y-89576128D01*
X212246883Y-89594170D01*
X212326390Y-89628324D01*
X212399744Y-89681304D01*
X212442832Y-89720782D01*
X212574230Y-89831465D01*
X212694767Y-89896191D01*
X212810293Y-89916974D01*
X212926658Y-89895830D01*
X212938537Y-89891498D01*
X212993546Y-89852165D01*
X213019671Y-89783567D01*
X213018157Y-89680116D01*
X213004135Y-89597223D01*
X212989142Y-89498496D01*
X212995837Y-89423366D01*
X213030306Y-89359382D01*
X213098638Y-89294093D01*
X213182776Y-89231853D01*
X213298773Y-89142266D01*
X213392601Y-89053592D01*
X213457363Y-88973376D01*
X213486162Y-88909162D01*
X213487000Y-88899116D01*
X213471542Y-88856836D01*
X213428071Y-88852349D01*
X213360937Y-88884290D01*
X213274492Y-88951295D01*
X213250529Y-88973220D01*
X213160791Y-89051600D01*
X213062498Y-89128402D01*
X212993161Y-89176366D01*
X212867622Y-89255493D01*
X212759177Y-89030017D01*
X212697044Y-88913275D01*
X212633683Y-88815303D01*
X212573543Y-88740005D01*
X212550703Y-88718798D01*
X212654701Y-88718798D01*
X212675212Y-88761520D01*
X212727420Y-88796031D01*
X212782226Y-88780089D01*
X212796120Y-88767920D01*
X212824775Y-88708510D01*
X212809772Y-88645442D01*
X212786370Y-88618833D01*
X212735837Y-88600743D01*
X212690252Y-88620098D01*
X212659808Y-88663811D01*
X212654701Y-88718798D01*
X212550703Y-88718798D01*
X212521071Y-88691285D01*
X212480717Y-88673050D01*
X212456928Y-88689204D01*
X212454154Y-88743652D01*
X212457552Y-88765247D01*
X212476695Y-88837472D01*
X212511196Y-88924102D01*
X212564670Y-89032683D01*
X212640734Y-89170765D01*
X212704640Y-89281000D01*
X212792773Y-89438841D01*
X212849581Y-89560767D01*
X212875711Y-89650336D01*
X212871811Y-89711110D01*
X212838530Y-89746647D01*
X212791683Y-89759242D01*
X212720499Y-89743308D01*
X212635871Y-89683981D01*
X212541658Y-89585632D01*
X212441716Y-89452634D01*
X212339905Y-89289355D01*
X212279903Y-89179400D01*
X212211643Y-89051741D01*
X212159653Y-88964185D01*
X212119541Y-88910424D01*
X212086917Y-88884150D01*
X212070950Y-88879183D01*
X212030836Y-88881113D01*
X212015556Y-88911791D01*
X212013800Y-88949877D01*
X212027695Y-89024191D01*
X212064953Y-89124541D01*
X212118930Y-89235971D01*
X212182982Y-89343525D01*
X212199185Y-89367199D01*
X212251055Y-89440698D01*
X211884777Y-89426650D01*
X211582224Y-89403545D01*
X211317240Y-89357094D01*
X211080839Y-89284274D01*
X210864033Y-89182061D01*
X210657835Y-89047432D01*
X210581983Y-88988435D01*
X210484373Y-88913074D01*
X210417134Y-88871741D01*
X210374549Y-88862710D01*
X210350902Y-88884257D01*
X210342620Y-88916178D01*
X206280042Y-88916178D01*
X206327193Y-88863315D01*
X206408393Y-88785700D01*
X211201000Y-88785700D01*
X211221925Y-88838973D01*
X211271839Y-88890347D01*
X211331443Y-88922132D01*
X211353400Y-88925400D01*
X211408694Y-88908161D01*
X211455000Y-88874600D01*
X211492675Y-88824313D01*
X211505800Y-88785700D01*
X211484874Y-88732426D01*
X211434960Y-88681052D01*
X211375356Y-88649267D01*
X211353400Y-88646000D01*
X211295283Y-88665182D01*
X211239238Y-88710935D01*
X211204564Y-88765572D01*
X211201000Y-88785700D01*
X206408393Y-88785700D01*
X206670880Y-88534802D01*
X207046814Y-88226774D01*
X207214086Y-88109506D01*
X207841725Y-88109506D01*
X207850400Y-88127951D01*
X207885017Y-88151845D01*
X207934390Y-88151094D01*
X208005107Y-88123450D01*
X208103753Y-88066663D01*
X208185117Y-88013630D01*
X208375443Y-87896510D01*
X208594305Y-87778903D01*
X208822105Y-87670466D01*
X209039240Y-87580858D01*
X209126064Y-87549980D01*
X209272249Y-87499412D01*
X209377673Y-87458349D01*
X209450589Y-87422945D01*
X209499250Y-87389356D01*
X209523210Y-87364974D01*
X209537382Y-87340958D01*
X209521691Y-87329138D01*
X209467241Y-87325378D01*
X209437700Y-87325200D01*
X209332007Y-87338633D01*
X209191775Y-87376634D01*
X209024846Y-87435756D01*
X208839057Y-87512551D01*
X208642247Y-87603570D01*
X208442256Y-87705366D01*
X208246921Y-87814491D01*
X208064084Y-87927498D01*
X208055485Y-87933139D01*
X207951830Y-88002712D01*
X207885619Y-88051529D01*
X207850901Y-88085242D01*
X207841725Y-88109506D01*
X207214086Y-88109506D01*
X207451284Y-87943216D01*
X207673737Y-87805527D01*
X207927626Y-87665166D01*
X208212636Y-87524610D01*
X208514728Y-87389785D01*
X208819860Y-87266619D01*
X209113992Y-87161039D01*
X209383085Y-87078974D01*
X209414609Y-87070573D01*
X209541591Y-87036408D01*
X209659796Y-87002907D01*
X209755323Y-86974111D01*
X209810913Y-86955368D01*
X209877874Y-86937296D01*
X209979038Y-86918822D01*
X210097906Y-86902713D01*
X210166513Y-86895717D01*
X210284381Y-86883199D01*
X210390258Y-86868258D01*
X210469292Y-86853172D01*
X210497803Y-86844937D01*
X210562345Y-86829729D01*
X210654326Y-86819427D01*
X210726403Y-86816658D01*
X210883500Y-86816117D01*
X210954930Y-86596715D01*
X211008275Y-86442406D01*
X211061543Y-86305481D01*
X211111593Y-86192670D01*
X211155284Y-86110705D01*
X211189475Y-86066319D01*
X211204985Y-86060761D01*
X211248314Y-86086801D01*
G37*
X211248314Y-86086801D02*
X211265755Y-86132313D01*
X211257387Y-86204687D01*
X211223286Y-86311315D01*
X211208051Y-86351085D01*
X211165415Y-86463669D01*
X211125219Y-86576724D01*
X211095333Y-86668016D01*
X211092506Y-86677500D01*
X211055315Y-86804500D01*
X211655207Y-86806297D01*
X211934621Y-86809583D01*
X212174858Y-86818524D01*
X212387360Y-86834468D01*
X212583568Y-86858762D01*
X212774923Y-86892752D01*
X212972865Y-86937786D01*
X213136486Y-86980703D01*
X213568704Y-87119384D01*
X214004622Y-87297600D01*
X214428215Y-87508071D01*
X214823460Y-87743516D01*
X214841433Y-87755313D01*
X215189743Y-88003747D01*
X215524577Y-88279175D01*
X215840758Y-88575750D01*
X216133111Y-88887622D01*
X216396457Y-89208944D01*
X216625622Y-89533867D01*
X216815430Y-89856543D01*
X216944932Y-90131900D01*
X216994785Y-90260292D01*
X217039643Y-90388873D01*
X217076777Y-90508214D01*
X217103459Y-90608884D01*
X217116959Y-90681454D01*
X217114547Y-90716493D01*
X217114222Y-90716844D01*
X217083218Y-90720510D01*
X217017411Y-90715046D01*
X216940854Y-90703301D01*
X216813463Y-90687626D01*
X216692125Y-90691210D01*
X216559400Y-90715852D01*
X216415862Y-90757504D01*
X216213041Y-90846555D01*
X216013504Y-90979039D01*
X215825440Y-91147824D01*
X215657040Y-91345779D01*
X215544283Y-91516399D01*
X215439491Y-91695827D01*
X215381019Y-91650463D01*
X215339507Y-91616246D01*
X215269777Y-91556676D01*
X215181579Y-91480152D01*
X215085233Y-91395580D01*
X214845699Y-91206710D01*
X214607533Y-91066063D01*
X214365288Y-90971521D01*
X214113516Y-90920965D01*
X213846769Y-90912278D01*
X213842600Y-90912457D01*
X213595335Y-90941518D01*
X213366069Y-91008040D01*
X213148919Y-91115067D01*
X212938002Y-91265644D01*
X212727434Y-91462814D01*
X212678832Y-91514640D01*
X212596500Y-91602837D01*
X212526136Y-91675409D01*
X212474945Y-91725121D01*
X212450132Y-91744737D01*
X212449658Y-91744800D01*
X212427346Y-91724619D01*
X212394218Y-91674496D01*
X212384989Y-91657967D01*
X212320415Y-91563960D01*
X212224506Y-91456358D01*
X212109676Y-91347387D01*
X211988337Y-91249274D01*
X211926732Y-91206568D01*
X211848476Y-91162305D01*
X211748993Y-91114818D01*
X211642748Y-91069997D01*
X211544204Y-91033732D01*
X211467826Y-91011914D01*
X211439624Y-91008200D01*
X211437986Y-91032934D01*
X211436432Y-91104474D01*
X211434983Y-91218827D01*
X211433660Y-91371999D01*
X211432486Y-91559996D01*
X211431481Y-91778823D01*
X211430669Y-92024488D01*
X211430070Y-92292997D01*
X211429707Y-92580355D01*
X211429600Y-92849700D01*
X211429600Y-94691200D01*
X211514563Y-94691200D01*
X211578700Y-94697166D01*
X211626182Y-94719599D01*
X211660172Y-94765302D01*
X211683834Y-94841074D01*
X211700334Y-94953719D01*
X211712834Y-95110037D01*
X211713377Y-95118585D01*
X211727631Y-95280067D01*
X211749105Y-95440852D01*
X211775963Y-95593057D01*
X211806367Y-95728801D01*
X211838482Y-95840202D01*
X211870470Y-95919379D01*
X211900495Y-95958450D01*
X211909727Y-95961200D01*
X211942109Y-95941786D01*
X211985532Y-95894737D01*
X212026399Y-95836841D01*
X212050294Y-95787655D01*
X212059171Y-95745698D01*
X212072647Y-95666125D01*
X212088649Y-95561681D01*
X212100201Y-95480906D01*
X212124034Y-95334636D01*
X212152000Y-95227780D01*
X212189530Y-95148969D01*
X212242056Y-95086833D01*
X212315007Y-95030003D01*
X212315867Y-95029417D01*
X212406048Y-94987972D01*
X212524903Y-94959632D01*
X212651216Y-94947923D01*
X212759781Y-94955601D01*
X212884322Y-95003737D01*
X212999732Y-95096063D01*
X213100632Y-95226105D01*
X213181644Y-95387393D01*
X213222968Y-95512894D01*
X213246079Y-95646041D01*
X213255922Y-95808986D01*
X213252609Y-95982517D01*
X213236247Y-96147425D01*
X213218827Y-96240214D01*
X213138949Y-96485129D01*
X213021144Y-96714973D01*
X212871328Y-96922675D01*
X212695419Y-97101161D01*
X212499330Y-97243361D01*
X212300398Y-97338164D01*
X212177020Y-97370677D01*
X212028731Y-97392089D01*
X211875000Y-97401064D01*
X211735294Y-97396266D01*
X211651024Y-97382724D01*
X211474660Y-97315545D01*
X211299569Y-97206146D01*
X211136134Y-97062284D01*
X210995953Y-96893445D01*
X210890011Y-96713637D01*
X210802662Y-96500985D01*
X210733187Y-96252335D01*
X210680867Y-95964535D01*
X210644982Y-95634432D01*
X210625124Y-95268646D01*
X210620039Y-95100386D01*
X210617554Y-94975393D01*
X210618098Y-94886182D01*
X210621860Y-94828907D01*
X210848211Y-94828907D01*
X210864809Y-94832115D01*
X210923214Y-94834118D01*
X210985100Y-94834584D01*
X211071315Y-94833737D01*
X211120549Y-94831343D01*
X211127613Y-94827810D01*
X211106516Y-94825039D01*
X211010623Y-94821074D01*
X210904492Y-94823179D01*
X210877916Y-94824898D01*
X210848211Y-94828907D01*
X210621860Y-94828907D01*
X210622100Y-94825267D01*
X210622925Y-94821067D01*
X211340700Y-94821067D01*
X211429600Y-94852872D01*
X211498502Y-94874753D01*
X211527785Y-94874979D01*
X211524041Y-94852994D01*
X211519544Y-94845289D01*
X211484746Y-94826800D01*
X211423858Y-94819605D01*
X211421750Y-94819633D01*
X211340700Y-94821067D01*
X210622925Y-94821067D01*
X210629986Y-94785161D01*
X210642186Y-94758378D01*
X210655265Y-94741596D01*
X210711921Y-94702846D01*
X210760436Y-94691200D01*
X210972068Y-94691200D01*
X211302600Y-94691200D01*
X211302600Y-90980375D01*
X211143850Y-90987937D01*
X210985100Y-90995500D01*
X210972068Y-94691200D01*
X210760436Y-94691200D01*
X210807458Y-94678343D01*
X210820456Y-94634050D01*
X210821844Y-94591778D01*
X210825447Y-94507544D01*
X210830858Y-94390116D01*
X210837673Y-94248263D01*
X210845485Y-94090755D01*
X210846587Y-94068900D01*
X210852568Y-93910827D01*
X210856974Y-93708308D01*
X210859775Y-93467674D01*
X210860939Y-93195256D01*
X210860439Y-92897384D01*
X210858244Y-92580390D01*
X210854952Y-92295469D01*
X210837642Y-91030039D01*
X210772713Y-91046336D01*
X210621214Y-91102624D01*
X210459148Y-91193784D01*
X210300026Y-91309956D01*
X210157363Y-91441283D01*
X210045300Y-91576993D01*
X209943700Y-91724804D01*
X209867500Y-91629694D01*
X209682783Y-91415832D01*
X209505384Y-91247355D01*
X209329006Y-91120706D01*
X209147356Y-91032326D01*
X208954139Y-90978658D01*
X208743060Y-90956144D01*
X208673700Y-90954933D01*
X208400829Y-90977083D01*
X208153030Y-91042034D01*
X207932577Y-91148213D01*
X207741739Y-91294050D01*
X207582790Y-91477973D01*
X207458002Y-91698410D01*
X207405630Y-91832045D01*
X207394232Y-91847422D01*
X207372334Y-91843557D01*
X207334422Y-91816219D01*
X207274982Y-91761176D01*
X207188498Y-91674197D01*
X207155045Y-91639788D01*
X206928206Y-91427286D01*
X206704500Y-91262906D01*
X206479354Y-91144560D01*
X206248193Y-91070157D01*
X206006443Y-91037608D01*
X205837804Y-91038094D01*
X205734185Y-91045910D01*
X205647335Y-91060021D01*
X205560720Y-91084917D01*
X205457807Y-91125093D01*
X205360051Y-91167922D01*
X205254424Y-91213977D01*
X205166827Y-91249691D01*
X205106886Y-91271307D01*
X205084456Y-91275522D01*
X205078672Y-91238939D01*
X205087982Y-91162815D01*
X205110153Y-91055362D01*
X205142950Y-90924792D01*
X205184140Y-90779318D01*
X205231489Y-90627153D01*
X205282764Y-90476507D01*
X205335730Y-90335594D01*
X205349112Y-90302513D01*
X205526712Y-89931912D01*
X205751399Y-89565855D01*
X206019462Y-89208328D01*
X206280042Y-88916178D01*
X210342620Y-88916178D01*
X210356986Y-88982477D01*
X210413454Y-89059309D01*
X210505435Y-89142704D01*
X210626344Y-89228694D01*
X210769595Y-89313312D01*
X210928602Y-89392590D01*
X211096778Y-89462558D01*
X211267538Y-89519250D01*
X211397023Y-89551438D01*
X211538770Y-89574116D01*
X211686787Y-89582389D01*
X211861400Y-89577544D01*
X212025391Y-89571490D01*
X212150218Y-89576128D01*
X212246883Y-89594170D01*
X212326390Y-89628324D01*
X212399744Y-89681304D01*
X212442832Y-89720782D01*
X212574230Y-89831465D01*
X212694767Y-89896191D01*
X212810293Y-89916974D01*
X212926658Y-89895830D01*
X212938537Y-89891498D01*
X212993546Y-89852165D01*
X213019671Y-89783567D01*
X213018157Y-89680116D01*
X213004135Y-89597223D01*
X212989142Y-89498496D01*
X212995837Y-89423366D01*
X213030306Y-89359382D01*
X213098638Y-89294093D01*
X213182776Y-89231853D01*
X213298773Y-89142266D01*
X213392601Y-89053592D01*
X213457363Y-88973376D01*
X213486162Y-88909162D01*
X213487000Y-88899116D01*
X213471542Y-88856836D01*
X213428071Y-88852349D01*
X213360937Y-88884290D01*
X213274492Y-88951295D01*
X213250529Y-88973220D01*
X213160791Y-89051600D01*
X213062498Y-89128402D01*
X212993161Y-89176366D01*
X212867622Y-89255493D01*
X212759177Y-89030017D01*
X212697044Y-88913275D01*
X212633683Y-88815303D01*
X212573543Y-88740005D01*
X212550703Y-88718798D01*
X212654701Y-88718798D01*
X212675212Y-88761520D01*
X212727420Y-88796031D01*
X212782226Y-88780089D01*
X212796120Y-88767920D01*
X212824775Y-88708510D01*
X212809772Y-88645442D01*
X212786370Y-88618833D01*
X212735837Y-88600743D01*
X212690252Y-88620098D01*
X212659808Y-88663811D01*
X212654701Y-88718798D01*
X212550703Y-88718798D01*
X212521071Y-88691285D01*
X212480717Y-88673050D01*
X212456928Y-88689204D01*
X212454154Y-88743652D01*
X212457552Y-88765247D01*
X212476695Y-88837472D01*
X212511196Y-88924102D01*
X212564670Y-89032683D01*
X212640734Y-89170765D01*
X212704640Y-89281000D01*
X212792773Y-89438841D01*
X212849581Y-89560767D01*
X212875711Y-89650336D01*
X212871811Y-89711110D01*
X212838530Y-89746647D01*
X212791683Y-89759242D01*
X212720499Y-89743308D01*
X212635871Y-89683981D01*
X212541658Y-89585632D01*
X212441716Y-89452634D01*
X212339905Y-89289355D01*
X212279903Y-89179400D01*
X212211643Y-89051741D01*
X212159653Y-88964185D01*
X212119541Y-88910424D01*
X212086917Y-88884150D01*
X212070950Y-88879183D01*
X212030836Y-88881113D01*
X212015556Y-88911791D01*
X212013800Y-88949877D01*
X212027695Y-89024191D01*
X212064953Y-89124541D01*
X212118930Y-89235971D01*
X212182982Y-89343525D01*
X212199185Y-89367199D01*
X212251055Y-89440698D01*
X211884777Y-89426650D01*
X211582224Y-89403545D01*
X211317240Y-89357094D01*
X211080839Y-89284274D01*
X210864033Y-89182061D01*
X210657835Y-89047432D01*
X210581983Y-88988435D01*
X210484373Y-88913074D01*
X210417134Y-88871741D01*
X210374549Y-88862710D01*
X210350902Y-88884257D01*
X210342620Y-88916178D01*
X206280042Y-88916178D01*
X206327193Y-88863315D01*
X206408393Y-88785700D01*
X211201000Y-88785700D01*
X211221925Y-88838973D01*
X211271839Y-88890347D01*
X211331443Y-88922132D01*
X211353400Y-88925400D01*
X211408694Y-88908161D01*
X211455000Y-88874600D01*
X211492675Y-88824313D01*
X211505800Y-88785700D01*
X211484874Y-88732426D01*
X211434960Y-88681052D01*
X211375356Y-88649267D01*
X211353400Y-88646000D01*
X211295283Y-88665182D01*
X211239238Y-88710935D01*
X211204564Y-88765572D01*
X211201000Y-88785700D01*
X206408393Y-88785700D01*
X206670880Y-88534802D01*
X207046814Y-88226774D01*
X207214086Y-88109506D01*
X207841725Y-88109506D01*
X207850400Y-88127951D01*
X207885017Y-88151845D01*
X207934390Y-88151094D01*
X208005107Y-88123450D01*
X208103753Y-88066663D01*
X208185117Y-88013630D01*
X208375443Y-87896510D01*
X208594305Y-87778903D01*
X208822105Y-87670466D01*
X209039240Y-87580858D01*
X209126064Y-87549980D01*
X209272249Y-87499412D01*
X209377673Y-87458349D01*
X209450589Y-87422945D01*
X209499250Y-87389356D01*
X209523210Y-87364974D01*
X209537382Y-87340958D01*
X209521691Y-87329138D01*
X209467241Y-87325378D01*
X209437700Y-87325200D01*
X209332007Y-87338633D01*
X209191775Y-87376634D01*
X209024846Y-87435756D01*
X208839057Y-87512551D01*
X208642247Y-87603570D01*
X208442256Y-87705366D01*
X208246921Y-87814491D01*
X208064084Y-87927498D01*
X208055485Y-87933139D01*
X207951830Y-88002712D01*
X207885619Y-88051529D01*
X207850901Y-88085242D01*
X207841725Y-88109506D01*
X207214086Y-88109506D01*
X207451284Y-87943216D01*
X207673737Y-87805527D01*
X207927626Y-87665166D01*
X208212636Y-87524610D01*
X208514728Y-87389785D01*
X208819860Y-87266619D01*
X209113992Y-87161039D01*
X209383085Y-87078974D01*
X209414609Y-87070573D01*
X209541591Y-87036408D01*
X209659796Y-87002907D01*
X209755323Y-86974111D01*
X209810913Y-86955368D01*
X209877874Y-86937296D01*
X209979038Y-86918822D01*
X210097906Y-86902713D01*
X210166513Y-86895717D01*
X210284381Y-86883199D01*
X210390258Y-86868258D01*
X210469292Y-86853172D01*
X210497803Y-86844937D01*
X210562345Y-86829729D01*
X210654326Y-86819427D01*
X210726403Y-86816658D01*
X210883500Y-86816117D01*
X210954930Y-86596715D01*
X211008275Y-86442406D01*
X211061543Y-86305481D01*
X211111593Y-86192670D01*
X211155284Y-86110705D01*
X211189475Y-86066319D01*
X211204985Y-86060761D01*
X211248314Y-86086801D01*
D13*
X175660164Y-99420000D02*
X175875836Y-99420000D01*
X175660164Y-98700000D02*
X175875836Y-98700000D01*
X174356000Y-107496000D02*
X174806000Y-107496000D01*
X174806000Y-107496000D02*
X174806000Y-107046000D01*
X168036000Y-107496000D02*
X167586000Y-107496000D01*
X167586000Y-107496000D02*
X167586000Y-107046000D01*
X174356000Y-100276000D02*
X174806000Y-100276000D01*
X174806000Y-100276000D02*
X174806000Y-100726000D01*
X168036000Y-100276000D02*
X167586000Y-100276000D01*
X167586000Y-100276000D02*
X167586000Y-100726000D01*
X167586000Y-100726000D02*
X166296000Y-100726000D01*
X194774665Y-95350359D02*
X194774665Y-95657641D01*
X194014665Y-95350359D02*
X194014665Y-95657641D01*
X188848000Y-95350359D02*
X188848000Y-95657641D01*
X188088000Y-95350359D02*
X188088000Y-95657641D01*
X196750220Y-95350359D02*
X196750220Y-95657641D01*
X195990220Y-95350359D02*
X195990220Y-95657641D01*
X192799110Y-95350359D02*
X192799110Y-95657641D01*
X192039110Y-95350359D02*
X192039110Y-95657641D01*
X200701330Y-95350359D02*
X200701330Y-95657641D01*
X199941330Y-95350359D02*
X199941330Y-95657641D01*
X202676885Y-95350359D02*
X202676885Y-95657641D01*
X201916885Y-95350359D02*
X201916885Y-95657641D01*
X190823555Y-95350359D02*
X190823555Y-95657641D01*
X190063555Y-95350359D02*
X190063555Y-95657641D01*
X202818000Y-117648641D02*
X202818000Y-117341359D01*
X203578000Y-117648641D02*
X203578000Y-117341359D01*
X204652440Y-95350359D02*
X204652440Y-95657641D01*
X203892440Y-95350359D02*
X203892440Y-95657641D01*
X204092000Y-117648641D02*
X204092000Y-117341359D01*
X204852000Y-117648641D02*
X204852000Y-117341359D01*
X198725775Y-95350359D02*
X198725775Y-95657641D01*
X197965775Y-95350359D02*
X197965775Y-95657641D01*
X206628000Y-95350359D02*
X206628000Y-95657641D01*
X205868000Y-95350359D02*
X205868000Y-95657641D01*
X202304000Y-117341359D02*
X202304000Y-117648641D01*
X201544000Y-117341359D02*
X201544000Y-117648641D01*
X206126000Y-117341359D02*
X206126000Y-117648641D01*
X205366000Y-117341359D02*
X205366000Y-117648641D01*
X213615000Y-117628641D02*
X213615000Y-117321359D01*
X214375000Y-117628641D02*
X214375000Y-117321359D01*
X193922836Y-133710000D02*
X193707164Y-133710000D01*
X193922836Y-132990000D02*
X193707164Y-132990000D01*
X189617164Y-132990000D02*
X189832836Y-132990000D01*
X189617164Y-133710000D02*
X189832836Y-133710000D01*
X164740000Y-105009836D02*
X164740000Y-104794164D01*
X165460000Y-105009836D02*
X165460000Y-104794164D01*
X164740000Y-102215836D02*
X164740000Y-102000164D01*
X165460000Y-102215836D02*
X165460000Y-102000164D01*
X169297164Y-97430000D02*
X169512836Y-97430000D01*
X169297164Y-98150000D02*
X169512836Y-98150000D01*
X174097836Y-110342000D02*
X173882164Y-110342000D01*
X174097836Y-109622000D02*
X173882164Y-109622000D01*
X207370000Y-117367164D02*
X207370000Y-117582836D01*
X206650000Y-117367164D02*
X206650000Y-117582836D01*
X201020000Y-117367164D02*
X201020000Y-117582836D01*
X200300000Y-117367164D02*
X200300000Y-117582836D01*
X178668000Y-122307164D02*
X178668000Y-122522836D01*
X177948000Y-122307164D02*
X177948000Y-122522836D01*
X214905000Y-117582836D02*
X214905000Y-117367164D01*
X215625000Y-117582836D02*
X215625000Y-117367164D01*
X184752836Y-132440000D02*
X184537164Y-132440000D01*
X184752836Y-131720000D02*
X184537164Y-131720000D01*
X202573836Y-78592000D02*
X202358164Y-78592000D01*
X202573836Y-77872000D02*
X202358164Y-77872000D01*
X199496000Y-90824164D02*
X199496000Y-91039836D01*
X198776000Y-90824164D02*
X198776000Y-91039836D01*
X201274000Y-90837164D02*
X201274000Y-91052836D01*
X200554000Y-90837164D02*
X200554000Y-91052836D01*
X203052000Y-90837164D02*
X203052000Y-91052836D01*
X202332000Y-90837164D02*
X202332000Y-91052836D01*
X182264164Y-77872000D02*
X182479836Y-77872000D01*
X182264164Y-78592000D02*
X182479836Y-78592000D01*
X193146000Y-90824164D02*
X193146000Y-91039836D01*
X192426000Y-90824164D02*
X192426000Y-91039836D01*
X185768836Y-77576000D02*
X185553164Y-77576000D01*
X185768836Y-76856000D02*
X185553164Y-76856000D01*
X185768836Y-76052000D02*
X185553164Y-76052000D01*
X185768836Y-75332000D02*
X185553164Y-75332000D01*
X186330000Y-73500836D02*
X186330000Y-73285164D01*
X187050000Y-73500836D02*
X187050000Y-73285164D01*
X187600000Y-73513836D02*
X187600000Y-73298164D01*
X188320000Y-73513836D02*
X188320000Y-73298164D01*
X188870000Y-73541836D02*
X188870000Y-73326164D01*
X189590000Y-73541836D02*
X189590000Y-73326164D01*
X190140000Y-73526836D02*
X190140000Y-73311164D01*
X190860000Y-73526836D02*
X190860000Y-73311164D01*
X188868164Y-84730000D02*
X189083836Y-84730000D01*
X188868164Y-85450000D02*
X189083836Y-85450000D01*
X188868164Y-83460000D02*
X189083836Y-83460000D01*
X188868164Y-84180000D02*
X189083836Y-84180000D01*
X188868164Y-82190000D02*
X189083836Y-82190000D01*
X188868164Y-82910000D02*
X189083836Y-82910000D01*
X192142164Y-74062000D02*
X192357836Y-74062000D01*
X192142164Y-74782000D02*
X192357836Y-74782000D01*
X177630000Y-123250000D02*
X177630000Y-122200000D01*
X176580000Y-122200000D02*
X177630000Y-122200000D01*
X171530000Y-131600000D02*
X162730000Y-131600000D01*
X162730000Y-131600000D02*
X162730000Y-122400000D01*
X177430000Y-128900000D02*
X177430000Y-131600000D01*
X177430000Y-131600000D02*
X175530000Y-131600000D01*
X162730000Y-122400000D02*
X177430000Y-122400000D01*
X177430000Y-122400000D02*
X177430000Y-125000000D01*
X164408000Y-97733000D02*
X166808000Y-97733000D01*
X166808000Y-97733000D02*
X166808000Y-100133000D01*
X166808000Y-100133000D02*
X164408000Y-100133000D01*
X164408000Y-100133000D02*
X164408000Y-97733000D01*
X208295000Y-126960000D02*
X209295000Y-126960000D01*
X208795000Y-126460000D02*
X208795000Y-127460000D01*
X214895000Y-130460000D02*
X214895000Y-132860000D01*
X214895000Y-125660000D02*
X214895000Y-128260000D01*
X214895000Y-121060000D02*
X214895000Y-123460000D01*
X201595000Y-122860000D02*
X201295000Y-123160000D01*
X200995000Y-122860000D02*
X201595000Y-122860000D01*
X201295000Y-123160000D02*
X200995000Y-122860000D01*
X202695000Y-121060000D02*
X202695000Y-132860000D01*
X206795000Y-121060000D02*
X202695000Y-121060000D01*
X206795000Y-132860000D02*
X202695000Y-132860000D01*
X214895000Y-132860000D02*
X210795000Y-132860000D01*
X210795000Y-121060000D02*
X214895000Y-121060000D01*
X211795000Y-126960000D02*
G75*
G03*
X211795000Y-126960000I-3000000J0D01*
G01*
X182185000Y-117415000D02*
X182185000Y-120075000D01*
X184785000Y-117415000D02*
X182185000Y-117415000D01*
X184785000Y-120075000D02*
X182185000Y-120075000D01*
X184785000Y-117415000D02*
X184785000Y-120075000D01*
X186055000Y-117415000D02*
X187385000Y-117415000D01*
X187385000Y-117415000D02*
X187385000Y-118745000D01*
X170120000Y-117415000D02*
X170120000Y-120075000D01*
X172720000Y-117415000D02*
X170120000Y-117415000D01*
X172720000Y-120075000D02*
X170120000Y-120075000D01*
X172720000Y-117415000D02*
X172720000Y-120075000D01*
X173990000Y-117415000D02*
X175320000Y-117415000D01*
X175320000Y-117415000D02*
X175320000Y-118745000D01*
X188320000Y-127970000D02*
X188320000Y-129470000D01*
X188320000Y-129470000D02*
X188590000Y-129470000D01*
X188590000Y-129470000D02*
X188590000Y-132300000D01*
X195220000Y-127970000D02*
X195220000Y-129470000D01*
X195220000Y-129470000D02*
X194950000Y-129470000D01*
X194950000Y-129470000D02*
X194950000Y-130570000D01*
X204538000Y-77392000D02*
X204538000Y-76282000D01*
X204538000Y-80182000D02*
X204538000Y-79072000D01*
X208248000Y-77392000D02*
X208248000Y-76282000D01*
X208248000Y-80182000D02*
X208248000Y-79072000D01*
X203988000Y-78232000D02*
X203488000Y-77982000D01*
X203488000Y-77982000D02*
X203488000Y-78482000D01*
X203488000Y-78482000D02*
X203988000Y-78232000D01*
X177678000Y-79072000D02*
X177678000Y-80182000D01*
X177678000Y-76282000D02*
X177678000Y-77392000D01*
X173968000Y-79072000D02*
X173968000Y-80182000D01*
X173968000Y-76282000D02*
X173968000Y-77392000D01*
X178228000Y-78232000D02*
X178728000Y-78482000D01*
X178728000Y-78482000D02*
X178728000Y-77982000D01*
X178728000Y-77982000D02*
X178228000Y-78232000D01*
X186290000Y-124430000D02*
X185030000Y-124430000D01*
X179470000Y-124430000D02*
X180730000Y-124430000D01*
X186290000Y-128190000D02*
X186290000Y-124430000D01*
X179470000Y-130440000D02*
X179470000Y-124430000D01*
X193110000Y-80621000D02*
X193110000Y-81096000D01*
X193110000Y-81096000D02*
X192635000Y-81096000D01*
X187890000Y-76351000D02*
X187890000Y-75876000D01*
X187890000Y-75876000D02*
X188365000Y-75876000D01*
X187890000Y-80621000D02*
X187890000Y-81096000D01*
X187890000Y-81096000D02*
X188365000Y-81096000D01*
X193110000Y-76351000D02*
X193110000Y-75876000D01*
X192080000Y-112524000D02*
X191150000Y-112524000D01*
X188920000Y-112524000D02*
X189850000Y-112524000D01*
X188920000Y-112524000D02*
X188920000Y-114684000D01*
X192080000Y-112524000D02*
X192080000Y-113984000D01*
X196144000Y-112524000D02*
X195214000Y-112524000D01*
X192984000Y-112524000D02*
X193914000Y-112524000D01*
X192984000Y-112524000D02*
X192984000Y-114684000D01*
X196144000Y-112524000D02*
X196144000Y-113984000D01*
X200208000Y-112524000D02*
X199278000Y-112524000D01*
X197048000Y-112524000D02*
X197978000Y-112524000D01*
X197048000Y-112524000D02*
X197048000Y-114684000D01*
X200208000Y-112524000D02*
X200208000Y-113984000D01*
X204272000Y-112524000D02*
X203342000Y-112524000D01*
X201112000Y-112524000D02*
X202042000Y-112524000D01*
X201112000Y-112524000D02*
X201112000Y-114684000D01*
X204272000Y-112524000D02*
X204272000Y-113984000D01*
X165675000Y-112970000D02*
X165675000Y-115630000D01*
X173355000Y-112970000D02*
X165675000Y-112970000D01*
X173355000Y-115630000D02*
X165675000Y-115630000D01*
X173355000Y-112970000D02*
X173355000Y-115630000D01*
X174625000Y-112970000D02*
X175955000Y-112970000D01*
X175955000Y-112970000D02*
X175955000Y-114300000D01*
X174050000Y-95310000D02*
X174050000Y-92650000D01*
X168910000Y-95310000D02*
X174050000Y-95310000D01*
X168910000Y-92650000D02*
X174050000Y-92650000D01*
X168910000Y-95310000D02*
X168910000Y-92650000D01*
X167640000Y-95310000D02*
X166310000Y-95310000D01*
X166310000Y-95310000D02*
X166310000Y-93980000D01*
D15*
X177258000Y-97994000D02*
X217458000Y-97994000D01*
X217458000Y-97994000D02*
X217458000Y-110794000D01*
X217458000Y-110794000D02*
X177258000Y-110794000D01*
X177258000Y-110794000D02*
X177258000Y-97994000D01*
D16*
X188578000Y-111394000D02*
G75*
G03*
X188578000Y-111394000I-120000J0D01*
G01*
D12*
X195581733Y-92478180D02*
X195248400Y-92001990D01*
X195010304Y-92478180D02*
X195010304Y-91478180D01*
X195391257Y-91478180D01*
X195486495Y-91525800D01*
X195534114Y-91573419D01*
X195581733Y-91668657D01*
X195581733Y-91811514D01*
X195534114Y-91906752D01*
X195486495Y-91954371D01*
X195391257Y-92001990D01*
X195010304Y-92001990D01*
X196534114Y-92478180D02*
X195962685Y-92478180D01*
X196248400Y-92478180D02*
X196248400Y-91478180D01*
X196153161Y-91621038D01*
X196057923Y-91716276D01*
X195962685Y-91763895D01*
X186999666Y-91775571D02*
X186666333Y-91775571D01*
X186666333Y-92299380D02*
X186666333Y-91299380D01*
X187142523Y-91299380D01*
X187856809Y-91775571D02*
X187999666Y-91823190D01*
X188047285Y-91870809D01*
X188094904Y-91966047D01*
X188094904Y-92108904D01*
X188047285Y-92204142D01*
X187999666Y-92251761D01*
X187904428Y-92299380D01*
X187523476Y-92299380D01*
X187523476Y-91299380D01*
X187856809Y-91299380D01*
X187952047Y-91347000D01*
X187999666Y-91394619D01*
X188047285Y-91489857D01*
X188047285Y-91585095D01*
X187999666Y-91680333D01*
X187952047Y-91727952D01*
X187856809Y-91775571D01*
X187523476Y-91775571D01*
X188475857Y-91394619D02*
X188523476Y-91347000D01*
X188618714Y-91299380D01*
X188856809Y-91299380D01*
X188952047Y-91347000D01*
X188999666Y-91394619D01*
X189047285Y-91489857D01*
X189047285Y-91585095D01*
X188999666Y-91727952D01*
X188428238Y-92299380D01*
X189047285Y-92299380D01*
X186872666Y-88600571D02*
X186539333Y-88600571D01*
X186539333Y-89124380D02*
X186539333Y-88124380D01*
X187015523Y-88124380D01*
X187729809Y-88600571D02*
X187872666Y-88648190D01*
X187920285Y-88695809D01*
X187967904Y-88791047D01*
X187967904Y-88933904D01*
X187920285Y-89029142D01*
X187872666Y-89076761D01*
X187777428Y-89124380D01*
X187396476Y-89124380D01*
X187396476Y-88124380D01*
X187729809Y-88124380D01*
X187825047Y-88172000D01*
X187872666Y-88219619D01*
X187920285Y-88314857D01*
X187920285Y-88410095D01*
X187872666Y-88505333D01*
X187825047Y-88552952D01*
X187729809Y-88600571D01*
X187396476Y-88600571D01*
X188920285Y-89124380D02*
X188348857Y-89124380D01*
X188634571Y-89124380D02*
X188634571Y-88124380D01*
X188539333Y-88267238D01*
X188444095Y-88362476D01*
X188348857Y-88410095D01*
X175125142Y-98257142D02*
X175077523Y-98304761D01*
X174934666Y-98352380D01*
X174839428Y-98352380D01*
X174696571Y-98304761D01*
X174601333Y-98209523D01*
X174553714Y-98114285D01*
X174506095Y-97923809D01*
X174506095Y-97780952D01*
X174553714Y-97590476D01*
X174601333Y-97495238D01*
X174696571Y-97400000D01*
X174839428Y-97352380D01*
X174934666Y-97352380D01*
X175077523Y-97400000D01*
X175125142Y-97447619D01*
X175506095Y-97447619D02*
X175553714Y-97400000D01*
X175648952Y-97352380D01*
X175887047Y-97352380D01*
X175982285Y-97400000D01*
X176029904Y-97447619D01*
X176077523Y-97542857D01*
X176077523Y-97638095D01*
X176029904Y-97780952D01*
X175458476Y-98352380D01*
X176077523Y-98352380D01*
X176648952Y-97780952D02*
X176553714Y-97733333D01*
X176506095Y-97685714D01*
X176458476Y-97590476D01*
X176458476Y-97542857D01*
X176506095Y-97447619D01*
X176553714Y-97400000D01*
X176648952Y-97352380D01*
X176839428Y-97352380D01*
X176934666Y-97400000D01*
X176982285Y-97447619D01*
X177029904Y-97542857D01*
X177029904Y-97590476D01*
X176982285Y-97685714D01*
X176934666Y-97733333D01*
X176839428Y-97780952D01*
X176648952Y-97780952D01*
X176553714Y-97828571D01*
X176506095Y-97876190D01*
X176458476Y-97971428D01*
X176458476Y-98161904D01*
X176506095Y-98257142D01*
X176553714Y-98304761D01*
X176648952Y-98352380D01*
X176839428Y-98352380D01*
X176934666Y-98304761D01*
X176982285Y-98257142D01*
X177029904Y-98161904D01*
X177029904Y-97971428D01*
X176982285Y-97876190D01*
X176934666Y-97828571D01*
X176839428Y-97780952D01*
X171450095Y-96988380D02*
X171450095Y-97797904D01*
X171497714Y-97893142D01*
X171545333Y-97940761D01*
X171640571Y-97988380D01*
X171831047Y-97988380D01*
X171926285Y-97940761D01*
X171973904Y-97893142D01*
X172021523Y-97797904D01*
X172021523Y-96988380D01*
X172402476Y-96988380D02*
X173021523Y-96988380D01*
X172688190Y-97369333D01*
X172831047Y-97369333D01*
X172926285Y-97416952D01*
X172973904Y-97464571D01*
X173021523Y-97559809D01*
X173021523Y-97797904D01*
X172973904Y-97893142D01*
X172926285Y-97940761D01*
X172831047Y-97988380D01*
X172545333Y-97988380D01*
X172450095Y-97940761D01*
X172402476Y-97893142D01*
X195270380Y-98432857D02*
X194794190Y-98766190D01*
X195270380Y-99004285D02*
X194270380Y-99004285D01*
X194270380Y-98623333D01*
X194318000Y-98528095D01*
X194365619Y-98480476D01*
X194460857Y-98432857D01*
X194603714Y-98432857D01*
X194698952Y-98480476D01*
X194746571Y-98528095D01*
X194794190Y-98623333D01*
X194794190Y-99004285D01*
X195270380Y-97480476D02*
X195270380Y-98051904D01*
X195270380Y-97766190D02*
X194270380Y-97766190D01*
X194413238Y-97861428D01*
X194508476Y-97956666D01*
X194556095Y-98051904D01*
X194698952Y-96909047D02*
X194651333Y-97004285D01*
X194603714Y-97051904D01*
X194508476Y-97099523D01*
X194460857Y-97099523D01*
X194365619Y-97051904D01*
X194318000Y-97004285D01*
X194270380Y-96909047D01*
X194270380Y-96718571D01*
X194318000Y-96623333D01*
X194365619Y-96575714D01*
X194460857Y-96528095D01*
X194508476Y-96528095D01*
X194603714Y-96575714D01*
X194651333Y-96623333D01*
X194698952Y-96718571D01*
X194698952Y-96909047D01*
X194746571Y-97004285D01*
X194794190Y-97051904D01*
X194889428Y-97099523D01*
X195079904Y-97099523D01*
X195175142Y-97051904D01*
X195222761Y-97004285D01*
X195270380Y-96909047D01*
X195270380Y-96718571D01*
X195222761Y-96623333D01*
X195175142Y-96575714D01*
X195079904Y-96528095D01*
X194889428Y-96528095D01*
X194794190Y-96575714D01*
X194746571Y-96623333D01*
X194698952Y-96718571D01*
X188158380Y-98686857D02*
X187682190Y-99020190D01*
X188158380Y-99258285D02*
X187158380Y-99258285D01*
X187158380Y-98877333D01*
X187206000Y-98782095D01*
X187253619Y-98734476D01*
X187348857Y-98686857D01*
X187491714Y-98686857D01*
X187586952Y-98734476D01*
X187634571Y-98782095D01*
X187682190Y-98877333D01*
X187682190Y-99258285D01*
X188158380Y-97734476D02*
X188158380Y-98305904D01*
X188158380Y-98020190D02*
X187158380Y-98020190D01*
X187301238Y-98115428D01*
X187396476Y-98210666D01*
X187444095Y-98305904D01*
X187158380Y-97401142D02*
X187158380Y-96734476D01*
X188158380Y-97163047D01*
X196794380Y-98686857D02*
X196318190Y-99020190D01*
X196794380Y-99258285D02*
X195794380Y-99258285D01*
X195794380Y-98877333D01*
X195842000Y-98782095D01*
X195889619Y-98734476D01*
X195984857Y-98686857D01*
X196127714Y-98686857D01*
X196222952Y-98734476D01*
X196270571Y-98782095D01*
X196318190Y-98877333D01*
X196318190Y-99258285D01*
X196794380Y-97734476D02*
X196794380Y-98305904D01*
X196794380Y-98020190D02*
X195794380Y-98020190D01*
X195937238Y-98115428D01*
X196032476Y-98210666D01*
X196080095Y-98305904D01*
X195794380Y-96877333D02*
X195794380Y-97067809D01*
X195842000Y-97163047D01*
X195889619Y-97210666D01*
X196032476Y-97305904D01*
X196222952Y-97353523D01*
X196603904Y-97353523D01*
X196699142Y-97305904D01*
X196746761Y-97258285D01*
X196794380Y-97163047D01*
X196794380Y-96972571D01*
X196746761Y-96877333D01*
X196699142Y-96829714D01*
X196603904Y-96782095D01*
X196365809Y-96782095D01*
X196270571Y-96829714D01*
X196222952Y-96877333D01*
X196175333Y-96972571D01*
X196175333Y-97163047D01*
X196222952Y-97258285D01*
X196270571Y-97305904D01*
X196365809Y-97353523D01*
X192984380Y-98686857D02*
X192508190Y-99020190D01*
X192984380Y-99258285D02*
X191984380Y-99258285D01*
X191984380Y-98877333D01*
X192032000Y-98782095D01*
X192079619Y-98734476D01*
X192174857Y-98686857D01*
X192317714Y-98686857D01*
X192412952Y-98734476D01*
X192460571Y-98782095D01*
X192508190Y-98877333D01*
X192508190Y-99258285D01*
X192984380Y-97734476D02*
X192984380Y-98305904D01*
X192984380Y-98020190D02*
X191984380Y-98020190D01*
X192127238Y-98115428D01*
X192222476Y-98210666D01*
X192270095Y-98305904D01*
X191984380Y-96829714D02*
X191984380Y-97305904D01*
X192460571Y-97353523D01*
X192412952Y-97305904D01*
X192365333Y-97210666D01*
X192365333Y-96972571D01*
X192412952Y-96877333D01*
X192460571Y-96829714D01*
X192555809Y-96782095D01*
X192793904Y-96782095D01*
X192889142Y-96829714D01*
X192936761Y-96877333D01*
X192984380Y-96972571D01*
X192984380Y-97210666D01*
X192936761Y-97305904D01*
X192889142Y-97353523D01*
X200858380Y-98686857D02*
X200382190Y-99020190D01*
X200858380Y-99258285D02*
X199858380Y-99258285D01*
X199858380Y-98877333D01*
X199906000Y-98782095D01*
X199953619Y-98734476D01*
X200048857Y-98686857D01*
X200191714Y-98686857D01*
X200286952Y-98734476D01*
X200334571Y-98782095D01*
X200382190Y-98877333D01*
X200382190Y-99258285D01*
X200858380Y-97734476D02*
X200858380Y-98305904D01*
X200858380Y-98020190D02*
X199858380Y-98020190D01*
X200001238Y-98115428D01*
X200096476Y-98210666D01*
X200144095Y-98305904D01*
X200191714Y-96877333D02*
X200858380Y-96877333D01*
X199810761Y-97115428D02*
X200525047Y-97353523D01*
X200525047Y-96734476D01*
X202890380Y-98686857D02*
X202414190Y-99020190D01*
X202890380Y-99258285D02*
X201890380Y-99258285D01*
X201890380Y-98877333D01*
X201938000Y-98782095D01*
X201985619Y-98734476D01*
X202080857Y-98686857D01*
X202223714Y-98686857D01*
X202318952Y-98734476D01*
X202366571Y-98782095D01*
X202414190Y-98877333D01*
X202414190Y-99258285D01*
X202890380Y-97734476D02*
X202890380Y-98305904D01*
X202890380Y-98020190D02*
X201890380Y-98020190D01*
X202033238Y-98115428D01*
X202128476Y-98210666D01*
X202176095Y-98305904D01*
X201985619Y-97353523D02*
X201938000Y-97305904D01*
X201890380Y-97210666D01*
X201890380Y-96972571D01*
X201938000Y-96877333D01*
X201985619Y-96829714D01*
X202080857Y-96782095D01*
X202176095Y-96782095D01*
X202318952Y-96829714D01*
X202890380Y-97401142D01*
X202890380Y-96782095D01*
X190952380Y-98686857D02*
X190476190Y-99020190D01*
X190952380Y-99258285D02*
X189952380Y-99258285D01*
X189952380Y-98877333D01*
X190000000Y-98782095D01*
X190047619Y-98734476D01*
X190142857Y-98686857D01*
X190285714Y-98686857D01*
X190380952Y-98734476D01*
X190428571Y-98782095D01*
X190476190Y-98877333D01*
X190476190Y-99258285D01*
X190952380Y-97734476D02*
X190952380Y-98305904D01*
X190952380Y-98020190D02*
X189952380Y-98020190D01*
X190095238Y-98115428D01*
X190190476Y-98210666D01*
X190238095Y-98305904D01*
X189952380Y-97115428D02*
X189952380Y-97020190D01*
X190000000Y-96924952D01*
X190047619Y-96877333D01*
X190142857Y-96829714D01*
X190333333Y-96782095D01*
X190571428Y-96782095D01*
X190761904Y-96829714D01*
X190857142Y-96877333D01*
X190904761Y-96924952D01*
X190952380Y-97020190D01*
X190952380Y-97115428D01*
X190904761Y-97210666D01*
X190857142Y-97258285D01*
X190761904Y-97305904D01*
X190571428Y-97353523D01*
X190333333Y-97353523D01*
X190142857Y-97305904D01*
X190047619Y-97258285D01*
X190000000Y-97210666D01*
X189952380Y-97115428D01*
X203652380Y-120054666D02*
X203176190Y-120388000D01*
X203652380Y-120626095D02*
X202652380Y-120626095D01*
X202652380Y-120245142D01*
X202700000Y-120149904D01*
X202747619Y-120102285D01*
X202842857Y-120054666D01*
X202985714Y-120054666D01*
X203080952Y-120102285D01*
X203128571Y-120149904D01*
X203176190Y-120245142D01*
X203176190Y-120626095D01*
X203652380Y-119578476D02*
X203652380Y-119388000D01*
X203604761Y-119292761D01*
X203557142Y-119245142D01*
X203414285Y-119149904D01*
X203223809Y-119102285D01*
X202842857Y-119102285D01*
X202747619Y-119149904D01*
X202700000Y-119197523D01*
X202652380Y-119292761D01*
X202652380Y-119483238D01*
X202700000Y-119578476D01*
X202747619Y-119626095D01*
X202842857Y-119673714D01*
X203080952Y-119673714D01*
X203176190Y-119626095D01*
X203223809Y-119578476D01*
X203271428Y-119483238D01*
X203271428Y-119292761D01*
X203223809Y-119197523D01*
X203176190Y-119149904D01*
X203080952Y-119102285D01*
X204668380Y-97702666D02*
X204192190Y-98036000D01*
X204668380Y-98274095D02*
X203668380Y-98274095D01*
X203668380Y-97893142D01*
X203716000Y-97797904D01*
X203763619Y-97750285D01*
X203858857Y-97702666D01*
X204001714Y-97702666D01*
X204096952Y-97750285D01*
X204144571Y-97797904D01*
X204192190Y-97893142D01*
X204192190Y-98274095D01*
X204096952Y-97131238D02*
X204049333Y-97226476D01*
X204001714Y-97274095D01*
X203906476Y-97321714D01*
X203858857Y-97321714D01*
X203763619Y-97274095D01*
X203716000Y-97226476D01*
X203668380Y-97131238D01*
X203668380Y-96940761D01*
X203716000Y-96845523D01*
X203763619Y-96797904D01*
X203858857Y-96750285D01*
X203906476Y-96750285D01*
X204001714Y-96797904D01*
X204049333Y-96845523D01*
X204096952Y-96940761D01*
X204096952Y-97131238D01*
X204144571Y-97226476D01*
X204192190Y-97274095D01*
X204287428Y-97321714D01*
X204477904Y-97321714D01*
X204573142Y-97274095D01*
X204620761Y-97226476D01*
X204668380Y-97131238D01*
X204668380Y-96940761D01*
X204620761Y-96845523D01*
X204573142Y-96797904D01*
X204477904Y-96750285D01*
X204287428Y-96750285D01*
X204192190Y-96797904D01*
X204144571Y-96845523D01*
X204096952Y-96940761D01*
X204922380Y-120054666D02*
X204446190Y-120388000D01*
X204922380Y-120626095D02*
X203922380Y-120626095D01*
X203922380Y-120245142D01*
X203970000Y-120149904D01*
X204017619Y-120102285D01*
X204112857Y-120054666D01*
X204255714Y-120054666D01*
X204350952Y-120102285D01*
X204398571Y-120149904D01*
X204446190Y-120245142D01*
X204446190Y-120626095D01*
X203922380Y-119721333D02*
X203922380Y-119054666D01*
X204922380Y-119483238D01*
X198826380Y-97702666D02*
X198350190Y-98036000D01*
X198826380Y-98274095D02*
X197826380Y-98274095D01*
X197826380Y-97893142D01*
X197874000Y-97797904D01*
X197921619Y-97750285D01*
X198016857Y-97702666D01*
X198159714Y-97702666D01*
X198254952Y-97750285D01*
X198302571Y-97797904D01*
X198350190Y-97893142D01*
X198350190Y-98274095D01*
X197826380Y-96845523D02*
X197826380Y-97036000D01*
X197874000Y-97131238D01*
X197921619Y-97178857D01*
X198064476Y-97274095D01*
X198254952Y-97321714D01*
X198635904Y-97321714D01*
X198731142Y-97274095D01*
X198778761Y-97226476D01*
X198826380Y-97131238D01*
X198826380Y-96940761D01*
X198778761Y-96845523D01*
X198731142Y-96797904D01*
X198635904Y-96750285D01*
X198397809Y-96750285D01*
X198302571Y-96797904D01*
X198254952Y-96845523D01*
X198207333Y-96940761D01*
X198207333Y-97131238D01*
X198254952Y-97226476D01*
X198302571Y-97274095D01*
X198397809Y-97321714D01*
X206700380Y-97702666D02*
X206224190Y-98036000D01*
X206700380Y-98274095D02*
X205700380Y-98274095D01*
X205700380Y-97893142D01*
X205748000Y-97797904D01*
X205795619Y-97750285D01*
X205890857Y-97702666D01*
X206033714Y-97702666D01*
X206128952Y-97750285D01*
X206176571Y-97797904D01*
X206224190Y-97893142D01*
X206224190Y-98274095D01*
X205700380Y-96797904D02*
X205700380Y-97274095D01*
X206176571Y-97321714D01*
X206128952Y-97274095D01*
X206081333Y-97178857D01*
X206081333Y-96940761D01*
X206128952Y-96845523D01*
X206176571Y-96797904D01*
X206271809Y-96750285D01*
X206509904Y-96750285D01*
X206605142Y-96797904D01*
X206652761Y-96845523D01*
X206700380Y-96940761D01*
X206700380Y-97178857D01*
X206652761Y-97274095D01*
X206605142Y-97321714D01*
X202382380Y-120054666D02*
X201906190Y-120388000D01*
X202382380Y-120626095D02*
X201382380Y-120626095D01*
X201382380Y-120245142D01*
X201430000Y-120149904D01*
X201477619Y-120102285D01*
X201572857Y-120054666D01*
X201715714Y-120054666D01*
X201810952Y-120102285D01*
X201858571Y-120149904D01*
X201906190Y-120245142D01*
X201906190Y-120626095D01*
X201715714Y-119197523D02*
X202382380Y-119197523D01*
X201334761Y-119435619D02*
X202049047Y-119673714D01*
X202049047Y-119054666D01*
X206192380Y-120054666D02*
X205716190Y-120388000D01*
X206192380Y-120626095D02*
X205192380Y-120626095D01*
X205192380Y-120245142D01*
X205240000Y-120149904D01*
X205287619Y-120102285D01*
X205382857Y-120054666D01*
X205525714Y-120054666D01*
X205620952Y-120102285D01*
X205668571Y-120149904D01*
X205716190Y-120245142D01*
X205716190Y-120626095D01*
X205192380Y-119721333D02*
X205192380Y-119102285D01*
X205573333Y-119435619D01*
X205573333Y-119292761D01*
X205620952Y-119197523D01*
X205668571Y-119149904D01*
X205763809Y-119102285D01*
X206001904Y-119102285D01*
X206097142Y-119149904D01*
X206144761Y-119197523D01*
X206192380Y-119292761D01*
X206192380Y-119578476D01*
X206144761Y-119673714D01*
X206097142Y-119721333D01*
X212796380Y-117641666D02*
X212320190Y-117975000D01*
X212796380Y-118213095D02*
X211796380Y-118213095D01*
X211796380Y-117832142D01*
X211844000Y-117736904D01*
X211891619Y-117689285D01*
X211986857Y-117641666D01*
X212129714Y-117641666D01*
X212224952Y-117689285D01*
X212272571Y-117736904D01*
X212320190Y-117832142D01*
X212320190Y-118213095D01*
X211891619Y-117260714D02*
X211844000Y-117213095D01*
X211796380Y-117117857D01*
X211796380Y-116879761D01*
X211844000Y-116784523D01*
X211891619Y-116736904D01*
X211986857Y-116689285D01*
X212082095Y-116689285D01*
X212224952Y-116736904D01*
X212796380Y-117308333D01*
X212796380Y-116689285D01*
X197477142Y-133961142D02*
X197429523Y-134008761D01*
X197286666Y-134056380D01*
X197191428Y-134056380D01*
X197048571Y-134008761D01*
X196953333Y-133913523D01*
X196905714Y-133818285D01*
X196858095Y-133627809D01*
X196858095Y-133484952D01*
X196905714Y-133294476D01*
X196953333Y-133199238D01*
X197048571Y-133104000D01*
X197191428Y-133056380D01*
X197286666Y-133056380D01*
X197429523Y-133104000D01*
X197477142Y-133151619D01*
X197858095Y-133151619D02*
X197905714Y-133104000D01*
X198000952Y-133056380D01*
X198239047Y-133056380D01*
X198334285Y-133104000D01*
X198381904Y-133151619D01*
X198429523Y-133246857D01*
X198429523Y-133342095D01*
X198381904Y-133484952D01*
X197810476Y-134056380D01*
X198429523Y-134056380D01*
X198762857Y-133056380D02*
X199429523Y-133056380D01*
X199000952Y-134056380D01*
X186809142Y-132437142D02*
X186761523Y-132484761D01*
X186618666Y-132532380D01*
X186523428Y-132532380D01*
X186380571Y-132484761D01*
X186285333Y-132389523D01*
X186237714Y-132294285D01*
X186190095Y-132103809D01*
X186190095Y-131960952D01*
X186237714Y-131770476D01*
X186285333Y-131675238D01*
X186380571Y-131580000D01*
X186523428Y-131532380D01*
X186618666Y-131532380D01*
X186761523Y-131580000D01*
X186809142Y-131627619D01*
X187190095Y-131627619D02*
X187237714Y-131580000D01*
X187332952Y-131532380D01*
X187571047Y-131532380D01*
X187666285Y-131580000D01*
X187713904Y-131627619D01*
X187761523Y-131722857D01*
X187761523Y-131818095D01*
X187713904Y-131960952D01*
X187142476Y-132532380D01*
X187761523Y-132532380D01*
X188618666Y-131532380D02*
X188428190Y-131532380D01*
X188332952Y-131580000D01*
X188285333Y-131627619D01*
X188190095Y-131770476D01*
X188142476Y-131960952D01*
X188142476Y-132341904D01*
X188190095Y-132437142D01*
X188237714Y-132484761D01*
X188332952Y-132532380D01*
X188523428Y-132532380D01*
X188618666Y-132484761D01*
X188666285Y-132437142D01*
X188713904Y-132341904D01*
X188713904Y-132103809D01*
X188666285Y-132008571D01*
X188618666Y-131960952D01*
X188523428Y-131913333D01*
X188332952Y-131913333D01*
X188237714Y-131960952D01*
X188190095Y-132008571D01*
X188142476Y-132103809D01*
X165457142Y-111132857D02*
X165504761Y-111180476D01*
X165552380Y-111323333D01*
X165552380Y-111418571D01*
X165504761Y-111561428D01*
X165409523Y-111656666D01*
X165314285Y-111704285D01*
X165123809Y-111751904D01*
X164980952Y-111751904D01*
X164790476Y-111704285D01*
X164695238Y-111656666D01*
X164600000Y-111561428D01*
X164552380Y-111418571D01*
X164552380Y-111323333D01*
X164600000Y-111180476D01*
X164647619Y-111132857D01*
X164647619Y-110751904D02*
X164600000Y-110704285D01*
X164552380Y-110609047D01*
X164552380Y-110370952D01*
X164600000Y-110275714D01*
X164647619Y-110228095D01*
X164742857Y-110180476D01*
X164838095Y-110180476D01*
X164980952Y-110228095D01*
X165552380Y-110799523D01*
X165552380Y-110180476D01*
X164552380Y-109275714D02*
X164552380Y-109751904D01*
X165028571Y-109799523D01*
X164980952Y-109751904D01*
X164933333Y-109656666D01*
X164933333Y-109418571D01*
X164980952Y-109323333D01*
X165028571Y-109275714D01*
X165123809Y-109228095D01*
X165361904Y-109228095D01*
X165457142Y-109275714D01*
X165504761Y-109323333D01*
X165552380Y-109418571D01*
X165552380Y-109656666D01*
X165504761Y-109751904D01*
X165457142Y-109799523D01*
X165457142Y-108338857D02*
X165504761Y-108386476D01*
X165552380Y-108529333D01*
X165552380Y-108624571D01*
X165504761Y-108767428D01*
X165409523Y-108862666D01*
X165314285Y-108910285D01*
X165123809Y-108957904D01*
X164980952Y-108957904D01*
X164790476Y-108910285D01*
X164695238Y-108862666D01*
X164600000Y-108767428D01*
X164552380Y-108624571D01*
X164552380Y-108529333D01*
X164600000Y-108386476D01*
X164647619Y-108338857D01*
X164647619Y-107957904D02*
X164600000Y-107910285D01*
X164552380Y-107815047D01*
X164552380Y-107576952D01*
X164600000Y-107481714D01*
X164647619Y-107434095D01*
X164742857Y-107386476D01*
X164838095Y-107386476D01*
X164980952Y-107434095D01*
X165552380Y-108005523D01*
X165552380Y-107386476D01*
X164885714Y-106529333D02*
X165552380Y-106529333D01*
X164504761Y-106767428D02*
X165219047Y-107005523D01*
X165219047Y-106386476D01*
X168762142Y-96987142D02*
X168714523Y-97034761D01*
X168571666Y-97082380D01*
X168476428Y-97082380D01*
X168333571Y-97034761D01*
X168238333Y-96939523D01*
X168190714Y-96844285D01*
X168143095Y-96653809D01*
X168143095Y-96510952D01*
X168190714Y-96320476D01*
X168238333Y-96225238D01*
X168333571Y-96130000D01*
X168476428Y-96082380D01*
X168571666Y-96082380D01*
X168714523Y-96130000D01*
X168762142Y-96177619D01*
X169143095Y-96177619D02*
X169190714Y-96130000D01*
X169285952Y-96082380D01*
X169524047Y-96082380D01*
X169619285Y-96130000D01*
X169666904Y-96177619D01*
X169714523Y-96272857D01*
X169714523Y-96368095D01*
X169666904Y-96510952D01*
X169095476Y-97082380D01*
X169714523Y-97082380D01*
X170047857Y-96082380D02*
X170666904Y-96082380D01*
X170333571Y-96463333D01*
X170476428Y-96463333D01*
X170571666Y-96510952D01*
X170619285Y-96558571D01*
X170666904Y-96653809D01*
X170666904Y-96891904D01*
X170619285Y-96987142D01*
X170571666Y-97034761D01*
X170476428Y-97082380D01*
X170190714Y-97082380D01*
X170095476Y-97034761D01*
X170047857Y-96987142D01*
X173347142Y-111499142D02*
X173299523Y-111546761D01*
X173156666Y-111594380D01*
X173061428Y-111594380D01*
X172918571Y-111546761D01*
X172823333Y-111451523D01*
X172775714Y-111356285D01*
X172728095Y-111165809D01*
X172728095Y-111022952D01*
X172775714Y-110832476D01*
X172823333Y-110737238D01*
X172918571Y-110642000D01*
X173061428Y-110594380D01*
X173156666Y-110594380D01*
X173299523Y-110642000D01*
X173347142Y-110689619D01*
X173728095Y-110689619D02*
X173775714Y-110642000D01*
X173870952Y-110594380D01*
X174109047Y-110594380D01*
X174204285Y-110642000D01*
X174251904Y-110689619D01*
X174299523Y-110784857D01*
X174299523Y-110880095D01*
X174251904Y-111022952D01*
X173680476Y-111594380D01*
X174299523Y-111594380D01*
X174680476Y-110689619D02*
X174728095Y-110642000D01*
X174823333Y-110594380D01*
X175061428Y-110594380D01*
X175156666Y-110642000D01*
X175204285Y-110689619D01*
X175251904Y-110784857D01*
X175251904Y-110880095D01*
X175204285Y-111022952D01*
X174632857Y-111594380D01*
X175251904Y-111594380D01*
X208891142Y-118244857D02*
X208938761Y-118292476D01*
X208986380Y-118435333D01*
X208986380Y-118530571D01*
X208938761Y-118673428D01*
X208843523Y-118768666D01*
X208748285Y-118816285D01*
X208557809Y-118863904D01*
X208414952Y-118863904D01*
X208224476Y-118816285D01*
X208129238Y-118768666D01*
X208034000Y-118673428D01*
X207986380Y-118530571D01*
X207986380Y-118435333D01*
X208034000Y-118292476D01*
X208081619Y-118244857D01*
X208081619Y-117863904D02*
X208034000Y-117816285D01*
X207986380Y-117721047D01*
X207986380Y-117482952D01*
X208034000Y-117387714D01*
X208081619Y-117340095D01*
X208176857Y-117292476D01*
X208272095Y-117292476D01*
X208414952Y-117340095D01*
X208986380Y-117911523D01*
X208986380Y-117292476D01*
X208986380Y-116340095D02*
X208986380Y-116911523D01*
X208986380Y-116625809D02*
X207986380Y-116625809D01*
X208129238Y-116721047D01*
X208224476Y-116816285D01*
X208272095Y-116911523D01*
X201017142Y-121292857D02*
X201064761Y-121340476D01*
X201112380Y-121483333D01*
X201112380Y-121578571D01*
X201064761Y-121721428D01*
X200969523Y-121816666D01*
X200874285Y-121864285D01*
X200683809Y-121911904D01*
X200540952Y-121911904D01*
X200350476Y-121864285D01*
X200255238Y-121816666D01*
X200160000Y-121721428D01*
X200112380Y-121578571D01*
X200112380Y-121483333D01*
X200160000Y-121340476D01*
X200207619Y-121292857D01*
X200207619Y-120911904D02*
X200160000Y-120864285D01*
X200112380Y-120769047D01*
X200112380Y-120530952D01*
X200160000Y-120435714D01*
X200207619Y-120388095D01*
X200302857Y-120340476D01*
X200398095Y-120340476D01*
X200540952Y-120388095D01*
X201112380Y-120959523D01*
X201112380Y-120340476D01*
X200112380Y-119721428D02*
X200112380Y-119626190D01*
X200160000Y-119530952D01*
X200207619Y-119483333D01*
X200302857Y-119435714D01*
X200493333Y-119388095D01*
X200731428Y-119388095D01*
X200921904Y-119435714D01*
X201017142Y-119483333D01*
X201064761Y-119530952D01*
X201112380Y-119626190D01*
X201112380Y-119721428D01*
X201064761Y-119816666D01*
X201017142Y-119864285D01*
X200921904Y-119911904D01*
X200731428Y-119959523D01*
X200493333Y-119959523D01*
X200302857Y-119911904D01*
X200207619Y-119864285D01*
X200160000Y-119816666D01*
X200112380Y-119721428D01*
X178665142Y-120022857D02*
X178712761Y-120070476D01*
X178760380Y-120213333D01*
X178760380Y-120308571D01*
X178712761Y-120451428D01*
X178617523Y-120546666D01*
X178522285Y-120594285D01*
X178331809Y-120641904D01*
X178188952Y-120641904D01*
X177998476Y-120594285D01*
X177903238Y-120546666D01*
X177808000Y-120451428D01*
X177760380Y-120308571D01*
X177760380Y-120213333D01*
X177808000Y-120070476D01*
X177855619Y-120022857D01*
X178760380Y-119070476D02*
X178760380Y-119641904D01*
X178760380Y-119356190D02*
X177760380Y-119356190D01*
X177903238Y-119451428D01*
X177998476Y-119546666D01*
X178046095Y-119641904D01*
X178760380Y-118594285D02*
X178760380Y-118403809D01*
X178712761Y-118308571D01*
X178665142Y-118260952D01*
X178522285Y-118165714D01*
X178331809Y-118118095D01*
X177950857Y-118118095D01*
X177855619Y-118165714D01*
X177808000Y-118213333D01*
X177760380Y-118308571D01*
X177760380Y-118499047D01*
X177808000Y-118594285D01*
X177855619Y-118641904D01*
X177950857Y-118689523D01*
X178188952Y-118689523D01*
X178284190Y-118641904D01*
X178331809Y-118594285D01*
X178379428Y-118499047D01*
X178379428Y-118308571D01*
X178331809Y-118213333D01*
X178284190Y-118165714D01*
X178188952Y-118118095D01*
X217273142Y-118117857D02*
X217320761Y-118165476D01*
X217368380Y-118308333D01*
X217368380Y-118403571D01*
X217320761Y-118546428D01*
X217225523Y-118641666D01*
X217130285Y-118689285D01*
X216939809Y-118736904D01*
X216796952Y-118736904D01*
X216606476Y-118689285D01*
X216511238Y-118641666D01*
X216416000Y-118546428D01*
X216368380Y-118403571D01*
X216368380Y-118308333D01*
X216416000Y-118165476D01*
X216463619Y-118117857D01*
X217368380Y-117165476D02*
X217368380Y-117736904D01*
X217368380Y-117451190D02*
X216368380Y-117451190D01*
X216511238Y-117546428D01*
X216606476Y-117641666D01*
X216654095Y-117736904D01*
X216796952Y-116594047D02*
X216749333Y-116689285D01*
X216701714Y-116736904D01*
X216606476Y-116784523D01*
X216558857Y-116784523D01*
X216463619Y-116736904D01*
X216416000Y-116689285D01*
X216368380Y-116594047D01*
X216368380Y-116403571D01*
X216416000Y-116308333D01*
X216463619Y-116260714D01*
X216558857Y-116213095D01*
X216606476Y-116213095D01*
X216701714Y-116260714D01*
X216749333Y-116308333D01*
X216796952Y-116403571D01*
X216796952Y-116594047D01*
X216844571Y-116689285D01*
X216892190Y-116736904D01*
X216987428Y-116784523D01*
X217177904Y-116784523D01*
X217273142Y-116736904D01*
X217320761Y-116689285D01*
X217368380Y-116594047D01*
X217368380Y-116403571D01*
X217320761Y-116308333D01*
X217273142Y-116260714D01*
X217177904Y-116213095D01*
X216987428Y-116213095D01*
X216892190Y-116260714D01*
X216844571Y-116308333D01*
X216796952Y-116403571D01*
X184002142Y-133597142D02*
X183954523Y-133644761D01*
X183811666Y-133692380D01*
X183716428Y-133692380D01*
X183573571Y-133644761D01*
X183478333Y-133549523D01*
X183430714Y-133454285D01*
X183383095Y-133263809D01*
X183383095Y-133120952D01*
X183430714Y-132930476D01*
X183478333Y-132835238D01*
X183573571Y-132740000D01*
X183716428Y-132692380D01*
X183811666Y-132692380D01*
X183954523Y-132740000D01*
X184002142Y-132787619D01*
X184954523Y-133692380D02*
X184383095Y-133692380D01*
X184668809Y-133692380D02*
X184668809Y-132692380D01*
X184573571Y-132835238D01*
X184478333Y-132930476D01*
X184383095Y-132978095D01*
X185287857Y-132692380D02*
X185954523Y-132692380D01*
X185525952Y-133692380D01*
X201541142Y-77319142D02*
X201493523Y-77366761D01*
X201350666Y-77414380D01*
X201255428Y-77414380D01*
X201112571Y-77366761D01*
X201017333Y-77271523D01*
X200969714Y-77176285D01*
X200922095Y-76985809D01*
X200922095Y-76842952D01*
X200969714Y-76652476D01*
X201017333Y-76557238D01*
X201112571Y-76462000D01*
X201255428Y-76414380D01*
X201350666Y-76414380D01*
X201493523Y-76462000D01*
X201541142Y-76509619D01*
X202493523Y-77414380D02*
X201922095Y-77414380D01*
X202207809Y-77414380D02*
X202207809Y-76414380D01*
X202112571Y-76557238D01*
X202017333Y-76652476D01*
X201922095Y-76700095D01*
X203350666Y-76414380D02*
X203160190Y-76414380D01*
X203064952Y-76462000D01*
X203017333Y-76509619D01*
X202922095Y-76652476D01*
X202874476Y-76842952D01*
X202874476Y-77223904D01*
X202922095Y-77319142D01*
X202969714Y-77366761D01*
X203064952Y-77414380D01*
X203255428Y-77414380D01*
X203350666Y-77366761D01*
X203398285Y-77319142D01*
X203445904Y-77223904D01*
X203445904Y-76985809D01*
X203398285Y-76890571D01*
X203350666Y-76842952D01*
X203255428Y-76795333D01*
X203064952Y-76795333D01*
X202969714Y-76842952D01*
X202922095Y-76890571D01*
X202874476Y-76985809D01*
X199493142Y-93860857D02*
X199540761Y-93908476D01*
X199588380Y-94051333D01*
X199588380Y-94146571D01*
X199540761Y-94289428D01*
X199445523Y-94384666D01*
X199350285Y-94432285D01*
X199159809Y-94479904D01*
X199016952Y-94479904D01*
X198826476Y-94432285D01*
X198731238Y-94384666D01*
X198636000Y-94289428D01*
X198588380Y-94146571D01*
X198588380Y-94051333D01*
X198636000Y-93908476D01*
X198683619Y-93860857D01*
X199588380Y-92908476D02*
X199588380Y-93479904D01*
X199588380Y-93194190D02*
X198588380Y-93194190D01*
X198731238Y-93289428D01*
X198826476Y-93384666D01*
X198874095Y-93479904D01*
X198588380Y-92003714D02*
X198588380Y-92479904D01*
X199064571Y-92527523D01*
X199016952Y-92479904D01*
X198969333Y-92384666D01*
X198969333Y-92146571D01*
X199016952Y-92051333D01*
X199064571Y-92003714D01*
X199159809Y-91956095D01*
X199397904Y-91956095D01*
X199493142Y-92003714D01*
X199540761Y-92051333D01*
X199588380Y-92146571D01*
X199588380Y-92384666D01*
X199540761Y-92479904D01*
X199493142Y-92527523D01*
X201271142Y-93860857D02*
X201318761Y-93908476D01*
X201366380Y-94051333D01*
X201366380Y-94146571D01*
X201318761Y-94289428D01*
X201223523Y-94384666D01*
X201128285Y-94432285D01*
X200937809Y-94479904D01*
X200794952Y-94479904D01*
X200604476Y-94432285D01*
X200509238Y-94384666D01*
X200414000Y-94289428D01*
X200366380Y-94146571D01*
X200366380Y-94051333D01*
X200414000Y-93908476D01*
X200461619Y-93860857D01*
X201366380Y-92908476D02*
X201366380Y-93479904D01*
X201366380Y-93194190D02*
X200366380Y-93194190D01*
X200509238Y-93289428D01*
X200604476Y-93384666D01*
X200652095Y-93479904D01*
X200699714Y-92051333D02*
X201366380Y-92051333D01*
X200318761Y-92289428D02*
X201033047Y-92527523D01*
X201033047Y-91908476D01*
X203049142Y-93860857D02*
X203096761Y-93908476D01*
X203144380Y-94051333D01*
X203144380Y-94146571D01*
X203096761Y-94289428D01*
X203001523Y-94384666D01*
X202906285Y-94432285D01*
X202715809Y-94479904D01*
X202572952Y-94479904D01*
X202382476Y-94432285D01*
X202287238Y-94384666D01*
X202192000Y-94289428D01*
X202144380Y-94146571D01*
X202144380Y-94051333D01*
X202192000Y-93908476D01*
X202239619Y-93860857D01*
X203144380Y-92908476D02*
X203144380Y-93479904D01*
X203144380Y-93194190D02*
X202144380Y-93194190D01*
X202287238Y-93289428D01*
X202382476Y-93384666D01*
X202430095Y-93479904D01*
X202144380Y-92575142D02*
X202144380Y-91956095D01*
X202525333Y-92289428D01*
X202525333Y-92146571D01*
X202572952Y-92051333D01*
X202620571Y-92003714D01*
X202715809Y-91956095D01*
X202953904Y-91956095D01*
X203049142Y-92003714D01*
X203096761Y-92051333D01*
X203144380Y-92146571D01*
X203144380Y-92432285D01*
X203096761Y-92527523D01*
X203049142Y-92575142D01*
X181729142Y-77429142D02*
X181681523Y-77476761D01*
X181538666Y-77524380D01*
X181443428Y-77524380D01*
X181300571Y-77476761D01*
X181205333Y-77381523D01*
X181157714Y-77286285D01*
X181110095Y-77095809D01*
X181110095Y-76952952D01*
X181157714Y-76762476D01*
X181205333Y-76667238D01*
X181300571Y-76572000D01*
X181443428Y-76524380D01*
X181538666Y-76524380D01*
X181681523Y-76572000D01*
X181729142Y-76619619D01*
X182681523Y-77524380D02*
X182110095Y-77524380D01*
X182395809Y-77524380D02*
X182395809Y-76524380D01*
X182300571Y-76667238D01*
X182205333Y-76762476D01*
X182110095Y-76810095D01*
X183062476Y-76619619D02*
X183110095Y-76572000D01*
X183205333Y-76524380D01*
X183443428Y-76524380D01*
X183538666Y-76572000D01*
X183586285Y-76619619D01*
X183633904Y-76714857D01*
X183633904Y-76810095D01*
X183586285Y-76952952D01*
X183014857Y-77524380D01*
X183633904Y-77524380D01*
X194303142Y-91574857D02*
X194350761Y-91622476D01*
X194398380Y-91765333D01*
X194398380Y-91860571D01*
X194350761Y-92003428D01*
X194255523Y-92098666D01*
X194160285Y-92146285D01*
X193969809Y-92193904D01*
X193826952Y-92193904D01*
X193636476Y-92146285D01*
X193541238Y-92098666D01*
X193446000Y-92003428D01*
X193398380Y-91860571D01*
X193398380Y-91765333D01*
X193446000Y-91622476D01*
X193493619Y-91574857D01*
X194398380Y-90622476D02*
X194398380Y-91193904D01*
X194398380Y-90908190D02*
X193398380Y-90908190D01*
X193541238Y-91003428D01*
X193636476Y-91098666D01*
X193684095Y-91193904D01*
X194398380Y-89670095D02*
X194398380Y-90241523D01*
X194398380Y-89955809D02*
X193398380Y-89955809D01*
X193541238Y-90051047D01*
X193636476Y-90146285D01*
X193684095Y-90241523D01*
X184269142Y-78733142D02*
X184221523Y-78780761D01*
X184078666Y-78828380D01*
X183983428Y-78828380D01*
X183840571Y-78780761D01*
X183745333Y-78685523D01*
X183697714Y-78590285D01*
X183650095Y-78399809D01*
X183650095Y-78256952D01*
X183697714Y-78066476D01*
X183745333Y-77971238D01*
X183840571Y-77876000D01*
X183983428Y-77828380D01*
X184078666Y-77828380D01*
X184221523Y-77876000D01*
X184269142Y-77923619D01*
X185221523Y-78828380D02*
X184650095Y-78828380D01*
X184935809Y-78828380D02*
X184935809Y-77828380D01*
X184840571Y-77971238D01*
X184745333Y-78066476D01*
X184650095Y-78114095D01*
X185840571Y-77828380D02*
X185935809Y-77828380D01*
X186031047Y-77876000D01*
X186078666Y-77923619D01*
X186126285Y-78018857D01*
X186173904Y-78209333D01*
X186173904Y-78447428D01*
X186126285Y-78637904D01*
X186078666Y-78733142D01*
X186031047Y-78780761D01*
X185935809Y-78828380D01*
X185840571Y-78828380D01*
X185745333Y-78780761D01*
X185697714Y-78733142D01*
X185650095Y-78637904D01*
X185602476Y-78447428D01*
X185602476Y-78209333D01*
X185650095Y-78018857D01*
X185697714Y-77923619D01*
X185745333Y-77876000D01*
X185840571Y-77828380D01*
X182713333Y-76049142D02*
X182665714Y-76096761D01*
X182522857Y-76144380D01*
X182427619Y-76144380D01*
X182284761Y-76096761D01*
X182189523Y-76001523D01*
X182141904Y-75906285D01*
X182094285Y-75715809D01*
X182094285Y-75572952D01*
X182141904Y-75382476D01*
X182189523Y-75287238D01*
X182284761Y-75192000D01*
X182427619Y-75144380D01*
X182522857Y-75144380D01*
X182665714Y-75192000D01*
X182713333Y-75239619D01*
X183189523Y-76144380D02*
X183380000Y-76144380D01*
X183475238Y-76096761D01*
X183522857Y-76049142D01*
X183618095Y-75906285D01*
X183665714Y-75715809D01*
X183665714Y-75334857D01*
X183618095Y-75239619D01*
X183570476Y-75192000D01*
X183475238Y-75144380D01*
X183284761Y-75144380D01*
X183189523Y-75192000D01*
X183141904Y-75239619D01*
X183094285Y-75334857D01*
X183094285Y-75572952D01*
X183141904Y-75668190D01*
X183189523Y-75715809D01*
X183284761Y-75763428D01*
X183475238Y-75763428D01*
X183570476Y-75715809D01*
X183618095Y-75668190D01*
X183665714Y-75572952D01*
X183491142Y-73572666D02*
X183538761Y-73620285D01*
X183586380Y-73763142D01*
X183586380Y-73858380D01*
X183538761Y-74001238D01*
X183443523Y-74096476D01*
X183348285Y-74144095D01*
X183157809Y-74191714D01*
X183014952Y-74191714D01*
X182824476Y-74144095D01*
X182729238Y-74096476D01*
X182634000Y-74001238D01*
X182586380Y-73858380D01*
X182586380Y-73763142D01*
X182634000Y-73620285D01*
X182681619Y-73572666D01*
X183014952Y-73001238D02*
X182967333Y-73096476D01*
X182919714Y-73144095D01*
X182824476Y-73191714D01*
X182776857Y-73191714D01*
X182681619Y-73144095D01*
X182634000Y-73096476D01*
X182586380Y-73001238D01*
X182586380Y-72810761D01*
X182634000Y-72715523D01*
X182681619Y-72667904D01*
X182776857Y-72620285D01*
X182824476Y-72620285D01*
X182919714Y-72667904D01*
X182967333Y-72715523D01*
X183014952Y-72810761D01*
X183014952Y-73001238D01*
X183062571Y-73096476D01*
X183110190Y-73144095D01*
X183205428Y-73191714D01*
X183395904Y-73191714D01*
X183491142Y-73144095D01*
X183538761Y-73096476D01*
X183586380Y-73001238D01*
X183586380Y-72810761D01*
X183538761Y-72715523D01*
X183491142Y-72667904D01*
X183395904Y-72620285D01*
X183205428Y-72620285D01*
X183110190Y-72667904D01*
X183062571Y-72715523D01*
X183014952Y-72810761D01*
X184761142Y-73572666D02*
X184808761Y-73620285D01*
X184856380Y-73763142D01*
X184856380Y-73858380D01*
X184808761Y-74001238D01*
X184713523Y-74096476D01*
X184618285Y-74144095D01*
X184427809Y-74191714D01*
X184284952Y-74191714D01*
X184094476Y-74144095D01*
X183999238Y-74096476D01*
X183904000Y-74001238D01*
X183856380Y-73858380D01*
X183856380Y-73763142D01*
X183904000Y-73620285D01*
X183951619Y-73572666D01*
X183856380Y-73239333D02*
X183856380Y-72572666D01*
X184856380Y-73001238D01*
X186031142Y-73600666D02*
X186078761Y-73648285D01*
X186126380Y-73791142D01*
X186126380Y-73886380D01*
X186078761Y-74029238D01*
X185983523Y-74124476D01*
X185888285Y-74172095D01*
X185697809Y-74219714D01*
X185554952Y-74219714D01*
X185364476Y-74172095D01*
X185269238Y-74124476D01*
X185174000Y-74029238D01*
X185126380Y-73886380D01*
X185126380Y-73791142D01*
X185174000Y-73648285D01*
X185221619Y-73600666D01*
X185126380Y-72743523D02*
X185126380Y-72934000D01*
X185174000Y-73029238D01*
X185221619Y-73076857D01*
X185364476Y-73172095D01*
X185554952Y-73219714D01*
X185935904Y-73219714D01*
X186031142Y-73172095D01*
X186078761Y-73124476D01*
X186126380Y-73029238D01*
X186126380Y-72838761D01*
X186078761Y-72743523D01*
X186031142Y-72695904D01*
X185935904Y-72648285D01*
X185697809Y-72648285D01*
X185602571Y-72695904D01*
X185554952Y-72743523D01*
X185507333Y-72838761D01*
X185507333Y-73029238D01*
X185554952Y-73124476D01*
X185602571Y-73172095D01*
X185697809Y-73219714D01*
X192889142Y-73318666D02*
X192936761Y-73366285D01*
X192984380Y-73509142D01*
X192984380Y-73604380D01*
X192936761Y-73747238D01*
X192841523Y-73842476D01*
X192746285Y-73890095D01*
X192555809Y-73937714D01*
X192412952Y-73937714D01*
X192222476Y-73890095D01*
X192127238Y-73842476D01*
X192032000Y-73747238D01*
X191984380Y-73604380D01*
X191984380Y-73509142D01*
X192032000Y-73366285D01*
X192079619Y-73318666D01*
X191984380Y-72413904D02*
X191984380Y-72890095D01*
X192460571Y-72937714D01*
X192412952Y-72890095D01*
X192365333Y-72794857D01*
X192365333Y-72556761D01*
X192412952Y-72461523D01*
X192460571Y-72413904D01*
X192555809Y-72366285D01*
X192793904Y-72366285D01*
X192889142Y-72413904D01*
X192936761Y-72461523D01*
X192984380Y-72556761D01*
X192984380Y-72794857D01*
X192936761Y-72890095D01*
X192889142Y-72937714D01*
X188809333Y-84287142D02*
X188761714Y-84334761D01*
X188618857Y-84382380D01*
X188523619Y-84382380D01*
X188380761Y-84334761D01*
X188285523Y-84239523D01*
X188237904Y-84144285D01*
X188190285Y-83953809D01*
X188190285Y-83810952D01*
X188237904Y-83620476D01*
X188285523Y-83525238D01*
X188380761Y-83430000D01*
X188523619Y-83382380D01*
X188618857Y-83382380D01*
X188761714Y-83430000D01*
X188809333Y-83477619D01*
X189666476Y-83715714D02*
X189666476Y-84382380D01*
X189428380Y-83334761D02*
X189190285Y-84049047D01*
X189809333Y-84049047D01*
X186269333Y-84177142D02*
X186221714Y-84224761D01*
X186078857Y-84272380D01*
X185983619Y-84272380D01*
X185840761Y-84224761D01*
X185745523Y-84129523D01*
X185697904Y-84034285D01*
X185650285Y-83843809D01*
X185650285Y-83700952D01*
X185697904Y-83510476D01*
X185745523Y-83415238D01*
X185840761Y-83320000D01*
X185983619Y-83272380D01*
X186078857Y-83272380D01*
X186221714Y-83320000D01*
X186269333Y-83367619D01*
X186602666Y-83272380D02*
X187221714Y-83272380D01*
X186888380Y-83653333D01*
X187031238Y-83653333D01*
X187126476Y-83700952D01*
X187174095Y-83748571D01*
X187221714Y-83843809D01*
X187221714Y-84081904D01*
X187174095Y-84177142D01*
X187126476Y-84224761D01*
X187031238Y-84272380D01*
X186745523Y-84272380D01*
X186650285Y-84224761D01*
X186602666Y-84177142D01*
X186269333Y-82653142D02*
X186221714Y-82700761D01*
X186078857Y-82748380D01*
X185983619Y-82748380D01*
X185840761Y-82700761D01*
X185745523Y-82605523D01*
X185697904Y-82510285D01*
X185650285Y-82319809D01*
X185650285Y-82176952D01*
X185697904Y-81986476D01*
X185745523Y-81891238D01*
X185840761Y-81796000D01*
X185983619Y-81748380D01*
X186078857Y-81748380D01*
X186221714Y-81796000D01*
X186269333Y-81843619D01*
X186650285Y-81843619D02*
X186697904Y-81796000D01*
X186793142Y-81748380D01*
X187031238Y-81748380D01*
X187126476Y-81796000D01*
X187174095Y-81843619D01*
X187221714Y-81938857D01*
X187221714Y-82034095D01*
X187174095Y-82176952D01*
X186602666Y-82748380D01*
X187221714Y-82748380D01*
X194143333Y-74779142D02*
X194095714Y-74826761D01*
X193952857Y-74874380D01*
X193857619Y-74874380D01*
X193714761Y-74826761D01*
X193619523Y-74731523D01*
X193571904Y-74636285D01*
X193524285Y-74445809D01*
X193524285Y-74302952D01*
X193571904Y-74112476D01*
X193619523Y-74017238D01*
X193714761Y-73922000D01*
X193857619Y-73874380D01*
X193952857Y-73874380D01*
X194095714Y-73922000D01*
X194143333Y-73969619D01*
X195095714Y-74874380D02*
X194524285Y-74874380D01*
X194810000Y-74874380D02*
X194810000Y-73874380D01*
X194714761Y-74017238D01*
X194619523Y-74112476D01*
X194524285Y-74160095D01*
X201112380Y-83478666D02*
X201112380Y-83954857D01*
X200112380Y-83954857D01*
X201112380Y-82621523D02*
X201112380Y-83192952D01*
X201112380Y-82907238D02*
X200112380Y-82907238D01*
X200255238Y-83002476D01*
X200350476Y-83097714D01*
X200398095Y-83192952D01*
X167746666Y-132202380D02*
X167746666Y-132916666D01*
X167699047Y-133059523D01*
X167603809Y-133154761D01*
X167460952Y-133202380D01*
X167365714Y-133202380D01*
X168127619Y-132202380D02*
X168794285Y-132202380D01*
X168365714Y-133202380D01*
X164854095Y-96387380D02*
X165425523Y-96387380D01*
X165139809Y-97387380D02*
X165139809Y-96387380D01*
X165758857Y-97387380D02*
X165758857Y-96387380D01*
X166139809Y-96387380D01*
X166235047Y-96435000D01*
X166282666Y-96482619D01*
X166330285Y-96577857D01*
X166330285Y-96720714D01*
X166282666Y-96815952D01*
X166235047Y-96863571D01*
X166139809Y-96911190D01*
X165758857Y-96911190D01*
X167282666Y-97387380D02*
X166711238Y-97387380D01*
X166996952Y-97387380D02*
X166996952Y-96387380D01*
X166901714Y-96530238D01*
X166806476Y-96625476D01*
X166711238Y-96673095D01*
X207454666Y-127404761D02*
X207597523Y-127452380D01*
X207835619Y-127452380D01*
X207930857Y-127404761D01*
X207978476Y-127357142D01*
X208026095Y-127261904D01*
X208026095Y-127166666D01*
X207978476Y-127071428D01*
X207930857Y-127023809D01*
X207835619Y-126976190D01*
X207645142Y-126928571D01*
X207549904Y-126880952D01*
X207502285Y-126833333D01*
X207454666Y-126738095D01*
X207454666Y-126642857D01*
X207502285Y-126547619D01*
X207549904Y-126500000D01*
X207645142Y-126452380D01*
X207883238Y-126452380D01*
X208026095Y-126500000D01*
X208359428Y-126452380D02*
X208597523Y-127452380D01*
X208788000Y-126738095D01*
X208978476Y-127452380D01*
X209216571Y-126452380D01*
X210121333Y-127452380D02*
X209549904Y-127452380D01*
X209835619Y-127452380D02*
X209835619Y-126452380D01*
X209740380Y-126595238D01*
X209645142Y-126690476D01*
X209549904Y-126738095D01*
X180768666Y-118197380D02*
X180768666Y-118911666D01*
X180721047Y-119054523D01*
X180625809Y-119149761D01*
X180482952Y-119197380D01*
X180387714Y-119197380D01*
X181292476Y-119197380D02*
X181482952Y-119197380D01*
X181578190Y-119149761D01*
X181625809Y-119102142D01*
X181721047Y-118959285D01*
X181768666Y-118768809D01*
X181768666Y-118387857D01*
X181721047Y-118292619D01*
X181673428Y-118245000D01*
X181578190Y-118197380D01*
X181387714Y-118197380D01*
X181292476Y-118245000D01*
X181244857Y-118292619D01*
X181197238Y-118387857D01*
X181197238Y-118625952D01*
X181244857Y-118721190D01*
X181292476Y-118768809D01*
X181387714Y-118816428D01*
X181578190Y-118816428D01*
X181673428Y-118768809D01*
X181721047Y-118721190D01*
X181768666Y-118625952D01*
X176450666Y-116800380D02*
X176450666Y-117514666D01*
X176403047Y-117657523D01*
X176307809Y-117752761D01*
X176164952Y-117800380D01*
X176069714Y-117800380D01*
X177069714Y-117228952D02*
X176974476Y-117181333D01*
X176926857Y-117133714D01*
X176879238Y-117038476D01*
X176879238Y-116990857D01*
X176926857Y-116895619D01*
X176974476Y-116848000D01*
X177069714Y-116800380D01*
X177260190Y-116800380D01*
X177355428Y-116848000D01*
X177403047Y-116895619D01*
X177450666Y-116990857D01*
X177450666Y-117038476D01*
X177403047Y-117133714D01*
X177355428Y-117181333D01*
X177260190Y-117228952D01*
X177069714Y-117228952D01*
X176974476Y-117276571D01*
X176926857Y-117324190D01*
X176879238Y-117419428D01*
X176879238Y-117609904D01*
X176926857Y-117705142D01*
X176974476Y-117752761D01*
X177069714Y-117800380D01*
X177260190Y-117800380D01*
X177355428Y-117752761D01*
X177403047Y-117705142D01*
X177450666Y-117609904D01*
X177450666Y-117419428D01*
X177403047Y-117324190D01*
X177355428Y-117276571D01*
X177260190Y-117228952D01*
X195834095Y-124420380D02*
X195834095Y-125229904D01*
X195881714Y-125325142D01*
X195929333Y-125372761D01*
X196024571Y-125420380D01*
X196215047Y-125420380D01*
X196310285Y-125372761D01*
X196357904Y-125325142D01*
X196405523Y-125229904D01*
X196405523Y-124420380D01*
X197310285Y-124753714D02*
X197310285Y-125420380D01*
X197072190Y-124372761D02*
X196834095Y-125087047D01*
X197453142Y-125087047D01*
X202200380Y-78565333D02*
X202914666Y-78565333D01*
X203057523Y-78612952D01*
X203152761Y-78708190D01*
X203200380Y-78851047D01*
X203200380Y-78946285D01*
X202200380Y-78184380D02*
X202200380Y-77565333D01*
X202581333Y-77898666D01*
X202581333Y-77755809D01*
X202628952Y-77660571D01*
X202676571Y-77612952D01*
X202771809Y-77565333D01*
X203009904Y-77565333D01*
X203105142Y-77612952D01*
X203152761Y-77660571D01*
X203200380Y-77755809D01*
X203200380Y-78041523D01*
X203152761Y-78136761D01*
X203105142Y-78184380D01*
X178920380Y-78565333D02*
X179634666Y-78565333D01*
X179777523Y-78612952D01*
X179872761Y-78708190D01*
X179920380Y-78851047D01*
X179920380Y-78946285D01*
X179015619Y-78136761D02*
X178968000Y-78089142D01*
X178920380Y-77993904D01*
X178920380Y-77755809D01*
X178968000Y-77660571D01*
X179015619Y-77612952D01*
X179110857Y-77565333D01*
X179206095Y-77565333D01*
X179348952Y-77612952D01*
X179920380Y-78184380D01*
X179920380Y-77565333D01*
X185674095Y-122388380D02*
X185674095Y-123197904D01*
X185721714Y-123293142D01*
X185769333Y-123340761D01*
X185864571Y-123388380D01*
X186055047Y-123388380D01*
X186150285Y-123340761D01*
X186197904Y-123293142D01*
X186245523Y-123197904D01*
X186245523Y-122388380D01*
X186674095Y-122483619D02*
X186721714Y-122436000D01*
X186816952Y-122388380D01*
X187055047Y-122388380D01*
X187150285Y-122436000D01*
X187197904Y-122483619D01*
X187245523Y-122578857D01*
X187245523Y-122674095D01*
X187197904Y-122816952D01*
X186626476Y-123388380D01*
X187245523Y-123388380D01*
X193772380Y-79247904D02*
X194581904Y-79247904D01*
X194677142Y-79200285D01*
X194724761Y-79152666D01*
X194772380Y-79057428D01*
X194772380Y-78866952D01*
X194724761Y-78771714D01*
X194677142Y-78724095D01*
X194581904Y-78676476D01*
X193772380Y-78676476D01*
X194772380Y-77676476D02*
X194772380Y-78247904D01*
X194772380Y-77962190D02*
X193772380Y-77962190D01*
X193915238Y-78057428D01*
X194010476Y-78152666D01*
X194058095Y-78247904D01*
X190404761Y-116879619D02*
X190309523Y-116832000D01*
X190214285Y-116736761D01*
X190071428Y-116593904D01*
X189976190Y-116546285D01*
X189880952Y-116546285D01*
X189928571Y-116784380D02*
X189833333Y-116736761D01*
X189738095Y-116641523D01*
X189690476Y-116451047D01*
X189690476Y-116117714D01*
X189738095Y-115927238D01*
X189833333Y-115832000D01*
X189928571Y-115784380D01*
X190119047Y-115784380D01*
X190214285Y-115832000D01*
X190309523Y-115927238D01*
X190357142Y-116117714D01*
X190357142Y-116451047D01*
X190309523Y-116641523D01*
X190214285Y-116736761D01*
X190119047Y-116784380D01*
X189928571Y-116784380D01*
X191214285Y-116117714D02*
X191214285Y-116784380D01*
X190976190Y-115736761D02*
X190738095Y-116451047D01*
X191357142Y-116451047D01*
X194468761Y-116879619D02*
X194373523Y-116832000D01*
X194278285Y-116736761D01*
X194135428Y-116593904D01*
X194040190Y-116546285D01*
X193944952Y-116546285D01*
X193992571Y-116784380D02*
X193897333Y-116736761D01*
X193802095Y-116641523D01*
X193754476Y-116451047D01*
X193754476Y-116117714D01*
X193802095Y-115927238D01*
X193897333Y-115832000D01*
X193992571Y-115784380D01*
X194183047Y-115784380D01*
X194278285Y-115832000D01*
X194373523Y-115927238D01*
X194421142Y-116117714D01*
X194421142Y-116451047D01*
X194373523Y-116641523D01*
X194278285Y-116736761D01*
X194183047Y-116784380D01*
X193992571Y-116784380D01*
X194754476Y-115784380D02*
X195373523Y-115784380D01*
X195040190Y-116165333D01*
X195183047Y-116165333D01*
X195278285Y-116212952D01*
X195325904Y-116260571D01*
X195373523Y-116355809D01*
X195373523Y-116593904D01*
X195325904Y-116689142D01*
X195278285Y-116736761D01*
X195183047Y-116784380D01*
X194897333Y-116784380D01*
X194802095Y-116736761D01*
X194754476Y-116689142D01*
X198532761Y-116879619D02*
X198437523Y-116832000D01*
X198342285Y-116736761D01*
X198199428Y-116593904D01*
X198104190Y-116546285D01*
X198008952Y-116546285D01*
X198056571Y-116784380D02*
X197961333Y-116736761D01*
X197866095Y-116641523D01*
X197818476Y-116451047D01*
X197818476Y-116117714D01*
X197866095Y-115927238D01*
X197961333Y-115832000D01*
X198056571Y-115784380D01*
X198247047Y-115784380D01*
X198342285Y-115832000D01*
X198437523Y-115927238D01*
X198485142Y-116117714D01*
X198485142Y-116451047D01*
X198437523Y-116641523D01*
X198342285Y-116736761D01*
X198247047Y-116784380D01*
X198056571Y-116784380D01*
X198866095Y-115879619D02*
X198913714Y-115832000D01*
X199008952Y-115784380D01*
X199247047Y-115784380D01*
X199342285Y-115832000D01*
X199389904Y-115879619D01*
X199437523Y-115974857D01*
X199437523Y-116070095D01*
X199389904Y-116212952D01*
X198818476Y-116784380D01*
X199437523Y-116784380D01*
X206660761Y-113831619D02*
X206565523Y-113784000D01*
X206470285Y-113688761D01*
X206327428Y-113545904D01*
X206232190Y-113498285D01*
X206136952Y-113498285D01*
X206184571Y-113736380D02*
X206089333Y-113688761D01*
X205994095Y-113593523D01*
X205946476Y-113403047D01*
X205946476Y-113069714D01*
X205994095Y-112879238D01*
X206089333Y-112784000D01*
X206184571Y-112736380D01*
X206375047Y-112736380D01*
X206470285Y-112784000D01*
X206565523Y-112879238D01*
X206613142Y-113069714D01*
X206613142Y-113403047D01*
X206565523Y-113593523D01*
X206470285Y-113688761D01*
X206375047Y-113736380D01*
X206184571Y-113736380D01*
X207565523Y-113736380D02*
X206994095Y-113736380D01*
X207279809Y-113736380D02*
X207279809Y-112736380D01*
X207184571Y-112879238D01*
X207089333Y-112974476D01*
X206994095Y-113022095D01*
X176958666Y-114260380D02*
X176958666Y-114974666D01*
X176911047Y-115117523D01*
X176815809Y-115212761D01*
X176672952Y-115260380D01*
X176577714Y-115260380D01*
X177863428Y-114593714D02*
X177863428Y-115260380D01*
X177625333Y-114212761D02*
X177387238Y-114927047D01*
X178006285Y-114927047D01*
X164766666Y-93432380D02*
X164766666Y-94146666D01*
X164719047Y-94289523D01*
X164623809Y-94384761D01*
X164480952Y-94432380D01*
X164385714Y-94432380D01*
X165766666Y-94432380D02*
X165195238Y-94432380D01*
X165480952Y-94432380D02*
X165480952Y-93432380D01*
X165385714Y-93575238D01*
X165290476Y-93670476D01*
X165195238Y-93718095D01*
X178212857Y-97377123D02*
X178212857Y-96737123D01*
X178365238Y-96737123D01*
X178456666Y-96767600D01*
X178517619Y-96828552D01*
X178548095Y-96889504D01*
X178578571Y-97011409D01*
X178578571Y-97102838D01*
X178548095Y-97224742D01*
X178517619Y-97285695D01*
X178456666Y-97346647D01*
X178365238Y-97377123D01*
X178212857Y-97377123D01*
X178822380Y-97346647D02*
X178913809Y-97377123D01*
X179066190Y-97377123D01*
X179127142Y-97346647D01*
X179157619Y-97316171D01*
X179188095Y-97255219D01*
X179188095Y-97194266D01*
X179157619Y-97133314D01*
X179127142Y-97102838D01*
X179066190Y-97072361D01*
X178944285Y-97041885D01*
X178883333Y-97011409D01*
X178852857Y-96980933D01*
X178822380Y-96919980D01*
X178822380Y-96859028D01*
X178852857Y-96798076D01*
X178883333Y-96767600D01*
X178944285Y-96737123D01*
X179096666Y-96737123D01*
X179188095Y-96767600D01*
X179797619Y-97377123D02*
X179431904Y-97377123D01*
X179614761Y-97377123D02*
X179614761Y-96737123D01*
X179553809Y-96828552D01*
X179492857Y-96889504D01*
X179431904Y-96919980D01*
X201478095Y-106132380D02*
X202049523Y-106132380D01*
X201763809Y-107132380D02*
X201763809Y-106132380D01*
X202382857Y-107132380D02*
X202382857Y-106132380D01*
X202620952Y-106132380D01*
X202763809Y-106180000D01*
X202859047Y-106275238D01*
X202906666Y-106370476D01*
X202954285Y-106560952D01*
X202954285Y-106703809D01*
X202906666Y-106894285D01*
X202859047Y-106989523D01*
X202763809Y-107084761D01*
X202620952Y-107132380D01*
X202382857Y-107132380D01*
X203954285Y-107037142D02*
X203906666Y-107084761D01*
X203763809Y-107132380D01*
X203668571Y-107132380D01*
X203525714Y-107084761D01*
X203430476Y-106989523D01*
X203382857Y-106894285D01*
X203335238Y-106703809D01*
X203335238Y-106560952D01*
X203382857Y-106370476D01*
X203430476Y-106275238D01*
X203525714Y-106180000D01*
X203668571Y-106132380D01*
X203763809Y-106132380D01*
X203906666Y-106180000D01*
X203954285Y-106227619D01*
X204906666Y-106180000D02*
X204811428Y-106132380D01*
X204668571Y-106132380D01*
X204525714Y-106180000D01*
X204430476Y-106275238D01*
X204382857Y-106370476D01*
X204335238Y-106560952D01*
X204335238Y-106703809D01*
X204382857Y-106894285D01*
X204430476Y-106989523D01*
X204525714Y-107084761D01*
X204668571Y-107132380D01*
X204763809Y-107132380D01*
X204906666Y-107084761D01*
X204954285Y-107037142D01*
X204954285Y-106703809D01*
X204763809Y-106703809D01*
X205906666Y-107132380D02*
X205335238Y-107132380D01*
X205620952Y-107132380D02*
X205620952Y-106132380D01*
X205525714Y-106275238D01*
X205430476Y-106370476D01*
X205335238Y-106418095D01*
X206525714Y-106132380D02*
X206620952Y-106132380D01*
X206716190Y-106180000D01*
X206763809Y-106227619D01*
X206811428Y-106322857D01*
X206859047Y-106513333D01*
X206859047Y-106751428D01*
X206811428Y-106941904D01*
X206763809Y-107037142D01*
X206716190Y-107084761D01*
X206620952Y-107132380D01*
X206525714Y-107132380D01*
X206430476Y-107084761D01*
X206382857Y-107037142D01*
X206335238Y-106941904D01*
X206287619Y-106751428D01*
X206287619Y-106513333D01*
X206335238Y-106322857D01*
X206382857Y-106227619D01*
X206430476Y-106180000D01*
X206525714Y-106132380D01*
X207716190Y-106132380D02*
X207525714Y-106132380D01*
X207430476Y-106180000D01*
X207382857Y-106227619D01*
X207287619Y-106370476D01*
X207240000Y-106560952D01*
X207240000Y-106941904D01*
X207287619Y-107037142D01*
X207335238Y-107084761D01*
X207430476Y-107132380D01*
X207620952Y-107132380D01*
X207716190Y-107084761D01*
X207763809Y-107037142D01*
X207811428Y-106941904D01*
X207811428Y-106703809D01*
X207763809Y-106608571D01*
X207716190Y-106560952D01*
X207620952Y-106513333D01*
X207430476Y-106513333D01*
X207335238Y-106560952D01*
X207287619Y-106608571D01*
X207240000Y-106703809D01*
X208430476Y-106132380D02*
X208525714Y-106132380D01*
X208620952Y-106180000D01*
X208668571Y-106227619D01*
X208716190Y-106322857D01*
X208763809Y-106513333D01*
X208763809Y-106751428D01*
X208716190Y-106941904D01*
X208668571Y-107037142D01*
X208620952Y-107084761D01*
X208525714Y-107132380D01*
X208430476Y-107132380D01*
X208335238Y-107084761D01*
X208287619Y-107037142D01*
X208240000Y-106941904D01*
X208192380Y-106751428D01*
X208192380Y-106513333D01*
X208240000Y-106322857D01*
X208287619Y-106227619D01*
X208335238Y-106180000D01*
X208430476Y-106132380D01*
X209192380Y-107132380D02*
X209192380Y-106132380D01*
X209525714Y-106846666D01*
X209859047Y-106132380D01*
X209859047Y-107132380D01*
M02*
